<svg width="280" height="150" viewBox="0 0 280 150" fill="none" xmlns="http://www.w3.org/2000/svg">
    <rect width="87" height="20" transform="translate(97 16)" fill="#F968F3"/>
    <path d="M117.574 23.9102H115.24C115.198 23.6083 115.111 23.3402 114.979 23.1058C114.848 22.8679 114.679 22.6655 114.473 22.4986C114.267 22.3317 114.029 22.2038 113.76 22.1151C113.493 22.0263 113.204 21.9819 112.891 21.9819C112.327 21.9819 111.835 22.1222 111.416 22.4027C110.997 22.6797 110.672 23.0845 110.441 23.6172C110.21 24.1463 110.095 24.7891 110.095 25.5455C110.095 26.3232 110.21 26.9766 110.441 27.5057C110.675 28.0348 111.002 28.4343 111.421 28.7042C111.84 28.9741 112.325 29.109 112.875 29.109C113.184 29.109 113.47 29.0682 113.733 28.9865C113.999 28.9048 114.235 28.7859 114.441 28.6296C114.647 28.4698 114.818 28.2763 114.953 28.049C115.091 27.8217 115.187 27.5625 115.24 27.2713L117.574 27.282C117.513 27.7827 117.362 28.2656 117.121 28.7308C116.883 29.1925 116.561 29.6062 116.157 29.9719C115.755 30.3342 115.276 30.6218 114.718 30.8349C114.164 31.0444 113.538 31.1491 112.838 31.1491C111.865 31.1491 110.995 30.929 110.228 30.4886C109.464 30.0483 108.861 29.4109 108.417 28.5763C107.977 27.7418 107.756 26.7315 107.756 25.5455C107.756 24.3558 107.98 23.3438 108.428 22.5092C108.875 21.6747 109.482 21.0391 110.249 20.6023C111.016 20.1619 111.879 19.9418 112.838 19.9418C113.47 19.9418 114.056 20.0305 114.596 20.2081C115.139 20.3857 115.62 20.6449 116.039 20.9858C116.458 21.3232 116.799 21.7369 117.062 22.2269C117.328 22.717 117.499 23.2781 117.574 23.9102ZM122.882 31.1598C122.054 31.1598 121.339 30.984 120.735 30.6325C120.135 30.2773 119.671 29.7837 119.345 29.1516C119.018 28.516 118.855 27.7791 118.855 26.9411C118.855 26.0959 119.018 25.3572 119.345 24.7251C119.671 24.0895 120.135 23.5959 120.735 23.2443C121.339 22.8892 122.054 22.7116 122.882 22.7116C123.709 22.7116 124.423 22.8892 125.023 23.2443C125.627 23.5959 126.092 24.0895 126.419 24.7251C126.745 25.3572 126.909 26.0959 126.909 26.9411C126.909 27.7791 126.745 28.516 126.419 29.1516C126.092 29.7837 125.627 30.2773 125.023 30.6325C124.423 30.984 123.709 31.1598 122.882 31.1598ZM122.892 29.402C123.269 29.402 123.583 29.2955 123.835 29.0824C124.087 28.8658 124.277 28.571 124.405 28.1982C124.536 27.8253 124.602 27.4009 124.602 26.9251C124.602 26.4492 124.536 26.0249 124.405 25.652C124.277 25.2791 124.087 24.9844 123.835 24.7678C123.583 24.5511 123.269 24.4428 122.892 24.4428C122.512 24.4428 122.193 24.5511 121.933 24.7678C121.678 24.9844 121.484 25.2791 121.353 25.652C121.225 26.0249 121.161 26.4492 121.161 26.9251C121.161 27.4009 121.225 27.8253 121.353 28.1982C121.484 28.571 121.678 28.8658 121.933 29.0824C122.193 29.2955 122.512 29.402 122.892 29.402ZM130.653 26.2699V31H128.384V22.8182H130.547V24.2617H130.643C130.824 23.7859 131.127 23.4094 131.553 23.1325C131.98 22.8519 132.496 22.7116 133.104 22.7116C133.672 22.7116 134.167 22.8359 134.59 23.0845C135.012 23.3331 135.341 23.6882 135.575 24.1499C135.809 24.608 135.927 25.1548 135.927 25.7905V31H133.657V26.1953C133.661 25.6946 133.533 25.304 133.274 25.0234C133.015 24.7393 132.658 24.5973 132.203 24.5973C131.898 24.5973 131.628 24.663 131.394 24.7944C131.163 24.9258 130.982 25.1175 130.85 25.3697C130.722 25.6183 130.657 25.9183 130.653 26.2699ZM144.523 25.1513L142.445 25.2791C142.41 25.1016 142.333 24.9418 142.216 24.7997C142.099 24.6541 141.945 24.5387 141.753 24.4535C141.565 24.3647 141.339 24.3203 141.076 24.3203C140.725 24.3203 140.428 24.3949 140.187 24.544C139.945 24.6896 139.824 24.8849 139.824 25.13C139.824 25.3253 139.903 25.4904 140.059 25.6254C140.215 25.7603 140.483 25.8686 140.863 25.9503L142.344 26.2486C143.139 26.4119 143.733 26.6747 144.123 27.0369C144.514 27.3991 144.709 27.875 144.709 28.4645C144.709 29.0007 144.551 29.4712 144.235 29.8761C143.922 30.2809 143.493 30.5969 142.946 30.8242C142.403 31.0479 141.776 31.1598 141.066 31.1598C139.983 31.1598 139.12 30.9343 138.477 30.4833C137.838 30.0288 137.463 29.4109 137.353 28.6296L139.585 28.5124C139.652 28.8427 139.816 29.0948 140.075 29.2688C140.334 29.4393 140.666 29.5245 141.071 29.5245C141.469 29.5245 141.788 29.4482 142.03 29.2955C142.275 29.1392 142.399 28.9386 142.403 28.6935C142.399 28.4876 142.312 28.3189 142.142 28.1875C141.971 28.0526 141.708 27.9496 141.353 27.8786L139.936 27.5962C139.137 27.4364 138.543 27.1594 138.152 26.7653C137.765 26.3711 137.571 25.8686 137.571 25.2578C137.571 24.7322 137.713 24.2795 137.997 23.8995C138.285 23.5195 138.688 23.2266 139.207 23.0206C139.729 22.8146 140.339 22.7116 141.039 22.7116C142.072 22.7116 142.886 22.93 143.479 23.3668C144.075 23.8036 144.423 24.3984 144.523 25.1513ZM151.385 27.5163V22.8182H153.654V31H151.475V29.5138H151.39C151.205 29.9933 150.898 30.3786 150.469 30.6697C150.042 30.9609 149.522 31.1065 148.908 31.1065C148.361 31.1065 147.88 30.9822 147.464 30.7337C147.049 30.4851 146.724 30.1317 146.49 29.6737C146.259 29.2156 146.142 28.6669 146.138 28.0277V22.8182H148.407V27.6229C148.411 28.1058 148.54 28.4876 148.796 28.7681C149.052 29.0487 149.394 29.1889 149.824 29.1889C150.097 29.1889 150.353 29.1268 150.591 29.0025C150.829 28.8746 151.021 28.6864 151.166 28.4379C151.316 28.1893 151.388 27.8821 151.385 27.5163ZM157.738 20.0909V31H155.469V20.0909H157.738ZM163.908 22.8182V24.5227H158.981V22.8182H163.908ZM160.099 20.858H162.368V28.4858C162.368 28.6953 162.4 28.8587 162.464 28.9759C162.528 29.0895 162.617 29.1694 162.731 29.2156C162.848 29.2617 162.983 29.2848 163.135 29.2848C163.242 29.2848 163.349 29.2759 163.455 29.2582C163.562 29.2369 163.643 29.2209 163.7 29.2102L164.057 30.8988C163.943 30.9343 163.784 30.9751 163.578 31.0213C163.372 31.071 163.121 31.1012 162.827 31.1119C162.28 31.1332 161.8 31.0604 161.388 30.8935C160.98 30.7266 160.662 30.4673 160.435 30.1158C160.208 29.7642 160.096 29.3203 160.099 28.7841V20.858ZM167.719 31.1545C167.197 31.1545 166.732 31.0639 166.324 30.8828C165.915 30.6982 165.592 30.4265 165.354 30.0678C165.12 29.7056 165.002 29.2546 165.002 28.7148C165.002 28.2603 165.086 27.8786 165.253 27.5696C165.42 27.2607 165.647 27.0121 165.935 26.8239C166.222 26.6357 166.549 26.4936 166.915 26.3977C167.284 26.3018 167.671 26.2344 168.076 26.1953C168.552 26.1456 168.935 26.0994 169.227 26.0568C169.518 26.0107 169.729 25.9432 169.86 25.8544C169.992 25.7656 170.058 25.6342 170.058 25.4602V25.4283C170.058 25.0909 169.951 24.8299 169.738 24.6452C169.528 24.4606 169.23 24.3683 168.843 24.3683C168.435 24.3683 168.11 24.4588 167.868 24.6399C167.627 24.8175 167.467 25.0412 167.389 25.3111L165.29 25.1406C165.397 24.6435 165.606 24.2138 165.919 23.8516C166.231 23.4858 166.634 23.2053 167.128 23.0099C167.625 22.8111 168.2 22.7116 168.854 22.7116C169.308 22.7116 169.743 22.7649 170.159 22.8714C170.578 22.978 170.949 23.1431 171.272 23.3668C171.599 23.5906 171.856 23.8782 172.044 24.2298C172.233 24.5778 172.327 24.995 172.327 25.4815V31H170.175V29.8654H170.111C169.979 30.1211 169.804 30.3466 169.583 30.5419C169.363 30.7337 169.099 30.8846 168.79 30.9947C168.481 31.1012 168.124 31.1545 167.719 31.1545ZM168.369 29.5884C168.703 29.5884 168.998 29.5227 169.253 29.3913C169.509 29.2564 169.71 29.0753 169.855 28.848C170.001 28.6207 170.074 28.3633 170.074 28.0756V27.2074C170.002 27.2536 169.905 27.2962 169.781 27.3352C169.66 27.3707 169.523 27.4045 169.37 27.4364C169.218 27.4648 169.065 27.4915 168.912 27.5163C168.76 27.5376 168.621 27.5572 168.497 27.5749C168.23 27.614 167.998 27.6761 167.799 27.7614C167.6 27.8466 167.446 27.962 167.336 28.1076C167.225 28.2496 167.17 28.4272 167.17 28.6403C167.17 28.9492 167.282 29.1854 167.506 29.3487C167.733 29.5085 168.021 29.5884 168.369 29.5884Z" fill="black"/>
    <rect width="105" height="20" transform="translate(88 110)" fill="#F968F3"/>
    <path d="M108.574 117.91H106.24C106.198 117.608 106.111 117.34 105.979 117.106C105.848 116.868 105.679 116.665 105.473 116.499C105.267 116.332 105.029 116.204 104.76 116.115C104.493 116.026 104.204 115.982 103.891 115.982C103.327 115.982 102.835 116.122 102.416 116.403C101.997 116.68 101.672 117.085 101.441 117.617C101.21 118.146 101.095 118.789 101.095 119.545C101.095 120.323 101.21 120.977 101.441 121.506C101.675 122.035 102.002 122.434 102.421 122.704C102.84 122.974 103.325 123.109 103.875 123.109C104.184 123.109 104.47 123.068 104.733 122.987C104.999 122.905 105.235 122.786 105.441 122.63C105.647 122.47 105.818 122.276 105.953 122.049C106.091 121.822 106.187 121.562 106.24 121.271L108.574 121.282C108.513 121.783 108.362 122.266 108.121 122.731C107.883 123.192 107.561 123.606 107.157 123.972C106.755 124.334 106.276 124.622 105.718 124.835C105.164 125.044 104.538 125.149 103.838 125.149C102.865 125.149 101.995 124.929 101.228 124.489C100.464 124.048 99.8608 123.411 99.4169 122.576C98.9766 121.742 98.7564 120.732 98.7564 119.545C98.7564 118.356 98.9801 117.344 99.4276 116.509C99.875 115.675 100.482 115.039 101.249 114.602C102.016 114.162 102.879 113.942 103.838 113.942C104.47 113.942 105.056 114.031 105.596 114.208C106.139 114.386 106.62 114.645 107.039 114.986C107.458 115.323 107.799 115.737 108.062 116.227C108.328 116.717 108.499 117.278 108.574 117.91ZM113.882 125.16C113.054 125.16 112.339 124.984 111.735 124.632C111.135 124.277 110.671 123.784 110.345 123.152C110.018 122.516 109.855 121.779 109.855 120.941C109.855 120.096 110.018 119.357 110.345 118.725C110.671 118.089 111.135 117.596 111.735 117.244C112.339 116.889 113.054 116.712 113.882 116.712C114.709 116.712 115.423 116.889 116.023 117.244C116.627 117.596 117.092 118.089 117.419 118.725C117.745 119.357 117.909 120.096 117.909 120.941C117.909 121.779 117.745 122.516 117.419 123.152C117.092 123.784 116.627 124.277 116.023 124.632C115.423 124.984 114.709 125.16 113.882 125.16ZM113.892 123.402C114.269 123.402 114.583 123.295 114.835 123.082C115.087 122.866 115.277 122.571 115.405 122.198C115.536 121.825 115.602 121.401 115.602 120.925C115.602 120.449 115.536 120.025 115.405 119.652C115.277 119.279 115.087 118.984 114.835 118.768C114.583 118.551 114.269 118.443 113.892 118.443C113.512 118.443 113.193 118.551 112.933 118.768C112.678 118.984 112.484 119.279 112.353 119.652C112.225 120.025 112.161 120.449 112.161 120.925C112.161 121.401 112.225 121.825 112.353 122.198C112.484 122.571 112.678 122.866 112.933 123.082C113.193 123.295 113.512 123.402 113.892 123.402ZM119.384 125V116.818H121.547V118.262H121.643C121.813 117.782 122.097 117.404 122.495 117.127C122.893 116.85 123.368 116.712 123.922 116.712C124.483 116.712 124.961 116.852 125.355 117.132C125.749 117.409 126.012 117.786 126.144 118.262H126.229C126.396 117.793 126.698 117.418 127.134 117.138C127.575 116.854 128.095 116.712 128.695 116.712C129.459 116.712 130.078 116.955 130.554 117.441C131.034 117.924 131.273 118.61 131.273 119.498V125H129.009V119.945C129.009 119.49 128.889 119.15 128.647 118.922C128.406 118.695 128.104 118.581 127.742 118.581C127.33 118.581 127.008 118.713 126.778 118.975C126.547 119.235 126.431 119.577 126.431 120.004V125H124.231V119.897C124.231 119.496 124.116 119.176 123.885 118.938C123.658 118.7 123.358 118.581 122.985 118.581C122.733 118.581 122.506 118.645 122.303 118.773C122.104 118.897 121.946 119.073 121.829 119.3C121.712 119.524 121.653 119.787 121.653 120.089V125H119.384ZM133.066 125V116.818H135.228V118.262H135.324C135.495 117.782 135.779 117.404 136.176 117.127C136.574 116.85 137.05 116.712 137.604 116.712C138.165 116.712 138.643 116.852 139.037 117.132C139.431 117.409 139.694 117.786 139.825 118.262H139.911C140.077 117.793 140.379 117.418 140.816 117.138C141.256 116.854 141.777 116.712 142.377 116.712C143.14 116.712 143.76 116.955 144.236 117.441C144.715 117.924 144.955 118.61 144.955 119.498V125H142.691V119.945C142.691 119.49 142.57 119.15 142.329 118.922C142.087 118.695 141.786 118.581 141.423 118.581C141.011 118.581 140.69 118.713 140.459 118.975C140.228 119.235 140.113 119.577 140.113 120.004V125H137.913V119.897C137.913 119.496 137.798 119.176 137.567 118.938C137.339 118.7 137.039 118.581 136.667 118.581C136.414 118.581 136.187 118.645 135.985 118.773C135.786 118.897 135.628 119.073 135.511 119.3C135.393 119.524 135.335 119.787 135.335 120.089V125H133.066ZM149.08 125.154C148.558 125.154 148.093 125.064 147.685 124.883C147.276 124.698 146.953 124.426 146.715 124.068C146.481 123.706 146.364 123.255 146.364 122.715C146.364 122.26 146.447 121.879 146.614 121.57C146.781 121.261 147.008 121.012 147.296 120.824C147.584 120.636 147.91 120.494 148.276 120.398C148.645 120.302 149.032 120.234 149.437 120.195C149.913 120.146 150.297 120.099 150.588 120.057C150.879 120.011 151.09 119.943 151.222 119.854C151.353 119.766 151.419 119.634 151.419 119.46V119.428C151.419 119.091 151.312 118.83 151.099 118.645C150.89 118.461 150.591 118.368 150.204 118.368C149.796 118.368 149.471 118.459 149.23 118.64C148.988 118.817 148.828 119.041 148.75 119.311L146.651 119.141C146.758 118.643 146.968 118.214 147.28 117.852C147.593 117.486 147.996 117.205 148.489 117.01C148.986 116.811 149.562 116.712 150.215 116.712C150.67 116.712 151.105 116.765 151.52 116.871C151.939 116.978 152.31 117.143 152.633 117.367C152.96 117.591 153.218 117.878 153.406 118.23C153.594 118.578 153.688 118.995 153.688 119.482V125H151.536V123.865H151.472C151.341 124.121 151.165 124.347 150.945 124.542C150.725 124.734 150.46 124.885 150.151 124.995C149.842 125.101 149.485 125.154 149.08 125.154ZM149.73 123.588C150.064 123.588 150.359 123.523 150.615 123.391C150.87 123.256 151.071 123.075 151.216 122.848C151.362 122.621 151.435 122.363 151.435 122.076V121.207C151.364 121.254 151.266 121.296 151.142 121.335C151.021 121.371 150.884 121.404 150.732 121.436C150.579 121.465 150.426 121.491 150.274 121.516C150.121 121.538 149.982 121.557 149.858 121.575C149.592 121.614 149.359 121.676 149.16 121.761C148.961 121.847 148.807 121.962 148.697 122.108C148.587 122.25 148.532 122.427 148.532 122.64C148.532 122.949 148.644 123.185 148.867 123.349C149.095 123.509 149.382 123.588 149.73 123.588ZM157.718 120.27V125H155.449V116.818H157.611V118.262H157.707C157.888 117.786 158.192 117.409 158.618 117.132C159.044 116.852 159.561 116.712 160.168 116.712C160.736 116.712 161.232 116.836 161.654 117.085C162.077 117.333 162.405 117.688 162.64 118.15C162.874 118.608 162.991 119.155 162.991 119.79V125H160.722V120.195C160.725 119.695 160.598 119.304 160.338 119.023C160.079 118.739 159.722 118.597 159.268 118.597C158.962 118.597 158.692 118.663 158.458 118.794C158.227 118.926 158.046 119.118 157.915 119.37C157.787 119.618 157.721 119.918 157.718 120.27ZM167.794 125.133C167.173 125.133 166.61 124.973 166.106 124.654C165.605 124.331 165.207 123.857 164.913 123.232C164.622 122.603 164.476 121.832 164.476 120.92C164.476 119.982 164.627 119.203 164.929 118.581C165.231 117.956 165.632 117.489 166.133 117.18C166.637 116.868 167.189 116.712 167.789 116.712C168.247 116.712 168.629 116.79 168.934 116.946C169.243 117.099 169.492 117.29 169.68 117.521C169.872 117.749 170.017 117.972 170.117 118.192H170.186V114.091H172.45V125H170.213V123.69H170.117C170.01 123.917 169.859 124.142 169.664 124.366C169.472 124.586 169.222 124.769 168.913 124.915C168.608 125.06 168.235 125.133 167.794 125.133ZM168.514 123.327C168.879 123.327 169.188 123.228 169.44 123.029C169.696 122.827 169.891 122.544 170.026 122.182C170.165 121.82 170.234 121.396 170.234 120.909C170.234 120.423 170.167 120 170.032 119.641C169.897 119.283 169.701 119.006 169.446 118.81C169.19 118.615 168.879 118.517 168.514 118.517C168.141 118.517 167.826 118.619 167.571 118.821C167.315 119.023 167.122 119.304 166.99 119.663C166.859 120.021 166.793 120.437 166.793 120.909C166.793 121.385 166.859 121.806 166.99 122.172C167.125 122.534 167.319 122.818 167.571 123.024C167.826 123.226 168.141 123.327 168.514 123.327ZM178.012 125.16C177.185 125.16 176.469 124.984 175.866 124.632C175.266 124.277 174.802 123.784 174.475 123.152C174.149 122.516 173.985 121.779 173.985 120.941C173.985 120.096 174.149 119.357 174.475 118.725C174.802 118.089 175.266 117.596 175.866 117.244C176.469 116.889 177.185 116.712 178.012 116.712C178.84 116.712 179.554 116.889 180.154 117.244C180.757 117.596 181.223 118.089 181.549 118.725C181.876 119.357 182.039 120.096 182.039 120.941C182.039 121.779 181.876 122.516 181.549 123.152C181.223 123.784 180.757 124.277 180.154 124.632C179.554 124.984 178.84 125.16 178.012 125.16ZM178.023 123.402C178.4 123.402 178.714 123.295 178.966 123.082C179.218 122.866 179.408 122.571 179.536 122.198C179.667 121.825 179.733 121.401 179.733 120.925C179.733 120.449 179.667 120.025 179.536 119.652C179.408 119.279 179.218 118.984 178.966 118.768C178.714 118.551 178.4 118.443 178.023 118.443C177.643 118.443 177.324 118.551 177.064 118.768C176.809 118.984 176.615 119.279 176.484 119.652C176.356 120.025 176.292 120.449 176.292 120.925C176.292 121.401 176.356 121.825 176.484 122.198C176.615 122.571 176.809 122.866 177.064 123.082C177.324 123.295 177.643 123.402 178.023 123.402Z" fill="black"/>
    <rect width="40" height="150" fill="#00C7FF"/>
    <path d="M19.6864 69.0909H21.9929V76.1754C21.9929 76.9709 21.8029 77.6669 21.4229 78.2635C21.0465 78.8601 20.5192 79.3253 19.8409 79.6591C19.1626 79.9893 18.3725 80.1545 17.4705 80.1545C16.565 80.1545 15.7731 79.9893 15.0948 79.6591C14.4165 79.3253 13.8892 78.8601 13.5128 78.2635C13.1364 77.6669 12.9482 76.9709 12.9482 76.1754V69.0909H15.2546V75.9783C15.2546 76.3938 15.3452 76.7631 15.5263 77.0863C15.7109 77.4094 15.9702 77.6634 16.304 77.848C16.6378 78.0327 17.0266 78.125 17.4705 78.125C17.918 78.125 18.3068 78.0327 18.6371 77.848C18.9709 77.6634 19.2283 77.4094 19.4094 77.0863C19.5941 76.7631 19.6864 76.3938 19.6864 75.9783V69.0909ZM26.197 69.0909V80H23.8905V69.0909H26.197Z" fill="black"/>
    <rect x="240" width="40" height="150" fill="#00C7FF"/>
    <path d="M254.815 80H250.948V69.0909H254.847C255.945 69.0909 256.889 69.3093 257.681 69.7461C258.473 70.1793 259.082 70.8026 259.508 71.6158C259.938 72.429 260.153 73.402 260.153 74.5348C260.153 75.6712 259.938 76.6477 259.508 77.4645C259.082 78.2812 258.469 78.908 257.67 79.3448C256.875 79.7816 255.923 80 254.815 80ZM253.255 78.0238H254.719C255.401 78.0238 255.975 77.9031 256.44 77.6616C256.909 77.4165 257.26 77.0384 257.495 76.527C257.733 76.0121 257.852 75.348 257.852 74.5348C257.852 73.7287 257.733 73.07 257.495 72.5586C257.26 72.0472 256.911 71.6708 256.445 71.4293C255.98 71.1879 255.407 71.0671 254.725 71.0671H253.255V78.0238ZM261.861 80V69.0909H266.229C267.032 69.0909 267.701 69.2099 268.237 69.4478C268.774 69.6857 269.177 70.016 269.446 70.4386C269.716 70.8576 269.851 71.3406 269.851 71.8874C269.851 72.3136 269.766 72.6882 269.596 73.0114C269.425 73.331 269.191 73.5937 268.892 73.7997C268.598 74.0021 268.26 74.146 267.88 74.2312V74.3377C268.296 74.3555 268.685 74.4727 269.047 74.6893C269.413 74.9059 269.709 75.2095 269.937 75.6001C270.164 75.9872 270.277 76.4489 270.277 76.9851C270.277 77.5639 270.134 78.0806 269.846 78.5352C269.562 78.9862 269.141 79.343 268.584 79.6058C268.026 79.8686 267.339 80 266.522 80H261.861ZM264.168 78.1143H266.048C266.691 78.1143 267.16 77.9918 267.454 77.7468C267.749 77.4982 267.896 77.168 267.896 76.756C267.896 76.4542 267.824 76.1879 267.678 75.957C267.532 75.7262 267.325 75.5451 267.055 75.4137C266.788 75.2823 266.471 75.2166 266.101 75.2166H264.168V78.1143ZM264.168 73.6559H265.878C266.194 73.6559 266.474 73.6009 266.719 73.4908C266.968 73.3771 267.163 73.2173 267.305 73.0114C267.451 72.8054 267.524 72.5586 267.524 72.271C267.524 71.8768 267.383 71.5589 267.103 71.3175C266.826 71.076 266.432 70.9553 265.92 70.9553H264.168V73.6559Z" fill="black"/>
    <path d="M88 16L78 10.2265V21.7735L88 16ZM53 17H79V15H53V17Z" fill="#01FB01"/>
    <path d="M80.5 120L70.5 114.226V125.774L80.5 120ZM48 121H71.5V119H48V121Z" fill="#01FB01"/>
    <path d="M234 16L224 10.2265V21.7735L234 16ZM193 17H225V15H193V17Z" fill="#01FB01"/>
    <path d="M193 36L203 41.7735V30.2265L193 36ZM202 37H234V35H202V37Z" fill="#01FB01"/>
    <path d="M235 120L225 114.226V125.774L235 120ZM197 121L226 121V119H197V121Z" fill="#01FB01"/>
    <path d="M53 36L63 41.7735V30.2265L53 36ZM62 37H88V35H62V37Z" fill="#01FB01"/>
</svg>
