<svg width="443" height="130" viewBox="0 0 443 130" fill="none" xmlns="http://www.w3.org/2000/svg">
    <circle cx="237" cy="65" r="65" fill="#FFEB3B"/>
    <path d="M225.815 70H221.948V59.0909H225.847C226.945 59.0909 227.889 59.3093 228.681 59.7461C229.473 60.1793 230.082 60.8026 230.508 61.6158C230.938 62.429 231.153 63.402 231.153 64.5348C231.153 65.6712 230.938 66.6477 230.508 67.4645C230.082 68.2812 229.469 68.908 228.67 69.3448C227.875 69.7816 226.923 70 225.815 70ZM224.255 68.0238H225.719C226.401 68.0238 226.975 67.9031 227.44 67.6616C227.909 67.4165 228.26 67.0384 228.495 66.527C228.733 66.0121 228.852 65.348 228.852 64.5348C228.852 63.7287 228.733 63.07 228.495 62.5586C228.26 62.0472 227.911 61.6708 227.445 61.4293C226.98 61.1879 226.407 61.0671 225.725 61.0671H224.255V68.0238ZM236.728 70H232.861V59.0909H236.76C237.858 59.0909 238.802 59.3093 239.594 59.7461C240.386 60.1793 240.995 60.8026 241.421 61.6158C241.851 62.429 242.066 63.402 242.066 64.5348C242.066 65.6712 241.851 66.6477 241.421 67.4645C240.995 68.2812 240.383 68.908 239.584 69.3448C238.788 69.7816 237.836 70 236.728 70ZM235.168 68.0238H236.633C237.314 68.0238 237.888 67.9031 238.353 67.6616C238.822 67.4165 239.173 67.0384 239.408 66.527C239.646 66.0121 239.765 65.348 239.765 64.5348C239.765 63.7287 239.646 63.07 239.408 62.5586C239.173 62.0472 238.824 61.6708 238.358 61.4293C237.893 61.1879 237.32 61.0671 236.638 61.0671H235.168V68.0238ZM247.642 70H243.774V59.0909H247.673C248.771 59.0909 249.715 59.3093 250.507 59.7461C251.299 60.1793 251.908 60.8026 252.334 61.6158C252.764 62.429 252.979 63.402 252.979 64.5348C252.979 65.6712 252.764 66.6477 252.334 67.4645C251.908 68.2812 251.296 68.908 250.497 69.3448C249.701 69.7816 248.749 70 247.642 70ZM246.081 68.0238H247.546C248.227 68.0238 248.801 67.9031 249.266 67.6616C249.735 67.4165 250.086 67.0384 250.321 66.527C250.559 66.0121 250.678 65.348 250.678 64.5348C250.678 63.7287 250.559 63.07 250.321 62.5586C250.086 62.0472 249.737 61.6708 249.271 61.4293C248.806 61.1879 248.233 61.0671 247.551 61.0671H246.081V68.0238Z" fill="black"/>
    <rect width="110" height="20" transform="translate(240)" fill="#FFEB3B"/>
    <path d="M252.828 15H250.357L254.123 4.09091H257.095L260.856 15H258.384L255.652 6.58381H255.566L252.828 15ZM252.674 10.712H258.512V12.5124H252.674V10.712ZM265.431 18.2386C264.696 18.2386 264.066 18.1374 263.54 17.935C263.018 17.7362 262.603 17.4645 262.294 17.12C261.985 16.7756 261.784 16.3885 261.692 15.9588L263.791 15.6765C263.855 15.8398 263.956 15.9925 264.094 16.1346C264.233 16.2766 264.416 16.3903 264.643 16.4755C264.874 16.5643 265.154 16.6087 265.485 16.6087C265.978 16.6087 266.385 16.4879 266.705 16.2464C267.028 16.0085 267.189 15.609 267.189 15.0479V13.5511H267.093C266.994 13.7784 266.845 13.9933 266.646 14.1957C266.447 14.3981 266.191 14.5632 265.879 14.6911C265.566 14.8189 265.194 14.8828 264.76 14.8828C264.146 14.8828 263.587 14.7408 263.082 14.4567C262.582 14.169 262.182 13.7305 261.884 13.141C261.589 12.5479 261.442 11.7987 261.442 10.8931C261.442 9.96626 261.593 9.19212 261.895 8.57067C262.196 7.94922 262.598 7.48402 263.098 7.17507C263.603 6.86612 264.155 6.71165 264.755 6.71165C265.213 6.71165 265.597 6.78977 265.906 6.94602C266.214 7.09872 266.463 7.29048 266.651 7.52131C266.843 7.74858 266.99 7.9723 267.093 8.19247H267.179V6.81818H269.432V15.0799C269.432 15.7759 269.261 16.3583 268.92 16.8271C268.58 17.2958 268.107 17.6474 267.504 17.8817C266.903 18.1197 266.213 18.2386 265.431 18.2386ZM265.479 13.1783C265.845 13.1783 266.154 13.0877 266.406 12.9066C266.662 12.7219 266.857 12.4592 266.992 12.1183C267.131 11.7738 267.2 11.3619 267.2 10.8825C267.2 10.4031 267.132 9.98757 266.998 9.63601C266.863 9.28089 266.667 9.00568 266.412 8.81037C266.156 8.61506 265.845 8.5174 265.479 8.5174C265.107 8.5174 264.792 8.61861 264.537 8.82102C264.281 9.01989 264.087 9.29687 263.956 9.65199C263.825 10.0071 263.759 10.4173 263.759 10.8825C263.759 11.3548 263.825 11.7631 263.956 12.1076C264.091 12.4485 264.284 12.7131 264.537 12.9013C264.792 13.0859 265.107 13.1783 265.479 13.1783ZM274.924 18.2386C274.189 18.2386 273.558 18.1374 273.033 17.935C272.511 17.7362 272.095 17.4645 271.786 17.12C271.477 16.7756 271.277 16.3885 271.184 15.9588L273.283 15.6765C273.347 15.8398 273.448 15.9925 273.587 16.1346C273.725 16.2766 273.908 16.3903 274.135 16.4755C274.366 16.5643 274.647 16.6087 274.977 16.6087C275.471 16.6087 275.877 16.4879 276.197 16.2464C276.52 16.0085 276.681 15.609 276.681 15.0479V13.5511H276.586C276.486 13.7784 276.337 13.9933 276.138 14.1957C275.939 14.3981 275.684 14.5632 275.371 14.6911C275.059 14.8189 274.686 14.8828 274.252 14.8828C273.638 14.8828 273.079 14.7408 272.575 14.4567C272.074 14.169 271.674 13.7305 271.376 13.141C271.081 12.5479 270.934 11.7987 270.934 10.8931C270.934 9.96626 271.085 9.19212 271.387 8.57067C271.689 7.94922 272.09 7.48402 272.591 7.17507C273.095 6.86612 273.647 6.71165 274.247 6.71165C274.705 6.71165 275.089 6.78977 275.398 6.94602C275.707 7.09872 275.955 7.29048 276.143 7.52131C276.335 7.74858 276.483 7.9723 276.586 8.19247H276.671V6.81818H278.924V15.0799C278.924 15.7759 278.754 16.3583 278.413 16.8271C278.072 17.2958 277.599 17.6474 276.996 17.8817C276.396 18.1197 275.705 18.2386 274.924 18.2386ZM274.972 13.1783C275.337 13.1783 275.646 13.0877 275.898 12.9066C276.154 12.7219 276.349 12.4592 276.484 12.1183C276.623 11.7738 276.692 11.3619 276.692 10.8825C276.692 10.4031 276.625 9.98757 276.49 9.63601C276.355 9.28089 276.159 9.00568 275.904 8.81037C275.648 8.61506 275.337 8.5174 274.972 8.5174C274.599 8.5174 274.284 8.61861 274.029 8.82102C273.773 9.01989 273.58 9.29687 273.448 9.65199C273.317 10.0071 273.251 10.4173 273.251 10.8825C273.251 11.3548 273.317 11.7631 273.448 12.1076C273.583 12.4485 273.777 12.7131 274.029 12.9013C274.284 13.0859 274.599 13.1783 274.972 13.1783ZM280.73 15V6.81818H282.93V8.24574H283.015C283.164 7.73793 283.414 7.3544 283.766 7.09517C284.118 6.83239 284.522 6.70099 284.98 6.70099C285.094 6.70099 285.217 6.7081 285.348 6.7223C285.479 6.73651 285.595 6.75604 285.694 6.78089V8.79439C285.588 8.76243 285.44 8.73402 285.252 8.70916C285.064 8.6843 284.892 8.67188 284.735 8.67188C284.402 8.67188 284.103 8.74467 283.841 8.89027C283.581 9.03232 283.375 9.23118 283.223 9.48686C283.074 9.74254 282.999 10.0373 282.999 10.3711V15H280.73ZM290.215 15.1598C289.374 15.1598 288.649 14.9893 288.042 14.6484C287.438 14.304 286.973 13.8175 286.646 13.1889C286.32 12.5568 286.156 11.8093 286.156 10.9464C286.156 10.1048 286.32 9.36612 286.646 8.73047C286.973 8.09482 287.433 7.59943 288.026 7.24432C288.623 6.8892 289.322 6.71165 290.125 6.71165C290.665 6.71165 291.167 6.79865 291.632 6.97266C292.101 7.14311 292.509 7.40057 292.857 7.74503C293.209 8.08949 293.482 8.52273 293.678 9.04474C293.873 9.56321 293.971 10.1705 293.971 10.8665V11.4897H287.062V10.0835H291.835C291.835 9.75675 291.764 9.46733 291.622 9.2152C291.479 8.96307 291.282 8.76598 291.03 8.62393C290.782 8.47834 290.492 8.40554 290.162 8.40554C289.818 8.40554 289.512 8.48544 289.246 8.64524C288.983 8.80149 288.777 9.01278 288.628 9.27912C288.479 9.5419 288.402 9.83487 288.399 10.158V11.495C288.399 11.8999 288.473 12.2496 288.623 12.5444C288.775 12.8391 288.99 13.0664 289.267 13.2262C289.544 13.386 289.873 13.4659 290.253 13.4659C290.505 13.4659 290.736 13.4304 290.945 13.3594C291.155 13.2884 291.334 13.1818 291.483 13.0398C291.632 12.8977 291.746 12.7237 291.824 12.5178L293.923 12.6562C293.816 13.1605 293.598 13.6009 293.267 13.9773C292.941 14.3501 292.518 14.6413 292 14.8509C291.485 15.0568 290.89 15.1598 290.215 15.1598ZM299.138 18.2386C298.402 18.2386 297.772 18.1374 297.247 17.935C296.725 17.7362 296.309 17.4645 296 17.12C295.691 16.7756 295.491 16.3885 295.398 15.9588L297.497 15.6765C297.561 15.8398 297.662 15.9925 297.801 16.1346C297.939 16.2766 298.122 16.3903 298.349 16.4755C298.58 16.5643 298.861 16.6087 299.191 16.6087C299.684 16.6087 300.091 16.4879 300.411 16.2464C300.734 16.0085 300.895 15.609 300.895 15.0479V13.5511H300.799C300.7 13.7784 300.551 13.9933 300.352 14.1957C300.153 14.3981 299.897 14.5632 299.585 14.6911C299.272 14.8189 298.9 14.8828 298.466 14.8828C297.852 14.8828 297.293 14.7408 296.788 14.4567C296.288 14.169 295.888 13.7305 295.59 13.141C295.295 12.5479 295.148 11.7987 295.148 10.8931C295.148 9.96626 295.299 9.19212 295.601 8.57067C295.902 7.94922 296.304 7.48402 296.804 7.17507C297.309 6.86612 297.861 6.71165 298.461 6.71165C298.919 6.71165 299.303 6.78977 299.612 6.94602C299.921 7.09872 300.169 7.29048 300.357 7.52131C300.549 7.74858 300.696 7.9723 300.799 8.19247H300.885V6.81818H303.138V15.0799C303.138 15.7759 302.967 16.3583 302.627 16.8271C302.286 17.2958 301.813 17.6474 301.21 17.8817C300.609 18.1197 299.919 18.2386 299.138 18.2386ZM299.185 13.1783C299.551 13.1783 299.86 13.0877 300.112 12.9066C300.368 12.7219 300.563 12.4592 300.698 12.1183C300.837 11.7738 300.906 11.3619 300.906 10.8825C300.906 10.4031 300.839 9.98757 300.704 9.63601C300.569 9.28089 300.373 9.00568 300.118 8.81037C299.862 8.61506 299.551 8.5174 299.185 8.5174C298.813 8.5174 298.498 8.61861 298.243 8.82102C297.987 9.01989 297.793 9.29687 297.662 9.65199C297.531 10.0071 297.465 10.4173 297.465 10.8825C297.465 11.3548 297.531 11.7631 297.662 12.1076C297.797 12.4485 297.991 12.7131 298.243 12.9013C298.498 13.0859 298.813 13.1783 299.185 13.1783ZM307.277 15.1545C306.755 15.1545 306.29 15.0639 305.881 14.8828C305.473 14.6982 305.15 14.4265 304.912 14.0678C304.677 13.7056 304.56 13.2546 304.56 12.7148C304.56 12.2603 304.644 11.8786 304.81 11.5696C304.977 11.2607 305.205 11.0121 305.492 10.8239C305.78 10.6357 306.107 10.4936 306.472 10.3977C306.842 10.3018 307.229 10.2344 307.634 10.1953C308.109 10.1456 308.493 10.0994 308.784 10.0568C309.075 10.0107 309.287 9.94318 309.418 9.8544C309.549 9.76562 309.615 9.63423 309.615 9.46023V9.42827C309.615 9.09091 309.509 8.8299 309.296 8.64524C309.086 8.46058 308.788 8.36825 308.401 8.36825C307.992 8.36825 307.667 8.45881 307.426 8.63991C307.184 8.81747 307.025 9.04119 306.946 9.31108L304.848 9.14062C304.954 8.64347 305.164 8.21378 305.476 7.85156C305.789 7.4858 306.192 7.20526 306.685 7.00994C307.183 6.81108 307.758 6.71165 308.411 6.71165C308.866 6.71165 309.301 6.76491 309.716 6.87145C310.135 6.97798 310.506 7.14311 310.83 7.36683C311.156 7.59055 311.414 7.8782 311.602 8.22976C311.79 8.57777 311.884 8.99503 311.884 9.48153V15H309.732V13.8654H309.668C309.537 14.1211 309.361 14.3466 309.141 14.5419C308.921 14.7337 308.656 14.8846 308.347 14.9947C308.038 15.1012 307.682 15.1545 307.277 15.1545ZM307.927 13.5884C308.26 13.5884 308.555 13.5227 308.811 13.3913C309.066 13.2564 309.267 13.0753 309.413 12.848C309.558 12.6207 309.631 12.3633 309.631 12.0756V11.2074C309.56 11.2536 309.462 11.2962 309.338 11.3352C309.217 11.3707 309.081 11.4045 308.928 11.4364C308.775 11.4648 308.623 11.4915 308.47 11.5163C308.317 11.5376 308.179 11.5572 308.054 11.5749C307.788 11.614 307.555 11.6761 307.357 11.7614C307.158 11.8466 307.003 11.962 306.893 12.1076C306.783 12.2496 306.728 12.4272 306.728 12.6403C306.728 12.9492 306.84 13.1854 307.064 13.3487C307.291 13.5085 307.579 13.5884 307.927 13.5884ZM316.66 15.1332C316.038 15.1332 315.475 14.9734 314.971 14.6538C314.47 14.3306 314.073 13.8565 313.778 13.2315C313.487 12.603 313.341 11.8324 313.341 10.9197C313.341 9.98224 313.492 9.20277 313.794 8.58132C314.096 7.95632 314.497 7.48935 314.998 7.1804C315.502 6.8679 316.054 6.71165 316.654 6.71165C317.112 6.71165 317.494 6.78977 317.8 6.94602C318.109 7.09872 318.357 7.29048 318.545 7.52131C318.737 7.74858 318.883 7.9723 318.982 8.19247H319.051V4.09091H321.315V15H319.078V13.6896H318.982C318.876 13.9169 318.725 14.1424 318.529 14.3661C318.338 14.5863 318.087 14.7692 317.778 14.9148C317.473 15.0604 317.1 15.1332 316.66 15.1332ZM317.379 13.3274C317.745 13.3274 318.054 13.228 318.306 13.0291C318.561 12.8267 318.757 12.5444 318.892 12.1822C319.03 11.82 319.099 11.3956 319.099 10.9091C319.099 10.4226 319.032 10 318.897 9.64133C318.762 9.28267 318.567 9.00568 318.311 8.81037C318.055 8.61506 317.745 8.5174 317.379 8.5174C317.006 8.5174 316.692 8.61861 316.436 8.82102C316.18 9.02344 315.987 9.30398 315.855 9.66264C315.724 10.0213 315.658 10.4368 315.658 10.9091C315.658 11.3849 315.724 11.8058 315.855 12.1715C315.99 12.5337 316.184 12.8178 316.436 13.0238C316.692 13.2262 317.006 13.3274 317.379 13.3274ZM326.878 15.1598C326.05 15.1598 325.335 14.984 324.731 14.6325C324.131 14.2773 323.667 13.7837 323.341 13.1516C323.014 12.516 322.851 11.7791 322.851 10.9411C322.851 10.0959 323.014 9.35724 323.341 8.72514C323.667 8.08949 324.131 7.59588 324.731 7.24432C325.335 6.8892 326.05 6.71165 326.878 6.71165C327.705 6.71165 328.419 6.8892 329.019 7.24432C329.623 7.59588 330.088 8.08949 330.415 8.72514C330.741 9.35724 330.905 10.0959 330.905 10.9411C330.905 11.7791 330.741 12.516 330.415 13.1516C330.088 13.7837 329.623 14.2773 329.019 14.6325C328.419 14.984 327.705 15.1598 326.878 15.1598ZM326.888 13.402C327.265 13.402 327.579 13.2955 327.831 13.0824C328.083 12.8658 328.273 12.571 328.401 12.1982C328.532 11.8253 328.598 11.4009 328.598 10.9251C328.598 10.4492 328.532 10.0249 328.401 9.65199C328.273 9.27912 328.083 8.98437 327.831 8.76776C327.579 8.55114 327.265 8.44283 326.888 8.44283C326.508 8.44283 326.189 8.55114 325.93 8.76776C325.674 8.98437 325.48 9.27912 325.349 9.65199C325.221 10.0249 325.157 10.4492 325.157 10.9251C325.157 11.4009 325.221 11.8253 325.349 12.1982C325.48 12.571 325.674 12.8658 325.93 13.0824C326.189 13.2955 326.508 13.402 326.888 13.402ZM339.188 9.15128L337.11 9.27912C337.075 9.10156 336.998 8.94176 336.881 8.79972C336.764 8.65412 336.61 8.53871 336.418 8.45348C336.23 8.3647 336.004 8.32031 335.741 8.32031C335.39 8.32031 335.093 8.39489 334.852 8.54403C334.61 8.68963 334.49 8.88494 334.49 9.12997C334.49 9.32528 334.568 9.49041 334.724 9.62536C334.88 9.7603 335.148 9.86861 335.528 9.95028L337.009 10.2486C337.805 10.4119 338.398 10.6747 338.788 11.0369C339.179 11.3991 339.374 11.875 339.374 12.4645C339.374 13.0007 339.216 13.4712 338.9 13.8761C338.588 14.2809 338.158 14.5969 337.611 14.8242C337.068 15.0479 336.441 15.1598 335.731 15.1598C334.648 15.1598 333.785 14.9343 333.142 14.4833C332.503 14.0288 332.128 13.4109 332.018 12.6296L334.25 12.5124C334.317 12.8427 334.481 13.0948 334.74 13.2688C334.999 13.4393 335.331 13.5245 335.736 13.5245C336.134 13.5245 336.453 13.4482 336.695 13.2955C336.94 13.1392 337.064 12.9386 337.068 12.6935C337.064 12.4876 336.977 12.3189 336.807 12.1875C336.636 12.0526 336.373 11.9496 336.018 11.8786L334.601 11.5962C333.802 11.4364 333.208 11.1594 332.817 10.7653C332.43 10.3711 332.236 9.86861 332.236 9.25781C332.236 8.73224 332.378 8.27947 332.662 7.8995C332.95 7.51953 333.353 7.22656 333.872 7.0206C334.394 6.81463 335.004 6.71165 335.704 6.71165C336.737 6.71165 337.551 6.93004 338.144 7.36683C338.74 7.80362 339.088 8.39844 339.188 9.15128Z" fill="black"/>
    <rect width="94" height="20" transform="translate(295 38)" fill="#FFEB3B"/>
    <path d="M305.948 53V42.0909H313.299V43.9925H308.255V46.592H312.921V48.4936H308.255V51.0984H313.32V53H305.948ZM317.359 48.2699V53H315.09V44.8182H317.253V46.2617H317.349C317.53 45.7859 317.833 45.4094 318.259 45.1325C318.686 44.8519 319.202 44.7116 319.81 44.7116C320.378 44.7116 320.873 44.8359 321.296 45.0845C321.718 45.3331 322.047 45.6882 322.281 46.1499C322.516 46.608 322.633 47.1548 322.633 47.7905V53H320.364V48.1953C320.367 47.6946 320.239 47.304 319.98 47.0234C319.721 46.7393 319.364 46.5973 318.909 46.5973C318.604 46.5973 318.334 46.663 318.1 46.7944C317.869 46.9258 317.688 47.1175 317.556 47.3697C317.429 47.6183 317.363 47.9183 317.359 48.2699ZM328.773 44.8182V46.5227H323.846V44.8182H328.773ZM324.964 42.858H327.234V50.4858C327.234 50.6953 327.266 50.8587 327.33 50.9759C327.393 51.0895 327.482 51.1694 327.596 51.2156C327.713 51.2617 327.848 51.2848 328.001 51.2848C328.107 51.2848 328.214 51.2759 328.32 51.2582C328.427 51.2369 328.509 51.2209 328.565 51.2102L328.922 52.8988C328.809 52.9343 328.649 52.9751 328.443 53.0213C328.237 53.071 327.987 53.1012 327.692 53.1119C327.145 53.1332 326.665 53.0604 326.254 52.8935C325.845 52.7266 325.527 52.4673 325.3 52.1158C325.073 51.7642 324.961 51.3203 324.964 50.7841V42.858ZM330.251 53V44.8182H332.52V53H330.251ZM331.391 43.7635C331.054 43.7635 330.764 43.6516 330.523 43.4279C330.285 43.2006 330.166 42.929 330.166 42.6129C330.166 42.3004 330.285 42.0323 330.523 41.8086C330.764 41.5813 331.054 41.4677 331.391 41.4677C331.729 41.4677 332.016 41.5813 332.254 41.8086C332.496 42.0323 332.616 42.3004 332.616 42.6129C332.616 42.929 332.496 43.2006 332.254 43.4279C332.016 43.6516 331.729 43.7635 331.391 43.7635ZM337.353 53.1332C336.732 53.1332 336.169 52.9734 335.665 52.6538C335.164 52.3306 334.766 51.8565 334.471 51.2315C334.18 50.603 334.035 49.8324 334.035 48.9197C334.035 47.9822 334.185 47.2028 334.487 46.5813C334.789 45.9563 335.19 45.4893 335.691 45.1804C336.195 44.8679 336.748 44.7116 337.348 44.7116C337.806 44.7116 338.188 44.7898 338.493 44.946C338.802 45.0987 339.051 45.2905 339.239 45.5213C339.43 45.7486 339.576 45.9723 339.676 46.1925H339.745V42.0909H342.009V53H339.771V51.6896H339.676C339.569 51.9169 339.418 52.1424 339.223 52.3661C339.031 52.5863 338.781 52.7692 338.472 52.9148C338.166 53.0604 337.793 53.1332 337.353 53.1332ZM338.072 51.3274C338.438 51.3274 338.747 51.228 338.999 51.0291C339.255 50.8267 339.45 50.5444 339.585 50.1822C339.723 49.82 339.793 49.3956 339.793 48.9091C339.793 48.4226 339.725 48 339.59 47.6413C339.455 47.2827 339.26 47.0057 339.004 46.8104C338.749 46.6151 338.438 46.5174 338.072 46.5174C337.699 46.5174 337.385 46.6186 337.129 46.821C336.874 47.0234 336.68 47.304 336.549 47.6626C336.417 48.0213 336.352 48.4368 336.352 48.9091C336.352 49.3849 336.417 49.8058 336.549 50.1715C336.684 50.5337 336.877 50.8178 337.129 51.0238C337.385 51.2262 337.699 51.3274 338.072 51.3274ZM346.207 53.1545C345.685 53.1545 345.22 53.0639 344.812 52.8828C344.403 52.6982 344.08 52.4265 343.842 52.0678C343.608 51.7056 343.491 51.2546 343.491 50.7148C343.491 50.2603 343.574 49.8786 343.741 49.5696C343.908 49.2607 344.135 49.0121 344.423 48.8239C344.711 48.6357 345.037 48.4936 345.403 48.3977C345.772 48.3018 346.159 48.2344 346.564 48.1953C347.04 48.1456 347.424 48.0994 347.715 48.0568C348.006 48.0107 348.217 47.9432 348.349 47.8544C348.48 47.7656 348.546 47.6342 348.546 47.4602V47.4283C348.546 47.0909 348.439 46.8299 348.226 46.6452C348.017 46.4606 347.718 46.3683 347.331 46.3683C346.923 46.3683 346.598 46.4588 346.357 46.6399C346.115 46.8175 345.955 47.0412 345.877 47.3111L343.778 47.1406C343.885 46.6435 344.094 46.2138 344.407 45.8516C344.719 45.4858 345.123 45.2053 345.616 45.0099C346.113 44.8111 346.689 44.7116 347.342 44.7116C347.797 44.7116 348.232 44.7649 348.647 44.8714C349.066 44.978 349.437 45.1431 349.76 45.3668C350.087 45.5906 350.344 45.8782 350.533 46.2298C350.721 46.5778 350.815 46.995 350.815 47.4815V53H348.663V51.8654H348.599C348.468 52.1211 348.292 52.3466 348.072 52.5419C347.852 52.7337 347.587 52.8846 347.278 52.9947C346.969 53.1012 346.612 53.1545 346.207 53.1545ZM346.857 51.5884C347.191 51.5884 347.486 51.5227 347.741 51.3913C347.997 51.2564 348.198 51.0753 348.343 50.848C348.489 50.6207 348.562 50.3633 348.562 50.0756V49.2074C348.491 49.2536 348.393 49.2962 348.269 49.3352C348.148 49.3707 348.011 49.4045 347.859 49.4364C347.706 49.4648 347.553 49.4915 347.401 49.5163C347.248 49.5376 347.109 49.5572 346.985 49.5749C346.719 49.614 346.486 49.6761 346.287 49.7614C346.088 49.8466 345.934 49.962 345.824 50.1076C345.714 50.2496 345.659 50.4272 345.659 50.6403C345.659 50.9492 345.771 51.1854 345.994 51.3487C346.222 51.5085 346.509 51.5884 346.857 51.5884ZM355.59 53.1332C354.969 53.1332 354.406 52.9734 353.902 52.6538C353.401 52.3306 353.003 51.8565 352.709 51.2315C352.417 50.603 352.272 49.8324 352.272 48.9197C352.272 47.9822 352.423 47.2028 352.725 46.5813C353.026 45.9563 353.428 45.4893 353.928 45.1804C354.433 44.8679 354.985 44.7116 355.585 44.7116C356.043 44.7116 356.425 44.7898 356.73 44.946C357.039 45.0987 357.288 45.2905 357.476 45.5213C357.668 45.7486 357.813 45.9723 357.913 46.1925H357.982V42.0909H360.246V53H358.009V51.6896H357.913C357.806 51.9169 357.655 52.1424 357.46 52.3661C357.268 52.5863 357.018 52.7692 356.709 52.9148C356.404 53.0604 356.031 53.1332 355.59 53.1332ZM356.309 51.3274C356.675 51.3274 356.984 51.228 357.236 51.0291C357.492 50.8267 357.687 50.5444 357.822 50.1822C357.961 49.82 358.03 49.3956 358.03 48.9091C358.03 48.4226 357.963 48 357.828 47.6413C357.693 47.2827 357.497 47.0057 357.242 46.8104C356.986 46.6151 356.675 46.5174 356.309 46.5174C355.937 46.5174 355.622 46.6186 355.367 46.821C355.111 47.0234 354.917 47.304 354.786 47.6626C354.655 48.0213 354.589 48.4368 354.589 48.9091C354.589 49.3849 354.655 49.8058 354.786 50.1715C354.921 50.5337 355.115 50.8178 355.367 51.0238C355.622 51.2262 355.937 51.3274 356.309 51.3274ZM365.84 53.1598C364.999 53.1598 364.274 52.9893 363.667 52.6484C363.063 52.304 362.598 51.8175 362.271 51.1889C361.945 50.5568 361.781 49.8093 361.781 48.9464C361.781 48.1048 361.945 47.3661 362.271 46.7305C362.598 46.0948 363.058 45.5994 363.651 45.2443C364.248 44.8892 364.947 44.7116 365.75 44.7116C366.29 44.7116 366.792 44.7987 367.257 44.9727C367.726 45.1431 368.134 45.4006 368.482 45.745C368.834 46.0895 369.107 46.5227 369.303 47.0447C369.498 47.5632 369.596 48.1705 369.596 48.8665V49.4897H362.687V48.0835H367.46C367.46 47.7567 367.389 47.4673 367.247 47.2152C367.104 46.9631 366.907 46.766 366.655 46.6239C366.407 46.4783 366.117 46.4055 365.787 46.4055C365.443 46.4055 365.137 46.4854 364.871 46.6452C364.608 46.8015 364.402 47.0128 364.253 47.2791C364.104 47.5419 364.027 47.8349 364.024 48.158V49.495C364.024 49.8999 364.098 50.2496 364.248 50.5444C364.4 50.8391 364.615 51.0664 364.892 51.2262C365.169 51.386 365.498 51.4659 365.878 51.4659C366.13 51.4659 366.361 51.4304 366.57 51.3594C366.78 51.2884 366.959 51.1818 367.108 51.0398C367.257 50.8977 367.371 50.7237 367.449 50.5178L369.548 50.6562C369.441 51.1605 369.223 51.6009 368.892 51.9773C368.566 52.3501 368.143 52.6413 367.625 52.8509C367.11 53.0568 366.515 53.1598 365.84 53.1598ZM377.884 47.1513L375.807 47.2791C375.771 47.1016 375.695 46.9418 375.578 46.7997C375.46 46.6541 375.306 46.5387 375.114 46.4535C374.926 46.3647 374.7 46.3203 374.438 46.3203C374.086 46.3203 373.79 46.3949 373.548 46.544C373.307 46.6896 373.186 46.8849 373.186 47.13C373.186 47.3253 373.264 47.4904 373.42 47.6254C373.576 47.7603 373.845 47.8686 374.225 47.9503L375.705 48.2486C376.501 48.4119 377.094 48.6747 377.484 49.0369C377.875 49.3991 378.07 49.875 378.07 50.4645C378.07 51.0007 377.912 51.4712 377.596 51.8761C377.284 52.2809 376.854 52.5969 376.307 52.8242C375.764 53.0479 375.137 53.1598 374.427 53.1598C373.344 53.1598 372.481 52.9343 371.838 52.4833C371.199 52.0288 370.824 51.4109 370.714 50.6296L372.946 50.5124C373.014 50.8427 373.177 51.0948 373.436 51.2688C373.695 51.4393 374.027 51.5245 374.432 51.5245C374.83 51.5245 375.15 51.4482 375.391 51.2955C375.636 51.1392 375.76 50.9386 375.764 50.6935C375.76 50.4876 375.673 50.3189 375.503 50.1875C375.332 50.0526 375.07 49.9496 374.715 49.8786L373.298 49.5962C372.499 49.4364 371.904 49.1594 371.513 48.7653C371.126 48.3711 370.933 47.8686 370.933 47.2578C370.933 46.7322 371.075 46.2795 371.359 45.8995C371.646 45.5195 372.049 45.2266 372.568 45.0206C373.09 44.8146 373.701 44.7116 374.4 44.7116C375.434 44.7116 376.247 44.93 376.84 45.3668C377.437 45.8036 377.785 46.3984 377.884 47.1513Z" fill="black"/>
    <rect width="152" height="20" transform="translate(291 76)" fill="#FFEB3B"/>
    <path d="M311.973 85.5455C311.973 86.7351 311.748 87.7472 311.297 88.5817C310.849 89.4162 310.238 90.0536 309.464 90.494C308.694 90.9308 307.827 91.1491 306.865 91.1491C305.895 91.1491 305.025 90.929 304.255 90.4886C303.484 90.0483 302.875 89.4109 302.428 88.5763C301.98 87.7418 301.756 86.7315 301.756 85.5455C301.756 84.3558 301.98 83.3438 302.428 82.5092C302.875 81.6747 303.484 81.0391 304.255 80.6023C305.025 80.1619 305.895 79.9418 306.865 79.9418C307.827 79.9418 308.694 80.1619 309.464 80.6023C310.238 81.0391 310.849 81.6747 311.297 82.5092C311.748 83.3438 311.973 84.3558 311.973 85.5455ZM309.635 85.5455C309.635 84.7749 309.519 84.125 309.288 83.5959C309.061 83.0668 308.74 82.6655 308.324 82.392C307.909 82.1186 307.422 81.9819 306.865 81.9819C306.307 81.9819 305.821 82.1186 305.405 82.392C304.99 82.6655 304.667 83.0668 304.436 83.5959C304.208 84.125 304.095 84.7749 304.095 85.5455C304.095 86.3161 304.208 86.9659 304.436 87.495C304.667 88.0241 304.99 88.4254 305.405 88.6989C305.821 88.9723 306.307 89.109 306.865 89.109C307.422 89.109 307.909 88.9723 308.324 88.6989C308.74 88.4254 309.061 88.0241 309.288 87.495C309.519 86.9659 309.635 86.3161 309.635 85.5455ZM313.682 91V80.0909H315.951V84.1925H316.02C316.119 83.9723 316.263 83.7486 316.451 83.5213C316.643 83.2905 316.892 83.0987 317.197 82.946C317.506 82.7898 317.89 82.7116 318.348 82.7116C318.944 82.7116 319.495 82.8679 319.999 83.1804C320.503 83.4893 320.906 83.9563 321.208 84.5813C321.51 85.2028 321.661 85.9822 321.661 86.9197C321.661 87.8324 321.514 88.603 321.219 89.2315C320.928 89.8565 320.53 90.3306 320.026 90.6538C319.525 90.9734 318.964 91.1332 318.342 91.1332C317.902 91.1332 317.527 91.0604 317.218 90.9148C316.913 90.7692 316.663 90.5863 316.467 90.3661C316.272 90.1424 316.123 89.9169 316.02 89.6896H315.919V91H313.682ZM315.903 86.9091C315.903 87.3956 315.97 87.82 316.105 88.1822C316.24 88.5444 316.435 88.8267 316.691 89.0291C316.947 89.228 317.258 89.3274 317.623 89.3274C317.993 89.3274 318.305 89.2262 318.561 89.0238C318.816 88.8178 319.01 88.5337 319.141 88.1715C319.276 87.8058 319.344 87.3849 319.344 86.9091C319.344 86.4368 319.278 86.0213 319.147 85.6626C319.015 85.304 318.822 85.0234 318.566 84.821C318.31 84.6186 317.996 84.5174 317.623 84.5174C317.254 84.5174 316.941 84.6151 316.686 84.8104C316.434 85.0057 316.24 85.2827 316.105 85.6413C315.97 86 315.903 86.4226 315.903 86.9091ZM323.175 82.8182H325.444V91.4048C325.444 92.0369 325.32 92.5483 325.071 92.9389C324.823 93.3295 324.466 93.6154 324.001 93.7965C323.539 93.9776 322.987 94.0682 322.344 94.0682C322.266 94.0682 322.191 94.0664 322.12 94.0629C322.046 94.0629 321.968 94.0611 321.886 94.0575V92.2837C321.946 92.2873 322 92.2891 322.046 92.2891C322.088 92.2926 322.135 92.2944 322.184 92.2944C322.55 92.2944 322.806 92.2163 322.951 92.06C323.1 91.9073 323.175 91.6765 323.175 91.3675V82.8182ZM324.304 81.7635C323.971 81.7635 323.683 81.6516 323.441 81.4279C323.2 81.2006 323.079 80.929 323.079 80.6129C323.079 80.3004 323.2 80.0323 323.441 79.8086C323.683 79.5813 323.971 79.4677 324.304 79.4677C324.645 79.4677 324.935 79.5813 325.173 79.8086C325.414 80.0323 325.535 80.3004 325.535 80.6129C325.535 80.929 325.414 81.2006 325.173 81.4279C324.935 81.6516 324.645 81.7635 324.304 81.7635ZM330.991 91.1598C330.149 91.1598 329.425 90.9893 328.817 90.6484C328.214 90.304 327.748 89.8175 327.422 89.1889C327.095 88.5568 326.932 87.8093 326.932 86.9464C326.932 86.1048 327.095 85.3661 327.422 84.7305C327.748 84.0948 328.208 83.5994 328.801 83.2443C329.398 82.8892 330.098 82.7116 330.9 82.7116C331.44 82.7116 331.942 82.7987 332.408 82.9727C332.876 83.1431 333.285 83.4006 333.633 83.745C333.984 84.0895 334.258 84.5227 334.453 85.0447C334.648 85.5632 334.746 86.1705 334.746 86.8665V87.4897H327.837V86.0835H332.61C332.61 85.7567 332.539 85.4673 332.397 85.2152C332.255 84.9631 332.058 84.766 331.806 84.6239C331.557 84.4783 331.268 84.4055 330.937 84.4055C330.593 84.4055 330.288 84.4854 330.021 84.6452C329.758 84.8015 329.552 85.0128 329.403 85.2791C329.254 85.5419 329.178 85.8349 329.174 86.158V87.495C329.174 87.8999 329.249 88.2496 329.398 88.5444C329.551 88.8391 329.766 89.0664 330.043 89.2262C330.32 89.386 330.648 89.4659 331.028 89.4659C331.28 89.4659 331.511 89.4304 331.72 89.3594C331.93 89.2884 332.109 89.1818 332.258 89.0398C332.408 88.8977 332.521 88.7237 332.599 88.5178L334.698 88.6562C334.592 89.1605 334.373 89.6009 334.043 89.9773C333.716 90.3501 333.294 90.6413 332.775 90.8509C332.26 91.0568 331.665 91.1598 330.991 91.1598ZM339.924 91.1598C339.085 91.1598 338.365 90.9822 337.761 90.6271C337.161 90.2685 336.699 89.7713 336.376 89.1357C336.056 88.5 335.897 87.7685 335.897 86.9411C335.897 86.103 336.058 85.3679 336.381 84.7358C336.708 84.1001 337.171 83.6048 337.772 83.2496C338.372 82.891 339.085 82.7116 339.913 82.7116C340.627 82.7116 341.252 82.8413 341.788 83.1005C342.324 83.3597 342.748 83.7237 343.061 84.1925C343.373 84.6612 343.546 85.2116 343.578 85.8438H341.436C341.376 85.4354 341.216 85.1069 340.957 84.8583C340.701 84.6062 340.366 84.4801 339.95 84.4801C339.599 84.4801 339.291 84.576 339.029 84.7678C338.769 84.956 338.567 85.2312 338.421 85.5934C338.276 85.9556 338.203 86.3942 338.203 86.9091C338.203 87.4311 338.274 87.875 338.416 88.2408C338.562 88.6065 338.766 88.8853 339.029 89.0771C339.291 89.2688 339.599 89.3647 339.95 89.3647C340.209 89.3647 340.442 89.3114 340.648 89.2049C340.858 89.0984 341.03 88.9439 341.165 88.7415C341.303 88.5355 341.394 88.2887 341.436 88.0011H343.578C343.542 88.6261 343.372 89.1765 343.066 89.6523C342.764 90.1246 342.347 90.494 341.815 90.7603C341.282 91.0266 340.652 91.1598 339.924 91.1598ZM349.382 82.8182V84.5227H344.455V82.8182H349.382ZM345.574 80.858H347.843V88.4858C347.843 88.6953 347.875 88.8587 347.939 88.9759C348.003 89.0895 348.092 89.1694 348.205 89.2156C348.322 89.2617 348.457 89.2848 348.61 89.2848C348.717 89.2848 348.823 89.2759 348.93 89.2582C349.036 89.2369 349.118 89.2209 349.175 89.2102L349.532 90.8988C349.418 90.9343 349.258 90.9751 349.052 91.0213C348.846 91.071 348.596 91.1012 348.301 91.1119C347.754 91.1332 347.275 91.0604 346.863 90.8935C346.455 90.7266 346.137 90.4673 345.909 90.1158C345.682 89.7642 345.57 89.3203 345.574 88.7841V80.858ZM354.469 91.1598C353.642 91.1598 352.926 90.984 352.323 90.6325C351.723 90.2773 351.259 89.7837 350.933 89.1516C350.606 88.516 350.442 87.7791 350.442 86.9411C350.442 86.0959 350.606 85.3572 350.933 84.7251C351.259 84.0895 351.723 83.5959 352.323 83.2443C352.926 82.8892 353.642 82.7116 354.469 82.7116C355.297 82.7116 356.011 82.8892 356.611 83.2443C357.214 83.5959 357.68 84.0895 358.006 84.7251C358.333 85.3572 358.496 86.0959 358.496 86.9411C358.496 87.7791 358.333 88.516 358.006 89.1516C357.68 89.7837 357.214 90.2773 356.611 90.6325C356.011 90.984 355.297 91.1598 354.469 91.1598ZM354.48 89.402C354.857 89.402 355.171 89.2955 355.423 89.0824C355.675 88.8658 355.865 88.571 355.993 88.1982C356.124 87.8253 356.19 87.4009 356.19 86.9251C356.19 86.4492 356.124 86.0249 355.993 85.652C355.865 85.2791 355.675 84.9844 355.423 84.7678C355.171 84.5511 354.857 84.4428 354.48 84.4428C354.1 84.4428 353.781 84.5511 353.521 84.7678C353.266 84.9844 353.072 85.2791 352.941 85.652C352.813 86.0249 352.749 86.4492 352.749 86.9251C352.749 87.4009 352.813 87.8253 352.941 88.1982C353.072 88.571 353.266 88.8658 353.521 89.0824C353.781 89.2955 354.1 89.402 354.48 89.402ZM366.779 85.1513L364.702 85.2791C364.667 85.1016 364.59 84.9418 364.473 84.7997C364.356 84.6541 364.201 84.5387 364.01 84.4535C363.821 84.3647 363.596 84.3203 363.333 84.3203C362.982 84.3203 362.685 84.3949 362.444 84.544C362.202 84.6896 362.081 84.8849 362.081 85.13C362.081 85.3253 362.159 85.4904 362.316 85.6254C362.472 85.7603 362.74 85.8686 363.12 85.9503L364.601 86.2486C365.396 86.4119 365.989 86.6747 366.38 87.0369C366.771 87.3991 366.966 87.875 366.966 88.4645C366.966 89.0007 366.808 89.4712 366.492 89.8761C366.179 90.2809 365.75 90.5969 365.203 90.8242C364.659 91.0479 364.033 91.1598 363.322 91.1598C362.239 91.1598 361.376 90.9343 360.734 90.4833C360.094 90.0288 359.72 89.4109 359.61 88.6296L361.842 88.5124C361.909 88.8427 362.072 89.0948 362.332 89.2688C362.591 89.4393 362.923 89.5245 363.328 89.5245C363.725 89.5245 364.045 89.4482 364.287 89.2955C364.532 89.1392 364.656 88.9386 364.659 88.6935C364.656 88.4876 364.569 88.3189 364.398 88.1875C364.228 88.0526 363.965 87.9496 363.61 87.8786L362.193 87.5962C361.394 87.4364 360.799 87.1594 360.409 86.7653C360.022 86.3711 359.828 85.8686 359.828 85.2578C359.828 84.7322 359.97 84.2795 360.254 83.8995C360.542 83.5195 360.945 83.2266 361.463 83.0206C361.985 82.8146 362.596 82.7116 363.296 82.7116C364.329 82.7116 365.142 82.93 365.735 83.3668C366.332 83.8036 366.68 84.3984 366.779 85.1513ZM375.776 91H371.909V80.0909H375.808C376.906 80.0909 377.85 80.3093 378.642 80.7461C379.434 81.1793 380.043 81.8026 380.469 82.6158C380.899 83.429 381.114 84.402 381.114 85.5348C381.114 86.6712 380.899 87.6477 380.469 88.4645C380.043 89.2812 379.43 89.908 378.631 90.3448C377.836 90.7816 376.884 91 375.776 91ZM374.216 89.0238H375.68C376.362 89.0238 376.936 88.9031 377.401 88.6616C377.87 88.4165 378.221 88.0384 378.456 87.527C378.694 87.0121 378.812 86.348 378.812 85.5348C378.812 84.7287 378.694 84.07 378.456 83.5586C378.221 83.0472 377.871 82.6708 377.406 82.4293C376.941 82.1879 376.368 82.0671 375.686 82.0671H374.216V89.0238ZM386.508 91.1598C385.667 91.1598 384.942 90.9893 384.335 90.6484C383.731 90.304 383.266 89.8175 382.939 89.1889C382.613 88.5568 382.449 87.8093 382.449 86.9464C382.449 86.1048 382.613 85.3661 382.939 84.7305C383.266 84.0948 383.726 83.5994 384.319 83.2443C384.916 82.8892 385.615 82.7116 386.418 82.7116C386.957 82.7116 387.46 82.7987 387.925 82.9727C388.394 83.1431 388.802 83.4006 389.15 83.745C389.502 84.0895 389.775 84.5227 389.971 85.0447C390.166 85.5632 390.264 86.1705 390.264 86.8665V87.4897H383.355V86.0835H388.128C388.128 85.7567 388.057 85.4673 387.915 85.2152C387.772 84.9631 387.575 84.766 387.323 84.6239C387.075 84.4783 386.785 84.4055 386.455 84.4055C386.111 84.4055 385.805 84.4854 385.539 84.6452C385.276 84.8015 385.07 85.0128 384.921 85.2791C384.772 85.5419 384.695 85.8349 384.692 86.158V87.495C384.692 87.8999 384.766 88.2496 384.916 88.5444C385.068 88.8391 385.283 89.0664 385.56 89.2262C385.837 89.386 386.166 89.4659 386.546 89.4659C386.798 89.4659 387.028 89.4304 387.238 89.3594C387.448 89.2884 387.627 89.1818 387.776 89.0398C387.925 88.8977 388.039 88.7237 388.117 88.5178L390.216 88.6562C390.109 89.1605 389.891 89.6009 389.56 89.9773C389.234 90.3501 388.811 90.6413 388.293 90.8509C387.778 91.0568 387.183 91.1598 386.508 91.1598ZM397.23 80.0909L399.866 88.3793H399.968L402.61 80.0909H405.166L401.406 91H398.433L394.667 80.0909H397.23ZM407.862 91.1545C407.34 91.1545 406.874 91.0639 406.466 90.8828C406.058 90.6982 405.735 90.4265 405.497 90.0678C405.262 89.7056 405.145 89.2546 405.145 88.7148C405.145 88.2603 405.229 87.8786 405.395 87.5696C405.562 87.2607 405.79 87.0121 406.077 86.8239C406.365 86.6357 406.692 86.4936 407.057 86.3977C407.427 86.3018 407.814 86.2344 408.219 86.1953C408.694 86.1456 409.078 86.0994 409.369 86.0568C409.66 86.0107 409.872 85.9432 410.003 85.8544C410.134 85.7656 410.2 85.6342 410.2 85.4602V85.4283C410.2 85.0909 410.094 84.8299 409.881 84.6452C409.671 84.4606 409.373 84.3683 408.986 84.3683C408.577 84.3683 408.252 84.4588 408.011 84.6399C407.769 84.8175 407.61 85.0412 407.531 85.3111L405.433 85.1406C405.539 84.6435 405.749 84.2138 406.061 83.8516C406.374 83.4858 406.777 83.2053 407.27 83.0099C407.768 82.8111 408.343 82.7116 408.996 82.7116C409.451 82.7116 409.886 82.7649 410.301 82.8714C410.72 82.978 411.091 83.1431 411.415 83.3668C411.741 83.5906 411.999 83.8782 412.187 84.2298C412.375 84.5778 412.469 84.995 412.469 85.4815V91H410.317V89.8654H410.253C410.122 90.1211 409.946 90.3466 409.726 90.5419C409.506 90.7337 409.241 90.8846 408.932 90.9947C408.623 91.1012 408.267 91.1545 407.862 91.1545ZM408.512 89.5884C408.845 89.5884 409.14 89.5227 409.396 89.3913C409.651 89.2564 409.852 89.0753 409.998 88.848C410.143 88.6207 410.216 88.3633 410.216 88.0756V87.2074C410.145 87.2536 410.047 87.2962 409.923 87.3352C409.802 87.3707 409.666 87.4045 409.513 87.4364C409.36 87.4648 409.208 87.4915 409.055 87.5163C408.902 87.5376 408.764 87.5572 408.639 87.5749C408.373 87.614 408.14 87.6761 407.942 87.7614C407.743 87.8466 407.588 87.962 407.478 88.1076C407.368 88.2496 407.313 88.4272 407.313 88.6403C407.313 88.9492 407.425 89.1854 407.649 89.3487C407.876 89.5085 408.164 89.5884 408.512 89.5884ZM416.499 80.0909V91H414.23V80.0909H416.499ZM422.013 91.1598C421.186 91.1598 420.47 90.984 419.867 90.6325C419.267 90.2773 418.803 89.7837 418.476 89.1516C418.15 88.516 417.986 87.7791 417.986 86.9411C417.986 86.0959 418.15 85.3572 418.476 84.7251C418.803 84.0895 419.267 83.5959 419.867 83.2443C420.47 82.8892 421.186 82.7116 422.013 82.7116C422.841 82.7116 423.555 82.8892 424.155 83.2443C424.758 83.5959 425.224 84.0895 425.55 84.7251C425.877 85.3572 426.04 86.0959 426.04 86.9411C426.04 87.7791 425.877 88.516 425.55 89.1516C425.224 89.7837 424.758 90.2773 424.155 90.6325C423.555 90.984 422.841 91.1598 422.013 91.1598ZM422.024 89.402C422.4 89.402 422.715 89.2955 422.967 89.0824C423.219 88.8658 423.409 88.571 423.537 88.1982C423.668 87.8253 423.734 87.4009 423.734 86.9251C423.734 86.4492 423.668 86.0249 423.537 85.652C423.409 85.2791 423.219 84.9844 422.967 84.7678C422.715 84.5511 422.4 84.4428 422.024 84.4428C421.644 84.4428 421.324 84.5511 421.065 84.7678C420.81 84.9844 420.616 85.2791 420.485 85.652C420.357 86.0249 420.293 86.4492 420.293 86.9251C420.293 87.4009 420.357 87.8253 420.485 88.1982C420.616 88.571 420.81 88.8658 421.065 89.0824C421.324 89.2955 421.644 89.402 422.024 89.402ZM427.516 91V82.8182H429.716V84.2457H429.801C429.95 83.7379 430.201 83.3544 430.552 83.0952C430.904 82.8324 431.309 82.701 431.767 82.701C431.88 82.701 432.003 82.7081 432.134 82.7223C432.266 82.7365 432.381 82.756 432.48 82.7809V84.7944C432.374 84.7624 432.226 84.734 432.038 84.7092C431.85 84.6843 431.678 84.6719 431.522 84.6719C431.188 84.6719 430.889 84.7447 430.627 84.8903C430.367 85.0323 430.161 85.2312 430.009 85.4869C429.86 85.7425 429.785 86.0373 429.785 86.3711V91H427.516Z" fill="black"/>
    <rect width="113" height="20" transform="translate(229 107)" fill="#FFEB3B"/>
    <path d="M239.948 122V111.091H244.252C245.076 111.091 245.779 111.238 246.362 111.533C246.947 111.824 247.393 112.238 247.699 112.774C248.007 113.307 248.162 113.934 248.162 114.654C248.162 115.379 248.006 116.002 247.693 116.524C247.381 117.043 246.928 117.44 246.335 117.717C245.745 117.994 245.032 118.133 244.194 118.133H241.312V116.279H243.821C244.261 116.279 244.627 116.219 244.918 116.098C245.209 115.977 245.426 115.796 245.568 115.555C245.713 115.313 245.786 115.013 245.786 114.654C245.786 114.292 245.713 113.987 245.568 113.738C245.426 113.49 245.207 113.301 244.913 113.174C244.621 113.042 244.254 112.977 243.81 112.977H242.255V122H239.948ZM245.839 117.036L248.551 122H246.005L243.352 117.036H245.839ZM253.346 122.16C252.505 122.16 251.78 121.989 251.173 121.648C250.569 121.304 250.104 120.817 249.777 120.189C249.451 119.557 249.287 118.809 249.287 117.946C249.287 117.105 249.451 116.366 249.777 115.73C250.104 115.095 250.564 114.599 251.157 114.244C251.753 113.889 252.453 113.712 253.256 113.712C253.795 113.712 254.298 113.799 254.763 113.973C255.232 114.143 255.64 114.401 255.988 114.745C256.34 115.089 256.613 115.523 256.809 116.045C257.004 116.563 257.101 117.17 257.101 117.866V118.49H250.193V117.083H254.965C254.965 116.757 254.894 116.467 254.752 116.215C254.61 115.963 254.413 115.766 254.161 115.624C253.913 115.478 253.623 115.406 253.293 115.406C252.948 115.406 252.643 115.485 252.377 115.645C252.114 115.801 251.908 116.013 251.759 116.279C251.61 116.542 251.533 116.835 251.53 117.158V118.495C251.53 118.9 251.604 119.25 251.753 119.544C251.906 119.839 252.121 120.066 252.398 120.226C252.675 120.386 253.003 120.466 253.383 120.466C253.636 120.466 253.866 120.43 254.076 120.359C254.285 120.288 254.465 120.182 254.614 120.04C254.763 119.898 254.877 119.724 254.955 119.518L257.054 119.656C256.947 120.161 256.729 120.601 256.398 120.977C256.072 121.35 255.649 121.641 255.131 121.851C254.616 122.057 254.021 122.16 253.346 122.16ZM258.582 125.068V113.818H260.82V115.192H260.921C261.02 114.972 261.164 114.749 261.352 114.521C261.544 114.29 261.793 114.099 262.098 113.946C262.407 113.79 262.79 113.712 263.248 113.712C263.845 113.712 264.396 113.868 264.9 114.18C265.404 114.489 265.807 114.956 266.109 115.581C266.411 116.203 266.562 116.982 266.562 117.92C266.562 118.832 266.414 119.603 266.12 120.232C265.828 120.857 265.431 121.331 264.926 121.654C264.426 121.973 263.865 122.133 263.243 122.133C262.803 122.133 262.428 122.06 262.119 121.915C261.814 121.769 261.563 121.586 261.368 121.366C261.173 121.142 261.024 120.917 260.921 120.69H260.851V125.068H258.582ZM260.804 117.909C260.804 118.396 260.871 118.82 261.006 119.182C261.141 119.544 261.336 119.827 261.592 120.029C261.848 120.228 262.158 120.327 262.524 120.327C262.893 120.327 263.206 120.226 263.462 120.024C263.717 119.818 263.911 119.534 264.042 119.172C264.177 118.806 264.245 118.385 264.245 117.909C264.245 117.437 264.179 117.021 264.047 116.663C263.916 116.304 263.723 116.023 263.467 115.821C263.211 115.619 262.897 115.517 262.524 115.517C262.155 115.517 261.842 115.615 261.587 115.81C261.334 116.006 261.141 116.283 261.006 116.641C260.871 117 260.804 117.423 260.804 117.909ZM271.771 122.16C270.944 122.16 270.228 121.984 269.625 121.632C269.024 121.277 268.561 120.784 268.234 120.152C267.908 119.516 267.744 118.779 267.744 117.941C267.744 117.096 267.908 116.357 268.234 115.725C268.561 115.089 269.024 114.596 269.625 114.244C270.228 113.889 270.944 113.712 271.771 113.712C272.599 113.712 273.312 113.889 273.913 114.244C274.516 114.596 274.981 115.089 275.308 115.725C275.635 116.357 275.798 117.096 275.798 117.941C275.798 118.779 275.635 119.516 275.308 120.152C274.981 120.784 274.516 121.277 273.913 121.632C273.312 121.984 272.599 122.16 271.771 122.16ZM271.782 120.402C272.158 120.402 272.473 120.295 272.725 120.082C272.977 119.866 273.167 119.571 273.295 119.198C273.426 118.825 273.492 118.401 273.492 117.925C273.492 117.449 273.426 117.025 273.295 116.652C273.167 116.279 272.977 115.984 272.725 115.768C272.473 115.551 272.158 115.443 271.782 115.443C271.402 115.443 271.082 115.551 270.823 115.768C270.567 115.984 270.374 116.279 270.242 116.652C270.115 117.025 270.051 117.449 270.051 117.925C270.051 118.401 270.115 118.825 270.242 119.198C270.374 119.571 270.567 119.866 270.823 120.082C271.082 120.295 271.402 120.402 271.782 120.402ZM284.081 116.151L282.004 116.279C281.968 116.102 281.892 115.942 281.775 115.8C281.658 115.654 281.503 115.539 281.311 115.453C281.123 115.365 280.898 115.32 280.635 115.32C280.283 115.32 279.987 115.395 279.745 115.544C279.504 115.69 279.383 115.885 279.383 116.13C279.383 116.325 279.461 116.49 279.617 116.625C279.774 116.76 280.042 116.869 280.422 116.95L281.903 117.249C282.698 117.412 283.291 117.675 283.682 118.037C284.072 118.399 284.268 118.875 284.268 119.464C284.268 120.001 284.11 120.471 283.794 120.876C283.481 121.281 283.051 121.597 282.505 121.824C281.961 122.048 281.334 122.16 280.624 122.16C279.541 122.16 278.678 121.934 278.035 121.483C277.396 121.029 277.022 120.411 276.911 119.63L279.143 119.512C279.211 119.843 279.374 120.095 279.633 120.269C279.893 120.439 280.225 120.525 280.63 120.525C281.027 120.525 281.347 120.448 281.588 120.295C281.833 120.139 281.958 119.939 281.961 119.694C281.958 119.488 281.871 119.319 281.7 119.188C281.53 119.053 281.267 118.95 280.912 118.879L279.495 118.596C278.696 118.436 278.101 118.159 277.71 117.765C277.323 117.371 277.13 116.869 277.13 116.258C277.13 115.732 277.272 115.279 277.556 114.9C277.844 114.52 278.247 114.227 278.765 114.021C279.287 113.815 279.898 113.712 280.598 113.712C281.631 113.712 282.444 113.93 283.037 114.367C283.634 114.804 283.982 115.398 284.081 116.151ZM285.697 122V113.818H287.966V122H285.697ZM286.836 112.763C286.499 112.763 286.21 112.652 285.968 112.428C285.73 112.201 285.611 111.929 285.611 111.613C285.611 111.3 285.73 111.032 285.968 110.809C286.21 110.581 286.499 110.468 286.836 110.468C287.174 110.468 287.461 110.581 287.699 110.809C287.941 111.032 288.062 111.3 288.062 111.613C288.062 111.929 287.941 112.201 287.699 112.428C287.461 112.652 287.174 112.763 286.836 112.763ZM294.135 113.818V115.523H289.208V113.818H294.135ZM290.327 111.858H292.596V119.486C292.596 119.695 292.628 119.859 292.692 119.976C292.756 120.089 292.845 120.169 292.958 120.216C293.075 120.262 293.21 120.285 293.363 120.285C293.47 120.285 293.576 120.276 293.683 120.258C293.789 120.237 293.871 120.221 293.928 120.21L294.285 121.899C294.171 121.934 294.011 121.975 293.805 122.021C293.599 122.071 293.349 122.101 293.054 122.112C292.507 122.133 292.028 122.06 291.616 121.893C291.207 121.727 290.89 121.467 290.662 121.116C290.435 120.764 290.323 120.32 290.327 119.784V111.858ZM299.222 122.16C298.395 122.16 297.679 121.984 297.076 121.632C296.476 121.277 296.012 120.784 295.685 120.152C295.359 119.516 295.195 118.779 295.195 117.941C295.195 117.096 295.359 116.357 295.685 115.725C296.012 115.089 296.476 114.596 297.076 114.244C297.679 113.889 298.395 113.712 299.222 113.712C300.05 113.712 300.764 113.889 301.364 114.244C301.967 114.596 302.433 115.089 302.759 115.725C303.086 116.357 303.249 117.096 303.249 117.941C303.249 118.779 303.086 119.516 302.759 120.152C302.433 120.784 301.967 121.277 301.364 121.632C300.764 121.984 300.05 122.16 299.222 122.16ZM299.233 120.402C299.609 120.402 299.924 120.295 300.176 120.082C300.428 119.866 300.618 119.571 300.746 119.198C300.877 118.825 300.943 118.401 300.943 117.925C300.943 117.449 300.877 117.025 300.746 116.652C300.618 116.279 300.428 115.984 300.176 115.768C299.924 115.551 299.609 115.443 299.233 115.443C298.853 115.443 298.533 115.551 298.274 115.768C298.019 115.984 297.825 116.279 297.694 116.652C297.566 117.025 297.502 117.449 297.502 117.925C297.502 118.401 297.566 118.825 297.694 119.198C297.825 119.571 298.019 119.866 298.274 120.082C298.533 120.295 298.853 120.402 299.233 120.402ZM304.725 122V113.818H306.925V115.246H307.01C307.159 114.738 307.41 114.354 307.761 114.095C308.113 113.832 308.517 113.701 308.976 113.701C309.089 113.701 309.212 113.708 309.343 113.722C309.475 113.737 309.59 113.756 309.689 113.781V115.794C309.583 115.762 309.435 115.734 309.247 115.709C309.059 115.684 308.887 115.672 308.731 115.672C308.397 115.672 308.098 115.745 307.836 115.89C307.576 116.032 307.37 116.231 307.218 116.487C307.069 116.743 306.994 117.037 306.994 117.371V122H304.725ZM310.863 122V113.818H313.132V122H310.863ZM312.002 112.763C311.665 112.763 311.376 112.652 311.134 112.428C310.896 112.201 310.777 111.929 310.777 111.613C310.777 111.3 310.896 111.032 311.134 110.809C311.376 110.581 311.665 110.468 312.002 110.468C312.34 110.468 312.627 110.581 312.865 110.809C313.107 111.032 313.228 111.3 313.228 111.613C313.228 111.929 313.107 112.201 312.865 112.428C312.627 112.652 312.34 112.763 312.002 112.763ZM318.646 122.16C317.819 122.16 317.103 121.984 316.5 121.632C315.899 121.277 315.436 120.784 315.109 120.152C314.783 119.516 314.619 118.779 314.619 117.941C314.619 117.096 314.783 116.357 315.109 115.725C315.436 115.089 315.899 114.596 316.5 114.244C317.103 113.889 317.819 113.712 318.646 113.712C319.474 113.712 320.187 113.889 320.788 114.244C321.391 114.596 321.856 115.089 322.183 115.725C322.51 116.357 322.673 117.096 322.673 117.941C322.673 118.779 322.51 119.516 322.183 120.152C321.856 120.784 321.391 121.277 320.788 121.632C320.187 121.984 319.474 122.16 318.646 122.16ZM318.657 120.402C319.033 120.402 319.348 120.295 319.6 120.082C319.852 119.866 320.042 119.571 320.17 119.198C320.301 118.825 320.367 118.401 320.367 117.925C320.367 117.449 320.301 117.025 320.17 116.652C320.042 116.279 319.852 115.984 319.6 115.768C319.348 115.551 319.033 115.443 318.657 115.443C318.277 115.443 317.957 115.551 317.698 115.768C317.442 115.984 317.249 116.279 317.117 116.652C316.99 117.025 316.926 117.449 316.926 117.925C316.926 118.401 316.99 118.825 317.117 119.198C317.249 119.571 317.442 119.866 317.698 120.082C317.957 120.295 318.277 120.402 318.657 120.402ZM330.956 116.151L328.879 116.279C328.843 116.102 328.767 115.942 328.65 115.8C328.533 115.654 328.378 115.539 328.186 115.453C327.998 115.365 327.773 115.32 327.51 115.32C327.158 115.32 326.862 115.395 326.62 115.544C326.379 115.69 326.258 115.885 326.258 116.13C326.258 116.325 326.336 116.49 326.492 116.625C326.649 116.76 326.917 116.869 327.297 116.95L328.778 117.249C329.573 117.412 330.166 117.675 330.557 118.037C330.947 118.399 331.143 118.875 331.143 119.464C331.143 120.001 330.985 120.471 330.669 120.876C330.356 121.281 329.926 121.597 329.38 121.824C328.836 122.048 328.209 122.16 327.499 122.16C326.416 122.16 325.553 121.934 324.91 121.483C324.271 121.029 323.897 120.411 323.786 119.63L326.018 119.512C326.086 119.843 326.249 120.095 326.508 120.269C326.768 120.439 327.1 120.525 327.505 120.525C327.902 120.525 328.222 120.448 328.463 120.295C328.708 120.139 328.833 119.939 328.836 119.694C328.833 119.488 328.746 119.319 328.575 119.188C328.405 119.053 328.142 118.95 327.787 118.879L326.37 118.596C325.571 118.436 324.976 118.159 324.585 117.765C324.198 117.371 324.005 116.869 324.005 116.258C324.005 115.732 324.147 115.279 324.431 114.9C324.719 114.52 325.122 114.227 325.64 114.021C326.162 113.815 326.773 113.712 327.473 113.712C328.506 113.712 329.319 113.93 329.912 114.367C330.509 114.804 330.857 115.398 330.956 116.151Z" fill="black"/>
    <rect width="188" height="20" transform="translate(0 55)" fill="#FFEB3B"/>
    <path d="M20.5735 62.9102H18.2404C18.1978 62.6083 18.1108 62.3402 17.9794 62.1058C17.848 61.8679 17.6793 61.6655 17.4734 61.4986C17.2674 61.3317 17.0295 61.2038 16.7596 61.1151C16.4933 61.0263 16.2038 60.9819 15.8913 60.9819C15.3267 60.9819 14.8349 61.1222 14.4158 61.4027C13.9968 61.6797 13.6719 62.0845 13.4411 62.6172C13.2102 63.1463 13.0948 63.7891 13.0948 64.5455C13.0948 65.3232 13.2102 65.9766 13.4411 66.5057C13.6754 67.0348 14.0021 67.4343 14.4212 67.7042C14.8402 67.9741 15.3249 68.109 15.8754 68.109C16.1843 68.109 16.4702 68.0682 16.733 67.9865C16.9993 67.9048 17.2354 67.7859 17.4414 67.6296C17.6474 67.4698 17.8178 67.2763 17.9528 67.049C18.0913 66.8217 18.1871 66.5625 18.2404 66.2713L20.5735 66.282C20.5131 66.7827 20.3622 67.2656 20.1207 67.7308C19.8828 68.1925 19.5614 68.6062 19.1566 68.9719C18.7553 69.3342 18.2759 69.6218 17.7184 69.8349C17.1644 70.0444 16.5376 70.1491 15.8381 70.1491C14.8651 70.1491 13.995 69.929 13.228 69.4886C12.4645 69.0483 11.8608 68.4109 11.4169 67.5763C10.9766 66.7418 10.7564 65.7315 10.7564 64.5455C10.7564 63.3558 10.9801 62.3438 11.4276 61.5092C11.875 60.6747 12.4822 60.0391 13.2493 59.6023C14.0163 59.1619 14.8793 58.9418 15.8381 58.9418C16.4702 58.9418 17.0561 59.0305 17.5959 59.2081C18.1392 59.3857 18.6204 59.6449 19.0394 59.9858C19.4585 60.3232 19.7994 60.7369 20.0621 61.2269C20.3285 61.717 20.4989 62.2781 20.5735 62.9102ZM25.8816 70.1598C25.0542 70.1598 24.3386 69.984 23.7349 69.6325C23.1348 69.2773 22.6713 68.7837 22.3446 68.1516C22.0179 67.516 21.8546 66.7791 21.8546 65.9411C21.8546 65.0959 22.0179 64.3572 22.3446 63.7251C22.6713 63.0895 23.1348 62.5959 23.7349 62.2443C24.3386 61.8892 25.0542 61.7116 25.8816 61.7116C26.709 61.7116 27.4228 61.8892 28.0229 62.2443C28.6266 62.5959 29.0918 63.0895 29.4185 63.7251C29.7452 64.3572 29.9086 65.0959 29.9086 65.9411C29.9086 66.7791 29.7452 67.516 29.4185 68.1516C29.0918 68.7837 28.6266 69.2773 28.0229 69.6325C27.4228 69.984 26.709 70.1598 25.8816 70.1598ZM25.8922 68.402C26.2686 68.402 26.5829 68.2955 26.835 68.0824C27.0872 67.8658 27.2772 67.571 27.405 67.1982C27.5364 66.8253 27.6021 66.4009 27.6021 65.9251C27.6021 65.4492 27.5364 65.0249 27.405 64.652C27.2772 64.2791 27.0872 63.9844 26.835 63.7678C26.5829 63.5511 26.2686 63.4428 25.8922 63.4428C25.5123 63.4428 25.1926 63.5511 24.9334 63.7678C24.6777 63.9844 24.4842 64.2791 24.3528 64.652C24.225 65.0249 24.161 65.4492 24.161 65.9251C24.161 66.4009 24.225 66.8253 24.3528 67.1982C24.4842 67.571 24.6777 67.8658 24.9334 68.0824C25.1926 68.2955 25.5123 68.402 25.8922 68.402ZM33.6532 65.2699V70H31.3841V61.8182H33.5467V63.2617H33.6426C33.8237 62.7859 34.1273 62.4094 34.5534 62.1325C34.9796 61.8519 35.4963 61.7116 36.1035 61.7116C36.6717 61.7116 37.1671 61.8359 37.5897 62.0845C38.0123 62.3331 38.3407 62.6882 38.5751 63.1499C38.8095 63.608 38.9267 64.1548 38.9267 64.7905V70H36.6575V65.1953C36.661 64.6946 36.5332 64.304 36.274 64.0234C36.0147 63.7393 35.6578 63.5973 35.2033 63.5973C34.8979 63.5973 34.628 63.663 34.3936 63.7944C34.1628 63.9258 33.9817 64.1175 33.8503 64.3697C33.7225 64.6183 33.6568 64.9183 33.6532 65.2699ZM45.067 61.8182V63.5227H40.1398V61.8182H45.067ZM41.2584 59.858H43.5276V67.4858C43.5276 67.6953 43.5596 67.8587 43.6235 67.9759C43.6874 68.0895 43.7762 68.1694 43.8898 68.2156C44.007 68.2617 44.142 68.2848 44.2947 68.2848C44.4012 68.2848 44.5077 68.2759 44.6143 68.2582C44.7208 68.2369 44.8025 68.2209 44.8593 68.2102L45.2162 69.8988C45.1025 69.9343 44.9427 69.9751 44.7368 70.0213C44.5308 70.071 44.2805 70.1012 43.9857 70.1119C43.4388 70.1332 42.9594 70.0604 42.5475 69.8935C42.1391 69.7266 41.8213 69.4673 41.594 69.1158C41.3667 68.7642 41.2549 68.3203 41.2584 67.7841V59.858ZM50.186 70.1598C49.3444 70.1598 48.6199 69.9893 48.0127 69.6484C47.409 69.304 46.9438 68.8175 46.6171 68.1889C46.2904 67.5568 46.127 66.8093 46.127 65.9464C46.127 65.1048 46.2904 64.3661 46.6171 63.7305C46.9438 63.0948 47.4037 62.5994 47.9967 62.2443C48.5933 61.8892 49.2929 61.7116 50.0954 61.7116C50.6352 61.7116 51.1377 61.7987 51.6029 61.9727C52.0716 62.1431 52.48 62.4006 52.828 62.745C53.1796 63.0895 53.453 63.5227 53.6483 64.0447C53.8437 64.5632 53.9413 65.1705 53.9413 65.8665V66.4897H47.0326V65.0835H51.8053C51.8053 64.7567 51.7343 64.4673 51.5922 64.2152C51.4502 63.9631 51.2531 63.766 51.001 63.6239C50.7524 63.4783 50.463 63.4055 50.1327 63.4055C49.7883 63.4055 49.4829 63.4854 49.2165 63.6452C48.9537 63.8015 48.7478 64.0128 48.5986 64.2791C48.4495 64.5419 48.3731 64.8349 48.3696 65.158V66.495C48.3696 66.8999 48.4442 67.2496 48.5933 67.5444C48.746 67.8391 48.9608 68.0664 49.2378 68.2262C49.5148 68.386 49.8433 68.4659 50.2233 68.4659C50.4754 68.4659 50.7062 68.4304 50.9157 68.3594C51.1253 68.2884 51.3046 68.1818 51.4537 68.0398C51.6029 67.8977 51.7165 67.7237 51.7947 67.5178L53.8934 67.6562C53.7868 68.1605 53.5684 68.6009 53.2382 68.9773C52.9115 69.3501 52.4889 69.6413 51.9704 69.8509C51.4555 70.0568 50.8607 70.1598 50.186 70.1598ZM57.172 61.8182L58.6741 64.6786L60.2135 61.8182H62.5413L60.1709 65.9091L62.6052 70H60.2881L58.6741 67.1715L57.0867 70H54.743L57.172 65.9091L54.8282 61.8182H57.172ZM68.2409 61.8182V63.5227H63.3137V61.8182H68.2409ZM64.4323 59.858H66.7014V67.4858C66.7014 67.6953 66.7334 67.8587 66.7973 67.9759C66.8612 68.0895 66.95 68.1694 67.0637 68.2156C67.1808 68.2617 67.3158 68.2848 67.4685 68.2848C67.575 68.2848 67.6816 68.2759 67.7881 68.2582C67.8946 68.2369 67.9763 68.2209 68.0331 68.2102L68.39 69.8988C68.2764 69.9343 68.1166 69.9751 67.9106 70.0213C67.7046 70.071 67.4543 70.1012 67.1595 70.1119C66.6127 70.1332 66.1333 70.0604 65.7213 69.8935C65.3129 69.7266 64.9951 69.4673 64.7678 69.1158C64.5406 68.7642 64.4287 68.3203 64.4323 67.7841V59.858ZM73.3279 70.1598C72.5004 70.1598 71.7849 69.984 71.1812 69.6325C70.5811 69.2773 70.1176 68.7837 69.7909 68.1516C69.4642 67.516 69.3009 66.7791 69.3009 65.9411C69.3009 65.0959 69.4642 64.3572 69.7909 63.7251C70.1176 63.0895 70.5811 62.5959 71.1812 62.2443C71.7849 61.8892 72.5004 61.7116 73.3279 61.7116C74.1553 61.7116 74.8691 61.8892 75.4692 62.2443C76.0729 62.5959 76.5381 63.0895 76.8648 63.7251C77.1915 64.3572 77.3548 65.0959 77.3548 65.9411C77.3548 66.7791 77.1915 67.516 76.8648 68.1516C76.5381 68.7837 76.0729 69.2773 75.4692 69.6325C74.8691 69.984 74.1553 70.1598 73.3279 70.1598ZM73.3385 68.402C73.7149 68.402 74.0292 68.2955 74.2813 68.0824C74.5335 67.8658 74.7235 67.571 74.8513 67.1982C74.9827 66.8253 75.0484 66.4009 75.0484 65.9251C75.0484 65.4492 74.9827 65.0249 74.8513 64.652C74.7235 64.2791 74.5335 63.9844 74.2813 63.7678C74.0292 63.5511 73.7149 63.4428 73.3385 63.4428C72.9585 63.4428 72.6389 63.5511 72.3797 63.7678C72.124 63.9844 71.9305 64.2791 71.7991 64.652C71.6713 65.0249 71.6073 65.4492 71.6073 65.9251C71.6073 66.4009 71.6713 66.8253 71.7991 67.1982C71.9305 67.571 72.124 67.8658 72.3797 68.0824C72.6389 68.2955 72.9585 68.402 73.3385 68.402ZM85.6379 64.1513L83.5605 64.2791C83.5249 64.1016 83.4486 63.9418 83.3314 63.7997C83.2142 63.6541 83.0597 63.5387 82.868 63.4535C82.6798 63.3647 82.4543 63.3203 82.1915 63.3203C81.8399 63.3203 81.5434 63.3949 81.3019 63.544C81.0605 63.6896 80.9397 63.8849 80.9397 64.13C80.9397 64.3253 81.0178 64.4904 81.1741 64.6254C81.3303 64.7603 81.5985 64.8686 81.9784 64.9503L83.4593 65.2486C84.2547 65.4119 84.8477 65.6747 85.2384 66.0369C85.629 66.3991 85.8243 66.875 85.8243 67.4645C85.8243 68.0007 85.6663 68.4712 85.3502 68.8761C85.0377 69.2809 84.608 69.5969 84.0612 69.8242C83.5178 70.0479 82.8911 70.1598 82.1808 70.1598C81.0977 70.1598 80.2348 69.9343 79.5921 69.4833C78.9529 69.0288 78.5782 68.4109 78.4681 67.6296L80.7 67.5124C80.7675 67.8427 80.9308 68.0948 81.1901 68.2688C81.4493 68.4393 81.7813 68.5245 82.1862 68.5245C82.5839 68.5245 82.9035 68.4482 83.145 68.2955C83.39 68.1392 83.5143 67.9386 83.5178 67.6935C83.5143 67.4876 83.4273 67.3189 83.2568 67.1875C83.0864 67.0526 82.8236 66.9496 82.4685 66.8786L81.0516 66.5962C80.2526 66.4364 79.6578 66.1594 79.2671 65.7653C78.8801 65.3711 78.6865 64.8686 78.6865 64.2578C78.6865 63.7322 78.8286 63.2795 79.1127 62.8995C79.4003 62.5195 79.8034 62.2266 80.3218 62.0206C80.8438 61.8146 81.4546 61.7116 82.1542 61.7116C83.1876 61.7116 84.0008 61.93 84.5938 62.3668C85.1904 62.8036 85.5384 63.3984 85.6379 64.1513ZM94.6347 70H90.7675V59.0909H94.6666C95.7639 59.0909 96.7085 59.3093 97.5004 59.7461C98.2923 60.1793 98.9014 60.8026 99.3275 61.6158C99.7572 62.429 99.972 63.402 99.972 64.5348C99.972 65.6712 99.7572 66.6477 99.3275 67.4645C98.9014 68.2812 98.2888 68.908 97.4898 69.3448C96.6943 69.7816 95.7426 70 94.6347 70ZM93.074 68.0238H94.5388C95.2206 68.0238 95.7941 67.9031 96.2593 67.6616C96.7281 67.4165 97.0796 67.0384 97.314 66.527C97.5519 66.0121 97.6709 65.348 97.6709 64.5348C97.6709 63.7287 97.5519 63.07 97.314 62.5586C97.0796 62.0472 96.7298 61.6708 96.2646 61.4293C95.7994 61.1879 95.2259 61.0671 94.5441 61.0671H93.074V68.0238ZM105.367 70.1598C104.525 70.1598 103.801 69.9893 103.193 69.6484C102.59 69.304 102.124 68.8175 101.798 68.1889C101.471 67.5568 101.308 66.8093 101.308 65.9464C101.308 65.1048 101.471 64.3661 101.798 63.7305C102.124 63.0948 102.584 62.5994 103.177 62.2443C103.774 61.8892 104.474 61.7116 105.276 61.7116C105.816 61.7116 106.318 61.7987 106.784 61.9727C107.252 62.1431 107.661 62.4006 108.009 62.745C108.36 63.0895 108.634 63.5227 108.829 64.0447C109.024 64.5632 109.122 65.1705 109.122 65.8665V66.4897H102.213V65.0835H106.986C106.986 64.7567 106.915 64.4673 106.773 64.2152C106.631 63.9631 106.434 63.766 106.182 63.6239C105.933 63.4783 105.644 63.4055 105.313 63.4055C104.969 63.4055 104.664 63.4854 104.397 63.6452C104.134 63.8015 103.928 64.0128 103.779 64.2791C103.63 64.5419 103.554 64.8349 103.55 65.158V66.495C103.55 66.8999 103.625 67.2496 103.774 67.5444C103.927 67.8391 104.142 68.0664 104.419 68.2262C104.695 68.386 105.024 68.4659 105.404 68.4659C105.656 68.4659 105.887 68.4304 106.096 68.3594C106.306 68.2884 106.485 68.1818 106.634 68.0398C106.784 67.8977 106.897 67.7237 106.975 67.5178L109.074 67.6562C108.968 68.1605 108.749 68.6009 108.419 68.9773C108.092 69.3501 107.67 69.6413 107.151 69.8509C106.636 70.0568 106.041 70.1598 105.367 70.1598ZM112.872 59.0909V70H110.603V59.0909H112.872ZM114.69 70V61.8182H116.959V70H114.69ZM115.83 60.7635C115.492 60.7635 115.203 60.6516 114.961 60.4279C114.723 60.2006 114.604 59.929 114.604 59.6129C114.604 59.3004 114.723 59.0323 114.961 58.8086C115.203 58.5813 115.492 58.4677 115.83 58.4677C116.167 58.4677 116.455 58.5813 116.693 58.8086C116.934 59.0323 117.055 59.3004 117.055 59.6129C117.055 59.929 116.934 60.2006 116.693 60.4279C116.455 60.6516 116.167 60.7635 115.83 60.7635ZM118.777 70V61.8182H120.939V63.2617H121.035C121.206 62.7823 121.49 62.4041 121.887 62.1271C122.285 61.8501 122.761 61.7116 123.315 61.7116C123.876 61.7116 124.354 61.8519 124.748 62.1325C125.142 62.4094 125.405 62.7859 125.536 63.2617H125.621C125.788 62.793 126.09 62.4183 126.527 62.1378C126.967 61.8537 127.488 61.7116 128.088 61.7116C128.851 61.7116 129.471 61.9549 129.947 62.4414C130.426 62.9244 130.666 63.6097 130.666 64.4975V70H128.402V64.945C128.402 64.4904 128.281 64.1495 128.04 63.9222C127.798 63.695 127.496 63.5813 127.134 63.5813C126.722 63.5813 126.401 63.7127 126.17 63.9755C125.939 64.2347 125.824 64.5774 125.824 65.0036V70H123.624V64.897C123.624 64.4957 123.509 64.1761 123.278 63.9382C123.05 63.7003 122.75 63.5813 122.377 63.5813C122.125 63.5813 121.898 63.6452 121.696 63.7731C121.497 63.8974 121.339 64.0732 121.222 64.3004C121.104 64.5241 121.046 64.7869 121.046 65.0888V70H118.777ZM132.458 70V61.8182H134.727V70H132.458ZM133.598 60.7635C133.261 60.7635 132.971 60.6516 132.73 60.4279C132.492 60.2006 132.373 59.929 132.373 59.6129C132.373 59.3004 132.492 59.0323 132.73 58.8086C132.971 58.5813 133.261 58.4677 133.598 58.4677C133.936 58.4677 134.223 58.5813 134.461 58.8086C134.703 59.0323 134.823 59.3004 134.823 59.6129C134.823 59.929 134.703 60.2006 134.461 60.4279C134.223 60.6516 133.936 60.7635 133.598 60.7635ZM140.897 61.8182V63.5227H135.97V61.8182H140.897ZM137.089 59.858H139.358V67.4858C139.358 67.6953 139.39 67.8587 139.454 67.9759C139.517 68.0895 139.606 68.1694 139.72 68.2156C139.837 68.2617 139.972 68.2848 140.125 68.2848C140.231 68.2848 140.338 68.2759 140.444 68.2582C140.551 68.2369 140.633 68.2209 140.689 68.2102L141.046 69.8988C140.933 69.9343 140.773 69.9751 140.567 70.0213C140.361 70.071 140.111 70.1012 139.816 70.1119C139.269 70.1332 138.79 70.0604 138.378 69.8935C137.969 69.7266 137.651 69.4673 137.424 69.1158C137.197 68.7642 137.085 68.3203 137.089 67.7841V59.858ZM144.708 70.1545C144.186 70.1545 143.721 70.0639 143.313 69.8828C142.904 69.6982 142.581 69.4265 142.343 69.0678C142.109 68.7056 141.992 68.2546 141.992 67.7148C141.992 67.2603 142.075 66.8786 142.242 66.5696C142.409 66.2607 142.636 66.0121 142.924 65.8239C143.212 65.6357 143.538 65.4936 143.904 65.3977C144.273 65.3018 144.66 65.2344 145.065 65.1953C145.541 65.1456 145.925 65.0994 146.216 65.0568C146.507 65.0107 146.718 64.9432 146.85 64.8544C146.981 64.7656 147.047 64.6342 147.047 64.4602V64.4283C147.047 64.0909 146.94 63.8299 146.727 63.6452C146.518 63.4606 146.219 63.3683 145.832 63.3683C145.424 63.3683 145.099 63.4588 144.858 63.6399C144.616 63.8175 144.456 64.0412 144.378 64.3111L142.279 64.1406C142.386 63.6435 142.595 63.2138 142.908 62.8516C143.22 62.4858 143.623 62.2053 144.117 62.0099C144.614 61.8111 145.19 61.7116 145.843 61.7116C146.297 61.7116 146.733 61.7649 147.148 61.8714C147.567 61.978 147.938 62.1431 148.261 62.3668C148.588 62.5906 148.845 62.8782 149.034 63.2298C149.222 63.5778 149.316 63.995 149.316 64.4815V70H147.164V68.8654H147.1C146.969 69.1211 146.793 69.3466 146.573 69.5419C146.353 69.7337 146.088 69.8846 145.779 69.9947C145.47 70.1012 145.113 70.1545 144.708 70.1545ZM145.358 68.5884C145.692 68.5884 145.987 68.5227 146.242 68.3913C146.498 68.2564 146.699 68.0753 146.844 67.848C146.99 67.6207 147.063 67.3633 147.063 67.0756V66.2074C146.992 66.2536 146.894 66.2962 146.77 66.3352C146.649 66.3707 146.512 66.4045 146.36 66.4364C146.207 66.4648 146.054 66.4915 145.902 66.5163C145.749 66.5376 145.61 66.5572 145.486 66.5749C145.22 66.614 144.987 66.6761 144.788 66.7614C144.589 66.8466 144.435 66.962 144.325 67.1076C144.215 67.2496 144.16 67.4272 144.16 67.6403C144.16 67.9492 144.272 68.1854 144.495 68.3487C144.723 68.5085 145.01 68.5884 145.358 68.5884ZM154.091 70.1332C153.47 70.1332 152.907 69.9734 152.403 69.6538C151.902 69.3306 151.504 68.8565 151.21 68.2315C150.918 67.603 150.773 66.8324 150.773 65.9197C150.773 64.9822 150.924 64.2028 151.226 63.5813C151.527 62.9563 151.929 62.4893 152.429 62.1804C152.934 61.8679 153.486 61.7116 154.086 61.7116C154.544 61.7116 154.926 61.7898 155.231 61.946C155.54 62.0987 155.789 62.2905 155.977 62.5213C156.169 62.7486 156.314 62.9723 156.414 63.1925H156.483V59.0909H158.747V70H156.51V68.6896H156.414C156.307 68.9169 156.156 69.1424 155.961 69.3661C155.769 69.5863 155.519 69.7692 155.21 69.9148C154.905 70.0604 154.532 70.1332 154.091 70.1332ZM154.81 68.3274C155.176 68.3274 155.485 68.228 155.737 68.0291C155.993 67.8267 156.188 67.5444 156.323 67.1822C156.462 66.82 156.531 66.3956 156.531 65.9091C156.531 65.4226 156.464 65 156.329 64.6413C156.194 64.2827 155.998 64.0057 155.743 63.8104C155.487 63.6151 155.176 63.5174 154.81 63.5174C154.438 63.5174 154.123 63.6186 153.868 63.821C153.612 64.0234 153.418 64.304 153.287 64.6626C153.156 65.0213 153.09 65.4368 153.09 65.9091C153.09 66.3849 153.156 66.8058 153.287 67.1715C153.422 67.5337 153.616 67.8178 153.868 68.0238C154.123 68.2262 154.438 68.3274 154.81 68.3274ZM164.309 70.1598C163.482 70.1598 162.766 69.984 162.163 69.6325C161.563 69.2773 161.099 68.7837 160.772 68.1516C160.446 67.516 160.282 66.7791 160.282 65.9411C160.282 65.0959 160.446 64.3572 160.772 63.7251C161.099 63.0895 161.563 62.5959 162.163 62.2443C162.766 61.8892 163.482 61.7116 164.309 61.7116C165.137 61.7116 165.85 61.8892 166.451 62.2443C167.054 62.5959 167.52 63.0895 167.846 63.7251C168.173 64.3572 168.336 65.0959 168.336 65.9411C168.336 66.7791 168.173 67.516 167.846 68.1516C167.52 68.7837 167.054 69.2773 166.451 69.6325C165.85 69.984 165.137 70.1598 164.309 70.1598ZM164.32 68.402C164.696 68.402 165.011 68.2955 165.263 68.0824C165.515 67.8658 165.705 67.571 165.833 67.1982C165.964 66.8253 166.03 66.4009 166.03 65.9251C166.03 65.4492 165.964 65.0249 165.833 64.652C165.705 64.2791 165.515 63.9844 165.263 63.7678C165.011 63.5511 164.696 63.4428 164.32 63.4428C163.94 63.4428 163.62 63.5511 163.361 63.7678C163.105 63.9844 162.912 64.2791 162.781 64.652C162.653 65.0249 162.589 65.4492 162.589 65.9251C162.589 66.4009 162.653 66.8253 162.781 67.1982C162.912 67.571 163.105 67.8658 163.361 68.0824C163.62 68.2955 163.94 68.402 164.32 68.402ZM176.619 64.1513L174.542 64.2791C174.506 64.1016 174.43 63.9418 174.313 63.7997C174.196 63.6541 174.041 63.5387 173.849 63.4535C173.661 63.3647 173.436 63.3203 173.173 63.3203C172.821 63.3203 172.525 63.3949 172.283 63.544C172.042 63.6896 171.921 63.8849 171.921 64.13C171.921 64.3253 171.999 64.4904 172.156 64.6254C172.312 64.7603 172.58 64.8686 172.96 64.9503L174.441 65.2486C175.236 65.4119 175.829 65.6747 176.22 66.0369C176.61 66.3991 176.806 66.875 176.806 67.4645C176.806 68.0007 176.648 68.4712 176.332 68.8761C176.019 69.2809 175.589 69.5969 175.043 69.8242C174.499 70.0479 173.873 70.1598 173.162 70.1598C172.079 70.1598 171.216 69.9343 170.574 69.4833C169.934 69.0288 169.56 68.4109 169.45 67.6296L171.681 67.5124C171.749 67.8427 171.912 68.0948 172.172 68.2688C172.431 68.4393 172.763 68.5245 173.168 68.5245C173.565 68.5245 173.885 68.4482 174.126 68.2955C174.371 68.1392 174.496 67.9386 174.499 67.6935C174.496 67.4876 174.409 67.3189 174.238 67.1875C174.068 67.0526 173.805 66.9496 173.45 66.8786L172.033 66.5962C171.234 66.4364 170.639 66.1594 170.249 65.7653C169.862 65.3711 169.668 64.8686 169.668 64.2578C169.668 63.7322 169.81 63.2795 170.094 62.8995C170.382 62.5195 170.785 62.2266 171.303 62.0206C171.825 61.8146 172.436 61.7116 173.136 61.7116C174.169 61.7116 174.982 61.93 175.575 62.3668C176.172 62.8036 176.52 63.3984 176.619 64.1513Z" fill="black"/>
    <rect width="176" height="20" transform="translate(36 5)" fill="#FFEB3B"/>
    <path d="M52.8661 12.2283C52.8235 11.7987 52.6406 11.4648 52.3175 11.2269C51.9943 10.989 51.5558 10.87 51.0018 10.87C50.6254 10.87 50.3075 10.9233 50.0483 11.0298C49.7891 11.1328 49.5902 11.2766 49.4517 11.4613C49.3168 11.646 49.2493 11.8555 49.2493 12.0898C49.2422 12.2852 49.283 12.4556 49.3718 12.6012C49.4641 12.7468 49.5902 12.8729 49.75 12.9794C49.9098 13.0824 50.0945 13.1729 50.304 13.2511C50.5135 13.3256 50.7372 13.3896 50.9751 13.4428L51.9553 13.6772C52.4311 13.7837 52.8679 13.9258 53.2656 14.1033C53.6634 14.2809 54.0078 14.4993 54.299 14.7585C54.5902 15.0178 54.8157 15.3232 54.9755 15.6747C55.1388 16.0263 55.2223 16.4293 55.2259 16.8839C55.2223 17.5515 55.0518 18.1303 54.7145 18.6204C54.3807 19.1069 53.8977 19.4851 53.2656 19.755C52.6371 20.0213 51.8789 20.1545 50.9911 20.1545C50.1104 20.1545 49.3434 20.0195 48.69 19.7496C48.0401 19.4798 47.5323 19.0803 47.1665 18.5511C46.8043 18.0185 46.6143 17.3597 46.5966 16.5749H48.8285C48.8533 16.9407 48.9581 17.2461 49.1428 17.4911C49.331 17.7326 49.5813 17.9155 49.8938 18.0398C50.2099 18.1605 50.5668 18.2209 50.9645 18.2209C51.3551 18.2209 51.6942 18.1641 51.9819 18.0504C52.2731 17.9368 52.4986 17.7788 52.6584 17.5763C52.8182 17.3739 52.8981 17.1413 52.8981 16.8786C52.8981 16.6335 52.8253 16.4276 52.6797 16.2607C52.5376 16.0937 52.3281 15.9517 52.0511 15.8345C51.7777 15.7173 51.4421 15.6108 51.0444 15.5149L49.8565 15.2166C48.9368 14.9929 48.2106 14.6431 47.6779 14.1673C47.1452 13.6914 46.8807 13.0504 46.8842 12.2443C46.8807 11.5838 47.0565 11.0067 47.4116 10.5131C47.7702 10.0195 48.2621 9.63423 48.8871 9.35724C49.5121 9.08026 50.2223 8.94176 51.0178 8.94176C51.8274 8.94176 52.5341 9.08026 53.1378 9.35724C53.745 9.63423 54.2173 10.0195 54.5547 10.5131C54.892 11.0067 55.0661 11.5785 55.0767 12.2283H52.8661ZM60.4633 20.1598C59.6217 20.1598 58.8973 19.9893 58.29 19.6484C57.6863 19.304 57.2211 18.8175 56.8944 18.1889C56.5677 17.5568 56.4044 16.8093 56.4044 15.9464C56.4044 15.1048 56.5677 14.3661 56.8944 13.7305C57.2211 13.0948 57.681 12.5994 58.2741 12.2443C58.8706 11.8892 59.5702 11.7116 60.3728 11.7116C60.9126 11.7116 61.415 11.7987 61.8802 11.9727C62.349 12.1431 62.7574 12.4006 63.1054 12.745C63.4569 13.0895 63.7304 13.5227 63.9257 14.0447C64.121 14.5632 64.2187 15.1705 64.2187 15.8665V16.4897H57.3099V15.0835H62.0827C62.0827 14.7567 62.0116 14.4673 61.8696 14.2152C61.7275 13.9631 61.5305 13.766 61.2783 13.6239C61.0297 13.4783 60.7403 13.4055 60.4101 13.4055C60.0656 13.4055 59.7602 13.4854 59.4939 13.6452C59.2311 13.8015 59.0251 14.0128 58.876 14.2791C58.7268 14.5419 58.6505 14.8349 58.6469 15.158V16.495C58.6469 16.8999 58.7215 17.2496 58.8706 17.5444C59.0233 17.8391 59.2382 18.0664 59.5152 18.2262C59.7922 18.386 60.1206 18.4659 60.5006 18.4659C60.7528 18.4659 60.9836 18.4304 61.1931 18.3594C61.4026 18.2884 61.5819 18.1818 61.7311 18.0398C61.8802 17.8977 61.9939 17.7237 62.072 17.5178L64.1707 17.6562C64.0642 18.1605 63.8458 18.6009 63.5155 18.9773C63.1888 19.3501 62.7662 19.6413 62.2478 19.8509C61.7329 20.0568 61.1381 20.1598 60.4633 20.1598ZM65.6995 20V11.8182H67.8994V13.2457H67.9846C68.1338 12.7379 68.3841 12.3544 68.7357 12.0952C69.0873 11.8324 69.4921 11.701 69.9502 11.701C70.0638 11.701 70.1863 11.7081 70.3177 11.7223C70.4491 11.7365 70.5645 11.756 70.664 11.7809V13.7944C70.5574 13.7624 70.4101 13.734 70.2219 13.7092C70.0336 13.6843 69.8614 13.6719 69.7052 13.6719C69.3714 13.6719 69.0731 13.7447 68.8103 13.8903C68.551 14.0323 68.3451 14.2312 68.1924 14.4869C68.0432 14.7425 67.9687 15.0373 67.9687 15.3711V20H65.6995ZM79.714 11.8182L76.8536 20H74.2968L71.4363 11.8182H73.8334L75.5326 17.6722H75.6178L77.3117 11.8182H79.714ZM80.8753 20V11.8182H83.1444V20H80.8753ZM82.0152 10.7635C81.6778 10.7635 81.3884 10.6516 81.1469 10.4279C80.909 10.2006 80.79 9.92898 80.79 9.61293C80.79 9.30043 80.909 9.03232 81.1469 8.80859C81.3884 8.58132 81.6778 8.46768 82.0152 8.46768C82.3525 8.46768 82.6402 8.58132 82.8781 8.80859C83.1196 9.03232 83.2403 9.30043 83.2403 9.61293C83.2403 9.92898 83.1196 10.2006 82.8781 10.4279C82.6402 10.6516 82.3525 10.7635 82.0152 10.7635ZM88.6589 20.1598C87.8208 20.1598 87.1 19.9822 86.4963 19.6271C85.8961 19.2685 85.4345 18.7713 85.1113 18.1357C84.7917 17.5 84.6319 16.7685 84.6319 15.9411C84.6319 15.103 84.7935 14.3679 85.1167 13.7358C85.4434 13.1001 85.9068 12.6048 86.5069 12.2496C87.1071 11.891 87.8208 11.7116 88.6483 11.7116C89.362 11.7116 89.987 11.8413 90.5233 12.1005C91.0595 12.3597 91.4838 12.7237 91.7963 13.1925C92.1088 13.6612 92.2811 14.2116 92.313 14.8438H90.1717C90.1113 14.4354 89.9515 14.1069 89.6923 13.8583C89.4366 13.6062 89.101 13.4801 88.6855 13.4801C88.334 13.4801 88.0268 13.576 87.764 13.7678C87.5048 13.956 87.3024 14.2312 87.1568 14.5934C87.0112 14.9556 86.9384 15.3942 86.9384 15.9091C86.9384 16.4311 87.0094 16.875 87.1515 17.2408C87.2971 17.6065 87.5012 17.8853 87.764 18.0771C88.0268 18.2688 88.334 18.3647 88.6855 18.3647C88.9448 18.3647 89.1774 18.3114 89.3833 18.2049C89.5929 18.0984 89.7651 17.9439 89.9 17.7415C90.0385 17.5355 90.1291 17.2887 90.1717 17.0011H92.313C92.2775 17.6261 92.1071 18.1765 91.8017 18.6523C91.4998 19.1246 91.0826 19.494 90.5499 19.7603C90.0172 20.0266 89.3869 20.1598 88.6589 20.1598ZM93.7659 20V11.8182H96.0351V20H93.7659ZM94.9058 10.7635C94.5684 10.7635 94.279 10.6516 94.0376 10.4279C93.7996 10.2006 93.6807 9.92898 93.6807 9.61293C93.6807 9.30043 93.7996 9.03232 94.0376 8.80859C94.279 8.58132 94.5684 8.46768 94.9058 8.46768C95.2432 8.46768 95.5308 8.58132 95.7687 8.80859C96.0102 9.03232 96.1309 9.30043 96.1309 9.61293C96.1309 9.92898 96.0102 10.2006 95.7687 10.4279C95.5308 10.6516 95.2432 10.7635 94.9058 10.7635ZM101.55 20.1598C100.722 20.1598 100.007 19.984 99.4029 19.6325C98.8027 19.2773 98.3393 18.7837 98.0126 18.1516C97.6859 17.516 97.5225 16.7791 97.5225 15.9411C97.5225 15.0959 97.6859 14.3572 98.0126 13.7251C98.3393 13.0895 98.8027 12.5959 99.4029 12.2443C100.007 11.8892 100.722 11.7116 101.55 11.7116C102.377 11.7116 103.091 11.8892 103.691 12.2443C104.295 12.5959 104.76 13.0895 105.086 13.7251C105.413 14.3572 105.577 15.0959 105.577 15.9411C105.577 16.7791 105.413 17.516 105.086 18.1516C104.76 18.7837 104.295 19.2773 103.691 19.6325C103.091 19.984 102.377 20.1598 101.55 20.1598ZM101.56 18.402C101.937 18.402 102.251 18.2955 102.503 18.0824C102.755 17.8658 102.945 17.571 103.073 17.1982C103.204 16.8253 103.27 16.4009 103.27 15.9251C103.27 15.4492 103.204 15.0249 103.073 14.652C102.945 14.2791 102.755 13.9844 102.503 13.7678C102.251 13.5511 101.937 13.4428 101.56 13.4428C101.18 13.4428 100.861 13.5511 100.601 13.7678C100.346 13.9844 100.152 14.2791 100.021 14.652C99.8929 15.0249 99.829 15.4492 99.829 15.9251C99.829 16.4009 99.8929 16.8253 100.021 17.1982C100.152 17.571 100.346 17.8658 100.601 18.0824C100.861 18.2955 101.18 18.402 101.56 18.402ZM113.86 14.1513L111.782 14.2791C111.747 14.1016 111.67 13.9418 111.553 13.7997C111.436 13.6541 111.281 13.5387 111.09 13.4535C110.901 13.3647 110.676 13.3203 110.413 13.3203C110.062 13.3203 109.765 13.3949 109.524 13.544C109.282 13.6896 109.161 13.8849 109.161 14.13C109.161 14.3253 109.24 14.4904 109.396 14.6254C109.552 14.7603 109.82 14.8686 110.2 14.9503L111.681 15.2486C112.476 15.4119 113.069 15.6747 113.46 16.0369C113.851 16.3991 114.046 16.875 114.046 17.4645C114.046 18.0007 113.888 18.4712 113.572 18.8761C113.259 19.2809 112.83 19.5969 112.283 19.8242C111.74 20.0479 111.113 20.1598 110.403 20.1598C109.319 20.1598 108.456 19.9343 107.814 19.4833C107.175 19.0288 106.8 18.4109 106.69 17.6296L108.922 17.5124C108.989 17.8427 109.153 18.0948 109.412 18.2688C109.671 18.4393 110.003 18.5245 110.408 18.5245C110.806 18.5245 111.125 18.4482 111.367 18.2955C111.612 18.1392 111.736 17.9386 111.74 17.6935C111.736 17.4876 111.649 17.3189 111.479 17.1875C111.308 17.0526 111.045 16.9496 110.69 16.8786L109.273 16.5962C108.474 16.4364 107.879 16.1594 107.489 15.7653C107.102 15.3711 106.908 14.8686 106.908 14.2578C106.908 13.7322 107.05 13.2795 107.334 12.8995C107.622 12.5195 108.025 12.2266 108.544 12.0206C109.066 11.8146 109.676 11.7116 110.376 11.7116C111.409 11.7116 112.222 11.93 112.816 12.3668C113.412 12.8036 113.76 13.3984 113.86 14.1513ZM122.856 20H118.989V9.09091H122.888C123.986 9.09091 124.93 9.3093 125.722 9.74609C126.514 10.1793 127.123 10.8026 127.549 11.6158C127.979 12.429 128.194 13.402 128.194 14.5348C128.194 15.6712 127.979 16.6477 127.549 17.4645C127.123 18.2812 126.51 18.908 125.711 19.3448C124.916 19.7816 123.964 20 122.856 20ZM121.296 18.0238H122.76C123.442 18.0238 124.016 17.9031 124.481 17.6616C124.95 17.4165 125.301 17.0384 125.536 16.527C125.774 16.0121 125.893 15.348 125.893 14.5348C125.893 13.7287 125.774 13.07 125.536 12.5586C125.301 12.0472 124.952 11.6708 124.486 11.4293C124.021 11.1879 123.448 11.0671 122.766 11.0671H121.296V18.0238ZM133.588 20.1598C132.747 20.1598 132.022 19.9893 131.415 19.6484C130.811 19.304 130.346 18.8175 130.019 18.1889C129.693 17.5568 129.529 16.8093 129.529 15.9464C129.529 15.1048 129.693 14.3661 130.019 13.7305C130.346 13.0948 130.806 12.5994 131.399 12.2443C131.996 11.8892 132.695 11.7116 133.498 11.7116C134.038 11.7116 134.54 11.7987 135.005 11.9727C135.474 12.1431 135.882 12.4006 136.23 12.745C136.582 13.0895 136.855 13.5227 137.051 14.0447C137.246 14.5632 137.344 15.1705 137.344 15.8665V16.4897H130.435V15.0835H135.208C135.208 14.7567 135.137 14.4673 134.995 14.2152C134.853 13.9631 134.655 13.766 134.403 13.6239C134.155 13.4783 133.865 13.4055 133.535 13.4055C133.191 13.4055 132.885 13.4854 132.619 13.6452C132.356 13.8015 132.15 14.0128 132.001 14.2791C131.852 14.5419 131.775 14.8349 131.772 15.158V16.495C131.772 16.8999 131.847 17.2496 131.996 17.5444C132.148 17.8391 132.363 18.0664 132.64 18.2262C132.917 18.386 133.246 18.4659 133.626 18.4659C133.878 18.4659 134.109 18.4304 134.318 18.3594C134.528 18.2884 134.707 18.1818 134.856 18.0398C135.005 17.8977 135.119 17.7237 135.197 17.5178L137.296 17.6562C137.189 18.1605 136.971 18.6009 136.641 18.9773C136.314 19.3501 135.891 19.6413 135.373 19.8509C134.858 20.0568 134.263 20.1598 133.588 20.1598ZM146.206 20H142.339V9.09091H146.238C147.335 9.09091 148.28 9.3093 149.072 9.74609C149.864 10.1793 150.473 10.8026 150.899 11.6158C151.328 12.429 151.543 13.402 151.543 14.5348C151.543 15.6712 151.328 16.6477 150.899 17.4645C150.473 18.2812 149.86 18.908 149.061 19.3448C148.266 19.7816 147.314 20 146.206 20ZM144.645 18.0238H146.11C146.792 18.0238 147.365 17.9031 147.831 17.6616C148.299 17.4165 148.651 17.0384 148.885 16.527C149.123 16.0121 149.242 15.348 149.242 14.5348C149.242 13.7287 149.123 13.07 148.885 12.5586C148.651 12.0472 148.301 11.6708 147.836 11.4293C147.371 11.1879 146.797 11.0671 146.115 11.0671H144.645V18.0238ZM156.906 20.1598C156.079 20.1598 155.363 19.984 154.759 19.6325C154.159 19.2773 153.696 18.7837 153.369 18.1516C153.042 17.516 152.879 16.7791 152.879 15.9411C152.879 15.0959 153.042 14.3572 153.369 13.7251C153.696 13.0895 154.159 12.5959 154.759 12.2443C155.363 11.8892 156.079 11.7116 156.906 11.7116C157.733 11.7116 158.447 11.8892 159.047 12.2443C159.651 12.5959 160.116 13.0895 160.443 13.7251C160.77 14.3572 160.933 15.0959 160.933 15.9411C160.933 16.7791 160.77 17.516 160.443 18.1516C160.116 18.7837 159.651 19.2773 159.047 19.6325C158.447 19.984 157.733 20.1598 156.906 20.1598ZM156.917 18.402C157.293 18.402 157.607 18.2955 157.859 18.0824C158.112 17.8658 158.302 17.571 158.429 17.1982C158.561 16.8253 158.627 16.4009 158.627 15.9251C158.627 15.4492 158.561 15.0249 158.429 14.652C158.302 14.2791 158.112 13.9844 157.859 13.7678C157.607 13.5511 157.293 13.4428 156.917 13.4428C156.537 13.4428 156.217 13.5511 155.958 13.7678C155.702 13.9844 155.509 14.2791 155.377 14.652C155.249 15.0249 155.185 15.4492 155.185 15.9251C155.185 16.4009 155.249 16.8253 155.377 17.1982C155.509 17.571 155.702 17.8658 155.958 18.0824C156.217 18.2955 156.537 18.402 156.917 18.402ZM162.408 20V11.8182H164.571V13.2617H164.667C164.837 12.7823 165.122 12.4041 165.519 12.1271C165.917 11.8501 166.393 11.7116 166.947 11.7116C167.508 11.7116 167.986 11.8519 168.38 12.1325C168.774 12.4094 169.037 12.7859 169.168 13.2617H169.253C169.42 12.793 169.722 12.4183 170.159 12.1378C170.599 11.8537 171.119 11.7116 171.72 11.7116C172.483 11.7116 173.103 11.9549 173.579 12.4414C174.058 12.9244 174.298 13.6097 174.298 14.4975V20H172.034V14.945C172.034 14.4904 171.913 14.1495 171.672 13.9222C171.43 13.695 171.128 13.5813 170.766 13.5813C170.354 13.5813 170.033 13.7127 169.802 13.9755C169.571 14.2347 169.456 14.5774 169.456 15.0036V20H167.256V14.897C167.256 14.4957 167.14 14.1761 166.91 13.9382C166.682 13.7003 166.382 13.5813 166.009 13.5813C165.757 13.5813 165.53 13.6452 165.328 13.7731C165.129 13.8974 164.971 14.0732 164.853 14.3004C164.736 14.5241 164.678 14.7869 164.678 15.0888V20H162.408ZM176.09 20V11.8182H178.359V20H176.09ZM177.23 10.7635C176.893 10.7635 176.603 10.6516 176.362 10.4279C176.124 10.2006 176.005 9.92898 176.005 9.61293C176.005 9.30043 176.124 9.03232 176.362 8.80859C176.603 8.58132 176.893 8.46768 177.23 8.46768C177.567 8.46768 177.855 8.58132 178.093 8.80859C178.334 9.03232 178.455 9.30043 178.455 9.61293C178.455 9.92898 178.334 10.2006 178.093 10.4279C177.855 10.6516 177.567 10.7635 177.23 10.7635ZM182.446 15.2699V20H180.177V11.8182H182.34V13.2617H182.436C182.617 12.7859 182.92 12.4094 183.346 12.1325C183.773 11.8519 184.289 11.7116 184.896 11.7116C185.465 11.7116 185.96 11.8359 186.383 12.0845C186.805 12.3331 187.134 12.6882 187.368 13.1499C187.602 13.608 187.72 14.1548 187.72 14.7905V20H185.45V15.1953C185.454 14.6946 185.326 14.304 185.067 14.0234C184.808 13.7393 184.451 13.5973 183.996 13.5973C183.691 13.5973 183.421 13.663 183.187 13.7944C182.956 13.9258 182.775 14.1175 182.643 14.3697C182.515 14.6183 182.45 14.9183 182.446 15.2699ZM189.508 20V11.8182H191.777V20H189.508ZM190.648 10.7635C190.311 10.7635 190.021 10.6516 189.78 10.4279C189.542 10.2006 189.423 9.92898 189.423 9.61293C189.423 9.30043 189.542 9.03232 189.78 8.80859C190.021 8.58132 190.311 8.46768 190.648 8.46768C190.985 8.46768 191.273 8.58132 191.511 8.80859C191.752 9.03232 191.873 9.30043 191.873 9.61293C191.873 9.92898 191.752 10.2006 191.511 10.4279C191.273 10.6516 190.985 10.7635 190.648 10.7635ZM197.292 20.1598C196.464 20.1598 195.749 19.984 195.145 19.6325C194.545 19.2773 194.081 18.7837 193.755 18.1516C193.428 17.516 193.265 16.7791 193.265 15.9411C193.265 15.0959 193.428 14.3572 193.755 13.7251C194.081 13.0895 194.545 12.5959 195.145 12.2443C195.749 11.8892 196.464 11.7116 197.292 11.7116C198.119 11.7116 198.833 11.8892 199.433 12.2443C200.037 12.5959 200.502 13.0895 200.829 13.7251C201.155 14.3572 201.319 15.0959 201.319 15.9411C201.319 16.7791 201.155 17.516 200.829 18.1516C200.502 18.7837 200.037 19.2773 199.433 19.6325C198.833 19.984 198.119 20.1598 197.292 20.1598ZM197.302 18.402C197.679 18.402 197.993 18.2955 198.245 18.0824C198.497 17.8658 198.687 17.571 198.815 17.1982C198.947 16.8253 199.012 16.4009 199.012 15.9251C199.012 15.4492 198.947 15.0249 198.815 14.652C198.687 14.2791 198.497 13.9844 198.245 13.7678C197.993 13.5511 197.679 13.4428 197.302 13.4428C196.922 13.4428 196.603 13.5511 196.344 13.7678C196.088 13.9844 195.894 14.2791 195.763 14.652C195.635 15.0249 195.571 15.4492 195.571 15.9251C195.571 16.4009 195.635 16.8253 195.763 17.1982C195.894 17.571 196.088 17.8658 196.344 18.0824C196.603 18.2955 196.922 18.402 197.302 18.402Z" fill="black"/>
    <rect width="167" height="20" transform="translate(41 101)" fill="#FFEB3B"/>
    <path d="M51.9482 116V105.091H59.299V106.993H54.2546V109.592H58.9208V111.494H54.2546V114.098H59.3203V116H51.9482ZM68.718 107.818L65.8575 116H63.3007L60.4403 107.818H62.8373L64.5365 113.672H64.6217L66.3156 107.818H68.718ZM73.3442 116.16C72.5026 116.16 71.7781 115.989 71.1709 115.648C70.5672 115.304 70.102 114.817 69.7753 114.189C69.4486 113.557 69.2852 112.809 69.2852 111.946C69.2852 111.105 69.4486 110.366 69.7753 109.73C70.102 109.095 70.5619 108.599 71.1549 108.244C71.7515 107.889 72.4511 107.712 73.2536 107.712C73.7934 107.712 74.2959 107.799 74.7611 107.973C75.2298 108.143 75.6382 108.401 75.9862 108.745C76.3378 109.089 76.6112 109.523 76.8066 110.045C77.0019 110.563 77.0995 111.17 77.0995 111.866V112.49H70.1908V111.083H74.9635C74.9635 110.757 74.8925 110.467 74.7504 110.215C74.6084 109.963 74.4113 109.766 74.1592 109.624C73.9106 109.478 73.6212 109.406 73.2909 109.406C72.9465 109.406 72.6411 109.485 72.3747 109.645C72.1119 109.801 71.906 110.013 71.7568 110.279C71.6077 110.542 71.5313 110.835 71.5278 111.158V112.495C71.5278 112.9 71.6024 113.25 71.7515 113.544C71.9042 113.839 72.1191 114.066 72.396 114.226C72.673 114.386 73.0015 114.466 73.3815 114.466C73.6336 114.466 73.8644 114.43 74.074 114.359C74.2835 114.288 74.4628 114.182 74.6119 114.04C74.7611 113.898 74.8747 113.724 74.9529 113.518L77.0516 113.656C76.945 114.161 76.7267 114.601 76.3964 114.977C76.0697 115.35 75.6471 115.641 75.1286 115.851C74.6137 116.057 74.0189 116.16 73.3442 116.16ZM80.8495 111.27V116H78.5803V107.818H80.743V109.262H80.8389C81.02 108.786 81.3236 108.409 81.7497 108.132C82.1759 107.852 82.6926 107.712 83.2998 107.712C83.868 107.712 84.3634 107.836 84.786 108.085C85.2085 108.333 85.537 108.688 85.7714 109.15C86.0058 109.608 86.123 110.155 86.123 110.79V116H83.8538V111.195C83.8573 110.695 83.7295 110.304 83.4703 110.023C83.211 109.739 82.8541 109.597 82.3996 109.597C82.0942 109.597 81.8243 109.663 81.5899 109.794C81.3591 109.926 81.178 110.118 81.0466 110.37C80.9188 110.618 80.8531 110.918 80.8495 111.27ZM92.2633 107.818V109.523H87.3361V107.818H92.2633ZM88.4547 105.858H90.7239V113.486C90.7239 113.695 90.7559 113.859 90.8198 113.976C90.8837 114.089 90.9725 114.169 91.0861 114.216C91.2033 114.262 91.3382 114.285 91.4909 114.285C91.5975 114.285 91.704 114.276 91.8105 114.258C91.9171 114.237 91.9988 114.221 92.0556 114.21L92.4125 115.899C92.2988 115.934 92.139 115.975 91.9331 116.021C91.7271 116.071 91.4767 116.101 91.182 116.112C90.6351 116.133 90.1557 116.06 89.7438 115.893C89.3354 115.727 89.0176 115.467 88.7903 115.116C88.563 114.764 88.4512 114.32 88.4547 113.784V105.858ZM97.3503 116.16C96.5229 116.16 95.8074 115.984 95.2037 115.632C94.6035 115.277 94.1401 114.784 93.8134 114.152C93.4867 113.516 93.3233 112.779 93.3233 111.941C93.3233 111.096 93.4867 110.357 93.8134 109.725C94.1401 109.089 94.6035 108.596 95.2037 108.244C95.8074 107.889 96.5229 107.712 97.3503 107.712C98.1777 107.712 98.8915 107.889 99.4917 108.244C100.095 108.596 100.561 109.089 100.887 109.725C101.214 110.357 101.377 111.096 101.377 111.941C101.377 112.779 101.214 113.516 100.887 114.152C100.561 114.784 100.095 115.277 99.4917 115.632C98.8915 115.984 98.1777 116.16 97.3503 116.16ZM97.361 114.402C97.7374 114.402 98.0517 114.295 98.3038 114.082C98.5559 113.866 98.7459 113.571 98.8738 113.198C99.0051 112.825 99.0708 112.401 99.0708 111.925C99.0708 111.449 99.0051 111.025 98.8738 110.652C98.7459 110.279 98.5559 109.984 98.3038 109.768C98.0517 109.551 97.7374 109.443 97.361 109.443C96.981 109.443 96.6614 109.551 96.4022 109.768C96.1465 109.984 95.9529 110.279 95.8216 110.652C95.6937 111.025 95.6298 111.449 95.6298 111.925C95.6298 112.401 95.6937 112.825 95.8216 113.198C95.9529 113.571 96.1465 113.866 96.4022 114.082C96.6614 114.295 96.981 114.402 97.361 114.402ZM109.66 110.151L107.583 110.279C107.547 110.102 107.471 109.942 107.354 109.8C107.237 109.654 107.082 109.539 106.89 109.453C106.702 109.365 106.477 109.32 106.214 109.32C105.862 109.32 105.566 109.395 105.324 109.544C105.083 109.69 104.962 109.885 104.962 110.13C104.962 110.325 105.04 110.49 105.197 110.625C105.353 110.76 105.621 110.869 106.001 110.95L107.482 111.249C108.277 111.412 108.87 111.675 109.261 112.037C109.651 112.399 109.847 112.875 109.847 113.464C109.847 114.001 109.689 114.471 109.373 114.876C109.06 115.281 108.631 115.597 108.084 115.824C107.54 116.048 106.914 116.16 106.203 116.16C105.12 116.16 104.257 115.934 103.615 115.483C102.975 115.029 102.601 114.411 102.491 113.63L104.722 113.512C104.79 113.843 104.953 114.095 105.213 114.269C105.472 114.439 105.804 114.525 106.209 114.525C106.606 114.525 106.926 114.448 107.167 114.295C107.412 114.139 107.537 113.939 107.54 113.694C107.537 113.488 107.45 113.319 107.279 113.188C107.109 113.053 106.846 112.95 106.491 112.879L105.074 112.596C104.275 112.436 103.68 112.159 103.29 111.765C102.903 111.371 102.709 110.869 102.709 110.258C102.709 109.732 102.851 109.279 103.135 108.9C103.423 108.52 103.826 108.227 104.344 108.021C104.866 107.815 105.477 107.712 106.177 107.712C107.21 107.712 108.023 107.93 108.616 108.367C109.213 108.804 109.561 109.398 109.66 110.151ZM118.657 116H114.79V105.091H118.689C119.786 105.091 120.731 105.309 121.523 105.746C122.315 106.179 122.924 106.803 123.35 107.616C123.78 108.429 123.994 109.402 123.994 110.535C123.994 111.671 123.78 112.648 123.35 113.464C122.924 114.281 122.311 114.908 121.512 115.345C120.717 115.782 119.765 116 118.657 116ZM117.096 114.024H118.561C119.243 114.024 119.817 113.903 120.282 113.662C120.751 113.417 121.102 113.038 121.336 112.527C121.574 112.012 121.693 111.348 121.693 110.535C121.693 109.729 121.574 109.07 121.336 108.559C121.102 108.047 120.752 107.671 120.287 107.429C119.822 107.188 119.248 107.067 118.567 107.067H117.096V114.024ZM129.389 116.16C128.547 116.16 127.823 115.989 127.216 115.648C126.612 115.304 126.147 114.817 125.82 114.189C125.494 113.557 125.33 112.809 125.33 111.946C125.33 111.105 125.494 110.366 125.82 109.73C126.147 109.095 126.607 108.599 127.2 108.244C127.796 107.889 128.496 107.712 129.299 107.712C129.838 107.712 130.341 107.799 130.806 107.973C131.275 108.143 131.683 108.401 132.031 108.745C132.383 109.089 132.656 109.523 132.851 110.045C133.047 110.563 133.144 111.17 133.144 111.866V112.49H126.236V111.083H131.008C131.008 110.757 130.937 110.467 130.795 110.215C130.653 109.963 130.456 109.766 130.204 109.624C129.956 109.478 129.666 109.406 129.336 109.406C128.991 109.406 128.686 109.485 128.42 109.645C128.157 109.801 127.951 110.013 127.802 110.279C127.653 110.542 127.576 110.835 127.573 111.158V112.495C127.573 112.9 127.647 113.25 127.796 113.544C127.949 113.839 128.164 114.066 128.441 114.226C128.718 114.386 129.046 114.466 129.426 114.466C129.679 114.466 129.909 114.43 130.119 114.359C130.328 114.288 130.508 114.182 130.657 114.04C130.806 113.898 130.92 113.724 130.998 113.518L133.097 113.656C132.99 114.161 132.772 114.601 132.441 114.977C132.115 115.35 131.692 115.641 131.174 115.851C130.659 116.057 130.064 116.16 129.389 116.16ZM142.007 116H138.14V105.091H142.039C143.136 105.091 144.081 105.309 144.873 105.746C145.664 106.179 146.273 106.803 146.7 107.616C147.129 108.429 147.344 109.402 147.344 110.535C147.344 111.671 147.129 112.648 146.7 113.464C146.273 114.281 145.661 114.908 144.862 115.345C144.066 115.782 143.115 116 142.007 116ZM140.446 114.024H141.911C142.593 114.024 143.166 113.903 143.631 113.662C144.1 113.417 144.452 113.038 144.686 112.527C144.924 112.012 145.043 111.348 145.043 110.535C145.043 109.729 144.924 109.07 144.686 108.559C144.452 108.047 144.102 107.671 143.637 107.429C143.172 107.188 142.598 107.067 141.916 107.067H140.446V114.024ZM152.707 116.16C151.879 116.16 151.164 115.984 150.56 115.632C149.96 115.277 149.497 114.784 149.17 114.152C148.843 113.516 148.68 112.779 148.68 111.941C148.68 111.096 148.843 110.357 149.17 109.725C149.497 109.089 149.96 108.596 150.56 108.244C151.164 107.889 151.879 107.712 152.707 107.712C153.534 107.712 154.248 107.889 154.848 108.244C155.452 108.596 155.917 109.089 156.244 109.725C156.57 110.357 156.734 111.096 156.734 111.941C156.734 112.779 156.57 113.516 156.244 114.152C155.917 114.784 155.452 115.277 154.848 115.632C154.248 115.984 153.534 116.16 152.707 116.16ZM152.717 114.402C153.094 114.402 153.408 114.295 153.66 114.082C153.912 113.866 154.102 113.571 154.23 113.198C154.362 112.825 154.427 112.401 154.427 111.925C154.427 111.449 154.362 111.025 154.23 110.652C154.102 110.279 153.912 109.984 153.66 109.768C153.408 109.551 153.094 109.443 152.717 109.443C152.337 109.443 152.018 109.551 151.759 109.768C151.503 109.984 151.309 110.279 151.178 110.652C151.05 111.025 150.986 111.449 150.986 111.925C150.986 112.401 151.05 112.825 151.178 113.198C151.309 113.571 151.503 113.866 151.759 114.082C152.018 114.295 152.337 114.402 152.717 114.402ZM158.209 116V107.818H160.372V109.262H160.468C160.638 108.782 160.922 108.404 161.32 108.127C161.718 107.85 162.194 107.712 162.748 107.712C163.309 107.712 163.786 107.852 164.18 108.132C164.575 108.409 164.837 108.786 164.969 109.262H165.054C165.221 108.793 165.523 108.418 165.96 108.138C166.4 107.854 166.92 107.712 167.52 107.712C168.284 107.712 168.903 107.955 169.379 108.441C169.859 108.924 170.098 109.61 170.098 110.498V116H167.835V110.945C167.835 110.49 167.714 110.15 167.472 109.922C167.231 109.695 166.929 109.581 166.567 109.581C166.155 109.581 165.834 109.713 165.603 109.975C165.372 110.235 165.256 110.577 165.256 111.004V116H163.057V110.897C163.057 110.496 162.941 110.176 162.71 109.938C162.483 109.7 162.183 109.581 161.81 109.581C161.558 109.581 161.331 109.645 161.128 109.773C160.929 109.897 160.771 110.073 160.654 110.3C160.537 110.524 160.478 110.787 160.478 111.089V116H158.209ZM171.891 116V107.818H174.16V116H171.891ZM173.031 106.763C172.693 106.763 172.404 106.652 172.163 106.428C171.925 106.201 171.806 105.929 171.806 105.613C171.806 105.3 171.925 105.032 172.163 104.809C172.404 104.581 172.693 104.468 173.031 104.468C173.368 104.468 173.656 104.581 173.894 104.809C174.135 105.032 174.256 105.3 174.256 105.613C174.256 105.929 174.135 106.201 173.894 106.428C173.656 106.652 173.368 106.763 173.031 106.763ZM178.247 111.27V116H175.978V107.818H178.14V109.262H178.236C178.417 108.786 178.721 108.409 179.147 108.132C179.573 107.852 180.09 107.712 180.697 107.712C181.265 107.712 181.761 107.836 182.183 108.085C182.606 108.333 182.934 108.688 183.169 109.15C183.403 109.608 183.52 110.155 183.52 110.79V116H181.251V111.195C181.255 110.695 181.127 110.304 180.868 110.023C180.608 109.739 180.252 109.597 179.797 109.597C179.492 109.597 179.222 109.663 178.987 109.794C178.757 109.926 178.575 110.118 178.444 110.37C178.316 110.618 178.251 110.918 178.247 111.27ZM185.309 116V107.818H187.578V116H185.309ZM186.449 106.763C186.111 106.763 185.822 106.652 185.581 106.428C185.343 106.201 185.224 105.929 185.224 105.613C185.224 105.3 185.343 105.032 185.581 104.809C185.822 104.581 186.111 104.468 186.449 104.468C186.786 104.468 187.074 104.581 187.312 104.809C187.553 105.032 187.674 105.3 187.674 105.613C187.674 105.929 187.553 106.201 187.312 106.428C187.074 106.652 186.786 106.763 186.449 106.763ZM193.093 116.16C192.265 116.16 191.55 115.984 190.946 115.632C190.346 115.277 189.882 114.784 189.556 114.152C189.229 113.516 189.066 112.779 189.066 111.941C189.066 111.096 189.229 110.357 189.556 109.725C189.882 109.089 190.346 108.596 190.946 108.244C191.55 107.889 192.265 107.712 193.093 107.712C193.92 107.712 194.634 107.889 195.234 108.244C195.838 108.596 196.303 109.089 196.629 109.725C196.956 110.357 197.119 111.096 197.119 111.941C197.119 112.779 196.956 113.516 196.629 114.152C196.303 114.784 195.838 115.277 195.234 115.632C194.634 115.984 193.92 116.16 193.093 116.16ZM193.103 114.402C193.48 114.402 193.794 114.295 194.046 114.082C194.298 113.866 194.488 113.571 194.616 113.198C194.747 112.825 194.813 112.401 194.813 111.925C194.813 111.449 194.747 111.025 194.616 110.652C194.488 110.279 194.298 109.984 194.046 109.768C193.794 109.551 193.48 109.443 193.103 109.443C192.723 109.443 192.404 109.551 192.144 109.768C191.889 109.984 191.695 110.279 191.564 110.652C191.436 111.025 191.372 111.449 191.372 111.925C191.372 112.401 191.436 112.825 191.564 113.198C191.695 113.571 191.889 113.866 192.144 114.082C192.404 114.295 192.723 114.402 193.103 114.402Z" fill="black"/>
</svg>