<svg width="351" height="140" viewBox="0 0 351 140" fill="none" xmlns="http://www.w3.org/2000/svg">
    <rect width="195" height="20" transform="translate(156 120)" fill="#F968F3"/>
    <path d="M176.574 127.91H174.24C174.198 127.608 174.111 127.34 173.979 127.106C173.848 126.868 173.679 126.665 173.473 126.499C173.267 126.332 173.029 126.204 172.76 126.115C172.493 126.026 172.204 125.982 171.891 125.982C171.327 125.982 170.835 126.122 170.416 126.403C169.997 126.68 169.672 127.085 169.441 127.617C169.21 128.146 169.095 128.789 169.095 129.545C169.095 130.323 169.21 130.977 169.441 131.506C169.675 132.035 170.002 132.434 170.421 132.704C170.84 132.974 171.325 133.109 171.875 133.109C172.184 133.109 172.47 133.068 172.733 132.987C172.999 132.905 173.235 132.786 173.441 132.63C173.647 132.47 173.818 132.276 173.953 132.049C174.091 131.822 174.187 131.562 174.24 131.271L176.574 131.282C176.513 131.783 176.362 132.266 176.121 132.731C175.883 133.192 175.561 133.606 175.157 133.972C174.755 134.334 174.276 134.622 173.718 134.835C173.164 135.044 172.538 135.149 171.838 135.149C170.865 135.149 169.995 134.929 169.228 134.489C168.464 134.048 167.861 133.411 167.417 132.576C166.977 131.742 166.756 130.732 166.756 129.545C166.756 128.356 166.98 127.344 167.428 126.509C167.875 125.675 168.482 125.039 169.249 124.602C170.016 124.162 170.879 123.942 171.838 123.942C172.47 123.942 173.056 124.031 173.596 124.208C174.139 124.386 174.62 124.645 175.039 124.986C175.458 125.323 175.799 125.737 176.062 126.227C176.328 126.717 176.499 127.278 176.574 127.91ZM181.882 135.16C181.054 135.16 180.339 134.984 179.735 134.632C179.135 134.277 178.671 133.784 178.345 133.152C178.018 132.516 177.855 131.779 177.855 130.941C177.855 130.096 178.018 129.357 178.345 128.725C178.671 128.089 179.135 127.596 179.735 127.244C180.339 126.889 181.054 126.712 181.882 126.712C182.709 126.712 183.423 126.889 184.023 127.244C184.627 127.596 185.092 128.089 185.419 128.725C185.745 129.357 185.909 130.096 185.909 130.941C185.909 131.779 185.745 132.516 185.419 133.152C185.092 133.784 184.627 134.277 184.023 134.632C183.423 134.984 182.709 135.16 181.882 135.16ZM181.892 133.402C182.269 133.402 182.583 133.295 182.835 133.082C183.087 132.866 183.277 132.571 183.405 132.198C183.536 131.825 183.602 131.401 183.602 130.925C183.602 130.449 183.536 130.025 183.405 129.652C183.277 129.279 183.087 128.984 182.835 128.768C182.583 128.551 182.269 128.443 181.892 128.443C181.512 128.443 181.193 128.551 180.933 128.768C180.678 128.984 180.484 129.279 180.353 129.652C180.225 130.025 180.161 130.449 180.161 130.925C180.161 131.401 180.225 131.825 180.353 132.198C180.484 132.571 180.678 132.866 180.933 133.082C181.193 133.295 181.512 133.402 181.892 133.402ZM189.653 130.27V135H187.384V126.818H189.547V128.262H189.643C189.824 127.786 190.127 127.409 190.553 127.132C190.98 126.852 191.496 126.712 192.104 126.712C192.672 126.712 193.167 126.836 193.59 127.085C194.012 127.333 194.341 127.688 194.575 128.15C194.809 128.608 194.927 129.155 194.927 129.79V135H192.657V130.195C192.661 129.695 192.533 129.304 192.274 129.023C192.015 128.739 191.658 128.597 191.203 128.597C190.898 128.597 190.628 128.663 190.394 128.794C190.163 128.926 189.982 129.118 189.85 129.37C189.722 129.618 189.657 129.918 189.653 130.27ZM201.067 126.818V128.523H196.14V126.818H201.067ZM197.258 124.858H199.528V132.486C199.528 132.695 199.56 132.859 199.623 132.976C199.687 133.089 199.776 133.169 199.89 133.216C200.007 133.262 200.142 133.285 200.295 133.285C200.401 133.285 200.508 133.276 200.614 133.258C200.721 133.237 200.802 133.221 200.859 133.21L201.216 134.899C201.103 134.934 200.943 134.975 200.737 135.021C200.531 135.071 200.28 135.101 199.986 135.112C199.439 135.133 198.959 135.06 198.547 134.893C198.139 134.727 197.821 134.467 197.594 134.116C197.367 133.764 197.255 133.32 197.258 132.784V124.858ZM202.545 135V126.818H204.745V128.246H204.83C204.979 127.738 205.23 127.354 205.581 127.095C205.933 126.832 206.338 126.701 206.796 126.701C206.91 126.701 207.032 126.708 207.163 126.722C207.295 126.737 207.41 126.756 207.51 126.781V128.794C207.403 128.762 207.256 128.734 207.068 128.709C206.879 128.684 206.707 128.672 206.551 128.672C206.217 128.672 205.919 128.745 205.656 128.89C205.397 129.032 205.191 129.231 205.038 129.487C204.889 129.743 204.814 130.037 204.814 130.371V135H202.545ZM211.999 135.16C211.171 135.16 210.456 134.984 209.852 134.632C209.252 134.277 208.789 133.784 208.462 133.152C208.135 132.516 207.972 131.779 207.972 130.941C207.972 130.096 208.135 129.357 208.462 128.725C208.789 128.089 209.252 127.596 209.852 127.244C210.456 126.889 211.171 126.712 211.999 126.712C212.826 126.712 213.54 126.889 214.14 127.244C214.744 127.596 215.209 128.089 215.536 128.725C215.862 129.357 216.026 130.096 216.026 130.941C216.026 131.779 215.862 132.516 215.536 133.152C215.209 133.784 214.744 134.277 214.14 134.632C213.54 134.984 212.826 135.16 211.999 135.16ZM212.009 133.402C212.386 133.402 212.7 133.295 212.952 133.082C213.204 132.866 213.394 132.571 213.522 132.198C213.654 131.825 213.719 131.401 213.719 130.925C213.719 130.449 213.654 130.025 213.522 129.652C213.394 129.279 213.204 128.984 212.952 128.768C212.7 128.551 212.386 128.443 212.009 128.443C211.629 128.443 211.31 128.551 211.051 128.768C210.795 128.984 210.601 129.279 210.47 129.652C210.342 130.025 210.278 130.449 210.278 130.925C210.278 131.401 210.342 131.825 210.47 132.198C210.601 132.571 210.795 132.866 211.051 133.082C211.31 133.295 211.629 133.402 212.009 133.402ZM219.77 124.091V135H217.501V124.091H219.77ZM223.921 135.154C223.399 135.154 222.934 135.064 222.526 134.883C222.117 134.698 221.794 134.426 221.556 134.068C221.322 133.706 221.205 133.255 221.205 132.715C221.205 132.26 221.288 131.879 221.455 131.57C221.622 131.261 221.849 131.012 222.137 130.824C222.424 130.636 222.751 130.494 223.117 130.398C223.486 130.302 223.873 130.234 224.278 130.195C224.754 130.146 225.138 130.099 225.429 130.057C225.72 130.011 225.931 129.943 226.063 129.854C226.194 129.766 226.26 129.634 226.26 129.46V129.428C226.26 129.091 226.153 128.83 225.94 128.645C225.731 128.461 225.432 128.368 225.045 128.368C224.637 128.368 224.312 128.459 224.07 128.64C223.829 128.817 223.669 129.041 223.591 129.311L221.492 129.141C221.599 128.643 221.808 128.214 222.121 127.852C222.433 127.486 222.836 127.205 223.33 127.01C223.827 126.811 224.402 126.712 225.056 126.712C225.51 126.712 225.945 126.765 226.361 126.871C226.78 126.978 227.151 127.143 227.474 127.367C227.801 127.591 228.058 127.878 228.247 128.23C228.435 128.578 228.529 128.995 228.529 129.482V135H226.377V133.865H226.313C226.182 134.121 226.006 134.347 225.786 134.542C225.565 134.734 225.301 134.885 224.992 134.995C224.683 135.101 224.326 135.154 223.921 135.154ZM224.571 133.588C224.905 133.588 225.2 133.523 225.455 133.391C225.711 133.256 225.912 133.075 226.057 132.848C226.203 132.621 226.276 132.363 226.276 132.076V131.207C226.205 131.254 226.107 131.296 225.983 131.335C225.862 131.371 225.725 131.404 225.573 131.436C225.42 131.465 225.267 131.491 225.114 131.516C224.962 131.538 224.823 131.557 224.699 131.575C224.433 131.614 224.2 131.676 224.001 131.761C223.802 131.847 223.648 131.962 223.538 132.108C223.428 132.25 223.373 132.427 223.373 132.64C223.373 132.949 223.484 133.185 223.708 133.349C223.935 133.509 224.223 133.588 224.571 133.588ZM233.304 135.133C232.683 135.133 232.12 134.973 231.616 134.654C231.115 134.331 230.717 133.857 230.422 133.232C230.131 132.603 229.986 131.832 229.986 130.92C229.986 129.982 230.137 129.203 230.438 128.581C230.74 127.956 231.142 127.489 231.642 127.18C232.147 126.868 232.699 126.712 233.299 126.712C233.757 126.712 234.139 126.79 234.444 126.946C234.753 127.099 235.002 127.29 235.19 127.521C235.382 127.749 235.527 127.972 235.627 128.192H235.696V124.091H237.96V135H235.723V133.69H235.627C235.52 133.917 235.369 134.142 235.174 134.366C234.982 134.586 234.732 134.769 234.423 134.915C234.117 135.06 233.745 135.133 233.304 135.133ZM234.023 133.327C234.389 133.327 234.698 133.228 234.95 133.029C235.206 132.827 235.401 132.544 235.536 132.182C235.675 131.82 235.744 131.396 235.744 130.909C235.744 130.423 235.676 130 235.541 129.641C235.407 129.283 235.211 129.006 234.956 128.81C234.7 128.615 234.389 128.517 234.023 128.517C233.65 128.517 233.336 128.619 233.081 128.821C232.825 129.023 232.631 129.304 232.5 129.663C232.369 130.021 232.303 130.437 232.303 130.909C232.303 131.385 232.369 131.806 232.5 132.172C232.635 132.534 232.828 132.818 233.081 133.024C233.336 133.226 233.65 133.327 234.023 133.327ZM243.522 135.16C242.695 135.16 241.979 134.984 241.376 134.632C240.775 134.277 240.312 133.784 239.985 133.152C239.659 132.516 239.495 131.779 239.495 130.941C239.495 130.096 239.659 129.357 239.985 128.725C240.312 128.089 240.775 127.596 241.376 127.244C241.979 126.889 242.695 126.712 243.522 126.712C244.35 126.712 245.063 126.889 245.664 127.244C246.267 127.596 246.732 128.089 247.059 128.725C247.386 129.357 247.549 130.096 247.549 130.941C247.549 131.779 247.386 132.516 247.059 133.152C246.732 133.784 246.267 134.277 245.664 134.632C245.063 134.984 244.35 135.16 243.522 135.16ZM243.533 133.402C243.909 133.402 244.224 133.295 244.476 133.082C244.728 132.866 244.918 132.571 245.046 132.198C245.177 131.825 245.243 131.401 245.243 130.925C245.243 130.449 245.177 130.025 245.046 129.652C244.918 129.279 244.728 128.984 244.476 128.768C244.224 128.551 243.909 128.443 243.533 128.443C243.153 128.443 242.833 128.551 242.574 128.768C242.318 128.984 242.125 129.279 241.993 129.652C241.866 130.025 241.802 130.449 241.802 130.925C241.802 131.401 241.866 131.825 241.993 132.198C242.125 132.571 242.318 132.866 242.574 133.082C242.833 133.295 243.153 133.402 243.533 133.402ZM249.025 135V126.818H251.225V128.246H251.31C251.459 127.738 251.709 127.354 252.061 127.095C252.412 126.832 252.817 126.701 253.275 126.701C253.389 126.701 253.512 126.708 253.643 126.722C253.774 126.737 253.89 126.756 253.989 126.781V128.794C253.883 128.762 253.735 128.734 253.547 128.709C253.359 128.684 253.187 128.672 253.03 128.672C252.697 128.672 252.398 128.745 252.135 128.89C251.876 129.032 251.67 129.231 251.518 129.487C251.368 129.743 251.294 130.037 251.294 130.371V135H249.025ZM262.544 135H258.677V124.091H262.576C263.673 124.091 264.618 124.309 265.41 124.746C266.202 125.179 266.811 125.803 267.237 126.616C267.666 127.429 267.881 128.402 267.881 129.535C267.881 130.671 267.666 131.648 267.237 132.464C266.811 133.281 266.198 133.908 265.399 134.345C264.604 134.782 263.652 135 262.544 135ZM260.983 133.024H262.448C263.13 133.024 263.703 132.903 264.169 132.662C264.637 132.417 264.989 132.038 265.223 131.527C265.461 131.012 265.58 130.348 265.58 129.535C265.58 128.729 265.461 128.07 265.223 127.559C264.989 127.047 264.639 126.671 264.174 126.429C263.709 126.188 263.135 126.067 262.453 126.067H260.983V133.024ZM273.276 135.16C272.434 135.16 271.71 134.989 271.103 134.648C270.499 134.304 270.034 133.817 269.707 133.189C269.38 132.557 269.217 131.809 269.217 130.946C269.217 130.105 269.38 129.366 269.707 128.73C270.034 128.095 270.494 127.599 271.087 127.244C271.683 126.889 272.383 126.712 273.185 126.712C273.725 126.712 274.228 126.799 274.693 126.973C275.161 127.143 275.57 127.401 275.918 127.745C276.269 128.089 276.543 128.523 276.738 129.045C276.934 129.563 277.031 130.17 277.031 130.866V131.49H270.122V130.083H274.895C274.895 129.757 274.824 129.467 274.682 129.215C274.54 128.963 274.343 128.766 274.091 128.624C273.842 128.478 273.553 128.406 273.223 128.406C272.878 128.406 272.573 128.485 272.306 128.645C272.044 128.801 271.838 129.013 271.688 129.279C271.539 129.542 271.463 129.835 271.459 130.158V131.495C271.459 131.9 271.534 132.25 271.683 132.544C271.836 132.839 272.051 133.066 272.328 133.226C272.605 133.386 272.933 133.466 273.313 133.466C273.565 133.466 273.796 133.43 274.006 133.359C274.215 133.288 274.394 133.182 274.544 133.04C274.693 132.898 274.806 132.724 274.884 132.518L276.983 132.656C276.877 133.161 276.658 133.601 276.328 133.977C276.001 134.35 275.579 134.641 275.06 134.851C274.545 135.057 273.951 135.16 273.276 135.16ZM282.026 135V124.091H289.377V125.993H284.333V128.592H288.999V130.494H284.333V133.098H289.398V135H282.026ZM298.796 126.818L295.936 135H293.379L290.518 126.818H292.915L294.615 132.672H294.7L296.394 126.818H298.796ZM303.422 135.16C302.581 135.16 301.856 134.989 301.249 134.648C300.645 134.304 300.18 133.817 299.853 133.189C299.527 132.557 299.363 131.809 299.363 130.946C299.363 130.105 299.527 129.366 299.853 128.73C300.18 128.095 300.64 127.599 301.233 127.244C301.83 126.889 302.529 126.712 303.332 126.712C303.872 126.712 304.374 126.799 304.839 126.973C305.308 127.143 305.716 127.401 306.064 127.745C306.416 128.089 306.689 128.523 306.885 129.045C307.08 129.563 307.178 130.17 307.178 130.866V131.49H300.269V130.083H305.042C305.042 129.757 304.971 129.467 304.829 129.215C304.687 128.963 304.489 128.766 304.237 128.624C303.989 128.478 303.699 128.406 303.369 128.406C303.025 128.406 302.719 128.485 302.453 128.645C302.19 128.801 301.984 129.013 301.835 129.279C301.686 129.542 301.609 129.835 301.606 130.158V131.495C301.606 131.9 301.68 132.25 301.83 132.544C301.982 132.839 302.197 133.066 302.474 133.226C302.751 133.386 303.08 133.466 303.46 133.466C303.712 133.466 303.943 133.43 304.152 133.359C304.362 133.288 304.541 133.182 304.69 133.04C304.839 132.898 304.953 132.724 305.031 132.518L307.13 132.656C307.023 133.161 306.805 133.601 306.475 133.977C306.148 134.35 305.725 134.641 305.207 134.851C304.692 135.057 304.097 135.16 303.422 135.16ZM310.928 130.27V135H308.658V126.818H310.821V128.262H310.917C311.098 127.786 311.402 127.409 311.828 127.132C312.254 126.852 312.771 126.712 313.378 126.712C313.946 126.712 314.441 126.836 314.864 127.085C315.287 127.333 315.615 127.688 315.85 128.15C316.084 128.608 316.201 129.155 316.201 129.79V135H313.932V130.195C313.935 129.695 313.808 129.304 313.548 129.023C313.289 128.739 312.932 128.597 312.478 128.597C312.172 128.597 311.902 128.663 311.668 128.794C311.437 128.926 311.256 129.118 311.125 129.37C310.997 129.618 310.931 129.918 310.928 130.27ZM322.341 126.818V128.523H317.414V126.818H322.341ZM318.533 124.858H320.802V132.486C320.802 132.695 320.834 132.859 320.898 132.976C320.962 133.089 321.051 133.169 321.164 133.216C321.281 133.262 321.416 133.285 321.569 133.285C321.676 133.285 321.782 133.276 321.889 133.258C321.995 133.237 322.077 133.221 322.134 133.21L322.491 134.899C322.377 134.934 322.217 134.975 322.011 135.021C321.805 135.071 321.555 135.101 321.26 135.112C320.713 135.133 320.234 135.06 319.822 134.893C319.414 134.727 319.096 134.467 318.868 134.116C318.641 133.764 318.529 133.32 318.533 132.784V124.858ZM327.428 135.16C326.601 135.16 325.885 134.984 325.282 134.632C324.682 134.277 324.218 133.784 323.892 133.152C323.565 132.516 323.401 131.779 323.401 130.941C323.401 130.096 323.565 129.357 323.892 128.725C324.218 128.089 324.682 127.596 325.282 127.244C325.885 126.889 326.601 126.712 327.428 126.712C328.256 126.712 328.97 126.889 329.57 127.244C330.173 127.596 330.639 128.089 330.965 128.725C331.292 129.357 331.455 130.096 331.455 130.941C331.455 131.779 331.292 132.516 330.965 133.152C330.639 133.784 330.173 134.277 329.57 134.632C328.97 134.984 328.256 135.16 327.428 135.16ZM327.439 133.402C327.816 133.402 328.13 133.295 328.382 133.082C328.634 132.866 328.824 132.571 328.952 132.198C329.083 131.825 329.149 131.401 329.149 130.925C329.149 130.449 329.083 130.025 328.952 129.652C328.824 129.279 328.634 128.984 328.382 128.768C328.13 128.551 327.816 128.443 327.439 128.443C327.059 128.443 326.74 128.551 326.48 128.768C326.225 128.984 326.031 129.279 325.9 129.652C325.772 130.025 325.708 130.449 325.708 130.925C325.708 131.401 325.772 131.825 325.9 132.198C326.031 132.571 326.225 132.866 326.48 133.082C326.74 133.295 327.059 133.402 327.439 133.402ZM339.738 129.151L337.661 129.279C337.626 129.102 337.549 128.942 337.432 128.8C337.315 128.654 337.16 128.539 336.969 128.453C336.78 128.365 336.555 128.32 336.292 128.32C335.941 128.32 335.644 128.395 335.403 128.544C335.161 128.69 335.04 128.885 335.04 129.13C335.04 129.325 335.118 129.49 335.275 129.625C335.431 129.76 335.699 129.869 336.079 129.95L337.56 130.249C338.355 130.412 338.948 130.675 339.339 131.037C339.73 131.399 339.925 131.875 339.925 132.464C339.925 133.001 339.767 133.471 339.451 133.876C339.138 134.281 338.709 134.597 338.162 134.824C337.618 135.048 336.992 135.16 336.281 135.16C335.198 135.16 334.335 134.934 333.693 134.483C333.053 134.029 332.679 133.411 332.569 132.63L334.801 132.512C334.868 132.843 335.031 133.095 335.291 133.269C335.55 133.439 335.882 133.525 336.287 133.525C336.684 133.525 337.004 133.448 337.246 133.295C337.491 133.139 337.615 132.939 337.618 132.694C337.615 132.488 337.528 132.319 337.357 132.188C337.187 132.053 336.924 131.95 336.569 131.879L335.152 131.596C334.353 131.436 333.758 131.159 333.368 130.765C332.981 130.371 332.787 129.869 332.787 129.258C332.787 128.732 332.929 128.279 333.213 127.9C333.501 127.52 333.904 127.227 334.422 127.021C334.944 126.815 335.555 126.712 336.255 126.712C337.288 126.712 338.101 126.93 338.694 127.367C339.291 127.804 339.639 128.398 339.738 129.151Z" fill="black"/>
    <rect width="195" height="20" transform="translate(156 80)" fill="#F968F3"/>
    <path d="M176.574 87.9102H174.24C174.198 87.6083 174.111 87.3402 173.979 87.1058C173.848 86.8679 173.679 86.6655 173.473 86.4986C173.267 86.3317 173.029 86.2038 172.76 86.1151C172.493 86.0263 172.204 85.9819 171.891 85.9819C171.327 85.9819 170.835 86.1222 170.416 86.4027C169.997 86.6797 169.672 87.0845 169.441 87.6172C169.21 88.1463 169.095 88.7891 169.095 89.5455C169.095 90.3232 169.21 90.9766 169.441 91.5057C169.675 92.0348 170.002 92.4343 170.421 92.7042C170.84 92.9741 171.325 93.109 171.875 93.109C172.184 93.109 172.47 93.0682 172.733 92.9865C172.999 92.9048 173.235 92.7859 173.441 92.6296C173.647 92.4698 173.818 92.2763 173.953 92.049C174.091 91.8217 174.187 91.5625 174.24 91.2713L176.574 91.282C176.513 91.7827 176.362 92.2656 176.121 92.7308C175.883 93.1925 175.561 93.6062 175.157 93.9719C174.755 94.3342 174.276 94.6218 173.718 94.8349C173.164 95.0444 172.538 95.1491 171.838 95.1491C170.865 95.1491 169.995 94.929 169.228 94.4886C168.464 94.0483 167.861 93.4109 167.417 92.5763C166.977 91.7418 166.756 90.7315 166.756 89.5455C166.756 88.3558 166.98 87.3438 167.428 86.5092C167.875 85.6747 168.482 85.0391 169.249 84.6023C170.016 84.1619 170.879 83.9418 171.838 83.9418C172.47 83.9418 173.056 84.0305 173.596 84.2081C174.139 84.3857 174.62 84.6449 175.039 84.9858C175.458 85.3232 175.799 85.7369 176.062 86.2269C176.328 86.717 176.499 87.2781 176.574 87.9102ZM181.882 95.1598C181.054 95.1598 180.339 94.984 179.735 94.6325C179.135 94.2773 178.671 93.7837 178.345 93.1516C178.018 92.516 177.855 91.7791 177.855 90.9411C177.855 90.0959 178.018 89.3572 178.345 88.7251C178.671 88.0895 179.135 87.5959 179.735 87.2443C180.339 86.8892 181.054 86.7116 181.882 86.7116C182.709 86.7116 183.423 86.8892 184.023 87.2443C184.627 87.5959 185.092 88.0895 185.419 88.7251C185.745 89.3572 185.909 90.0959 185.909 90.9411C185.909 91.7791 185.745 92.516 185.419 93.1516C185.092 93.7837 184.627 94.2773 184.023 94.6325C183.423 94.984 182.709 95.1598 181.882 95.1598ZM181.892 93.402C182.269 93.402 182.583 93.2955 182.835 93.0824C183.087 92.8658 183.277 92.571 183.405 92.1982C183.536 91.8253 183.602 91.4009 183.602 90.9251C183.602 90.4492 183.536 90.0249 183.405 89.652C183.277 89.2791 183.087 88.9844 182.835 88.7678C182.583 88.5511 182.269 88.4428 181.892 88.4428C181.512 88.4428 181.193 88.5511 180.933 88.7678C180.678 88.9844 180.484 89.2791 180.353 89.652C180.225 90.0249 180.161 90.4492 180.161 90.9251C180.161 91.4009 180.225 91.8253 180.353 92.1982C180.484 92.571 180.678 92.8658 180.933 93.0824C181.193 93.2955 181.512 93.402 181.892 93.402ZM189.653 90.2699V95H187.384V86.8182H189.547V88.2617H189.643C189.824 87.7859 190.127 87.4094 190.553 87.1325C190.98 86.8519 191.496 86.7116 192.104 86.7116C192.672 86.7116 193.167 86.8359 193.59 87.0845C194.012 87.3331 194.341 87.6882 194.575 88.1499C194.809 88.608 194.927 89.1548 194.927 89.7905V95H192.657V90.1953C192.661 89.6946 192.533 89.304 192.274 89.0234C192.015 88.7393 191.658 88.5973 191.203 88.5973C190.898 88.5973 190.628 88.663 190.394 88.7944C190.163 88.9258 189.982 89.1175 189.85 89.3697C189.722 89.6183 189.657 89.9183 189.653 90.2699ZM201.067 86.8182V88.5227H196.14V86.8182H201.067ZM197.258 84.858H199.528V92.4858C199.528 92.6953 199.56 92.8587 199.623 92.9759C199.687 93.0895 199.776 93.1694 199.89 93.2156C200.007 93.2617 200.142 93.2848 200.295 93.2848C200.401 93.2848 200.508 93.2759 200.614 93.2582C200.721 93.2369 200.802 93.2209 200.859 93.2102L201.216 94.8988C201.103 94.9343 200.943 94.9751 200.737 95.0213C200.531 95.071 200.28 95.1012 199.986 95.1119C199.439 95.1332 198.959 95.0604 198.547 94.8935C198.139 94.7266 197.821 94.4673 197.594 94.1158C197.367 93.7642 197.255 93.3203 197.258 92.7841V84.858ZM202.545 95V86.8182H204.745V88.2457H204.83C204.979 87.7379 205.23 87.3544 205.581 87.0952C205.933 86.8324 206.338 86.701 206.796 86.701C206.91 86.701 207.032 86.7081 207.163 86.7223C207.295 86.7365 207.41 86.756 207.51 86.7809V88.7944C207.403 88.7624 207.256 88.734 207.068 88.7092C206.879 88.6843 206.707 88.6719 206.551 88.6719C206.217 88.6719 205.919 88.7447 205.656 88.8903C205.397 89.0323 205.191 89.2312 205.038 89.4869C204.889 89.7425 204.814 90.0373 204.814 90.3711V95H202.545ZM211.999 95.1598C211.171 95.1598 210.456 94.984 209.852 94.6325C209.252 94.2773 208.789 93.7837 208.462 93.1516C208.135 92.516 207.972 91.7791 207.972 90.9411C207.972 90.0959 208.135 89.3572 208.462 88.7251C208.789 88.0895 209.252 87.5959 209.852 87.2443C210.456 86.8892 211.171 86.7116 211.999 86.7116C212.826 86.7116 213.54 86.8892 214.14 87.2443C214.744 87.5959 215.209 88.0895 215.536 88.7251C215.862 89.3572 216.026 90.0959 216.026 90.9411C216.026 91.7791 215.862 92.516 215.536 93.1516C215.209 93.7837 214.744 94.2773 214.14 94.6325C213.54 94.984 212.826 95.1598 211.999 95.1598ZM212.009 93.402C212.386 93.402 212.7 93.2955 212.952 93.0824C213.204 92.8658 213.394 92.571 213.522 92.1982C213.654 91.8253 213.719 91.4009 213.719 90.9251C213.719 90.4492 213.654 90.0249 213.522 89.652C213.394 89.2791 213.204 88.9844 212.952 88.7678C212.7 88.5511 212.386 88.4428 212.009 88.4428C211.629 88.4428 211.31 88.5511 211.051 88.7678C210.795 88.9844 210.601 89.2791 210.47 89.652C210.342 90.0249 210.278 90.4492 210.278 90.9251C210.278 91.4009 210.342 91.8253 210.47 92.1982C210.601 92.571 210.795 92.8658 211.051 93.0824C211.31 93.2955 211.629 93.402 212.009 93.402ZM219.77 84.0909V95H217.501V84.0909H219.77ZM223.921 95.1545C223.399 95.1545 222.934 95.0639 222.526 94.8828C222.117 94.6982 221.794 94.4265 221.556 94.0678C221.322 93.7056 221.205 93.2546 221.205 92.7148C221.205 92.2603 221.288 91.8786 221.455 91.5696C221.622 91.2607 221.849 91.0121 222.137 90.8239C222.424 90.6357 222.751 90.4936 223.117 90.3977C223.486 90.3018 223.873 90.2344 224.278 90.1953C224.754 90.1456 225.138 90.0994 225.429 90.0568C225.72 90.0107 225.931 89.9432 226.063 89.8544C226.194 89.7656 226.26 89.6342 226.26 89.4602V89.4283C226.26 89.0909 226.153 88.8299 225.94 88.6452C225.731 88.4606 225.432 88.3683 225.045 88.3683C224.637 88.3683 224.312 88.4588 224.07 88.6399C223.829 88.8175 223.669 89.0412 223.591 89.3111L221.492 89.1406C221.599 88.6435 221.808 88.2138 222.121 87.8516C222.433 87.4858 222.836 87.2053 223.33 87.0099C223.827 86.8111 224.402 86.7116 225.056 86.7116C225.51 86.7116 225.945 86.7649 226.361 86.8714C226.78 86.978 227.151 87.1431 227.474 87.3668C227.801 87.5906 228.058 87.8782 228.247 88.2298C228.435 88.5778 228.529 88.995 228.529 89.4815V95H226.377V93.8654H226.313C226.182 94.1211 226.006 94.3466 225.786 94.5419C225.565 94.7337 225.301 94.8846 224.992 94.9947C224.683 95.1012 224.326 95.1545 223.921 95.1545ZM224.571 93.5884C224.905 93.5884 225.2 93.5227 225.455 93.3913C225.711 93.2564 225.912 93.0753 226.057 92.848C226.203 92.6207 226.276 92.3633 226.276 92.0756V91.2074C226.205 91.2536 226.107 91.2962 225.983 91.3352C225.862 91.3707 225.725 91.4045 225.573 91.4364C225.42 91.4648 225.267 91.4915 225.114 91.5163C224.962 91.5376 224.823 91.5572 224.699 91.5749C224.433 91.614 224.2 91.6761 224.001 91.7614C223.802 91.8466 223.648 91.962 223.538 92.1076C223.428 92.2496 223.373 92.4272 223.373 92.6403C223.373 92.9492 223.484 93.1854 223.708 93.3487C223.935 93.5085 224.223 93.5884 224.571 93.5884ZM233.304 95.1332C232.683 95.1332 232.12 94.9734 231.616 94.6538C231.115 94.3306 230.717 93.8565 230.422 93.2315C230.131 92.603 229.986 91.8324 229.986 90.9197C229.986 89.9822 230.137 89.2028 230.438 88.5813C230.74 87.9563 231.142 87.4893 231.642 87.1804C232.147 86.8679 232.699 86.7116 233.299 86.7116C233.757 86.7116 234.139 86.7898 234.444 86.946C234.753 87.0987 235.002 87.2905 235.19 87.5213C235.382 87.7486 235.527 87.9723 235.627 88.1925H235.696V84.0909H237.96V95H235.723V93.6896H235.627C235.52 93.9169 235.369 94.1424 235.174 94.3661C234.982 94.5863 234.732 94.7692 234.423 94.9148C234.117 95.0604 233.745 95.1332 233.304 95.1332ZM234.023 93.3274C234.389 93.3274 234.698 93.228 234.95 93.0291C235.206 92.8267 235.401 92.5444 235.536 92.1822C235.675 91.82 235.744 91.3956 235.744 90.9091C235.744 90.4226 235.676 90 235.541 89.6413C235.407 89.2827 235.211 89.0057 234.956 88.8104C234.7 88.6151 234.389 88.5174 234.023 88.5174C233.65 88.5174 233.336 88.6186 233.081 88.821C232.825 89.0234 232.631 89.304 232.5 89.6626C232.369 90.0213 232.303 90.4368 232.303 90.9091C232.303 91.3849 232.369 91.8058 232.5 92.1715C232.635 92.5337 232.828 92.8178 233.081 93.0238C233.336 93.2262 233.65 93.3274 234.023 93.3274ZM243.522 95.1598C242.695 95.1598 241.979 94.984 241.376 94.6325C240.775 94.2773 240.312 93.7837 239.985 93.1516C239.659 92.516 239.495 91.7791 239.495 90.9411C239.495 90.0959 239.659 89.3572 239.985 88.7251C240.312 88.0895 240.775 87.5959 241.376 87.2443C241.979 86.8892 242.695 86.7116 243.522 86.7116C244.35 86.7116 245.063 86.8892 245.664 87.2443C246.267 87.5959 246.732 88.0895 247.059 88.7251C247.386 89.3572 247.549 90.0959 247.549 90.9411C247.549 91.7791 247.386 92.516 247.059 93.1516C246.732 93.7837 246.267 94.2773 245.664 94.6325C245.063 94.984 244.35 95.1598 243.522 95.1598ZM243.533 93.402C243.909 93.402 244.224 93.2955 244.476 93.0824C244.728 92.8658 244.918 92.571 245.046 92.1982C245.177 91.8253 245.243 91.4009 245.243 90.9251C245.243 90.4492 245.177 90.0249 245.046 89.652C244.918 89.2791 244.728 88.9844 244.476 88.7678C244.224 88.5511 243.909 88.4428 243.533 88.4428C243.153 88.4428 242.833 88.5511 242.574 88.7678C242.318 88.9844 242.125 89.2791 241.993 89.652C241.866 90.0249 241.802 90.4492 241.802 90.9251C241.802 91.4009 241.866 91.8253 241.993 92.1982C242.125 92.571 242.318 92.8658 242.574 93.0824C242.833 93.2955 243.153 93.402 243.533 93.402ZM249.025 95V86.8182H251.225V88.2457H251.31C251.459 87.7379 251.709 87.3544 252.061 87.0952C252.412 86.8324 252.817 86.701 253.275 86.701C253.389 86.701 253.512 86.7081 253.643 86.7223C253.774 86.7365 253.89 86.756 253.989 86.7809V88.7944C253.883 88.7624 253.735 88.734 253.547 88.7092C253.359 88.6843 253.187 88.6719 253.03 88.6719C252.697 88.6719 252.398 88.7447 252.135 88.8903C251.876 89.0323 251.67 89.2312 251.518 89.4869C251.368 89.7425 251.294 90.0373 251.294 90.3711V95H249.025ZM262.544 95H258.677V84.0909H262.576C263.673 84.0909 264.618 84.3093 265.41 84.7461C266.202 85.1793 266.811 85.8026 267.237 86.6158C267.666 87.429 267.881 88.402 267.881 89.5348C267.881 90.6712 267.666 91.6477 267.237 92.4645C266.811 93.2812 266.198 93.908 265.399 94.3448C264.604 94.7816 263.652 95 262.544 95ZM260.983 93.0238H262.448C263.13 93.0238 263.703 92.9031 264.169 92.6616C264.637 92.4165 264.989 92.0384 265.223 91.527C265.461 91.0121 265.58 90.348 265.58 89.5348C265.58 88.7287 265.461 88.07 265.223 87.5586C264.989 87.0472 264.639 86.6708 264.174 86.4293C263.709 86.1879 263.135 86.0671 262.453 86.0671H260.983V93.0238ZM273.276 95.1598C272.434 95.1598 271.71 94.9893 271.103 94.6484C270.499 94.304 270.034 93.8175 269.707 93.1889C269.38 92.5568 269.217 91.8093 269.217 90.9464C269.217 90.1048 269.38 89.3661 269.707 88.7305C270.034 88.0948 270.494 87.5994 271.087 87.2443C271.683 86.8892 272.383 86.7116 273.185 86.7116C273.725 86.7116 274.228 86.7987 274.693 86.9727C275.161 87.1431 275.57 87.4006 275.918 87.745C276.269 88.0895 276.543 88.5227 276.738 89.0447C276.934 89.5632 277.031 90.1705 277.031 90.8665V91.4897H270.122V90.0835H274.895C274.895 89.7567 274.824 89.4673 274.682 89.2152C274.54 88.9631 274.343 88.766 274.091 88.6239C273.842 88.4783 273.553 88.4055 273.223 88.4055C272.878 88.4055 272.573 88.4854 272.306 88.6452C272.044 88.8015 271.838 89.0128 271.688 89.2791C271.539 89.5419 271.463 89.8349 271.459 90.158V91.495C271.459 91.8999 271.534 92.2496 271.683 92.5444C271.836 92.8391 272.051 93.0664 272.328 93.2262C272.605 93.386 272.933 93.4659 273.313 93.4659C273.565 93.4659 273.796 93.4304 274.006 93.3594C274.215 93.2884 274.394 93.1818 274.544 93.0398C274.693 92.8977 274.806 92.7237 274.884 92.5178L276.983 92.6562C276.877 93.1605 276.658 93.6009 276.328 93.9773C276.001 94.3501 275.579 94.6413 275.06 94.8509C274.545 95.0568 273.951 95.1598 273.276 95.1598ZM282.026 95V84.0909H289.377V85.9925H284.333V88.592H288.999V90.4936H284.333V93.0984H289.398V95H282.026ZM298.796 86.8182L295.936 95H293.379L290.518 86.8182H292.915L294.615 92.6722H294.7L296.394 86.8182H298.796ZM303.422 95.1598C302.581 95.1598 301.856 94.9893 301.249 94.6484C300.645 94.304 300.18 93.8175 299.853 93.1889C299.527 92.5568 299.363 91.8093 299.363 90.9464C299.363 90.1048 299.527 89.3661 299.853 88.7305C300.18 88.0948 300.64 87.5994 301.233 87.2443C301.83 86.8892 302.529 86.7116 303.332 86.7116C303.872 86.7116 304.374 86.7987 304.839 86.9727C305.308 87.1431 305.716 87.4006 306.064 87.745C306.416 88.0895 306.689 88.5227 306.885 89.0447C307.08 89.5632 307.178 90.1705 307.178 90.8665V91.4897H300.269V90.0835H305.042C305.042 89.7567 304.971 89.4673 304.829 89.2152C304.687 88.9631 304.489 88.766 304.237 88.6239C303.989 88.4783 303.699 88.4055 303.369 88.4055C303.025 88.4055 302.719 88.4854 302.453 88.6452C302.19 88.8015 301.984 89.0128 301.835 89.2791C301.686 89.5419 301.609 89.8349 301.606 90.158V91.495C301.606 91.8999 301.68 92.2496 301.83 92.5444C301.982 92.8391 302.197 93.0664 302.474 93.2262C302.751 93.386 303.08 93.4659 303.46 93.4659C303.712 93.4659 303.943 93.4304 304.152 93.3594C304.362 93.2884 304.541 93.1818 304.69 93.0398C304.839 92.8977 304.953 92.7237 305.031 92.5178L307.13 92.6562C307.023 93.1605 306.805 93.6009 306.475 93.9773C306.148 94.3501 305.725 94.6413 305.207 94.8509C304.692 95.0568 304.097 95.1598 303.422 95.1598ZM310.928 90.2699V95H308.658V86.8182H310.821V88.2617H310.917C311.098 87.7859 311.402 87.4094 311.828 87.1325C312.254 86.8519 312.771 86.7116 313.378 86.7116C313.946 86.7116 314.441 86.8359 314.864 87.0845C315.287 87.3331 315.615 87.6882 315.85 88.1499C316.084 88.608 316.201 89.1548 316.201 89.7905V95H313.932V90.1953C313.935 89.6946 313.808 89.304 313.548 89.0234C313.289 88.7393 312.932 88.5973 312.478 88.5973C312.172 88.5973 311.902 88.663 311.668 88.7944C311.437 88.9258 311.256 89.1175 311.125 89.3697C310.997 89.6183 310.931 89.9183 310.928 90.2699ZM322.341 86.8182V88.5227H317.414V86.8182H322.341ZM318.533 84.858H320.802V92.4858C320.802 92.6953 320.834 92.8587 320.898 92.9759C320.962 93.0895 321.051 93.1694 321.164 93.2156C321.281 93.2617 321.416 93.2848 321.569 93.2848C321.676 93.2848 321.782 93.2759 321.889 93.2582C321.995 93.2369 322.077 93.2209 322.134 93.2102L322.491 94.8988C322.377 94.9343 322.217 94.9751 322.011 95.0213C321.805 95.071 321.555 95.1012 321.26 95.1119C320.713 95.1332 320.234 95.0604 319.822 94.8935C319.414 94.7266 319.096 94.4673 318.868 94.1158C318.641 93.7642 318.529 93.3203 318.533 92.7841V84.858ZM327.428 95.1598C326.601 95.1598 325.885 94.984 325.282 94.6325C324.682 94.2773 324.218 93.7837 323.892 93.1516C323.565 92.516 323.401 91.7791 323.401 90.9411C323.401 90.0959 323.565 89.3572 323.892 88.7251C324.218 88.0895 324.682 87.5959 325.282 87.2443C325.885 86.8892 326.601 86.7116 327.428 86.7116C328.256 86.7116 328.97 86.8892 329.57 87.2443C330.173 87.5959 330.639 88.0895 330.965 88.7251C331.292 89.3572 331.455 90.0959 331.455 90.9411C331.455 91.7791 331.292 92.516 330.965 93.1516C330.639 93.7837 330.173 94.2773 329.57 94.6325C328.97 94.984 328.256 95.1598 327.428 95.1598ZM327.439 93.402C327.816 93.402 328.13 93.2955 328.382 93.0824C328.634 92.8658 328.824 92.571 328.952 92.1982C329.083 91.8253 329.149 91.4009 329.149 90.9251C329.149 90.4492 329.083 90.0249 328.952 89.652C328.824 89.2791 328.634 88.9844 328.382 88.7678C328.13 88.5511 327.816 88.4428 327.439 88.4428C327.059 88.4428 326.74 88.5511 326.48 88.7678C326.225 88.9844 326.031 89.2791 325.9 89.652C325.772 90.0249 325.708 90.4492 325.708 90.9251C325.708 91.4009 325.772 91.8253 325.9 92.1982C326.031 92.571 326.225 92.8658 326.48 93.0824C326.74 93.2955 327.059 93.402 327.439 93.402ZM339.738 89.1513L337.661 89.2791C337.626 89.1016 337.549 88.9418 337.432 88.7997C337.315 88.6541 337.16 88.5387 336.969 88.4535C336.78 88.3647 336.555 88.3203 336.292 88.3203C335.941 88.3203 335.644 88.3949 335.403 88.544C335.161 88.6896 335.04 88.8849 335.04 89.13C335.04 89.3253 335.118 89.4904 335.275 89.6254C335.431 89.7603 335.699 89.8686 336.079 89.9503L337.56 90.2486C338.355 90.4119 338.948 90.6747 339.339 91.0369C339.73 91.3991 339.925 91.875 339.925 92.4645C339.925 93.0007 339.767 93.4712 339.451 93.8761C339.138 94.2809 338.709 94.5969 338.162 94.8242C337.618 95.0479 336.992 95.1598 336.281 95.1598C335.198 95.1598 334.335 94.9343 333.693 94.4833C333.053 94.0288 332.679 93.4109 332.569 92.6296L334.801 92.5124C334.868 92.8427 335.031 93.0948 335.291 93.2688C335.55 93.4393 335.882 93.5245 336.287 93.5245C336.684 93.5245 337.004 93.4482 337.246 93.2955C337.491 93.1392 337.615 92.9386 337.618 92.6935C337.615 92.4876 337.528 92.3189 337.357 92.1875C337.187 92.0526 336.924 91.9496 336.569 91.8786L335.152 91.5962C334.353 91.4364 333.758 91.1594 333.368 90.7653C332.981 90.3711 332.787 89.8686 332.787 89.2578C332.787 88.7322 332.929 88.2795 333.213 87.8995C333.501 87.5195 333.904 87.2266 334.422 87.0206C334.944 86.8146 335.555 86.7116 336.255 86.7116C337.288 86.7116 338.101 86.93 338.694 87.3668C339.291 87.8036 339.639 88.3984 339.738 89.1513Z" fill="black"/>
    <rect width="195" height="20" transform="translate(156 40)" fill="#F968F3"/>
    <path d="M176.574 47.9102H174.24C174.198 47.6083 174.111 47.3402 173.979 47.1058C173.848 46.8679 173.679 46.6655 173.473 46.4986C173.267 46.3317 173.029 46.2038 172.76 46.1151C172.493 46.0263 172.204 45.9819 171.891 45.9819C171.327 45.9819 170.835 46.1222 170.416 46.4027C169.997 46.6797 169.672 47.0845 169.441 47.6172C169.21 48.1463 169.095 48.7891 169.095 49.5455C169.095 50.3232 169.21 50.9766 169.441 51.5057C169.675 52.0348 170.002 52.4343 170.421 52.7042C170.84 52.9741 171.325 53.109 171.875 53.109C172.184 53.109 172.47 53.0682 172.733 52.9865C172.999 52.9048 173.235 52.7859 173.441 52.6296C173.647 52.4698 173.818 52.2763 173.953 52.049C174.091 51.8217 174.187 51.5625 174.24 51.2713L176.574 51.282C176.513 51.7827 176.362 52.2656 176.121 52.7308C175.883 53.1925 175.561 53.6062 175.157 53.9719C174.755 54.3342 174.276 54.6218 173.718 54.8349C173.164 55.0444 172.538 55.1491 171.838 55.1491C170.865 55.1491 169.995 54.929 169.228 54.4886C168.464 54.0483 167.861 53.4109 167.417 52.5763C166.977 51.7418 166.756 50.7315 166.756 49.5455C166.756 48.3558 166.98 47.3438 167.428 46.5092C167.875 45.6747 168.482 45.0391 169.249 44.6023C170.016 44.1619 170.879 43.9418 171.838 43.9418C172.47 43.9418 173.056 44.0305 173.596 44.2081C174.139 44.3857 174.62 44.6449 175.039 44.9858C175.458 45.3232 175.799 45.7369 176.062 46.2269C176.328 46.717 176.499 47.2781 176.574 47.9102ZM181.882 55.1598C181.054 55.1598 180.339 54.984 179.735 54.6325C179.135 54.2773 178.671 53.7837 178.345 53.1516C178.018 52.516 177.855 51.7791 177.855 50.9411C177.855 50.0959 178.018 49.3572 178.345 48.7251C178.671 48.0895 179.135 47.5959 179.735 47.2443C180.339 46.8892 181.054 46.7116 181.882 46.7116C182.709 46.7116 183.423 46.8892 184.023 47.2443C184.627 47.5959 185.092 48.0895 185.419 48.7251C185.745 49.3572 185.909 50.0959 185.909 50.9411C185.909 51.7791 185.745 52.516 185.419 53.1516C185.092 53.7837 184.627 54.2773 184.023 54.6325C183.423 54.984 182.709 55.1598 181.882 55.1598ZM181.892 53.402C182.269 53.402 182.583 53.2955 182.835 53.0824C183.087 52.8658 183.277 52.571 183.405 52.1982C183.536 51.8253 183.602 51.4009 183.602 50.9251C183.602 50.4492 183.536 50.0249 183.405 49.652C183.277 49.2791 183.087 48.9844 182.835 48.7678C182.583 48.5511 182.269 48.4428 181.892 48.4428C181.512 48.4428 181.193 48.5511 180.933 48.7678C180.678 48.9844 180.484 49.2791 180.353 49.652C180.225 50.0249 180.161 50.4492 180.161 50.9251C180.161 51.4009 180.225 51.8253 180.353 52.1982C180.484 52.571 180.678 52.8658 180.933 53.0824C181.193 53.2955 181.512 53.402 181.892 53.402ZM189.653 50.2699V55H187.384V46.8182H189.547V48.2617H189.643C189.824 47.7859 190.127 47.4094 190.553 47.1325C190.98 46.8519 191.496 46.7116 192.104 46.7116C192.672 46.7116 193.167 46.8359 193.59 47.0845C194.012 47.3331 194.341 47.6882 194.575 48.1499C194.809 48.608 194.927 49.1548 194.927 49.7905V55H192.657V50.1953C192.661 49.6946 192.533 49.304 192.274 49.0234C192.015 48.7393 191.658 48.5973 191.203 48.5973C190.898 48.5973 190.628 48.663 190.394 48.7944C190.163 48.9258 189.982 49.1175 189.85 49.3697C189.722 49.6183 189.657 49.9183 189.653 50.2699ZM201.067 46.8182V48.5227H196.14V46.8182H201.067ZM197.258 44.858H199.528V52.4858C199.528 52.6953 199.56 52.8587 199.623 52.9759C199.687 53.0895 199.776 53.1694 199.89 53.2156C200.007 53.2617 200.142 53.2848 200.295 53.2848C200.401 53.2848 200.508 53.2759 200.614 53.2582C200.721 53.2369 200.802 53.2209 200.859 53.2102L201.216 54.8988C201.103 54.9343 200.943 54.9751 200.737 55.0213C200.531 55.071 200.28 55.1012 199.986 55.1119C199.439 55.1332 198.959 55.0604 198.547 54.8935C198.139 54.7266 197.821 54.4673 197.594 54.1158C197.367 53.7642 197.255 53.3203 197.258 52.7841V44.858ZM202.545 55V46.8182H204.745V48.2457H204.83C204.979 47.7379 205.23 47.3544 205.581 47.0952C205.933 46.8324 206.338 46.701 206.796 46.701C206.91 46.701 207.032 46.7081 207.163 46.7223C207.295 46.7365 207.41 46.756 207.51 46.7809V48.7944C207.403 48.7624 207.256 48.734 207.068 48.7092C206.879 48.6843 206.707 48.6719 206.551 48.6719C206.217 48.6719 205.919 48.7447 205.656 48.8903C205.397 49.0323 205.191 49.2312 205.038 49.4869C204.889 49.7425 204.814 50.0373 204.814 50.3711V55H202.545ZM211.999 55.1598C211.171 55.1598 210.456 54.984 209.852 54.6325C209.252 54.2773 208.789 53.7837 208.462 53.1516C208.135 52.516 207.972 51.7791 207.972 50.9411C207.972 50.0959 208.135 49.3572 208.462 48.7251C208.789 48.0895 209.252 47.5959 209.852 47.2443C210.456 46.8892 211.171 46.7116 211.999 46.7116C212.826 46.7116 213.54 46.8892 214.14 47.2443C214.744 47.5959 215.209 48.0895 215.536 48.7251C215.862 49.3572 216.026 50.0959 216.026 50.9411C216.026 51.7791 215.862 52.516 215.536 53.1516C215.209 53.7837 214.744 54.2773 214.14 54.6325C213.54 54.984 212.826 55.1598 211.999 55.1598ZM212.009 53.402C212.386 53.402 212.7 53.2955 212.952 53.0824C213.204 52.8658 213.394 52.571 213.522 52.1982C213.654 51.8253 213.719 51.4009 213.719 50.9251C213.719 50.4492 213.654 50.0249 213.522 49.652C213.394 49.2791 213.204 48.9844 212.952 48.7678C212.7 48.5511 212.386 48.4428 212.009 48.4428C211.629 48.4428 211.31 48.5511 211.051 48.7678C210.795 48.9844 210.601 49.2791 210.47 49.652C210.342 50.0249 210.278 50.4492 210.278 50.9251C210.278 51.4009 210.342 51.8253 210.47 52.1982C210.601 52.571 210.795 52.8658 211.051 53.0824C211.31 53.2955 211.629 53.402 212.009 53.402ZM219.77 44.0909V55H217.501V44.0909H219.77ZM223.921 55.1545C223.399 55.1545 222.934 55.0639 222.526 54.8828C222.117 54.6982 221.794 54.4265 221.556 54.0678C221.322 53.7056 221.205 53.2546 221.205 52.7148C221.205 52.2603 221.288 51.8786 221.455 51.5696C221.622 51.2607 221.849 51.0121 222.137 50.8239C222.424 50.6357 222.751 50.4936 223.117 50.3977C223.486 50.3018 223.873 50.2344 224.278 50.1953C224.754 50.1456 225.138 50.0994 225.429 50.0568C225.72 50.0107 225.931 49.9432 226.063 49.8544C226.194 49.7656 226.26 49.6342 226.26 49.4602V49.4283C226.26 49.0909 226.153 48.8299 225.94 48.6452C225.731 48.4606 225.432 48.3683 225.045 48.3683C224.637 48.3683 224.312 48.4588 224.07 48.6399C223.829 48.8175 223.669 49.0412 223.591 49.3111L221.492 49.1406C221.599 48.6435 221.808 48.2138 222.121 47.8516C222.433 47.4858 222.836 47.2053 223.33 47.0099C223.827 46.8111 224.402 46.7116 225.056 46.7116C225.51 46.7116 225.945 46.7649 226.361 46.8714C226.78 46.978 227.151 47.1431 227.474 47.3668C227.801 47.5906 228.058 47.8782 228.247 48.2298C228.435 48.5778 228.529 48.995 228.529 49.4815V55H226.377V53.8654H226.313C226.182 54.1211 226.006 54.3466 225.786 54.5419C225.565 54.7337 225.301 54.8846 224.992 54.9947C224.683 55.1012 224.326 55.1545 223.921 55.1545ZM224.571 53.5884C224.905 53.5884 225.2 53.5227 225.455 53.3913C225.711 53.2564 225.912 53.0753 226.057 52.848C226.203 52.6207 226.276 52.3633 226.276 52.0756V51.2074C226.205 51.2536 226.107 51.2962 225.983 51.3352C225.862 51.3707 225.725 51.4045 225.573 51.4364C225.42 51.4648 225.267 51.4915 225.114 51.5163C224.962 51.5376 224.823 51.5572 224.699 51.5749C224.433 51.614 224.2 51.6761 224.001 51.7614C223.802 51.8466 223.648 51.962 223.538 52.1076C223.428 52.2496 223.373 52.4272 223.373 52.6403C223.373 52.9492 223.484 53.1854 223.708 53.3487C223.935 53.5085 224.223 53.5884 224.571 53.5884ZM233.304 55.1332C232.683 55.1332 232.12 54.9734 231.616 54.6538C231.115 54.3306 230.717 53.8565 230.422 53.2315C230.131 52.603 229.986 51.8324 229.986 50.9197C229.986 49.9822 230.137 49.2028 230.438 48.5813C230.74 47.9563 231.142 47.4893 231.642 47.1804C232.147 46.8679 232.699 46.7116 233.299 46.7116C233.757 46.7116 234.139 46.7898 234.444 46.946C234.753 47.0987 235.002 47.2905 235.19 47.5213C235.382 47.7486 235.527 47.9723 235.627 48.1925H235.696V44.0909H237.96V55H235.723V53.6896H235.627C235.52 53.9169 235.369 54.1424 235.174 54.3661C234.982 54.5863 234.732 54.7692 234.423 54.9148C234.117 55.0604 233.745 55.1332 233.304 55.1332ZM234.023 53.3274C234.389 53.3274 234.698 53.228 234.95 53.0291C235.206 52.8267 235.401 52.5444 235.536 52.1822C235.675 51.82 235.744 51.3956 235.744 50.9091C235.744 50.4226 235.676 50 235.541 49.6413C235.407 49.2827 235.211 49.0057 234.956 48.8104C234.7 48.6151 234.389 48.5174 234.023 48.5174C233.65 48.5174 233.336 48.6186 233.081 48.821C232.825 49.0234 232.631 49.304 232.5 49.6626C232.369 50.0213 232.303 50.4368 232.303 50.9091C232.303 51.3849 232.369 51.8058 232.5 52.1715C232.635 52.5337 232.828 52.8178 233.081 53.0238C233.336 53.2262 233.65 53.3274 234.023 53.3274ZM243.522 55.1598C242.695 55.1598 241.979 54.984 241.376 54.6325C240.775 54.2773 240.312 53.7837 239.985 53.1516C239.659 52.516 239.495 51.7791 239.495 50.9411C239.495 50.0959 239.659 49.3572 239.985 48.7251C240.312 48.0895 240.775 47.5959 241.376 47.2443C241.979 46.8892 242.695 46.7116 243.522 46.7116C244.35 46.7116 245.063 46.8892 245.664 47.2443C246.267 47.5959 246.732 48.0895 247.059 48.7251C247.386 49.3572 247.549 50.0959 247.549 50.9411C247.549 51.7791 247.386 52.516 247.059 53.1516C246.732 53.7837 246.267 54.2773 245.664 54.6325C245.063 54.984 244.35 55.1598 243.522 55.1598ZM243.533 53.402C243.909 53.402 244.224 53.2955 244.476 53.0824C244.728 52.8658 244.918 52.571 245.046 52.1982C245.177 51.8253 245.243 51.4009 245.243 50.9251C245.243 50.4492 245.177 50.0249 245.046 49.652C244.918 49.2791 244.728 48.9844 244.476 48.7678C244.224 48.5511 243.909 48.4428 243.533 48.4428C243.153 48.4428 242.833 48.5511 242.574 48.7678C242.318 48.9844 242.125 49.2791 241.993 49.652C241.866 50.0249 241.802 50.4492 241.802 50.9251C241.802 51.4009 241.866 51.8253 241.993 52.1982C242.125 52.571 242.318 52.8658 242.574 53.0824C242.833 53.2955 243.153 53.402 243.533 53.402ZM249.025 55V46.8182H251.225V48.2457H251.31C251.459 47.7379 251.709 47.3544 252.061 47.0952C252.412 46.8324 252.817 46.701 253.275 46.701C253.389 46.701 253.512 46.7081 253.643 46.7223C253.774 46.7365 253.89 46.756 253.989 46.7809V48.7944C253.883 48.7624 253.735 48.734 253.547 48.7092C253.359 48.6843 253.187 48.6719 253.03 48.6719C252.697 48.6719 252.398 48.7447 252.135 48.8903C251.876 49.0323 251.67 49.2312 251.518 49.4869C251.368 49.7425 251.294 50.0373 251.294 50.3711V55H249.025ZM262.544 55H258.677V44.0909H262.576C263.673 44.0909 264.618 44.3093 265.41 44.7461C266.202 45.1793 266.811 45.8026 267.237 46.6158C267.666 47.429 267.881 48.402 267.881 49.5348C267.881 50.6712 267.666 51.6477 267.237 52.4645C266.811 53.2812 266.198 53.908 265.399 54.3448C264.604 54.7816 263.652 55 262.544 55ZM260.983 53.0238H262.448C263.13 53.0238 263.703 52.9031 264.169 52.6616C264.637 52.4165 264.989 52.0384 265.223 51.527C265.461 51.0121 265.58 50.348 265.58 49.5348C265.58 48.7287 265.461 48.07 265.223 47.5586C264.989 47.0472 264.639 46.6708 264.174 46.4293C263.709 46.1879 263.135 46.0671 262.453 46.0671H260.983V53.0238ZM273.276 55.1598C272.434 55.1598 271.71 54.9893 271.103 54.6484C270.499 54.304 270.034 53.8175 269.707 53.1889C269.38 52.5568 269.217 51.8093 269.217 50.9464C269.217 50.1048 269.38 49.3661 269.707 48.7305C270.034 48.0948 270.494 47.5994 271.087 47.2443C271.683 46.8892 272.383 46.7116 273.185 46.7116C273.725 46.7116 274.228 46.7987 274.693 46.9727C275.161 47.1431 275.57 47.4006 275.918 47.745C276.269 48.0895 276.543 48.5227 276.738 49.0447C276.934 49.5632 277.031 50.1705 277.031 50.8665V51.4897H270.122V50.0835H274.895C274.895 49.7567 274.824 49.4673 274.682 49.2152C274.54 48.9631 274.343 48.766 274.091 48.6239C273.842 48.4783 273.553 48.4055 273.223 48.4055C272.878 48.4055 272.573 48.4854 272.306 48.6452C272.044 48.8015 271.838 49.0128 271.688 49.2791C271.539 49.5419 271.463 49.8349 271.459 50.158V51.495C271.459 51.8999 271.534 52.2496 271.683 52.5444C271.836 52.8391 272.051 53.0664 272.328 53.2262C272.605 53.386 272.933 53.4659 273.313 53.4659C273.565 53.4659 273.796 53.4304 274.006 53.3594C274.215 53.2884 274.394 53.1818 274.544 53.0398C274.693 52.8977 274.806 52.7237 274.884 52.5178L276.983 52.6562C276.877 53.1605 276.658 53.6009 276.328 53.9773C276.001 54.3501 275.579 54.6413 275.06 54.8509C274.545 55.0568 273.951 55.1598 273.276 55.1598ZM282.026 55V44.0909H289.377V45.9925H284.333V48.592H288.999V50.4936H284.333V53.0984H289.398V55H282.026ZM298.796 46.8182L295.936 55H293.379L290.518 46.8182H292.915L294.615 52.6722H294.7L296.394 46.8182H298.796ZM303.422 55.1598C302.581 55.1598 301.856 54.9893 301.249 54.6484C300.645 54.304 300.18 53.8175 299.853 53.1889C299.527 52.5568 299.363 51.8093 299.363 50.9464C299.363 50.1048 299.527 49.3661 299.853 48.7305C300.18 48.0948 300.64 47.5994 301.233 47.2443C301.83 46.8892 302.529 46.7116 303.332 46.7116C303.872 46.7116 304.374 46.7987 304.839 46.9727C305.308 47.1431 305.716 47.4006 306.064 47.745C306.416 48.0895 306.689 48.5227 306.885 49.0447C307.08 49.5632 307.178 50.1705 307.178 50.8665V51.4897H300.269V50.0835H305.042C305.042 49.7567 304.971 49.4673 304.829 49.2152C304.687 48.9631 304.489 48.766 304.237 48.6239C303.989 48.4783 303.699 48.4055 303.369 48.4055C303.025 48.4055 302.719 48.4854 302.453 48.6452C302.19 48.8015 301.984 49.0128 301.835 49.2791C301.686 49.5419 301.609 49.8349 301.606 50.158V51.495C301.606 51.8999 301.68 52.2496 301.83 52.5444C301.982 52.8391 302.197 53.0664 302.474 53.2262C302.751 53.386 303.08 53.4659 303.46 53.4659C303.712 53.4659 303.943 53.4304 304.152 53.3594C304.362 53.2884 304.541 53.1818 304.69 53.0398C304.839 52.8977 304.953 52.7237 305.031 52.5178L307.13 52.6562C307.023 53.1605 306.805 53.6009 306.475 53.9773C306.148 54.3501 305.725 54.6413 305.207 54.8509C304.692 55.0568 304.097 55.1598 303.422 55.1598ZM310.928 50.2699V55H308.658V46.8182H310.821V48.2617H310.917C311.098 47.7859 311.402 47.4094 311.828 47.1325C312.254 46.8519 312.771 46.7116 313.378 46.7116C313.946 46.7116 314.441 46.8359 314.864 47.0845C315.287 47.3331 315.615 47.6882 315.85 48.1499C316.084 48.608 316.201 49.1548 316.201 49.7905V55H313.932V50.1953C313.935 49.6946 313.808 49.304 313.548 49.0234C313.289 48.7393 312.932 48.5973 312.478 48.5973C312.172 48.5973 311.902 48.663 311.668 48.7944C311.437 48.9258 311.256 49.1175 311.125 49.3697C310.997 49.6183 310.931 49.9183 310.928 50.2699ZM322.341 46.8182V48.5227H317.414V46.8182H322.341ZM318.533 44.858H320.802V52.4858C320.802 52.6953 320.834 52.8587 320.898 52.9759C320.962 53.0895 321.051 53.1694 321.164 53.2156C321.281 53.2617 321.416 53.2848 321.569 53.2848C321.676 53.2848 321.782 53.2759 321.889 53.2582C321.995 53.2369 322.077 53.2209 322.134 53.2102L322.491 54.8988C322.377 54.9343 322.217 54.9751 322.011 55.0213C321.805 55.071 321.555 55.1012 321.26 55.1119C320.713 55.1332 320.234 55.0604 319.822 54.8935C319.414 54.7266 319.096 54.4673 318.868 54.1158C318.641 53.7642 318.529 53.3203 318.533 52.7841V44.858ZM327.428 55.1598C326.601 55.1598 325.885 54.984 325.282 54.6325C324.682 54.2773 324.218 53.7837 323.892 53.1516C323.565 52.516 323.401 51.7791 323.401 50.9411C323.401 50.0959 323.565 49.3572 323.892 48.7251C324.218 48.0895 324.682 47.5959 325.282 47.2443C325.885 46.8892 326.601 46.7116 327.428 46.7116C328.256 46.7116 328.97 46.8892 329.57 47.2443C330.173 47.5959 330.639 48.0895 330.965 48.7251C331.292 49.3572 331.455 50.0959 331.455 50.9411C331.455 51.7791 331.292 52.516 330.965 53.1516C330.639 53.7837 330.173 54.2773 329.57 54.6325C328.97 54.984 328.256 55.1598 327.428 55.1598ZM327.439 53.402C327.816 53.402 328.13 53.2955 328.382 53.0824C328.634 52.8658 328.824 52.571 328.952 52.1982C329.083 51.8253 329.149 51.4009 329.149 50.9251C329.149 50.4492 329.083 50.0249 328.952 49.652C328.824 49.2791 328.634 48.9844 328.382 48.7678C328.13 48.5511 327.816 48.4428 327.439 48.4428C327.059 48.4428 326.74 48.5511 326.48 48.7678C326.225 48.9844 326.031 49.2791 325.9 49.652C325.772 50.0249 325.708 50.4492 325.708 50.9251C325.708 51.4009 325.772 51.8253 325.9 52.1982C326.031 52.571 326.225 52.8658 326.48 53.0824C326.74 53.2955 327.059 53.402 327.439 53.402ZM339.738 49.1513L337.661 49.2791C337.626 49.1016 337.549 48.9418 337.432 48.7997C337.315 48.6541 337.16 48.5387 336.969 48.4535C336.78 48.3647 336.555 48.3203 336.292 48.3203C335.941 48.3203 335.644 48.3949 335.403 48.544C335.161 48.6896 335.04 48.8849 335.04 49.13C335.04 49.3253 335.118 49.4904 335.275 49.6254C335.431 49.7603 335.699 49.8686 336.079 49.9503L337.56 50.2486C338.355 50.4119 338.948 50.6747 339.339 51.0369C339.73 51.3991 339.925 51.875 339.925 52.4645C339.925 53.0007 339.767 53.4712 339.451 53.8761C339.138 54.2809 338.709 54.5969 338.162 54.8242C337.618 55.0479 336.992 55.1598 336.281 55.1598C335.198 55.1598 334.335 54.9343 333.693 54.4833C333.053 54.0288 332.679 53.4109 332.569 52.6296L334.801 52.5124C334.868 52.8427 335.031 53.0948 335.291 53.2688C335.55 53.4393 335.882 53.5245 336.287 53.5245C336.684 53.5245 337.004 53.4482 337.246 53.2955C337.491 53.1392 337.615 52.9386 337.618 52.6935C337.615 52.4876 337.528 52.3189 337.357 52.1875C337.187 52.0526 336.924 51.9496 336.569 51.8786L335.152 51.5962C334.353 51.4364 333.758 51.1594 333.368 50.7653C332.981 50.3711 332.787 49.8686 332.787 49.2578C332.787 48.7322 332.929 48.2795 333.213 47.8995C333.501 47.5195 333.904 47.2266 334.422 47.0206C334.944 46.8146 335.555 46.7116 336.255 46.7116C337.288 46.7116 338.101 46.93 338.694 47.3668C339.291 47.8036 339.639 48.3984 339.738 49.1513Z" fill="black"/>
    <rect width="195" height="20" transform="translate(156)" fill="#F968F3"/>
    <path d="M176.574 7.91016H174.24C174.198 7.60831 174.111 7.3402 173.979 7.10582C173.848 6.8679 173.679 6.66548 173.473 6.49858C173.267 6.33168 173.029 6.20383 172.76 6.11506C172.493 6.02628 172.204 5.98189 171.891 5.98189C171.327 5.98189 170.835 6.12216 170.416 6.4027C169.997 6.67969 169.672 7.08452 169.441 7.61719C169.21 8.14631 169.095 8.78906 169.095 9.54545C169.095 10.3232 169.21 10.9766 169.441 11.5057C169.675 12.0348 170.002 12.4343 170.421 12.7042C170.84 12.9741 171.325 13.109 171.875 13.109C172.184 13.109 172.47 13.0682 172.733 12.9865C172.999 12.9048 173.235 12.7859 173.441 12.6296C173.647 12.4698 173.818 12.2763 173.953 12.049C174.091 11.8217 174.187 11.5625 174.24 11.2713L176.574 11.282C176.513 11.7827 176.362 12.2656 176.121 12.7308C175.883 13.1925 175.561 13.6062 175.157 13.9719C174.755 14.3342 174.276 14.6218 173.718 14.8349C173.164 15.0444 172.538 15.1491 171.838 15.1491C170.865 15.1491 169.995 14.929 169.228 14.4886C168.464 14.0483 167.861 13.4109 167.417 12.5763C166.977 11.7418 166.756 10.7315 166.756 9.54545C166.756 8.35582 166.98 7.34375 167.428 6.50923C167.875 5.67472 168.482 5.03906 169.249 4.60227C170.016 4.16193 170.879 3.94176 171.838 3.94176C172.47 3.94176 173.056 4.03054 173.596 4.2081C174.139 4.38565 174.62 4.64489 175.039 4.98579C175.458 5.32315 175.799 5.73686 176.062 6.22692C176.328 6.71697 176.499 7.27805 176.574 7.91016ZM181.882 15.1598C181.054 15.1598 180.339 14.984 179.735 14.6325C179.135 14.2773 178.671 13.7837 178.345 13.1516C178.018 12.516 177.855 11.7791 177.855 10.9411C177.855 10.0959 178.018 9.35724 178.345 8.72514C178.671 8.08949 179.135 7.59588 179.735 7.24432C180.339 6.8892 181.054 6.71165 181.882 6.71165C182.709 6.71165 183.423 6.8892 184.023 7.24432C184.627 7.59588 185.092 8.08949 185.419 8.72514C185.745 9.35724 185.909 10.0959 185.909 10.9411C185.909 11.7791 185.745 12.516 185.419 13.1516C185.092 13.7837 184.627 14.2773 184.023 14.6325C183.423 14.984 182.709 15.1598 181.882 15.1598ZM181.892 13.402C182.269 13.402 182.583 13.2955 182.835 13.0824C183.087 12.8658 183.277 12.571 183.405 12.1982C183.536 11.8253 183.602 11.4009 183.602 10.9251C183.602 10.4492 183.536 10.0249 183.405 9.65199C183.277 9.27912 183.087 8.98437 182.835 8.76776C182.583 8.55114 182.269 8.44283 181.892 8.44283C181.512 8.44283 181.193 8.55114 180.933 8.76776C180.678 8.98437 180.484 9.27912 180.353 9.65199C180.225 10.0249 180.161 10.4492 180.161 10.9251C180.161 11.4009 180.225 11.8253 180.353 12.1982C180.484 12.571 180.678 12.8658 180.933 13.0824C181.193 13.2955 181.512 13.402 181.892 13.402ZM189.653 10.2699V15H187.384V6.81818H189.547V8.26172H189.643C189.824 7.78587 190.127 7.40945 190.553 7.13246C190.98 6.85192 191.496 6.71165 192.104 6.71165C192.672 6.71165 193.167 6.83594 193.59 7.08452C194.012 7.3331 194.341 7.68821 194.575 8.14986C194.809 8.60795 194.927 9.15483 194.927 9.79048V15H192.657V10.1953C192.661 9.6946 192.533 9.30398 192.274 9.02344C192.015 8.73935 191.658 8.5973 191.203 8.5973C190.898 8.5973 190.628 8.663 190.394 8.79439C190.163 8.92578 189.982 9.11754 189.85 9.36967C189.722 9.61825 189.657 9.91832 189.653 10.2699ZM201.067 6.81818V8.52273H196.14V6.81818H201.067ZM197.258 4.85795H199.528V12.4858C199.528 12.6953 199.56 12.8587 199.623 12.9759C199.687 13.0895 199.776 13.1694 199.89 13.2156C200.007 13.2617 200.142 13.2848 200.295 13.2848C200.401 13.2848 200.508 13.2759 200.614 13.2582C200.721 13.2369 200.802 13.2209 200.859 13.2102L201.216 14.8988C201.103 14.9343 200.943 14.9751 200.737 15.0213C200.531 15.071 200.28 15.1012 199.986 15.1119C199.439 15.1332 198.959 15.0604 198.547 14.8935C198.139 14.7266 197.821 14.4673 197.594 14.1158C197.367 13.7642 197.255 13.3203 197.258 12.7841V4.85795ZM202.545 15V6.81818H204.745V8.24574H204.83C204.979 7.73793 205.23 7.3544 205.581 7.09517C205.933 6.83239 206.338 6.70099 206.796 6.70099C206.91 6.70099 207.032 6.7081 207.163 6.7223C207.295 6.73651 207.41 6.75604 207.51 6.78089V8.79439C207.403 8.76243 207.256 8.73402 207.068 8.70916C206.879 8.6843 206.707 8.67188 206.551 8.67188C206.217 8.67188 205.919 8.74467 205.656 8.89027C205.397 9.03232 205.191 9.23118 205.038 9.48686C204.889 9.74254 204.814 10.0373 204.814 10.3711V15H202.545ZM211.999 15.1598C211.171 15.1598 210.456 14.984 209.852 14.6325C209.252 14.2773 208.789 13.7837 208.462 13.1516C208.135 12.516 207.972 11.7791 207.972 10.9411C207.972 10.0959 208.135 9.35724 208.462 8.72514C208.789 8.08949 209.252 7.59588 209.852 7.24432C210.456 6.8892 211.171 6.71165 211.999 6.71165C212.826 6.71165 213.54 6.8892 214.14 7.24432C214.744 7.59588 215.209 8.08949 215.536 8.72514C215.862 9.35724 216.026 10.0959 216.026 10.9411C216.026 11.7791 215.862 12.516 215.536 13.1516C215.209 13.7837 214.744 14.2773 214.14 14.6325C213.54 14.984 212.826 15.1598 211.999 15.1598ZM212.009 13.402C212.386 13.402 212.7 13.2955 212.952 13.0824C213.204 12.8658 213.394 12.571 213.522 12.1982C213.654 11.8253 213.719 11.4009 213.719 10.9251C213.719 10.4492 213.654 10.0249 213.522 9.65199C213.394 9.27912 213.204 8.98437 212.952 8.76776C212.7 8.55114 212.386 8.44283 212.009 8.44283C211.629 8.44283 211.31 8.55114 211.051 8.76776C210.795 8.98437 210.601 9.27912 210.47 9.65199C210.342 10.0249 210.278 10.4492 210.278 10.9251C210.278 11.4009 210.342 11.8253 210.47 12.1982C210.601 12.571 210.795 12.8658 211.051 13.0824C211.31 13.2955 211.629 13.402 212.009 13.402ZM219.77 4.09091V15H217.501V4.09091H219.77ZM223.921 15.1545C223.399 15.1545 222.934 15.0639 222.526 14.8828C222.117 14.6982 221.794 14.4265 221.556 14.0678C221.322 13.7056 221.205 13.2546 221.205 12.7148C221.205 12.2603 221.288 11.8786 221.455 11.5696C221.622 11.2607 221.849 11.0121 222.137 10.8239C222.424 10.6357 222.751 10.4936 223.117 10.3977C223.486 10.3018 223.873 10.2344 224.278 10.1953C224.754 10.1456 225.138 10.0994 225.429 10.0568C225.72 10.0107 225.931 9.94318 226.063 9.8544C226.194 9.76562 226.26 9.63423 226.26 9.46023V9.42827C226.26 9.09091 226.153 8.8299 225.94 8.64524C225.731 8.46058 225.432 8.36825 225.045 8.36825C224.637 8.36825 224.312 8.45881 224.07 8.63991C223.829 8.81747 223.669 9.04119 223.591 9.31108L221.492 9.14062C221.599 8.64347 221.808 8.21378 222.121 7.85156C222.433 7.4858 222.836 7.20526 223.33 7.00994C223.827 6.81108 224.402 6.71165 225.056 6.71165C225.51 6.71165 225.945 6.76491 226.361 6.87145C226.78 6.97798 227.151 7.14311 227.474 7.36683C227.801 7.59055 228.058 7.8782 228.247 8.22976C228.435 8.57777 228.529 8.99503 228.529 9.48153V15H226.377V13.8654H226.313C226.182 14.1211 226.006 14.3466 225.786 14.5419C225.565 14.7337 225.301 14.8846 224.992 14.9947C224.683 15.1012 224.326 15.1545 223.921 15.1545ZM224.571 13.5884C224.905 13.5884 225.2 13.5227 225.455 13.3913C225.711 13.2564 225.912 13.0753 226.057 12.848C226.203 12.6207 226.276 12.3633 226.276 12.0756V11.2074C226.205 11.2536 226.107 11.2962 225.983 11.3352C225.862 11.3707 225.725 11.4045 225.573 11.4364C225.42 11.4648 225.267 11.4915 225.114 11.5163C224.962 11.5376 224.823 11.5572 224.699 11.5749C224.433 11.614 224.2 11.6761 224.001 11.7614C223.802 11.8466 223.648 11.962 223.538 12.1076C223.428 12.2496 223.373 12.4272 223.373 12.6403C223.373 12.9492 223.484 13.1854 223.708 13.3487C223.935 13.5085 224.223 13.5884 224.571 13.5884ZM233.304 15.1332C232.683 15.1332 232.12 14.9734 231.616 14.6538C231.115 14.3306 230.717 13.8565 230.422 13.2315C230.131 12.603 229.986 11.8324 229.986 10.9197C229.986 9.98224 230.137 9.20277 230.438 8.58132C230.74 7.95632 231.142 7.48935 231.642 7.1804C232.147 6.8679 232.699 6.71165 233.299 6.71165C233.757 6.71165 234.139 6.78977 234.444 6.94602C234.753 7.09872 235.002 7.29048 235.19 7.52131C235.382 7.74858 235.527 7.9723 235.627 8.19247H235.696V4.09091H237.96V15H235.723V13.6896H235.627C235.52 13.9169 235.369 14.1424 235.174 14.3661C234.982 14.5863 234.732 14.7692 234.423 14.9148C234.117 15.0604 233.745 15.1332 233.304 15.1332ZM234.023 13.3274C234.389 13.3274 234.698 13.228 234.95 13.0291C235.206 12.8267 235.401 12.5444 235.536 12.1822C235.675 11.82 235.744 11.3956 235.744 10.9091C235.744 10.4226 235.676 10 235.541 9.64133C235.407 9.28267 235.211 9.00568 234.956 8.81037C234.7 8.61506 234.389 8.5174 234.023 8.5174C233.65 8.5174 233.336 8.61861 233.081 8.82102C232.825 9.02344 232.631 9.30398 232.5 9.66264C232.369 10.0213 232.303 10.4368 232.303 10.9091C232.303 11.3849 232.369 11.8058 232.5 12.1715C232.635 12.5337 232.828 12.8178 233.081 13.0238C233.336 13.2262 233.65 13.3274 234.023 13.3274ZM243.522 15.1598C242.695 15.1598 241.979 14.984 241.376 14.6325C240.775 14.2773 240.312 13.7837 239.985 13.1516C239.659 12.516 239.495 11.7791 239.495 10.9411C239.495 10.0959 239.659 9.35724 239.985 8.72514C240.312 8.08949 240.775 7.59588 241.376 7.24432C241.979 6.8892 242.695 6.71165 243.522 6.71165C244.35 6.71165 245.063 6.8892 245.664 7.24432C246.267 7.59588 246.732 8.08949 247.059 8.72514C247.386 9.35724 247.549 10.0959 247.549 10.9411C247.549 11.7791 247.386 12.516 247.059 13.1516C246.732 13.7837 246.267 14.2773 245.664 14.6325C245.063 14.984 244.35 15.1598 243.522 15.1598ZM243.533 13.402C243.909 13.402 244.224 13.2955 244.476 13.0824C244.728 12.8658 244.918 12.571 245.046 12.1982C245.177 11.8253 245.243 11.4009 245.243 10.9251C245.243 10.4492 245.177 10.0249 245.046 9.65199C244.918 9.27912 244.728 8.98437 244.476 8.76776C244.224 8.55114 243.909 8.44283 243.533 8.44283C243.153 8.44283 242.833 8.55114 242.574 8.76776C242.318 8.98437 242.125 9.27912 241.993 9.65199C241.866 10.0249 241.802 10.4492 241.802 10.9251C241.802 11.4009 241.866 11.8253 241.993 12.1982C242.125 12.571 242.318 12.8658 242.574 13.0824C242.833 13.2955 243.153 13.402 243.533 13.402ZM249.025 15V6.81818H251.225V8.24574H251.31C251.459 7.73793 251.709 7.3544 252.061 7.09517C252.412 6.83239 252.817 6.70099 253.275 6.70099C253.389 6.70099 253.512 6.7081 253.643 6.7223C253.774 6.73651 253.89 6.75604 253.989 6.78089V8.79439C253.883 8.76243 253.735 8.73402 253.547 8.70916C253.359 8.6843 253.187 8.67188 253.03 8.67188C252.697 8.67188 252.398 8.74467 252.135 8.89027C251.876 9.03232 251.67 9.23118 251.518 9.48686C251.368 9.74254 251.294 10.0373 251.294 10.3711V15H249.025ZM262.544 15H258.677V4.09091H262.576C263.673 4.09091 264.618 4.3093 265.41 4.74609C266.202 5.17933 266.811 5.80256 267.237 6.61577C267.666 7.42898 267.881 8.40199 267.881 9.5348C267.881 10.6712 267.666 11.6477 267.237 12.4645C266.811 13.2812 266.198 13.908 265.399 14.3448C264.604 14.7816 263.652 15 262.544 15ZM260.983 13.0238H262.448C263.13 13.0238 263.703 12.9031 264.169 12.6616C264.637 12.4165 264.989 12.0384 265.223 11.527C265.461 11.0121 265.58 10.348 265.58 9.5348C265.58 8.72869 265.461 8.06996 265.223 7.55859C264.989 7.04723 264.639 6.67081 264.174 6.42933C263.709 6.18786 263.135 6.06712 262.453 6.06712H260.983V13.0238ZM273.276 15.1598C272.434 15.1598 271.71 14.9893 271.103 14.6484C270.499 14.304 270.034 13.8175 269.707 13.1889C269.38 12.5568 269.217 11.8093 269.217 10.9464C269.217 10.1048 269.38 9.36612 269.707 8.73047C270.034 8.09482 270.494 7.59943 271.087 7.24432C271.683 6.8892 272.383 6.71165 273.185 6.71165C273.725 6.71165 274.228 6.79865 274.693 6.97266C275.161 7.14311 275.57 7.40057 275.918 7.74503C276.269 8.08949 276.543 8.52273 276.738 9.04474C276.934 9.56321 277.031 10.1705 277.031 10.8665V11.4897H270.122V10.0835H274.895C274.895 9.75675 274.824 9.46733 274.682 9.2152C274.54 8.96307 274.343 8.76598 274.091 8.62393C273.842 8.47834 273.553 8.40554 273.223 8.40554C272.878 8.40554 272.573 8.48544 272.306 8.64524C272.044 8.80149 271.838 9.01278 271.688 9.27912C271.539 9.5419 271.463 9.83487 271.459 10.158V11.495C271.459 11.8999 271.534 12.2496 271.683 12.5444C271.836 12.8391 272.051 13.0664 272.328 13.2262C272.605 13.386 272.933 13.4659 273.313 13.4659C273.565 13.4659 273.796 13.4304 274.006 13.3594C274.215 13.2884 274.394 13.1818 274.544 13.0398C274.693 12.8977 274.806 12.7237 274.884 12.5178L276.983 12.6562C276.877 13.1605 276.658 13.6009 276.328 13.9773C276.001 14.3501 275.579 14.6413 275.06 14.8509C274.545 15.0568 273.951 15.1598 273.276 15.1598ZM282.026 15V4.09091H289.377V5.99254H284.333V8.59197H288.999V10.4936H284.333V13.0984H289.398V15H282.026ZM298.796 6.81818L295.936 15H293.379L290.518 6.81818H292.915L294.615 12.6722H294.7L296.394 6.81818H298.796ZM303.422 15.1598C302.581 15.1598 301.856 14.9893 301.249 14.6484C300.645 14.304 300.18 13.8175 299.853 13.1889C299.527 12.5568 299.363 11.8093 299.363 10.9464C299.363 10.1048 299.527 9.36612 299.853 8.73047C300.18 8.09482 300.64 7.59943 301.233 7.24432C301.83 6.8892 302.529 6.71165 303.332 6.71165C303.872 6.71165 304.374 6.79865 304.839 6.97266C305.308 7.14311 305.716 7.40057 306.064 7.74503C306.416 8.08949 306.689 8.52273 306.885 9.04474C307.08 9.56321 307.178 10.1705 307.178 10.8665V11.4897H300.269V10.0835H305.042C305.042 9.75675 304.971 9.46733 304.829 9.2152C304.687 8.96307 304.489 8.76598 304.237 8.62393C303.989 8.47834 303.699 8.40554 303.369 8.40554C303.025 8.40554 302.719 8.48544 302.453 8.64524C302.19 8.80149 301.984 9.01278 301.835 9.27912C301.686 9.5419 301.609 9.83487 301.606 10.158V11.495C301.606 11.8999 301.68 12.2496 301.83 12.5444C301.982 12.8391 302.197 13.0664 302.474 13.2262C302.751 13.386 303.08 13.4659 303.46 13.4659C303.712 13.4659 303.943 13.4304 304.152 13.3594C304.362 13.2884 304.541 13.1818 304.69 13.0398C304.839 12.8977 304.953 12.7237 305.031 12.5178L307.13 12.6562C307.023 13.1605 306.805 13.6009 306.475 13.9773C306.148 14.3501 305.725 14.6413 305.207 14.8509C304.692 15.0568 304.097 15.1598 303.422 15.1598ZM310.928 10.2699V15H308.658V6.81818H310.821V8.26172H310.917C311.098 7.78587 311.402 7.40945 311.828 7.13246C312.254 6.85192 312.771 6.71165 313.378 6.71165C313.946 6.71165 314.441 6.83594 314.864 7.08452C315.287 7.3331 315.615 7.68821 315.85 8.14986C316.084 8.60795 316.201 9.15483 316.201 9.79048V15H313.932V10.1953C313.935 9.6946 313.808 9.30398 313.548 9.02344C313.289 8.73935 312.932 8.5973 312.478 8.5973C312.172 8.5973 311.902 8.663 311.668 8.79439C311.437 8.92578 311.256 9.11754 311.125 9.36967C310.997 9.61825 310.931 9.91832 310.928 10.2699ZM322.341 6.81818V8.52273H317.414V6.81818H322.341ZM318.533 4.85795H320.802V12.4858C320.802 12.6953 320.834 12.8587 320.898 12.9759C320.962 13.0895 321.051 13.1694 321.164 13.2156C321.281 13.2617 321.416 13.2848 321.569 13.2848C321.676 13.2848 321.782 13.2759 321.889 13.2582C321.995 13.2369 322.077 13.2209 322.134 13.2102L322.491 14.8988C322.377 14.9343 322.217 14.9751 322.011 15.0213C321.805 15.071 321.555 15.1012 321.26 15.1119C320.713 15.1332 320.234 15.0604 319.822 14.8935C319.414 14.7266 319.096 14.4673 318.868 14.1158C318.641 13.7642 318.529 13.3203 318.533 12.7841V4.85795ZM327.428 15.1598C326.601 15.1598 325.885 14.984 325.282 14.6325C324.682 14.2773 324.218 13.7837 323.892 13.1516C323.565 12.516 323.401 11.7791 323.401 10.9411C323.401 10.0959 323.565 9.35724 323.892 8.72514C324.218 8.08949 324.682 7.59588 325.282 7.24432C325.885 6.8892 326.601 6.71165 327.428 6.71165C328.256 6.71165 328.97 6.8892 329.57 7.24432C330.173 7.59588 330.639 8.08949 330.965 8.72514C331.292 9.35724 331.455 10.0959 331.455 10.9411C331.455 11.7791 331.292 12.516 330.965 13.1516C330.639 13.7837 330.173 14.2773 329.57 14.6325C328.97 14.984 328.256 15.1598 327.428 15.1598ZM327.439 13.402C327.816 13.402 328.13 13.2955 328.382 13.0824C328.634 12.8658 328.824 12.571 328.952 12.1982C329.083 11.8253 329.149 11.4009 329.149 10.9251C329.149 10.4492 329.083 10.0249 328.952 9.65199C328.824 9.27912 328.634 8.98437 328.382 8.76776C328.13 8.55114 327.816 8.44283 327.439 8.44283C327.059 8.44283 326.74 8.55114 326.48 8.76776C326.225 8.98437 326.031 9.27912 325.9 9.65199C325.772 10.0249 325.708 10.4492 325.708 10.9251C325.708 11.4009 325.772 11.8253 325.9 12.1982C326.031 12.571 326.225 12.8658 326.48 13.0824C326.74 13.2955 327.059 13.402 327.439 13.402ZM339.738 9.15128L337.661 9.27912C337.626 9.10156 337.549 8.94176 337.432 8.79972C337.315 8.65412 337.16 8.53871 336.969 8.45348C336.78 8.3647 336.555 8.32031 336.292 8.32031C335.941 8.32031 335.644 8.39489 335.403 8.54403C335.161 8.68963 335.04 8.88494 335.04 9.12997C335.04 9.32528 335.118 9.49041 335.275 9.62536C335.431 9.7603 335.699 9.86861 336.079 9.95028L337.56 10.2486C338.355 10.4119 338.948 10.6747 339.339 11.0369C339.73 11.3991 339.925 11.875 339.925 12.4645C339.925 13.0007 339.767 13.4712 339.451 13.8761C339.138 14.2809 338.709 14.5969 338.162 14.8242C337.618 15.0479 336.992 15.1598 336.281 15.1598C335.198 15.1598 334.335 14.9343 333.693 14.4833C333.053 14.0288 332.679 13.4109 332.569 12.6296L334.801 12.5124C334.868 12.8427 335.031 13.0948 335.291 13.2688C335.55 13.4393 335.882 13.5245 336.287 13.5245C336.684 13.5245 337.004 13.4482 337.246 13.2955C337.491 13.1392 337.615 12.9386 337.618 12.6935C337.615 12.4876 337.528 12.3189 337.357 12.1875C337.187 12.0526 336.924 11.9496 336.569 11.8786L335.152 11.5962C334.353 11.4364 333.758 11.1594 333.368 10.7653C332.981 10.3711 332.787 9.86861 332.787 9.25781C332.787 8.73224 332.929 8.27947 333.213 7.8995C333.501 7.51953 333.904 7.22656 334.422 7.0206C334.944 6.81463 335.555 6.71165 336.255 6.71165C337.288 6.71165 338.101 6.93004 338.694 7.36683C339.291 7.80362 339.639 8.39844 339.738 9.15128Z" fill="black"/>
    <path fill-rule="evenodd" clip-rule="evenodd" d="M163 4H149C148.867 4 148.74 4.05268 148.646 4.14645C148.553 4.24021 148.5 4.36739 148.5 4.5V15.5C148.5 15.6326 148.553 15.7598 148.646 15.8536C148.74 15.9473 148.867 16 149 16H163C163.133 16 163.26 15.9473 163.354 15.8536C163.447 15.7598 163.5 15.6326 163.5 15.5V4.5C163.5 4.36739 163.447 4.24021 163.354 4.14645C163.26 4.05268 163.133 4 163 4ZM149.5 15V5H162.5V15H149.5Z" fill="#01FB01"/>
    <path fill-rule="evenodd" clip-rule="evenodd" d="M163.324 4.88L156.279 10.88C156.188 10.9573 156.073 10.9997 155.954 10.9995C155.835 10.9994 155.719 10.9566 155.629 10.879L148.673 4.879C148.596 4.81237 148.54 4.72362 148.515 4.62469C148.489 4.52577 148.495 4.42141 148.53 4.32567C148.566 4.22992 148.63 4.14739 148.714 4.08916C148.798 4.03094 148.898 3.99982 149 4H163C163.102 4.0002 163.202 4.03166 163.285 4.09017C163.369 4.14867 163.433 4.23141 163.468 4.32725C163.504 4.42309 163.509 4.52743 163.483 4.62625C163.457 4.72507 163.402 4.81363 163.324 4.88ZM161.642 5H150.345L155.957 9.841L161.642 5Z" fill="#01FB01"/>
    <path fill-rule="evenodd" clip-rule="evenodd" d="M163 124H149C148.867 124 148.74 124.053 148.646 124.146C148.553 124.24 148.5 124.367 148.5 124.5V135.5C148.5 135.633 148.553 135.76 148.646 135.854C148.74 135.947 148.867 136 149 136H163C163.133 136 163.26 135.947 163.354 135.854C163.447 135.76 163.5 135.633 163.5 135.5V124.5C163.5 124.367 163.447 124.24 163.354 124.146C163.26 124.053 163.133 124 163 124ZM149.5 135V125H162.5V135H149.5Z" fill="#01FB01"/>
    <path fill-rule="evenodd" clip-rule="evenodd" d="M163.324 124.88L156.279 130.88C156.188 130.957 156.073 131 155.954 131C155.835 130.999 155.719 130.957 155.629 130.879L148.673 124.879C148.596 124.812 148.54 124.724 148.515 124.625C148.489 124.526 148.495 124.421 148.53 124.326C148.566 124.23 148.63 124.147 148.714 124.089C148.798 124.031 148.898 124 149 124H163C163.102 124 163.202 124.032 163.285 124.09C163.369 124.149 163.433 124.231 163.468 124.327C163.504 124.423 163.509 124.527 163.483 124.626C163.457 124.725 163.402 124.814 163.324 124.88ZM161.642 125H150.345L155.957 129.841L161.642 125Z" fill="#01FB01"/>
    <path fill-rule="evenodd" clip-rule="evenodd" d="M163 84H149C148.867 84 148.74 84.0527 148.646 84.1464C148.553 84.2402 148.5 84.3674 148.5 84.5V95.5C148.5 95.6326 148.553 95.7598 148.646 95.8536C148.74 95.9473 148.867 96 149 96H163C163.133 96 163.26 95.9473 163.354 95.8536C163.447 95.7598 163.5 95.6326 163.5 95.5V84.5C163.5 84.3674 163.447 84.2402 163.354 84.1464C163.26 84.0527 163.133 84 163 84ZM149.5 95V85H162.5V95H149.5Z" fill="#01FB01"/>
    <path fill-rule="evenodd" clip-rule="evenodd" d="M163.324 84.88L156.279 90.88C156.188 90.9573 156.073 90.9997 155.954 90.9995C155.835 90.9994 155.719 90.9566 155.629 90.879L148.673 84.879C148.596 84.8124 148.54 84.7236 148.515 84.6247C148.489 84.5258 148.495 84.4214 148.53 84.3257C148.566 84.2299 148.63 84.1474 148.714 84.0892C148.798 84.0309 148.898 83.9998 149 84H163C163.102 84.0002 163.202 84.0317 163.285 84.0902C163.369 84.1487 163.433 84.2314 163.468 84.3272C163.504 84.4231 163.509 84.5274 163.483 84.6263C163.457 84.7251 163.402 84.8136 163.324 84.88ZM161.642 85H150.345L155.957 89.841L161.642 85Z" fill="#01FB01"/>
    <path fill-rule="evenodd" clip-rule="evenodd" d="M163 44H149C148.867 44 148.74 44.0527 148.646 44.1464C148.553 44.2402 148.5 44.3674 148.5 44.5V55.5C148.5 55.6326 148.553 55.7598 148.646 55.8536C148.74 55.9473 148.867 56 149 56H163C163.133 56 163.26 55.9473 163.354 55.8536C163.447 55.7598 163.5 55.6326 163.5 55.5V44.5C163.5 44.3674 163.447 44.2402 163.354 44.1464C163.26 44.0527 163.133 44 163 44ZM149.5 55V45H162.5V55H149.5Z" fill="#01FB01"/>
    <path fill-rule="evenodd" clip-rule="evenodd" d="M163.324 44.88L156.279 50.88C156.188 50.9573 156.073 50.9997 155.954 50.9995C155.835 50.9994 155.719 50.9566 155.629 50.879L148.673 44.879C148.596 44.8124 148.54 44.7236 148.515 44.6247C148.489 44.5258 148.495 44.4214 148.53 44.3257C148.566 44.2299 148.63 44.1474 148.714 44.0892C148.798 44.0309 148.898 43.9998 149 44H163C163.102 44.0002 163.202 44.0317 163.285 44.0902C163.369 44.1487 163.433 44.2314 163.468 44.3272C163.504 44.4231 163.509 44.5274 163.483 44.6263C163.457 44.7251 163.402 44.8136 163.324 44.88ZM161.642 45H150.345L155.957 49.841L161.642 45Z" fill="#01FB01"/>
    <path fill-rule="evenodd" clip-rule="evenodd" d="M42.5 50H7.5C7.16848 50 6.85054 50.1317 6.61612 50.3661C6.3817 50.6005 6.25 50.9185 6.25 51.25V78.75C6.25 79.0815 6.3817 79.3995 6.61612 79.6339C6.85054 79.8683 7.16848 80 7.5 80H42.5C42.8315 80 43.1495 79.8683 43.3839 79.6339C43.6183 79.3995 43.75 79.0815 43.75 78.75V51.25C43.75 50.9185 43.6183 50.6005 43.3839 50.3661C43.1495 50.1317 42.8315 50 42.5 50ZM8.75 77.5V52.5H41.25V77.5H8.75Z" fill="#01FB01"/>
    <path fill-rule="evenodd" clip-rule="evenodd" d="M43.31 52.2L25.6975 67.2C25.4708 67.3933 25.1825 67.4993 24.8845 67.4988C24.5866 67.4984 24.2986 67.3915 24.0725 67.1975L6.68249 52.1975C6.4889 52.0309 6.35099 51.8091 6.2873 51.5617C6.22361 51.3144 6.2372 51.0535 6.32625 50.8142C6.41529 50.5748 6.57552 50.3685 6.78536 50.2229C6.99521 50.0773 7.2446 49.9996 7.49999 50H42.5C42.7553 50.0005 43.0044 50.0792 43.2136 50.2254C43.4229 50.3717 43.5824 50.5785 43.6706 50.8181C43.7588 51.0577 43.7716 51.3186 43.7071 51.5656C43.6426 51.8127 43.504 52.0341 43.31 52.2ZM39.105 52.5H10.8625L24.8925 64.6025L39.105 52.5Z" fill="#01FB01"/>
    <path d="M56 40L146 10" stroke="#01FB01" stroke-width="2" stroke-dasharray="4 4"/>
    <path d="M56 56L146 50" stroke="#01FB01" stroke-width="2" stroke-dasharray="4 4"/>
    <path d="M56 73L146 90" stroke="#01FB01" stroke-width="2" stroke-dasharray="4 4"/>
    <path d="M56 90L146 130" stroke="#01FB01" stroke-width="2" stroke-dasharray="4 4"/>
</svg>