<svg width="421" height="150" viewBox="0 0 421 150" fill="none" xmlns="http://www.w3.org/2000/svg">
    <rect width="132" height="20" transform="translate(289 124)" fill="#00C7FF"/>
    <path d="M302.255 128.091V139H299.948V128.091H302.255ZM306.379 134.27V139H304.11V130.818H306.272V132.262H306.368C306.549 131.786 306.853 131.409 307.279 131.132C307.705 130.852 308.222 130.712 308.829 130.712C309.397 130.712 309.893 130.836 310.315 131.085C310.738 131.333 311.066 131.688 311.301 132.15C311.535 132.608 311.652 133.155 311.652 133.79V139H309.383V134.195C309.387 133.695 309.259 133.304 309 133.023C308.74 132.739 308.383 132.597 307.929 132.597C307.623 132.597 307.354 132.663 307.119 132.794C306.888 132.926 306.707 133.118 306.576 133.37C306.448 133.618 306.382 133.918 306.379 134.27ZM317.841 130.818V132.523H312.791V130.818H317.841ZM313.947 139V130.227C313.947 129.634 314.062 129.142 314.293 128.751C314.527 128.361 314.847 128.068 315.252 127.873C315.657 127.677 316.116 127.58 316.631 127.58C316.979 127.58 317.297 127.606 317.585 127.659C317.876 127.713 318.093 127.761 318.235 127.803L317.83 129.508C317.741 129.479 317.631 129.453 317.5 129.428C317.372 129.403 317.24 129.391 317.105 129.391C316.772 129.391 316.539 129.469 316.408 129.625C316.276 129.778 316.211 129.993 316.211 130.27V139H313.947ZM319.227 139V130.818H321.427V132.246H321.512C321.661 131.738 321.911 131.354 322.263 131.095C322.615 130.832 323.019 130.701 323.478 130.701C323.591 130.701 323.714 130.708 323.845 130.722C323.976 130.737 324.092 130.756 324.191 130.781V132.794C324.085 132.762 323.937 132.734 323.749 132.709C323.561 132.684 323.389 132.672 323.233 132.672C322.899 132.672 322.6 132.745 322.338 132.89C322.078 133.032 321.872 133.231 321.72 133.487C321.571 133.743 321.496 134.037 321.496 134.371V139H319.227ZM327.463 139.154C326.941 139.154 326.476 139.064 326.068 138.883C325.659 138.698 325.336 138.426 325.098 138.068C324.864 137.706 324.747 137.255 324.747 136.715C324.747 136.26 324.83 135.879 324.997 135.57C325.164 135.261 325.391 135.012 325.679 134.824C325.966 134.636 326.293 134.494 326.659 134.398C327.028 134.302 327.415 134.234 327.82 134.195C328.296 134.146 328.68 134.099 328.971 134.057C329.262 134.011 329.473 133.943 329.605 133.854C329.736 133.766 329.802 133.634 329.802 133.46V133.428C329.802 133.091 329.695 132.83 329.482 132.645C329.273 132.461 328.974 132.368 328.587 132.368C328.179 132.368 327.854 132.459 327.612 132.64C327.371 132.817 327.211 133.041 327.133 133.311L325.034 133.141C325.141 132.643 325.35 132.214 325.663 131.852C325.975 131.486 326.378 131.205 326.872 131.01C327.369 130.811 327.944 130.712 328.598 130.712C329.052 130.712 329.487 130.765 329.903 130.871C330.322 130.978 330.693 131.143 331.016 131.367C331.343 131.591 331.6 131.878 331.789 132.23C331.977 132.578 332.071 132.995 332.071 133.482V139H329.919V137.865H329.855C329.724 138.121 329.548 138.347 329.328 138.542C329.107 138.734 328.843 138.885 328.534 138.995C328.225 139.101 327.868 139.154 327.463 139.154ZM328.113 137.588C328.447 137.588 328.742 137.523 328.997 137.391C329.253 137.256 329.454 137.075 329.599 136.848C329.745 136.621 329.818 136.363 329.818 136.076V135.207C329.747 135.254 329.649 135.296 329.525 135.335C329.404 135.371 329.267 135.404 329.115 135.436C328.962 135.465 328.809 135.491 328.656 135.516C328.504 135.538 328.365 135.557 328.241 135.575C327.975 135.614 327.742 135.676 327.543 135.761C327.344 135.847 327.19 135.962 327.08 136.108C326.97 136.25 326.915 136.427 326.915 136.64C326.915 136.949 327.026 137.185 327.25 137.349C327.477 137.509 327.765 137.588 328.113 137.588ZM337.56 139.16C336.718 139.16 335.994 138.989 335.387 138.648C334.783 138.304 334.318 137.817 333.991 137.189C333.664 136.557 333.501 135.809 333.501 134.946C333.501 134.105 333.664 133.366 333.991 132.73C334.318 132.095 334.778 131.599 335.371 131.244C335.967 130.889 336.667 130.712 337.469 130.712C338.009 130.712 338.512 130.799 338.977 130.973C339.446 131.143 339.854 131.401 340.202 131.745C340.554 132.089 340.827 132.523 341.022 133.045C341.218 133.563 341.315 134.17 341.315 134.866V135.49H334.407V134.083H339.179C339.179 133.757 339.108 133.467 338.966 133.215C338.824 132.963 338.627 132.766 338.375 132.624C338.126 132.478 337.837 132.406 337.507 132.406C337.162 132.406 336.857 132.485 336.591 132.645C336.328 132.801 336.122 133.013 335.973 133.279C335.824 133.542 335.747 133.835 335.744 134.158V135.495C335.744 135.9 335.818 136.25 335.967 136.544C336.12 136.839 336.335 137.066 336.612 137.226C336.889 137.386 337.217 137.466 337.597 137.466C337.849 137.466 338.08 137.43 338.29 137.359C338.499 137.288 338.679 137.182 338.828 137.04C338.977 136.898 339.091 136.724 339.169 136.518L341.267 136.656C341.161 137.161 340.942 137.601 340.612 137.977C340.286 138.35 339.863 138.641 339.344 138.851C338.83 139.057 338.235 139.16 337.56 139.16ZM349.604 133.151L347.526 133.279C347.491 133.102 347.414 132.942 347.297 132.8C347.18 132.654 347.026 132.539 346.834 132.453C346.646 132.365 346.42 132.32 346.157 132.32C345.806 132.32 345.509 132.395 345.268 132.544C345.026 132.69 344.906 132.885 344.906 133.13C344.906 133.325 344.984 133.49 345.14 133.625C345.296 133.76 345.564 133.869 345.944 133.95L347.425 134.249C348.221 134.412 348.814 134.675 349.204 135.037C349.595 135.399 349.79 135.875 349.79 136.464C349.79 137.001 349.632 137.471 349.316 137.876C349.004 138.281 348.574 138.597 348.027 138.824C347.484 139.048 346.857 139.16 346.147 139.16C345.064 139.16 344.201 138.934 343.558 138.483C342.919 138.029 342.544 137.411 342.434 136.63L344.666 136.512C344.733 136.843 344.897 137.095 345.156 137.269C345.415 137.439 345.747 137.525 346.152 137.525C346.55 137.525 346.869 137.448 347.111 137.295C347.356 137.139 347.48 136.939 347.484 136.694C347.48 136.488 347.393 136.319 347.223 136.188C347.052 136.053 346.789 135.95 346.434 135.879L345.017 135.596C344.218 135.436 343.624 135.159 343.233 134.765C342.846 134.371 342.652 133.869 342.652 133.258C342.652 132.732 342.794 132.279 343.078 131.9C343.366 131.52 343.769 131.227 344.288 131.021C344.81 130.815 345.42 130.712 346.12 130.712C347.153 130.712 347.967 130.93 348.56 131.367C349.156 131.804 349.504 132.398 349.604 133.151ZM355.571 130.818V132.523H350.644V130.818H355.571ZM351.762 128.858H354.032V136.486C354.032 136.695 354.063 136.859 354.127 136.976C354.191 137.089 354.28 137.169 354.394 137.216C354.511 137.262 354.646 137.285 354.799 137.285C354.905 137.285 355.012 137.276 355.118 137.258C355.225 137.237 355.306 137.221 355.363 137.21L355.72 138.899C355.606 138.934 355.447 138.975 355.241 139.021C355.035 139.071 354.784 139.101 354.49 139.112C353.943 139.133 353.463 139.06 353.051 138.893C352.643 138.727 352.325 138.467 352.098 138.116C351.871 137.764 351.759 137.32 351.762 136.784V128.858ZM357.049 139V130.818H359.249V132.246H359.334C359.483 131.738 359.734 131.354 360.085 131.095C360.437 130.832 360.842 130.701 361.3 130.701C361.413 130.701 361.536 130.708 361.667 130.722C361.799 130.737 361.914 130.756 362.014 130.781V132.794C361.907 132.762 361.76 132.734 361.571 132.709C361.383 132.684 361.211 132.672 361.055 132.672C360.721 132.672 360.423 132.745 360.16 132.89C359.901 133.032 359.695 133.231 359.542 133.487C359.393 133.743 359.318 134.037 359.318 134.371V139H357.049ZM368.434 135.516V130.818H370.703V139H368.524V137.514H368.439C368.254 137.993 367.947 138.379 367.517 138.67C367.091 138.961 366.571 139.107 365.957 139.107C365.41 139.107 364.929 138.982 364.513 138.734C364.098 138.485 363.773 138.132 363.538 137.674C363.308 137.216 363.19 136.667 363.187 136.028V130.818H365.456V135.623C365.46 136.106 365.589 136.488 365.845 136.768C366.1 137.049 366.443 137.189 366.873 137.189C367.146 137.189 367.402 137.127 367.64 137.002C367.878 136.875 368.07 136.686 368.215 136.438C368.364 136.189 368.437 135.882 368.434 135.516ZM376.215 139.16C375.377 139.16 374.656 138.982 374.052 138.627C373.452 138.268 372.99 137.771 372.667 137.136C372.347 136.5 372.188 135.768 372.188 134.941C372.188 134.103 372.349 133.368 372.672 132.736C372.999 132.1 373.462 131.605 374.063 131.25C374.663 130.891 375.377 130.712 376.204 130.712C376.918 130.712 377.543 130.841 378.079 131.1C378.615 131.36 379.04 131.724 379.352 132.192C379.665 132.661 379.837 133.212 379.869 133.844H377.727C377.667 133.435 377.507 133.107 377.248 132.858C376.992 132.606 376.657 132.48 376.241 132.48C375.89 132.48 375.582 132.576 375.32 132.768C375.06 132.956 374.858 133.231 374.712 133.593C374.567 133.956 374.494 134.394 374.494 134.909C374.494 135.431 374.565 135.875 374.707 136.241C374.853 136.607 375.057 136.885 375.32 137.077C375.582 137.269 375.89 137.365 376.241 137.365C376.5 137.365 376.733 137.311 376.939 137.205C377.149 137.098 377.321 136.944 377.456 136.741C377.594 136.536 377.685 136.289 377.727 136.001H379.869C379.833 136.626 379.663 137.176 379.357 137.652C379.055 138.125 378.638 138.494 378.106 138.76C377.573 139.027 376.943 139.16 376.215 139.16ZM385.673 130.818V132.523H380.746V130.818H385.673ZM381.865 128.858H384.134V136.486C384.134 136.695 384.166 136.859 384.23 136.976C384.294 137.089 384.383 137.169 384.496 137.216C384.613 137.262 384.748 137.285 384.901 137.285C385.008 137.285 385.114 137.276 385.221 137.258C385.327 137.237 385.409 137.221 385.466 137.21L385.823 138.899C385.709 138.934 385.549 138.975 385.343 139.021C385.137 139.071 384.887 139.101 384.592 139.112C384.045 139.133 383.566 139.06 383.154 138.893C382.746 138.727 382.428 138.467 382.2 138.116C381.973 137.764 381.861 137.32 381.865 136.784V128.858ZM392.398 135.516V130.818H394.668V139H392.489V137.514H392.404C392.219 137.993 391.912 138.379 391.482 138.67C391.056 138.961 390.536 139.107 389.922 139.107C389.375 139.107 388.893 138.982 388.478 138.734C388.063 138.485 387.738 138.132 387.503 137.674C387.272 137.216 387.155 136.667 387.152 136.028V130.818H389.421V135.623C389.424 136.106 389.554 136.488 389.81 136.768C390.065 137.049 390.408 137.189 390.838 137.189C391.111 137.189 391.367 137.127 391.605 137.002C391.843 136.875 392.034 136.686 392.18 136.438C392.329 136.189 392.402 135.882 392.398 135.516ZM396.483 139V130.818H398.683V132.246H398.768C398.917 131.738 399.167 131.354 399.519 131.095C399.87 130.832 400.275 130.701 400.733 130.701C400.847 130.701 400.97 130.708 401.101 130.722C401.232 130.737 401.348 130.756 401.447 130.781V132.794C401.341 132.762 401.193 132.734 401.005 132.709C400.817 132.684 400.645 132.672 400.488 132.672C400.155 132.672 399.856 132.745 399.593 132.89C399.334 133.032 399.128 133.231 398.976 133.487C398.826 133.743 398.752 134.037 398.752 134.371V139H396.483ZM404.719 139.154C404.197 139.154 403.732 139.064 403.324 138.883C402.915 138.698 402.592 138.426 402.354 138.068C402.12 137.706 402.002 137.255 402.002 136.715C402.002 136.26 402.086 135.879 402.253 135.57C402.42 135.261 402.647 135.012 402.935 134.824C403.222 134.636 403.549 134.494 403.915 134.398C404.284 134.302 404.671 134.234 405.076 134.195C405.552 134.146 405.935 134.099 406.227 134.057C406.518 134.011 406.729 133.943 406.86 133.854C406.992 133.766 407.058 133.634 407.058 133.46V133.428C407.058 133.091 406.951 132.83 406.738 132.645C406.528 132.461 406.23 132.368 405.843 132.368C405.435 132.368 405.11 132.459 404.868 132.64C404.627 132.817 404.467 133.041 404.389 133.311L402.29 133.141C402.397 132.643 402.606 132.214 402.919 131.852C403.231 131.486 403.634 131.205 404.128 131.01C404.625 130.811 405.2 130.712 405.854 130.712C406.308 130.712 406.743 130.765 407.159 130.871C407.578 130.978 407.949 131.143 408.272 131.367C408.599 131.591 408.856 131.878 409.044 132.23C409.233 132.578 409.327 132.995 409.327 133.482V139H407.175V137.865H407.111C406.979 138.121 406.804 138.347 406.583 138.542C406.363 138.734 406.099 138.885 405.79 138.995C405.481 139.101 405.124 139.154 404.719 139.154ZM405.369 137.588C405.703 137.588 405.998 137.523 406.253 137.391C406.509 137.256 406.71 137.075 406.855 136.848C407.001 136.621 407.074 136.363 407.074 136.076V135.207C407.002 135.254 406.905 135.296 406.781 135.335C406.66 135.371 406.523 135.404 406.37 135.436C406.218 135.465 406.065 135.491 405.912 135.516C405.76 135.538 405.621 135.557 405.497 135.575C405.23 135.614 404.998 135.676 404.799 135.761C404.6 135.847 404.446 135.962 404.336 136.108C404.225 136.25 404.17 136.427 404.17 136.64C404.17 136.949 404.282 137.185 404.506 137.349C404.733 137.509 405.021 137.588 405.369 137.588Z" fill="black"/>
    <rect width="98" height="20" transform="translate(256 89)" fill="#F968F3"/>
    <path d="M268.828 104H266.357L270.123 93.0909H273.095L276.856 104H274.384L271.652 95.5838H271.566L268.828 104ZM268.674 99.712H274.512V101.512H268.674V99.712ZM278.126 107.068V95.8182H280.363V97.1925H280.465C280.564 96.9723 280.708 96.7486 280.896 96.5213C281.088 96.2905 281.336 96.0987 281.642 95.946C281.951 95.7898 282.334 95.7116 282.792 95.7116C283.389 95.7116 283.939 95.8679 284.444 96.1804C284.948 96.4893 285.351 96.9563 285.653 97.5813C285.955 98.2028 286.106 98.9822 286.106 99.9197C286.106 100.832 285.958 101.603 285.664 102.232C285.372 102.857 284.975 103.331 284.47 103.654C283.97 103.973 283.409 104.133 282.787 104.133C282.347 104.133 281.972 104.06 281.663 103.915C281.358 103.769 281.107 103.586 280.912 103.366C280.717 103.142 280.568 102.917 280.465 102.69H280.395V107.068H278.126ZM280.347 99.9091C280.347 100.396 280.415 100.82 280.55 101.182C280.685 101.544 280.88 101.827 281.136 102.029C281.392 102.228 281.702 102.327 282.068 102.327C282.437 102.327 282.75 102.226 283.006 102.024C283.261 101.818 283.455 101.534 283.586 101.172C283.721 100.806 283.789 100.385 283.789 99.9091C283.789 99.4368 283.723 99.0213 283.591 98.6626C283.46 98.304 283.267 98.0234 283.011 97.821C282.755 97.6186 282.441 97.5174 282.068 97.5174C281.699 97.5174 281.386 97.6151 281.131 97.8104C280.878 98.0057 280.685 98.2827 280.55 98.6413C280.415 99 280.347 99.4226 280.347 99.9091ZM289.888 93.0909V104H287.618V93.0909H289.888ZM291.705 104V95.8182H293.975V104H291.705ZM292.845 94.7635C292.508 94.7635 292.218 94.6516 291.977 94.4279C291.739 94.2006 291.62 93.929 291.62 93.6129C291.62 93.3004 291.739 93.0323 291.977 92.8086C292.218 92.5813 292.508 92.4677 292.845 92.4677C293.183 92.4677 293.47 92.5813 293.708 92.8086C293.95 93.0323 294.07 93.3004 294.07 93.6129C294.07 93.929 293.95 94.2006 293.708 94.4279C293.47 94.6516 293.183 94.7635 292.845 94.7635ZM299.489 104.16C298.651 104.16 297.93 103.982 297.326 103.627C296.726 103.268 296.265 102.771 295.941 102.136C295.622 101.5 295.462 100.768 295.462 99.9411C295.462 99.103 295.624 98.3679 295.947 97.7358C296.273 97.1001 296.737 96.6048 297.337 96.2496C297.937 95.891 298.651 95.7116 299.478 95.7116C300.192 95.7116 300.817 95.8413 301.353 96.1005C301.89 96.3597 302.314 96.7237 302.626 97.1925C302.939 97.6612 303.111 98.2116 303.143 98.8438H301.002C300.941 98.4354 300.782 98.1069 300.522 97.8583C300.267 97.6062 299.931 97.4801 299.516 97.4801C299.164 97.4801 298.857 97.576 298.594 97.7678C298.335 97.956 298.132 98.2312 297.987 98.5934C297.841 98.9556 297.768 99.3942 297.768 99.9091C297.768 100.431 297.839 100.875 297.982 101.241C298.127 101.607 298.331 101.885 298.594 102.077C298.857 102.269 299.164 102.365 299.516 102.365C299.775 102.365 300.007 102.311 300.213 102.205C300.423 102.098 300.595 101.944 300.73 101.741C300.869 101.536 300.959 101.289 301.002 101.001H303.143C303.108 101.626 302.937 102.176 302.632 102.652C302.33 103.125 301.913 103.494 301.38 103.76C300.847 104.027 300.217 104.16 299.489 104.16ZM306.929 104.154C306.407 104.154 305.942 104.064 305.533 103.883C305.125 103.698 304.802 103.426 304.564 103.068C304.33 102.706 304.212 102.255 304.212 101.715C304.212 101.26 304.296 100.879 304.463 100.57C304.63 100.261 304.857 100.012 305.145 99.8239C305.432 99.6357 305.759 99.4936 306.125 99.3977C306.494 99.3018 306.881 99.2344 307.286 99.1953C307.762 99.1456 308.145 99.0994 308.437 99.0568C308.728 99.0107 308.939 98.9432 309.07 98.8544C309.202 98.7656 309.267 98.6342 309.267 98.4602V98.4283C309.267 98.0909 309.161 97.8299 308.948 97.6452C308.738 97.4606 308.44 97.3683 308.053 97.3683C307.645 97.3683 307.32 97.4588 307.078 97.6399C306.837 97.8175 306.677 98.0412 306.599 98.3111L304.5 98.1406C304.607 97.6435 304.816 97.2138 305.129 96.8516C305.441 96.4858 305.844 96.2053 306.338 96.0099C306.835 95.8111 307.41 95.7116 308.064 95.7116C308.518 95.7116 308.953 95.7649 309.369 95.8714C309.788 95.978 310.159 96.1431 310.482 96.3668C310.809 96.5906 311.066 96.8782 311.254 97.2298C311.443 97.5778 311.537 97.995 311.537 98.4815V104H309.385V102.865H309.321C309.189 103.121 309.014 103.347 308.793 103.542C308.573 103.734 308.309 103.885 308 103.995C307.691 104.101 307.334 104.154 306.929 104.154ZM307.579 102.588C307.913 102.588 308.207 102.523 308.463 102.391C308.719 102.256 308.919 102.075 309.065 101.848C309.211 101.621 309.283 101.363 309.283 101.076V100.207C309.212 100.254 309.115 100.296 308.991 100.335C308.87 100.371 308.733 100.404 308.58 100.436C308.428 100.465 308.275 100.491 308.122 100.516C307.97 100.538 307.831 100.557 307.707 100.575C307.44 100.614 307.208 100.676 307.009 100.761C306.81 100.847 306.656 100.962 306.546 101.108C306.435 101.25 306.38 101.427 306.38 101.64C306.38 101.949 306.492 102.185 306.716 102.349C306.943 102.509 307.231 102.588 307.579 102.588ZM316.994 104.16C316.156 104.16 315.435 103.982 314.831 103.627C314.231 103.268 313.769 102.771 313.446 102.136C313.127 101.5 312.967 100.768 312.967 99.9411C312.967 99.103 313.128 98.3679 313.452 97.7358C313.778 97.1001 314.242 96.6048 314.842 96.2496C315.442 95.891 316.156 95.7116 316.983 95.7116C317.697 95.7116 318.322 95.8413 318.858 96.1005C319.394 96.3597 319.819 96.7237 320.131 97.1925C320.444 97.6612 320.616 98.2116 320.648 98.8438H318.507C318.446 98.4354 318.286 98.1069 318.027 97.8583C317.772 97.6062 317.436 97.4801 317.021 97.4801C316.669 97.4801 316.362 97.576 316.099 97.7678C315.84 97.956 315.637 98.2312 315.492 98.5934C315.346 98.9556 315.273 99.3942 315.273 99.9091C315.273 100.431 315.344 100.875 315.486 101.241C315.632 101.607 315.836 101.885 316.099 102.077C316.362 102.269 316.669 102.365 317.021 102.365C317.28 102.365 317.512 102.311 317.718 102.205C317.928 102.098 318.1 101.944 318.235 101.741C318.373 101.536 318.464 101.289 318.507 101.001H320.648C320.612 101.626 320.442 102.176 320.137 102.652C319.835 103.125 319.418 103.494 318.885 103.76C318.352 104.027 317.722 104.16 316.994 104.16ZM322.101 104V95.8182H324.37V104H322.101ZM323.241 94.7635C322.903 94.7635 322.614 94.6516 322.373 94.4279C322.135 94.2006 322.016 93.929 322.016 93.6129C322.016 93.3004 322.135 93.0323 322.373 92.8086C322.614 92.5813 322.903 92.4677 323.241 92.4677C323.578 92.4677 323.866 92.5813 324.104 92.8086C324.345 93.0323 324.466 93.3004 324.466 93.6129C324.466 93.929 324.345 94.2006 324.104 94.4279C323.866 94.6516 323.578 94.7635 323.241 94.7635ZM329.884 104.16C329.057 104.16 328.342 103.984 327.738 103.632C327.138 103.277 326.674 102.784 326.348 102.152C326.021 101.516 325.858 100.779 325.858 99.9411C325.858 99.0959 326.021 98.3572 326.348 97.7251C326.674 97.0895 327.138 96.5959 327.738 96.2443C328.342 95.8892 329.057 95.7116 329.884 95.7116C330.712 95.7116 331.426 95.8892 332.026 96.2443C332.63 96.5959 333.095 97.0895 333.421 97.7251C333.748 98.3572 333.911 99.0959 333.911 99.9411C333.911 100.779 333.748 101.516 333.421 102.152C333.095 102.784 332.63 103.277 332.026 103.632C331.426 103.984 330.712 104.16 329.884 104.16ZM329.895 102.402C330.272 102.402 330.586 102.295 330.838 102.082C331.09 101.866 331.28 101.571 331.408 101.198C331.539 100.825 331.605 100.401 331.605 99.9251C331.605 99.4492 331.539 99.0249 331.408 98.652C331.28 98.2791 331.09 97.9844 330.838 97.7678C330.586 97.5511 330.272 97.4428 329.895 97.4428C329.515 97.4428 329.196 97.5511 328.936 97.7678C328.681 97.9844 328.487 98.2791 328.356 98.652C328.228 99.0249 328.164 99.4492 328.164 99.9251C328.164 100.401 328.228 100.825 328.356 101.198C328.487 101.571 328.681 101.866 328.936 102.082C329.196 102.295 329.515 102.402 329.895 102.402ZM329.07 94.7635L330.199 92.3398H332.297L330.673 94.7635H329.07ZM337.656 99.2699V104H335.387V95.8182H337.55V97.2617H337.646C337.827 96.7859 338.13 96.4094 338.556 96.1325C338.983 95.8519 339.499 95.7116 340.106 95.7116C340.675 95.7116 341.17 95.8359 341.593 96.0845C342.015 96.3331 342.344 96.6882 342.578 97.1499C342.812 97.608 342.93 98.1548 342.93 98.7905V104H340.66V99.1953C340.664 98.6946 340.536 98.304 340.277 98.0234C340.018 97.7393 339.661 97.5973 339.206 97.5973C338.901 97.5973 338.631 97.663 338.397 97.7944C338.166 97.9258 337.985 98.1175 337.853 98.3697C337.725 98.6183 337.66 98.9183 337.656 99.2699Z" fill="black"/>
    <rect width="81" height="20" transform="translate(224 55)" fill="#FFEB3B"/>
    <path d="M238.815 70H234.948V59.0909H238.847C239.945 59.0909 240.889 59.3093 241.681 59.7461C242.473 60.1793 243.082 60.8026 243.508 61.6158C243.938 62.429 244.153 63.402 244.153 64.5348C244.153 65.6712 243.938 66.6477 243.508 67.4645C243.082 68.2812 242.469 68.908 241.67 69.3448C240.875 69.7816 239.923 70 238.815 70ZM237.255 68.0238H238.719C239.401 68.0238 239.975 67.9031 240.44 67.6616C240.909 67.4165 241.26 67.0384 241.495 66.527C241.733 66.0121 241.852 65.348 241.852 64.5348C241.852 63.7287 241.733 63.07 241.495 62.5586C241.26 62.0472 240.911 61.6708 240.445 61.4293C239.98 61.1879 239.407 61.0671 238.725 61.0671H237.255V68.0238ZM249.515 70.1598C248.688 70.1598 247.972 69.984 247.369 69.6325C246.769 69.2773 246.305 68.7837 245.978 68.1516C245.652 67.516 245.488 66.7791 245.488 65.9411C245.488 65.0959 245.652 64.3572 245.978 63.7251C246.305 63.0895 246.769 62.5959 247.369 62.2443C247.972 61.8892 248.688 61.7116 249.515 61.7116C250.343 61.7116 251.057 61.8892 251.657 62.2443C252.26 62.5959 252.726 63.0895 253.052 63.7251C253.379 64.3572 253.542 65.0959 253.542 65.9411C253.542 66.7791 253.379 67.516 253.052 68.1516C252.726 68.7837 252.26 69.2773 251.657 69.6325C251.057 69.984 250.343 70.1598 249.515 70.1598ZM249.526 68.402C249.902 68.402 250.217 68.2955 250.469 68.0824C250.721 67.8658 250.911 67.571 251.039 67.1982C251.17 66.8253 251.236 66.4009 251.236 65.9251C251.236 65.4492 251.17 65.0249 251.039 64.652C250.911 64.2791 250.721 63.9844 250.469 63.7678C250.217 63.5511 249.902 63.4428 249.526 63.4428C249.146 63.4428 248.826 63.5511 248.567 63.7678C248.312 63.9844 248.118 64.2791 247.987 64.652C247.859 65.0249 247.795 65.4492 247.795 65.9251C247.795 66.4009 247.859 66.8253 247.987 67.1982C248.118 67.571 248.312 67.8658 248.567 68.0824C248.826 68.2955 249.146 68.402 249.526 68.402ZM255.018 70V61.8182H257.18V63.2617H257.276C257.447 62.7823 257.731 62.4041 258.129 62.1271C258.526 61.8501 259.002 61.7116 259.556 61.7116C260.117 61.7116 260.595 61.8519 260.989 62.1325C261.383 62.4094 261.646 62.7859 261.777 63.2617H261.863C262.03 62.793 262.331 62.4183 262.768 62.1378C263.209 61.8537 263.729 61.7116 264.329 61.7116C265.092 61.7116 265.712 61.9549 266.188 62.4414C266.667 62.9244 266.907 63.6097 266.907 64.4975V70H264.643V64.945C264.643 64.4904 264.522 64.1495 264.281 63.9222C264.04 63.695 263.738 63.5813 263.375 63.5813C262.964 63.5813 262.642 63.7127 262.411 63.9755C262.18 64.2347 262.065 64.5774 262.065 65.0036V70H259.865V64.897C259.865 64.4957 259.75 64.1761 259.519 63.9382C259.292 63.7003 258.992 63.5813 258.619 63.5813C258.367 63.5813 258.139 63.6452 257.937 63.7731C257.738 63.8974 257.58 64.0732 257.463 64.3004C257.346 64.5241 257.287 64.7869 257.287 65.0888V70H255.018ZM268.699 70V61.8182H270.969V70H268.699ZM269.839 60.7635C269.502 60.7635 269.213 60.6516 268.971 60.4279C268.733 60.2006 268.614 59.929 268.614 59.6129C268.614 59.3004 268.733 59.0323 268.971 58.8086C269.213 58.5813 269.502 58.4677 269.839 58.4677C270.177 58.4677 270.464 58.5813 270.702 58.8086C270.944 59.0323 271.065 59.3004 271.065 59.6129C271.065 59.929 270.944 60.2006 270.702 60.4279C270.464 60.6516 270.177 60.7635 269.839 60.7635ZM275.056 65.2699V70H272.786V61.8182H274.949V63.2617H275.045C275.226 62.7859 275.53 62.4094 275.956 62.1325C276.382 61.8519 276.899 61.7116 277.506 61.7116C278.074 61.7116 278.569 61.8359 278.992 62.0845C279.415 62.3331 279.743 62.6882 279.977 63.1499C280.212 63.608 280.329 64.1548 280.329 64.7905V70H278.06V65.1953C278.063 64.6946 277.936 64.304 277.676 64.0234C277.417 63.7393 277.06 63.5973 276.606 63.5973C276.3 63.5973 276.03 63.663 275.796 63.7944C275.565 63.9258 275.384 64.1175 275.253 64.3697C275.125 64.6183 275.059 64.9183 275.056 65.2699ZM282.117 70V61.8182H284.387V70H282.117ZM283.257 60.7635C282.92 60.7635 282.631 60.6516 282.389 60.4279C282.151 60.2006 282.032 59.929 282.032 59.6129C282.032 59.3004 282.151 59.0323 282.389 58.8086C282.631 58.5813 282.92 58.4677 283.257 58.4677C283.595 58.4677 283.882 58.5813 284.12 58.8086C284.362 59.0323 284.483 59.3004 284.483 59.6129C284.483 59.929 284.362 60.2006 284.12 60.4279C283.882 60.6516 283.595 60.7635 283.257 60.7635ZM289.901 70.1598C289.074 70.1598 288.358 69.984 287.754 69.6325C287.154 69.2773 286.691 68.7837 286.364 68.1516C286.037 67.516 285.874 66.7791 285.874 65.9411C285.874 65.0959 286.037 64.3572 286.364 63.7251C286.691 63.0895 287.154 62.5959 287.754 62.2443C288.358 61.8892 289.074 61.7116 289.901 61.7116C290.729 61.7116 291.442 61.8892 292.042 62.2443C292.646 62.5959 293.111 63.0895 293.438 63.7251C293.765 64.3572 293.928 65.0959 293.928 65.9411C293.928 66.7791 293.765 67.516 293.438 68.1516C293.111 68.7837 292.646 69.2773 292.042 69.6325C291.442 69.984 290.729 70.1598 289.901 70.1598ZM289.912 68.402C290.288 68.402 290.602 68.2955 290.855 68.0824C291.107 67.8658 291.297 67.571 291.425 67.1982C291.556 66.8253 291.622 66.4009 291.622 65.9251C291.622 65.4492 291.556 65.0249 291.425 64.652C291.297 64.2791 291.107 63.9844 290.855 63.7678C290.602 63.5511 290.288 63.4428 289.912 63.4428C289.532 63.4428 289.212 63.5511 288.953 63.7678C288.697 63.9844 288.504 64.2791 288.372 64.652C288.244 65.0249 288.181 65.4492 288.181 65.9251C288.181 66.4009 288.244 66.8253 288.372 67.1982C288.504 67.571 288.697 67.8658 288.953 68.0824C289.212 68.2955 289.532 68.402 289.912 68.402Z" fill="black"/>
    <circle cx="75" cy="75" r="75" fill="#00C7FF"/>
    <circle cx="75" cy="75" r="55" fill="#F968F3"/>
    <circle cx="75" cy="75" r="35" fill="#FFEB3B"/>
    <path d="M216.707 65.7071C217.098 65.3166 217.098 64.6834 216.707 64.2929L210.343 57.9289C209.953 57.5384 209.319 57.5384 208.929 57.9289C208.538 58.3195 208.538 58.9526 208.929 59.3431L214.586 65L208.929 70.6569C208.538 71.0474 208.538 71.6805 208.929 72.0711C209.319 72.4616 209.953 72.4616 210.343 72.0711L216.707 65.7071ZM96 66H216V64H96V66Z" fill="#FFEB3B"/>
    <path d="M280.711 133.703C281.099 133.311 281.096 132.678 280.703 132.289L274.306 125.959C273.913 125.571 273.28 125.574 272.892 125.966C272.503 126.359 272.507 126.992 272.899 127.381L278.586 133.007L272.959 138.694C272.571 139.087 272.574 139.72 272.966 140.108C273.359 140.497 273.992 140.493 274.381 140.101L280.711 133.703ZM91.0053 135L280.005 134L279.995 132L90.9947 133L91.0053 135Z" fill="#00C7FF"/>
    <path d="M249.207 99.7071C249.598 99.3166 249.598 98.6834 249.207 98.2929L242.843 91.9289C242.453 91.5384 241.819 91.5384 241.429 91.9289C241.038 92.3195 241.038 92.9526 241.429 93.3431L247.086 99L241.429 104.657C241.038 105.047 241.038 105.681 241.429 106.071C241.819 106.462 242.453 106.462 242.843 106.071L249.207 99.7071ZM112.5 100L248.5 100V98L112.5 98V100Z" fill="#F968F3"/>
</svg>
