<svg width="221" height="180" viewBox="0 0 221 180" fill="none" xmlns="http://www.w3.org/2000/svg">
    <rect width="188" height="20" fill="#01FB01"/>
    <path d="M10.9482 15V4.09091H15.2521C16.076 4.09091 16.7791 4.23828 17.3615 4.53303C17.9474 4.82422 18.3931 5.23793 18.6985 5.77415C19.0075 6.30682 19.1619 6.93359 19.1619 7.65447C19.1619 8.37891 19.0057 9.00213 18.6932 9.52415C18.3807 10.0426 17.9279 10.4403 17.3349 10.7173C16.7454 10.9943 16.0316 11.1328 15.1935 11.1328H12.3118V9.27912H14.8207C15.261 9.27912 15.6268 9.21875 15.918 9.09801C16.2092 8.97727 16.4258 8.79616 16.5678 8.55469C16.7134 8.31321 16.7862 8.01314 16.7862 7.65447C16.7862 7.29226 16.7134 6.98686 16.5678 6.73828C16.4258 6.4897 16.2074 6.30149 15.9126 6.17365C15.6214 6.04226 15.2539 5.97656 14.81 5.97656H13.2546V15H10.9482ZM16.8395 10.0355L19.5508 15H17.0046L14.3519 10.0355H16.8395ZM24.3461 15.1598C23.5045 15.1598 22.7801 14.9893 22.1729 14.6484C21.5692 14.304 21.104 13.8175 20.7773 13.1889C20.4506 12.5568 20.2872 11.8093 20.2872 10.9464C20.2872 10.1048 20.4506 9.36612 20.7773 8.73047C21.104 8.09482 21.5638 7.59943 22.1569 7.24432C22.7535 6.8892 23.453 6.71165 24.2556 6.71165C24.7954 6.71165 25.2979 6.79865 25.7631 6.97266C26.2318 7.14311 26.6402 7.40057 26.9882 7.74503C27.3398 8.08949 27.6132 8.52273 27.8085 9.04474C28.0038 9.56321 28.1015 10.1705 28.1015 10.8665V11.4897H21.1927V10.0835H25.9655C25.9655 9.75675 25.8944 9.46733 25.7524 9.2152C25.6104 8.96307 25.4133 8.76598 25.1611 8.62393C24.9126 8.47834 24.6231 8.40554 24.2929 8.40554C23.9484 8.40554 23.643 8.48544 23.3767 8.64524C23.1139 8.80149 22.9079 9.01278 22.7588 9.27912C22.6096 9.5419 22.5333 9.83487 22.5297 10.158V11.495C22.5297 11.8999 22.6043 12.2496 22.7535 12.5444C22.9062 12.8391 23.121 13.0664 23.398 13.2262C23.675 13.386 24.0035 13.4659 24.3834 13.4659C24.6356 13.4659 24.8664 13.4304 25.0759 13.3594C25.2854 13.2884 25.4648 13.1818 25.6139 13.0398C25.7631 12.8977 25.8767 12.7237 25.9548 12.5178L28.0535 12.6562C27.947 13.1605 27.7286 13.6009 27.3983 13.9773C27.0716 14.3501 26.6491 14.6413 26.1306 14.8509C25.6157 15.0568 25.0209 15.1598 24.3461 15.1598ZM36.3898 9.15128L34.3124 9.27912C34.2769 9.10156 34.2006 8.94176 34.0834 8.79972C33.9662 8.65412 33.8117 8.53871 33.6199 8.45348C33.4317 8.3647 33.2062 8.32031 32.9434 8.32031C32.5919 8.32031 32.2954 8.39489 32.0539 8.54403C31.8124 8.68963 31.6917 8.88494 31.6917 9.12997C31.6917 9.32528 31.7698 9.49041 31.926 9.62536C32.0823 9.7603 32.3504 9.86861 32.7304 9.95028L34.2112 10.2486C35.0067 10.4119 35.5997 10.6747 35.9903 11.0369C36.3809 11.3991 36.5763 11.875 36.5763 12.4645C36.5763 13.0007 36.4182 13.4712 36.1022 13.8761C35.7897 14.2809 35.36 14.5969 34.8131 14.8242C34.2698 15.0479 33.643 15.1598 32.9328 15.1598C31.8497 15.1598 30.9868 14.9343 30.344 14.4833C29.7048 14.0288 29.3302 13.4109 29.2201 12.6296L31.452 12.5124C31.5194 12.8427 31.6828 13.0948 31.942 13.2688C32.2013 13.4393 32.5333 13.5245 32.9381 13.5245C33.3358 13.5245 33.6555 13.4482 33.8969 13.2955C34.142 13.1392 34.2662 12.9386 34.2698 12.6935C34.2662 12.4876 34.1792 12.3189 34.0088 12.1875C33.8383 12.0526 33.5756 11.9496 33.2204 11.8786L31.8035 11.5962C31.0045 11.4364 30.4097 11.1594 30.0191 10.7653C29.632 10.3711 29.4385 9.86861 29.4385 9.25781C29.4385 8.73224 29.5805 8.27947 29.8646 7.8995C30.1523 7.51953 30.5553 7.22656 31.0738 7.0206C31.5958 6.81463 32.2066 6.71165 32.9062 6.71165C33.9395 6.71165 34.7528 6.93004 35.3458 7.36683C35.9424 7.80362 36.2904 8.39844 36.3898 9.15128ZM38.0051 18.0682V6.81818H40.2424V8.19247H40.3436C40.443 7.9723 40.5868 7.74858 40.775 7.52131C40.9668 7.29048 41.2154 7.09872 41.5208 6.94602C41.8297 6.78977 42.2132 6.71165 42.6713 6.71165C43.2679 6.71165 43.8184 6.8679 44.3226 7.1804C44.8269 7.48935 45.2299 7.95632 45.5318 8.58132C45.8336 9.20277 45.9846 9.98224 45.9846 10.9197C45.9846 11.8324 45.8372 12.603 45.5424 13.2315C45.2512 13.8565 44.8535 14.3306 44.3493 14.6538C43.8485 14.9734 43.2875 15.1332 42.666 15.1332C42.2257 15.1332 41.851 15.0604 41.5421 14.9148C41.2367 14.7692 40.9863 14.5863 40.791 14.3661C40.5957 14.1424 40.4466 13.9169 40.3436 13.6896H40.2743V18.0682H38.0051ZM40.2264 10.9091C40.2264 11.3956 40.2939 11.82 40.4288 12.1822C40.5637 12.5444 40.7591 12.8267 41.0147 13.0291C41.2704 13.228 41.5811 13.3274 41.9469 13.3274C42.3162 13.3274 42.6287 13.2262 42.8844 13.0238C43.1401 12.8178 43.3336 12.5337 43.465 12.1715C43.6 11.8058 43.6674 11.3849 43.6674 10.9091C43.6674 10.4368 43.6017 10.0213 43.4703 9.66264C43.339 9.30398 43.1454 9.02344 42.8897 8.82102C42.6341 8.61861 42.3198 8.5174 41.9469 8.5174C41.5776 8.5174 41.2651 8.61506 41.0094 8.81037C40.7573 9.00568 40.5637 9.28267 40.4288 9.64133C40.2939 10 40.2264 10.4226 40.2264 10.9091ZM51.1941 15.1598C50.3667 15.1598 49.6511 14.984 49.0474 14.6325C48.4473 14.2773 47.9838 13.7837 47.6571 13.1516C47.3304 12.516 47.1671 11.7791 47.1671 10.9411C47.1671 10.0959 47.3304 9.35724 47.6571 8.72514C47.9838 8.08949 48.4473 7.59588 49.0474 7.24432C49.6511 6.8892 50.3667 6.71165 51.1941 6.71165C52.0215 6.71165 52.7353 6.8892 53.3354 7.24432C53.9391 7.59588 54.4043 8.08949 54.731 8.72514C55.0577 9.35724 55.2211 10.0959 55.2211 10.9411C55.2211 11.7791 55.0577 12.516 54.731 13.1516C54.4043 13.7837 53.9391 14.2773 53.3354 14.6325C52.7353 14.984 52.0215 15.1598 51.1941 15.1598ZM51.2047 13.402C51.5811 13.402 51.8954 13.2955 52.1475 13.0824C52.3997 12.8658 52.5897 12.571 52.7175 12.1982C52.8489 11.8253 52.9146 11.4009 52.9146 10.9251C52.9146 10.4492 52.8489 10.0249 52.7175 9.65199C52.5897 9.27912 52.3997 8.98437 52.1475 8.76776C51.8954 8.55114 51.5811 8.44283 51.2047 8.44283C50.8248 8.44283 50.5051 8.55114 50.2459 8.76776C49.9902 8.98437 49.7967 9.27912 49.6653 9.65199C49.5375 10.0249 49.4735 10.4492 49.4735 10.9251C49.4735 11.4009 49.5375 11.8253 49.6653 12.1982C49.7967 12.571 49.9902 12.8658 50.2459 13.0824C50.5051 13.2955 50.8248 13.402 51.2047 13.402ZM58.9657 10.2699V15H56.6966V6.81818H58.8592V8.26172H58.9551C59.1362 7.78587 59.4398 7.40945 59.8659 7.13246C60.2921 6.85192 60.8088 6.71165 61.416 6.71165C61.9842 6.71165 62.4796 6.83594 62.9022 7.08452C63.3248 7.3331 63.6532 7.68821 63.8876 8.14986C64.122 8.60795 64.2392 9.15483 64.2392 9.79048V15H61.97V10.1953C61.9735 9.6946 61.8457 9.30398 61.5865 9.02344C61.3272 8.73935 60.9703 8.5973 60.5158 8.5973C60.2104 8.5973 59.9405 8.663 59.7061 8.79439C59.4753 8.92578 59.2942 9.11754 59.1628 9.36967C59.035 9.61825 58.9693 9.91832 58.9657 10.2699ZM72.8351 9.15128L70.7577 9.27912C70.7222 9.10156 70.6459 8.94176 70.5287 8.79972C70.4115 8.65412 70.257 8.53871 70.0653 8.45348C69.877 8.3647 69.6515 8.32031 69.3888 8.32031C69.0372 8.32031 68.7407 8.39489 68.4992 8.54403C68.2577 8.68963 68.137 8.88494 68.137 9.12997C68.137 9.32528 68.2151 9.49041 68.3714 9.62536C68.5276 9.7603 68.7957 9.86861 69.1757 9.95028L70.6565 10.2486C71.452 10.4119 72.045 10.6747 72.4356 11.0369C72.8263 11.3991 73.0216 11.875 73.0216 12.4645C73.0216 13.0007 72.8635 13.4712 72.5475 13.8761C72.235 14.2809 71.8053 14.5969 71.2584 14.8242C70.7151 15.0479 70.0883 15.1598 69.3781 15.1598C68.295 15.1598 67.4321 14.9343 66.7893 14.4833C66.1501 14.0288 65.7755 13.4109 65.6654 12.6296L67.8973 12.5124C67.9648 12.8427 68.1281 13.0948 68.3873 13.2688C68.6466 13.4393 68.9786 13.5245 69.3834 13.5245C69.7812 13.5245 70.1008 13.4482 70.3422 13.2955C70.5873 13.1392 70.7116 12.9386 70.7151 12.6935C70.7116 12.4876 70.6246 12.3189 70.4541 12.1875C70.2836 12.0526 70.0209 11.9496 69.6657 11.8786L68.2488 11.5962C67.4498 11.4364 66.855 11.1594 66.4644 10.7653C66.0773 10.3711 65.8838 9.86861 65.8838 9.25781C65.8838 8.73224 66.0258 8.27947 66.3099 7.8995C66.5976 7.51953 67.0006 7.22656 67.5191 7.0206C68.0411 6.81463 68.6519 6.71165 69.3515 6.71165C70.3849 6.71165 71.1981 6.93004 71.7911 7.36683C72.3877 7.80362 72.7357 8.39844 72.8351 9.15128ZM76.7836 15.1545C76.2615 15.1545 75.7963 15.0639 75.388 14.8828C74.9796 14.6982 74.6564 14.4265 74.4185 14.0678C74.1841 13.7056 74.0669 13.2546 74.0669 12.7148C74.0669 12.2603 74.1504 11.8786 74.3173 11.5696C74.4842 11.2607 74.7115 11.0121 74.9991 10.8239C75.2868 10.6357 75.6135 10.4936 75.9792 10.3977C76.3485 10.3018 76.7356 10.2344 77.1404 10.1953C77.6163 10.1456 77.9998 10.0994 78.291 10.0568C78.5822 10.0107 78.7935 9.94318 78.9249 9.8544C79.0563 9.76562 79.122 9.63423 79.122 9.46023V9.42827C79.122 9.09091 79.0154 8.8299 78.8024 8.64524C78.5929 8.46058 78.2946 8.36825 77.9075 8.36825C77.4991 8.36825 77.1742 8.45881 76.9327 8.63991C76.6912 8.81747 76.5314 9.04119 76.4533 9.31108L74.3546 9.14062C74.4611 8.64347 74.6706 8.21378 74.9831 7.85156C75.2956 7.4858 75.6987 7.20526 76.1923 7.00994C76.6895 6.81108 77.2647 6.71165 77.9181 6.71165C78.3727 6.71165 78.8077 6.76491 79.2232 6.87145C79.6422 6.97798 80.0133 7.14311 80.3365 7.36683C80.6632 7.59055 80.9206 7.8782 81.1088 8.22976C81.2971 8.57777 81.3912 8.99503 81.3912 9.48153V15H79.2392V13.8654H79.1752C79.0439 14.1211 78.8681 14.3466 78.6479 14.5419C78.4277 14.7337 78.1632 14.8846 77.8542 14.9947C77.5453 15.1012 77.1884 15.1545 76.7836 15.1545ZM77.4334 13.5884C77.7672 13.5884 78.062 13.5227 78.3176 13.3913C78.5733 13.2564 78.774 13.0753 78.9196 12.848C79.0652 12.6207 79.138 12.3633 79.138 12.0756V11.2074C79.0669 11.2536 78.9693 11.2962 78.845 11.3352C78.7243 11.3707 78.5875 11.4045 78.4348 11.4364C78.2821 11.4648 78.1294 11.4915 77.9767 11.5163C77.824 11.5376 77.6855 11.5572 77.5613 11.5749C77.2949 11.614 77.0623 11.6761 76.8635 11.7614C76.6646 11.8466 76.5101 11.962 76.4 12.1076C76.29 12.2496 76.2349 12.4272 76.2349 12.6403C76.2349 12.9492 76.3468 13.1854 76.5705 13.3487C76.7978 13.5085 77.0854 13.5884 77.4334 13.5884ZM83.1942 15V4.09091H85.4634V8.19247H85.5327C85.6321 7.9723 85.7759 7.74858 85.9641 7.52131C86.1559 7.29048 86.4045 7.09872 86.7099 6.94602C87.0188 6.78977 87.4023 6.71165 87.8604 6.71165C88.457 6.71165 89.0075 6.8679 89.5117 7.1804C90.016 7.48935 90.419 7.95632 90.7209 8.58132C91.0227 9.20277 91.1737 9.98224 91.1737 10.9197C91.1737 11.8324 91.0263 12.603 90.7315 13.2315C90.4403 13.8565 90.0426 14.3306 89.5384 14.6538C89.0376 14.9734 88.4766 15.1332 87.8551 15.1332C87.4148 15.1332 87.0401 15.0604 86.7312 14.9148C86.4258 14.7692 86.1754 14.5863 85.9801 14.3661C85.7848 14.1424 85.6357 13.9169 85.5327 13.6896H85.4315V15H83.1942ZM85.4155 10.9091C85.4155 11.3956 85.483 11.82 85.6179 12.1822C85.7528 12.5444 85.9482 12.8267 86.2038 13.0291C86.4595 13.228 86.7702 13.3274 87.136 13.3274C87.5053 13.3274 87.8178 13.2262 88.0735 13.0238C88.3292 12.8178 88.5227 12.5337 88.6541 12.1715C88.7891 11.8058 88.8565 11.3849 88.8565 10.9091C88.8565 10.4368 88.7908 10.0213 88.6594 9.66264C88.5281 9.30398 88.3345 9.02344 88.0788 8.82102C87.8232 8.61861 87.5089 8.5174 87.136 8.5174C86.7667 8.5174 86.4542 8.61506 86.1985 8.81037C85.9464 9.00568 85.7528 9.28267 85.6179 9.64133C85.483 10 85.4155 10.4226 85.4155 10.9091ZM92.6878 15V6.81818H94.9569V15H92.6878ZM93.8277 5.76349C93.4903 5.76349 93.2009 5.65163 92.9594 5.42791C92.7215 5.20064 92.6025 4.92898 92.6025 4.61293C92.6025 4.30043 92.7215 4.03232 92.9594 3.80859C93.2009 3.58132 93.4903 3.46768 93.8277 3.46768C94.165 3.46768 94.4527 3.58132 94.6906 3.80859C94.9321 4.03232 95.0528 4.30043 95.0528 4.61293C95.0528 4.92898 94.9321 5.20064 94.6906 5.42791C94.4527 5.65163 94.165 5.76349 93.8277 5.76349ZM99.0439 4.09091V15H96.7747V4.09091H99.0439ZM100.862 15V6.81818H103.131V15H100.862ZM102.002 5.76349C101.664 5.76349 101.375 5.65163 101.133 5.42791C100.895 5.20064 100.776 4.92898 100.776 4.61293C100.776 4.30043 100.895 4.03232 101.133 3.80859C101.375 3.58132 101.664 3.46768 102.002 3.46768C102.339 3.46768 102.627 3.58132 102.864 3.80859C103.106 4.03232 103.227 4.30043 103.227 4.61293C103.227 4.92898 103.106 5.20064 102.864 5.42791C102.627 5.65163 102.339 5.76349 102.002 5.76349ZM107.963 15.1332C107.342 15.1332 106.779 14.9734 106.275 14.6538C105.774 14.3306 105.376 13.8565 105.082 13.2315C104.79 12.603 104.645 11.8324 104.645 10.9197C104.645 9.98224 104.796 9.20277 105.098 8.58132C105.4 7.95632 105.801 7.48935 106.301 7.1804C106.806 6.8679 107.358 6.71165 107.958 6.71165C108.416 6.71165 108.798 6.78977 109.103 6.94602C109.412 7.09872 109.661 7.29048 109.849 7.52131C110.041 7.74858 110.186 7.9723 110.286 8.19247H110.355V4.09091H112.619V15H110.382V13.6896H110.286C110.179 13.9169 110.028 14.1424 109.833 14.3661C109.641 14.5863 109.391 14.7692 109.082 14.9148C108.777 15.0604 108.404 15.1332 107.963 15.1332ZM108.683 13.3274C109.048 13.3274 109.357 13.228 109.609 13.0291C109.865 12.8267 110.06 12.5444 110.195 12.1822C110.334 11.82 110.403 11.3956 110.403 10.9091C110.403 10.4226 110.336 10 110.201 9.64133C110.066 9.28267 109.87 9.00568 109.615 8.81037C109.359 8.61506 109.048 8.5174 108.683 8.5174C108.31 8.5174 107.995 8.61861 107.74 8.82102C107.484 9.02344 107.29 9.30398 107.159 9.66264C107.028 10.0213 106.962 10.4368 106.962 10.9091C106.962 11.3849 107.028 11.8058 107.159 12.1715C107.294 12.5337 107.488 12.8178 107.74 13.0238C107.995 13.2262 108.31 13.3274 108.683 13.3274ZM116.818 15.1545C116.296 15.1545 115.831 15.0639 115.422 14.8828C115.014 14.6982 114.691 14.4265 114.453 14.0678C114.218 13.7056 114.101 13.2546 114.101 12.7148C114.101 12.2603 114.185 11.8786 114.351 11.5696C114.518 11.2607 114.746 11.0121 115.033 10.8239C115.321 10.6357 115.648 10.4936 116.013 10.3977C116.383 10.3018 116.77 10.2344 117.175 10.1953C117.65 10.1456 118.034 10.0994 118.325 10.0568C118.616 10.0107 118.828 9.94318 118.959 9.8544C119.09 9.76562 119.156 9.63423 119.156 9.46023V9.42827C119.156 9.09091 119.05 8.8299 118.837 8.64524C118.627 8.46058 118.329 8.36825 117.942 8.36825C117.533 8.36825 117.208 8.45881 116.967 8.63991C116.725 8.81747 116.566 9.04119 116.487 9.31108L114.389 9.14062C114.495 8.64347 114.705 8.21378 115.017 7.85156C115.33 7.4858 115.733 7.20526 116.226 7.00994C116.724 6.81108 117.299 6.71165 117.952 6.71165C118.407 6.71165 118.842 6.76491 119.257 6.87145C119.676 6.97798 120.047 7.14311 120.371 7.36683C120.697 7.59055 120.955 7.8782 121.143 8.22976C121.331 8.57777 121.425 8.99503 121.425 9.48153V15H119.273V13.8654H119.209C119.078 14.1211 118.902 14.3466 118.682 14.5419C118.462 14.7337 118.197 14.8846 117.888 14.9947C117.579 15.1012 117.223 15.1545 116.818 15.1545ZM117.468 13.5884C117.801 13.5884 118.096 13.5227 118.352 13.3913C118.608 13.2564 118.808 13.0753 118.954 12.848C119.099 12.6207 119.172 12.3633 119.172 12.0756V11.2074C119.101 11.2536 119.003 11.2962 118.879 11.3352C118.758 11.3707 118.622 11.4045 118.469 11.4364C118.316 11.4648 118.164 11.4915 118.011 11.5163C117.858 11.5376 117.72 11.5572 117.595 11.5749C117.329 11.614 117.097 11.6761 116.898 11.7614C116.699 11.8466 116.544 11.962 116.434 12.1076C116.324 12.2496 116.269 12.4272 116.269 12.6403C116.269 12.9492 116.381 13.1854 116.605 13.3487C116.832 13.5085 117.12 13.5884 117.468 13.5884ZM126.201 15.1332C125.579 15.1332 125.016 14.9734 124.512 14.6538C124.011 14.3306 123.614 13.8565 123.319 13.2315C123.028 12.603 122.882 11.8324 122.882 10.9197C122.882 9.98224 123.033 9.20277 123.335 8.58132C123.637 7.95632 124.038 7.48935 124.539 7.1804C125.043 6.8679 125.595 6.71165 126.195 6.71165C126.653 6.71165 127.035 6.78977 127.341 6.94602C127.65 7.09872 127.898 7.29048 128.086 7.52131C128.278 7.74858 128.424 7.9723 128.523 8.19247H128.592V4.09091H130.856V15H128.619V13.6896H128.523C128.417 13.9169 128.266 14.1424 128.07 14.3661C127.879 14.5863 127.628 14.7692 127.319 14.9148C127.014 15.0604 126.641 15.1332 126.201 15.1332ZM126.92 13.3274C127.286 13.3274 127.595 13.228 127.847 13.0291C128.102 12.8267 128.298 12.5444 128.433 12.1822C128.571 11.82 128.64 11.3956 128.64 10.9091C128.64 10.4226 128.573 10 128.438 9.64133C128.303 9.28267 128.108 9.00568 127.852 8.81037C127.596 8.61506 127.286 8.5174 126.92 8.5174C126.547 8.5174 126.233 8.61861 125.977 8.82102C125.721 9.02344 125.528 9.30398 125.396 9.66264C125.265 10.0213 125.199 10.4368 125.199 10.9091C125.199 11.3849 125.265 11.8058 125.396 12.1715C125.531 12.5337 125.725 12.8178 125.977 13.0238C126.233 13.2262 126.547 13.3274 126.92 13.3274ZM142.975 4.09091H145.281V11.1754C145.281 11.9709 145.091 12.6669 144.711 13.2635C144.335 13.8601 143.807 14.3253 143.129 14.6591C142.451 14.9893 141.661 15.1545 140.759 15.1545C139.853 15.1545 139.061 14.9893 138.383 14.6591C137.705 14.3253 137.177 13.8601 136.801 13.2635C136.424 12.6669 136.236 11.9709 136.236 11.1754V4.09091H138.543V10.9783C138.543 11.3938 138.633 11.7631 138.814 12.0863C138.999 12.4094 139.258 12.6634 139.592 12.848C139.926 13.0327 140.315 13.125 140.759 13.125C141.206 13.125 141.595 13.0327 141.925 12.848C142.259 12.6634 142.516 12.4094 142.698 12.0863C142.882 11.7631 142.975 11.3938 142.975 10.9783V4.09091ZM149.405 10.2699V15H147.136V6.81818H149.299V8.26172H149.395C149.576 7.78587 149.879 7.40945 150.305 7.13246C150.732 6.85192 151.248 6.71165 151.855 6.71165C152.424 6.71165 152.919 6.83594 153.342 7.08452C153.764 7.3331 154.093 7.68821 154.327 8.14986C154.561 8.60795 154.679 9.15483 154.679 9.79048V15H152.409V10.1953C152.413 9.6946 152.285 9.30398 152.026 9.02344C151.767 8.73935 151.41 8.5973 150.955 8.5973C150.65 8.5973 150.38 8.663 150.146 8.79439C149.915 8.92578 149.734 9.11754 149.602 9.36967C149.474 9.61825 149.409 9.91832 149.405 10.2699ZM156.467 15V6.81818H158.736V15H156.467ZM157.607 5.76349C157.27 5.76349 156.98 5.65163 156.739 5.42791C156.501 5.20064 156.382 4.92898 156.382 4.61293C156.382 4.30043 156.501 4.03232 156.739 3.80859C156.98 3.58132 157.27 3.46768 157.607 3.46768C157.944 3.46768 158.232 3.58132 158.47 3.80859C158.711 4.03232 158.832 4.30043 158.832 4.61293C158.832 4.92898 158.711 5.20064 158.47 5.42791C158.232 5.65163 157.944 5.76349 157.607 5.76349ZM164.251 15.1598C163.413 15.1598 162.692 14.9822 162.088 14.6271C161.488 14.2685 161.026 13.7713 160.703 13.1357C160.384 12.5 160.224 11.7685 160.224 10.9411C160.224 10.103 160.385 9.3679 160.708 8.7358C161.035 8.10014 161.499 7.60476 162.099 7.24964C162.699 6.89098 163.413 6.71165 164.24 6.71165C164.954 6.71165 165.579 6.84126 166.115 7.1005C166.651 7.35973 167.076 7.72372 167.388 8.19247C167.701 8.66122 167.873 9.21165 167.905 9.84375H165.763C165.703 9.43537 165.543 9.10689 165.284 8.85831C165.028 8.60618 164.693 8.48011 164.277 8.48011C163.926 8.48011 163.619 8.57599 163.356 8.76776C163.097 8.95597 162.894 9.23118 162.749 9.59339C162.603 9.95561 162.53 10.3942 162.53 10.9091C162.53 11.4311 162.601 11.875 162.743 12.2408C162.889 12.6065 163.093 12.8853 163.356 13.0771C163.619 13.2688 163.926 13.3647 164.277 13.3647C164.537 13.3647 164.769 13.3114 164.975 13.2049C165.185 13.0984 165.357 12.9439 165.492 12.7415C165.63 12.5355 165.721 12.2887 165.763 12.0011H167.905C167.869 12.6261 167.699 13.1765 167.393 13.6523C167.092 14.1246 166.674 14.494 166.142 14.7603C165.609 15.0266 164.979 15.1598 164.251 15.1598ZM171.691 15.1545C171.169 15.1545 170.704 15.0639 170.295 14.8828C169.887 14.6982 169.564 14.4265 169.326 14.0678C169.091 13.7056 168.974 13.2546 168.974 12.7148C168.974 12.2603 169.058 11.8786 169.225 11.5696C169.391 11.2607 169.619 11.0121 169.906 10.8239C170.194 10.6357 170.521 10.4936 170.886 10.3977C171.256 10.3018 171.643 10.2344 172.048 10.1953C172.524 10.1456 172.907 10.0994 173.198 10.0568C173.489 10.0107 173.701 9.94318 173.832 9.8544C173.964 9.76562 174.029 9.63423 174.029 9.46023V9.42827C174.029 9.09091 173.923 8.8299 173.71 8.64524C173.5 8.46058 173.202 8.36825 172.815 8.36825C172.406 8.36825 172.081 8.45881 171.84 8.63991C171.598 8.81747 171.439 9.04119 171.361 9.31108L169.262 9.14062C169.368 8.64347 169.578 8.21378 169.89 7.85156C170.203 7.4858 170.606 7.20526 171.1 7.00994C171.597 6.81108 172.172 6.71165 172.825 6.71165C173.28 6.71165 173.715 6.76491 174.13 6.87145C174.549 6.97798 174.921 7.14311 175.244 7.36683C175.57 7.59055 175.828 7.8782 176.016 8.22976C176.204 8.57777 176.298 8.99503 176.298 9.48153V15H174.146V13.8654H174.082C173.951 14.1211 173.775 14.3466 173.555 14.5419C173.335 14.7337 173.07 14.8846 172.761 14.9947C172.453 15.1012 172.096 15.1545 171.691 15.1545ZM172.341 13.5884C172.674 13.5884 172.969 13.5227 173.225 13.3913C173.481 13.2564 173.681 13.0753 173.827 12.848C173.972 12.6207 174.045 12.3633 174.045 12.0756V11.2074C173.974 11.2536 173.877 11.2962 173.752 11.3352C173.631 11.3707 173.495 11.4045 173.342 11.4364C173.189 11.4648 173.037 11.4915 172.884 11.5163C172.731 11.5376 172.593 11.5572 172.468 11.5749C172.202 11.614 171.97 11.6761 171.771 11.7614C171.572 11.8466 171.417 11.962 171.307 12.1076C171.197 12.2496 171.142 12.4272 171.142 12.6403C171.142 12.9492 171.254 13.1854 171.478 13.3487C171.705 13.5085 171.993 13.5884 172.341 13.5884Z" fill="black"/>
    <rect width="148" height="20" transform="translate(0 40)" fill="#00C7FF"/>
    <path d="M12.8285 55H10.3569L14.1229 44.0909H17.0952L20.8558 55H18.3842L15.6516 46.5838H15.5664L12.8285 55ZM12.674 50.712H18.5121V52.5124H12.674V50.712ZM22.1689 55V44.0909H24.438V48.1925H24.5073C24.6067 47.9723 24.7505 47.7486 24.9387 47.5213C25.1305 47.2905 25.3791 47.0987 25.6845 46.946C25.9934 46.7898 26.377 46.7116 26.835 46.7116C27.4316 46.7116 27.9821 46.8679 28.4863 47.1804C28.9906 47.4893 29.3936 47.9563 29.6955 48.5813C29.9973 49.2028 30.1483 49.9822 30.1483 50.9197C30.1483 51.8324 30.0009 52.603 29.7061 53.2315C29.415 53.8565 29.0172 54.3306 28.513 54.6538C28.0123 54.9734 27.4512 55.1332 26.8297 55.1332C26.3894 55.1332 26.0147 55.0604 25.7058 54.9148C25.4004 54.7692 25.15 54.5863 24.9547 54.3661C24.7594 54.1424 24.6103 53.9169 24.5073 53.6896H24.4061V55H22.1689ZM24.3901 50.9091C24.3901 51.3956 24.4576 51.82 24.5925 52.1822C24.7275 52.5444 24.9228 52.8267 25.1784 53.0291C25.4341 53.228 25.7449 53.3274 26.1106 53.3274C26.4799 53.3274 26.7924 53.2262 27.0481 53.0238C27.3038 52.8178 27.4973 52.5337 27.6287 52.1715C27.7637 51.8058 27.8311 51.3849 27.8311 50.9091C27.8311 50.4368 27.7654 50.0213 27.6341 49.6626C27.5027 49.304 27.3091 49.0234 27.0534 48.821C26.7978 48.6186 26.4835 48.5174 26.1106 48.5174C25.7413 48.5174 25.4288 48.6151 25.1731 48.8104C24.921 49.0057 24.7275 49.2827 24.5925 49.6413C24.4576 50 24.3901 50.4226 24.3901 50.9091ZM31.6624 55V46.8182H33.9316V55H31.6624ZM32.8023 45.7635C32.4649 45.7635 32.1755 45.6516 31.934 45.4279C31.6961 45.2006 31.5771 44.929 31.5771 44.6129C31.5771 44.3004 31.6961 44.0323 31.934 43.8086C32.1755 43.5813 32.4649 43.4677 32.8023 43.4677C33.1396 43.4677 33.4273 43.5813 33.6652 43.8086C33.9067 44.0323 34.0274 44.3004 34.0274 44.6129C34.0274 44.929 33.9067 45.2006 33.6652 45.4279C33.4273 45.6516 33.1396 45.7635 32.8023 45.7635ZM39.478 55.1598C38.6364 55.1598 37.9119 54.9893 37.3047 54.6484C36.701 54.304 36.2358 53.8175 35.9091 53.1889C35.5824 52.5568 35.419 51.8093 35.419 50.9464C35.419 50.1048 35.5824 49.3661 35.9091 48.7305C36.2358 48.0948 36.6957 47.5994 37.2887 47.2443C37.8853 46.8892 38.5849 46.7116 39.3874 46.7116C39.9272 46.7116 40.4297 46.7987 40.8949 46.9727C41.3636 47.1431 41.772 47.4006 42.12 47.745C42.4716 48.0895 42.745 48.5227 42.9403 49.0447C43.1357 49.5632 43.2333 50.1705 43.2333 50.8665V51.4897H36.3246V50.0835H41.0973C41.0973 49.7567 41.0263 49.4673 40.8842 49.2152C40.7422 48.9631 40.5451 48.766 40.293 48.6239C40.0444 48.4783 39.755 48.4055 39.4247 48.4055C39.0803 48.4055 38.7749 48.4854 38.5085 48.6452C38.2457 48.8015 38.0398 49.0128 37.8906 49.2791C37.7415 49.5419 37.6651 49.8349 37.6616 50.158V51.495C37.6616 51.8999 37.7362 52.2496 37.8853 52.5444C38.038 52.8391 38.2528 53.0664 38.5298 53.2262C38.8068 53.386 39.1353 53.4659 39.5153 53.4659C39.7674 53.4659 39.9982 53.4304 40.2077 53.3594C40.4173 53.2884 40.5966 53.1818 40.7457 53.0398C40.8949 52.8977 41.0085 52.7237 41.0866 52.5178L43.1854 52.6562C43.0788 53.1605 42.8604 53.6009 42.5302 53.9773C42.2035 54.3501 41.7809 54.6413 41.2624 54.8509C40.7475 55.0568 40.1527 55.1598 39.478 55.1598ZM44.7141 55V46.8182H46.9141V48.2457H46.9993C47.1484 47.7379 47.3988 47.3544 47.7504 47.0952C48.1019 46.8324 48.5067 46.701 48.9648 46.701C49.0785 46.701 49.201 46.7081 49.3324 46.7223C49.4638 46.7365 49.5792 46.756 49.6786 46.7809V48.7944C49.5721 48.7624 49.4247 48.734 49.2365 48.7092C49.0483 48.6843 48.8761 48.6719 48.7198 48.6719C48.386 48.6719 48.0877 48.7447 47.8249 48.8903C47.5657 49.0323 47.3597 49.2312 47.207 49.4869C47.0579 49.7425 46.9833 50.0373 46.9833 50.3711V55H44.7141ZM55.6139 46.8182V48.5227H50.6867V46.8182H55.6139ZM51.8053 44.858H54.0745V52.4858C54.0745 52.6953 54.1064 52.8587 54.1704 52.9759C54.2343 53.0895 54.3231 53.1694 54.4367 53.2156C54.5539 53.2617 54.6888 53.2848 54.8415 53.2848C54.9481 53.2848 55.0546 53.2759 55.1611 53.2582C55.2677 53.2369 55.3493 53.2209 55.4062 53.2102L55.7631 54.8988C55.6494 54.9343 55.4896 54.9751 55.2836 55.0213C55.0777 55.071 54.8273 55.1012 54.5326 55.1119C53.9857 55.1332 53.5063 55.0604 53.0944 54.8935C52.686 54.7266 52.3682 54.4673 52.1409 54.1158C51.9136 53.7642 51.8018 53.3203 51.8053 52.7841V44.858ZM60.7009 55.1598C59.8735 55.1598 59.1579 54.984 58.5542 54.6325C57.9541 54.2773 57.4907 53.7837 57.164 53.1516C56.8373 52.516 56.6739 51.7791 56.6739 50.9411C56.6739 50.0959 56.8373 49.3572 57.164 48.7251C57.4907 48.0895 57.9541 47.5959 58.5542 47.2443C59.1579 46.8892 59.8735 46.7116 60.7009 46.7116C61.5283 46.7116 62.2421 46.8892 62.8422 47.2443C63.4459 47.5959 63.9111 48.0895 64.2378 48.7251C64.5645 49.3572 64.7279 50.0959 64.7279 50.9411C64.7279 51.7791 64.5645 52.516 64.2378 53.1516C63.9111 53.7837 63.4459 54.2773 62.8422 54.6325C62.2421 54.984 61.5283 55.1598 60.7009 55.1598ZM60.7116 53.402C61.088 53.402 61.4023 53.2955 61.6544 53.0824C61.9065 52.8658 62.0965 52.571 62.2243 52.1982C62.3557 51.8253 62.4214 51.4009 62.4214 50.9251C62.4214 50.4492 62.3557 50.0249 62.2243 49.652C62.0965 49.2791 61.9065 48.9844 61.6544 48.7678C61.4023 48.5511 61.088 48.4428 60.7116 48.4428C60.3316 48.4428 60.012 48.5511 59.7528 48.7678C59.4971 48.9844 59.3035 49.2791 59.1721 49.652C59.0443 50.0249 58.9804 50.4492 58.9804 50.9251C58.9804 51.4009 59.0443 51.8253 59.1721 52.1982C59.3035 52.571 59.4971 52.8658 59.7528 53.0824C60.012 53.2955 60.3316 53.402 60.7116 53.402ZM74.4265 43.5795L70.9109 56.6406H68.956L72.4716 43.5795H74.4265ZM88.6594 47.9102H86.3263C86.2837 47.6083 86.1967 47.3402 86.0653 47.1058C85.9339 46.8679 85.7653 46.6655 85.5593 46.4986C85.3533 46.3317 85.1154 46.2038 84.8455 46.1151C84.5792 46.0263 84.2898 45.9819 83.9773 45.9819C83.4126 45.9819 82.9208 46.1222 82.5018 46.4027C82.0827 46.6797 81.7578 47.0845 81.527 47.6172C81.2962 48.1463 81.1808 48.7891 81.1808 49.5455C81.1808 50.3232 81.2962 50.9766 81.527 51.5057C81.7614 52.0348 82.0881 52.4343 82.5071 52.7042C82.9261 52.9741 83.4109 53.109 83.9613 53.109C84.2702 53.109 84.5561 53.0682 84.8189 52.9865C85.0852 52.9048 85.3214 52.7859 85.5273 52.6296C85.7333 52.4698 85.9038 52.2763 86.0387 52.049C86.1772 51.8217 86.2731 51.5625 86.3263 51.2713L88.6594 51.282C88.5991 51.7827 88.4482 52.2656 88.2067 52.7308C87.9688 53.1925 87.6474 53.6062 87.2425 53.9719C86.8413 54.3342 86.3619 54.6218 85.8043 54.8349C85.2504 55.0444 84.6236 55.1491 83.924 55.1491C82.951 55.1491 82.081 54.929 81.3139 54.4886C80.5504 54.0483 79.9467 53.4109 79.5028 52.5763C79.0625 51.7418 78.8423 50.7315 78.8423 49.5455C78.8423 48.3558 79.0661 47.3438 79.5135 46.5092C79.9609 45.6747 80.5682 45.0391 81.3352 44.6023C82.1023 44.1619 82.9652 43.9418 83.924 43.9418C84.5561 43.9418 85.142 44.0305 85.6818 44.2081C86.2251 44.3857 86.7063 44.6449 87.1254 44.9858C87.5444 45.3232 87.8853 45.7369 88.1481 46.2269C88.4144 46.717 88.5849 47.2781 88.6594 47.9102ZM93.9995 55.1598C93.1578 55.1598 92.4334 54.9893 91.8262 54.6484C91.2225 54.304 90.7573 53.8175 90.4306 53.1889C90.1039 52.5568 89.9405 51.8093 89.9405 50.9464C89.9405 50.1048 90.1039 49.3661 90.4306 48.7305C90.7573 48.0948 91.2172 47.5994 91.8102 47.2443C92.4068 46.8892 93.1064 46.7116 93.9089 46.7116C94.4487 46.7116 94.9512 46.7987 95.4164 46.9727C95.8851 47.1431 96.2935 47.4006 96.6415 47.745C96.9931 48.0895 97.2665 48.5227 97.4618 49.0447C97.6571 49.5632 97.7548 50.1705 97.7548 50.8665V51.4897H90.8461V50.0835H95.6188C95.6188 49.7567 95.5478 49.4673 95.4057 49.2152C95.2637 48.9631 95.0666 48.766 94.8145 48.6239C94.5659 48.4783 94.2765 48.4055 93.9462 48.4055C93.6017 48.4055 93.2963 48.4854 93.03 48.6452C92.7672 48.8015 92.5613 49.0128 92.4121 49.2791C92.263 49.5419 92.1866 49.8349 92.1831 50.158V51.495C92.1831 51.8999 92.2576 52.2496 92.4068 52.5444C92.5595 52.8391 92.7743 53.0664 93.0513 53.2262C93.3283 53.386 93.6568 53.4659 94.0368 53.4659C94.2889 53.4659 94.5197 53.4304 94.7292 53.3594C94.9387 53.2884 95.1181 53.1818 95.2672 53.0398C95.4164 52.8977 95.53 52.7237 95.6081 52.5178L97.7069 52.6562C97.6003 53.1605 97.3819 53.6009 97.0517 53.9773C96.725 54.3501 96.3024 54.6413 95.7839 54.8509C95.269 55.0568 94.6742 55.1598 93.9995 55.1598ZM99.2356 55V46.8182H101.436V48.2457H101.521C101.67 47.7379 101.92 47.3544 102.272 47.0952C102.623 46.8324 103.028 46.701 103.486 46.701C103.6 46.701 103.722 46.7081 103.854 46.7223C103.985 46.7365 104.101 46.756 104.2 46.7809V48.7944C104.094 48.7624 103.946 48.734 103.758 48.7092C103.57 48.6843 103.398 48.6719 103.241 48.6719C102.907 48.6719 102.609 48.7447 102.346 48.8903C102.087 49.0323 101.881 49.2312 101.729 49.4869C101.579 49.7425 101.505 50.0373 101.505 50.3711V55H99.2356ZM105.373 55V46.8182H107.573V48.2457H107.658C107.808 47.7379 108.058 47.3544 108.41 47.0952C108.761 46.8324 109.166 46.701 109.624 46.701C109.738 46.701 109.86 46.7081 109.992 46.7223C110.123 46.7365 110.238 46.756 110.338 46.7809V48.7944C110.231 48.7624 110.084 48.734 109.896 48.7092C109.707 48.6843 109.535 48.6719 109.379 48.6719C109.045 48.6719 108.747 48.7447 108.484 48.8903C108.225 49.0323 108.019 49.2312 107.866 49.4869C107.717 49.7425 107.642 50.0373 107.642 50.3711V55H105.373ZM113.61 55.1545C113.088 55.1545 112.623 55.0639 112.214 54.8828C111.806 54.6982 111.483 54.4265 111.245 54.0678C111.01 53.7056 110.893 53.2546 110.893 52.7148C110.893 52.2603 110.977 51.8786 111.143 51.5696C111.31 51.2607 111.538 51.0121 111.825 50.8239C112.113 50.6357 112.44 50.4936 112.805 50.3977C113.175 50.3018 113.562 50.2344 113.967 50.1953C114.442 50.1456 114.826 50.0994 115.117 50.0568C115.408 50.0107 115.62 49.9432 115.751 49.8544C115.882 49.7656 115.948 49.6342 115.948 49.4602V49.4283C115.948 49.0909 115.842 48.8299 115.629 48.6452C115.419 48.4606 115.121 48.3683 114.734 48.3683C114.325 48.3683 114 48.4588 113.759 48.6399C113.517 48.8175 113.358 49.0412 113.279 49.3111L111.181 49.1406C111.287 48.6435 111.497 48.2138 111.809 47.8516C112.122 47.4858 112.525 47.2053 113.018 47.0099C113.516 46.8111 114.091 46.7116 114.744 46.7116C115.199 46.7116 115.634 46.7649 116.049 46.8714C116.468 46.978 116.839 47.1431 117.163 47.3668C117.489 47.5906 117.747 47.8782 117.935 48.2298C118.123 48.5778 118.217 48.995 118.217 49.4815V55H116.065V53.8654H116.001C115.87 54.1211 115.694 54.3466 115.474 54.5419C115.254 54.7337 114.989 54.8846 114.68 54.9947C114.371 55.1012 114.015 55.1545 113.61 55.1545ZM114.26 53.5884C114.593 53.5884 114.888 53.5227 115.144 53.3913C115.4 53.2564 115.6 53.0753 115.746 52.848C115.891 52.6207 115.964 52.3633 115.964 52.0756V51.2074C115.893 51.2536 115.795 51.2962 115.671 51.3352C115.55 51.3707 115.414 51.4045 115.261 51.4364C115.108 51.4648 114.956 51.4915 114.803 51.5163C114.65 51.5376 114.512 51.5572 114.387 51.5749C114.121 51.614 113.888 51.6761 113.69 51.7614C113.491 51.8466 113.336 51.962 113.226 52.1076C113.116 52.2496 113.061 52.4272 113.061 52.6403C113.061 52.9492 113.173 53.1854 113.397 53.3487C113.624 53.5085 113.912 53.5884 114.26 53.5884ZM122.993 55.1332C122.371 55.1332 121.808 54.9734 121.304 54.6538C120.803 54.3306 120.406 53.8565 120.111 53.2315C119.82 52.603 119.674 51.8324 119.674 50.9197C119.674 49.9822 119.825 49.2028 120.127 48.5813C120.429 47.9563 120.83 47.4893 121.331 47.1804C121.835 46.8679 122.387 46.7116 122.987 46.7116C123.445 46.7116 123.827 46.7898 124.133 46.946C124.442 47.0987 124.69 47.2905 124.878 47.5213C125.07 47.7486 125.216 47.9723 125.315 48.1925H125.384V44.0909H127.648V55H125.411V53.6896H125.315C125.209 53.9169 125.058 54.1424 124.862 54.3661C124.671 54.5863 124.42 54.7692 124.111 54.9148C123.806 55.0604 123.433 55.1332 122.993 55.1332ZM123.712 53.3274C124.078 53.3274 124.387 53.228 124.639 53.0291C124.894 52.8267 125.09 52.5444 125.225 52.1822C125.363 51.82 125.432 51.3956 125.432 50.9091C125.432 50.4226 125.365 50 125.23 49.6413C125.095 49.2827 124.9 49.0057 124.644 48.8104C124.388 48.6151 124.078 48.5174 123.712 48.5174C123.339 48.5174 123.025 48.6186 122.769 48.821C122.513 49.0234 122.32 49.304 122.188 49.6626C122.057 50.0213 121.991 50.4368 121.991 50.9091C121.991 51.3849 122.057 51.8058 122.188 52.1715C122.323 52.5337 122.517 52.8178 122.769 53.0238C123.025 53.2262 123.339 53.3274 123.712 53.3274ZM133.211 55.1598C132.383 55.1598 131.668 54.984 131.064 54.6325C130.464 54.2773 130 53.7837 129.674 53.1516C129.347 52.516 129.184 51.7791 129.184 50.9411C129.184 50.0959 129.347 49.3572 129.674 48.7251C130 48.0895 130.464 47.5959 131.064 47.2443C131.668 46.8892 132.383 46.7116 133.211 46.7116C134.038 46.7116 134.752 46.8892 135.352 47.2443C135.956 47.5959 136.421 48.0895 136.748 48.7251C137.074 49.3572 137.238 50.0959 137.238 50.9411C137.238 51.7791 137.074 52.516 136.748 53.1516C136.421 53.7837 135.956 54.2773 135.352 54.6325C134.752 54.984 134.038 55.1598 133.211 55.1598ZM133.221 53.402C133.598 53.402 133.912 53.2955 134.164 53.0824C134.416 52.8658 134.606 52.571 134.734 52.1982C134.866 51.8253 134.931 51.4009 134.931 50.9251C134.931 50.4492 134.866 50.0249 134.734 49.652C134.606 49.2791 134.416 48.9844 134.164 48.7678C133.912 48.5511 133.598 48.4428 133.221 48.4428C132.841 48.4428 132.522 48.5511 132.263 48.7678C132.007 48.9844 131.813 49.2791 131.682 49.652C131.554 50.0249 131.49 50.4492 131.49 50.9251C131.49 51.4009 131.554 51.8253 131.682 52.1982C131.813 52.571 132.007 52.8658 132.263 53.0824C132.522 53.2955 132.841 53.402 133.221 53.402Z" fill="black"/>
    <rect width="179" height="20" transform="translate(0 80)" fill="#F968F3"/>
    <path d="M16.8661 87.2283C16.8235 86.7987 16.6406 86.4648 16.3175 86.2269C15.9943 85.989 15.5558 85.87 15.0018 85.87C14.6254 85.87 14.3075 85.9233 14.0483 86.0298C13.7891 86.1328 13.5902 86.2766 13.4517 86.4613C13.3168 86.646 13.2493 86.8555 13.2493 87.0898C13.2422 87.2852 13.283 87.4556 13.3718 87.6012C13.4641 87.7468 13.5902 87.8729 13.75 87.9794C13.9098 88.0824 14.0945 88.1729 14.304 88.2511C14.5135 88.3256 14.7372 88.3896 14.9751 88.4428L15.9553 88.6772C16.4311 88.7837 16.8679 88.9258 17.2656 89.1033C17.6634 89.2809 18.0078 89.4993 18.299 89.7585C18.5902 90.0178 18.8157 90.3232 18.9755 90.6747C19.1388 91.0263 19.2223 91.4293 19.2259 91.8839C19.2223 92.5515 19.0518 93.1303 18.7145 93.6204C18.3807 94.1069 17.8977 94.4851 17.2656 94.755C16.6371 95.0213 15.8789 95.1545 14.9911 95.1545C14.1104 95.1545 13.3434 95.0195 12.69 94.7496C12.0401 94.4798 11.5323 94.0803 11.1665 93.5511C10.8043 93.0185 10.6143 92.3597 10.5966 91.5749H12.8285C12.8533 91.9407 12.9581 92.2461 13.1428 92.4911C13.331 92.7326 13.5813 92.9155 13.8938 93.0398C14.2099 93.1605 14.5668 93.2209 14.9645 93.2209C15.3551 93.2209 15.6942 93.1641 15.9819 93.0504C16.2731 92.9368 16.4986 92.7788 16.6584 92.5763C16.8182 92.3739 16.8981 92.1413 16.8981 91.8786C16.8981 91.6335 16.8253 91.4276 16.6797 91.2607C16.5376 91.0937 16.3281 90.9517 16.0511 90.8345C15.7777 90.7173 15.4421 90.6108 15.0444 90.5149L13.8565 90.2166C12.9368 89.9929 12.2106 89.6431 11.6779 89.1673C11.1452 88.6914 10.8807 88.0504 10.8842 87.2443C10.8807 86.5838 11.0565 86.0067 11.4116 85.5131C11.7702 85.0195 12.2621 84.6342 12.8871 84.3572C13.5121 84.0803 14.2223 83.9418 15.0178 83.9418C15.8274 83.9418 16.5341 84.0803 17.1378 84.3572C17.745 84.6342 18.2173 85.0195 18.5547 85.5131C18.892 86.0067 19.0661 86.5785 19.0767 87.2283H16.8661ZM25.9814 91.5163V86.8182H28.2506V95H26.072V93.5138H25.9868C25.8021 93.9933 25.4949 94.3786 25.0653 94.6697C24.6391 94.9609 24.1189 95.1065 23.5045 95.1065C22.9577 95.1065 22.4765 94.9822 22.061 94.7337C21.6455 94.4851 21.3206 94.1317 21.0862 93.6737C20.8554 93.2156 20.7382 92.6669 20.7346 92.0277V86.8182H23.0038V91.6229C23.0074 92.1058 23.137 92.4876 23.3927 92.7681C23.6483 93.0487 23.991 93.1889 24.4207 93.1889C24.6942 93.1889 24.9498 93.1268 25.1878 93.0025C25.4257 92.8746 25.6175 92.6864 25.7631 92.4379C25.9122 92.1893 25.985 91.8821 25.9814 91.5163ZM36.8732 89.1513L34.7958 89.2791C34.7603 89.1016 34.6839 88.9418 34.5668 88.7997C34.4496 88.6541 34.2951 88.5387 34.1033 88.4535C33.9151 88.3647 33.6896 88.3203 33.4268 88.3203C33.0753 88.3203 32.7788 88.3949 32.5373 88.544C32.2958 88.6896 32.1751 88.8849 32.1751 89.13C32.1751 89.3253 32.2532 89.4904 32.4094 89.6254C32.5657 89.7603 32.8338 89.8686 33.2138 89.9503L34.6946 90.2486C35.4901 90.4119 36.0831 90.6747 36.4737 91.0369C36.8643 91.3991 37.0597 91.875 37.0597 92.4645C37.0597 93.0007 36.9016 93.4712 36.5856 93.8761C36.2731 94.2809 35.8434 94.5969 35.2965 94.8242C34.7532 95.0479 34.1264 95.1598 33.4162 95.1598C32.3331 95.1598 31.4702 94.9343 30.8274 94.4833C30.1882 94.0288 29.8136 93.4109 29.7035 92.6296L31.9354 92.5124C32.0028 92.8427 32.1662 93.0948 32.4254 93.2688C32.6847 93.4393 33.0167 93.5245 33.4215 93.5245C33.8192 93.5245 34.1388 93.4482 34.3803 93.2955C34.6254 93.1392 34.7496 92.9386 34.7532 92.6935C34.7496 92.4876 34.6626 92.3189 34.4922 92.1875C34.3217 92.0526 34.0589 91.9496 33.7038 91.8786L32.2869 91.5962C31.4879 91.4364 30.8931 91.1594 30.5025 90.7653C30.1154 90.3711 29.9219 89.8686 29.9219 89.2578C29.9219 88.7322 30.0639 88.2795 30.348 87.8995C30.6357 87.5195 31.0387 87.2266 31.5572 87.0206C32.0792 86.8146 32.69 86.7116 33.3896 86.7116C34.4229 86.7116 35.2362 86.93 35.8292 87.3668C36.4258 87.8036 36.7738 88.3984 36.8732 89.1513ZM42.8405 86.8182V88.5227H37.9133V86.8182H42.8405ZM39.0319 84.858H41.301V92.4858C41.301 92.6953 41.333 92.8587 41.3969 92.9759C41.4608 93.0895 41.5496 93.1694 41.6633 93.2156C41.7805 93.2617 41.9154 93.2848 42.0681 93.2848C42.1746 93.2848 42.2812 93.2759 42.3877 93.2582C42.4942 93.2369 42.5759 93.2209 42.6327 93.2102L42.9896 94.8988C42.876 94.9343 42.7162 94.9751 42.5102 95.0213C42.3042 95.071 42.0539 95.1012 41.7591 95.1119C41.2123 95.1332 40.7329 95.0604 40.3209 94.8935C39.9126 94.7266 39.5947 94.4673 39.3675 94.1158C39.1402 93.7642 39.0283 93.3203 39.0319 92.7841V84.858ZM44.3186 95V86.8182H46.5878V95H44.3186ZM45.4585 85.7635C45.1212 85.7635 44.8318 85.6516 44.5903 85.4279C44.3524 85.2006 44.2334 84.929 44.2334 84.6129C44.2334 84.3004 44.3524 84.0323 44.5903 83.8086C44.8318 83.5813 45.1212 83.4677 45.4585 83.4677C45.7959 83.4677 46.0835 83.5813 46.3215 83.8086C46.5629 84.0323 46.6837 84.3004 46.6837 84.6129C46.6837 84.929 46.5629 85.2006 46.3215 85.4279C46.0835 85.6516 45.7959 85.7635 45.4585 85.7635ZM52.7575 86.8182V88.5227H47.8303V86.8182H52.7575ZM48.9489 84.858H51.218V92.4858C51.218 92.6953 51.25 92.8587 51.3139 92.9759C51.3778 93.0895 51.4666 93.1694 51.5803 93.2156C51.6974 93.2617 51.8324 93.2848 51.9851 93.2848C52.0916 93.2848 52.1982 93.2759 52.3047 93.2582C52.4112 93.2369 52.4929 93.2209 52.5497 93.2102L52.9066 94.8988C52.793 94.9343 52.6332 94.9751 52.4272 95.0213C52.2212 95.071 51.9709 95.1012 51.6761 95.1119C51.1293 95.1332 50.6499 95.0604 50.2379 94.8935C49.8295 94.7266 49.5117 94.4673 49.2844 94.1158C49.0572 93.7642 48.9453 93.3203 48.9489 92.7841V84.858ZM59.4824 91.5163V86.8182H61.7516V95H59.573V93.5138H59.4877C59.3031 93.9933 58.9959 94.3786 58.5662 94.6697C58.1401 94.9609 57.6199 95.1065 57.0055 95.1065C56.4586 95.1065 55.9775 94.9822 55.562 94.7337C55.1465 94.4851 54.8216 94.1317 54.5872 93.6737C54.3564 93.2156 54.2392 92.6669 54.2356 92.0277V86.8182H56.5048V91.6229C56.5083 92.1058 56.638 92.4876 56.8936 92.7681C57.1493 93.0487 57.492 93.1889 57.9217 93.1889C58.1951 93.1889 58.4508 93.1268 58.6887 93.0025C58.9267 92.8746 59.1184 92.6864 59.264 92.4379C59.4132 92.1893 59.486 91.8821 59.4824 91.5163ZM67.2634 95.1598C66.4253 95.1598 65.7045 94.9822 65.1008 94.6271C64.5006 94.2685 64.039 93.7713 63.7158 93.1357C63.3962 92.5 63.2364 91.7685 63.2364 90.9411C63.2364 90.103 63.398 89.3679 63.7211 88.7358C64.0479 88.1001 64.5113 87.6048 65.1114 87.2496C65.7116 86.891 66.4253 86.7116 67.2528 86.7116C67.9665 86.7116 68.5915 86.8413 69.1278 87.1005C69.664 87.3597 70.0883 87.7237 70.4008 88.1925C70.7133 88.6612 70.8856 89.2116 70.9175 89.8438H68.7762C68.7158 89.4354 68.556 89.1069 68.2968 88.8583C68.0411 88.6062 67.7055 88.4801 67.29 88.4801C66.9385 88.4801 66.6313 88.576 66.3685 88.7678C66.1093 88.956 65.9069 89.2312 65.7613 89.5934C65.6157 89.9556 65.5429 90.3942 65.5429 90.9091C65.5429 91.4311 65.6139 91.875 65.7559 92.2408C65.9015 92.6065 66.1057 92.8853 66.3685 93.0771C66.6313 93.2688 66.9385 93.3647 67.29 93.3647C67.5493 93.3647 67.7819 93.3114 67.9878 93.2049C68.1974 93.0984 68.3696 92.9439 68.5045 92.7415C68.643 92.5355 68.7336 92.2887 68.7762 92.0011H70.9175C70.882 92.6261 70.7116 93.1765 70.4062 93.6523C70.1043 94.1246 69.6871 94.494 69.1544 94.7603C68.6217 95.0266 67.9914 95.1598 67.2634 95.1598ZM72.3704 95V86.8182H74.6396V95H72.3704ZM73.5103 85.7635C73.1729 85.7635 72.8835 85.6516 72.642 85.4279C72.4041 85.2006 72.2852 84.929 72.2852 84.6129C72.2852 84.3004 72.4041 84.0323 72.642 83.8086C72.8835 83.5813 73.1729 83.4677 73.5103 83.4677C73.8477 83.4677 74.1353 83.5813 74.3732 83.8086C74.6147 84.0323 74.7354 84.3004 74.7354 84.6129C74.7354 84.929 74.6147 85.2006 74.3732 85.4279C74.1353 85.6516 73.8477 85.7635 73.5103 85.7635ZM80.154 95.1598C79.3266 95.1598 78.6111 94.984 78.0074 94.6325C77.4072 94.2773 76.9438 93.7837 76.6171 93.1516C76.2904 92.516 76.127 91.7791 76.127 90.9411C76.127 90.0959 76.2904 89.3572 76.6171 88.7251C76.9438 88.0895 77.4072 87.5959 78.0074 87.2443C78.6111 86.8892 79.3266 86.7116 80.154 86.7116C80.9814 86.7116 81.6952 86.8892 82.2954 87.2443C82.8991 87.5959 83.3643 88.0895 83.691 88.7251C84.0177 89.3572 84.181 90.0959 84.181 90.9411C84.181 91.7791 84.0177 92.516 83.691 93.1516C83.3643 93.7837 82.8991 94.2773 82.2954 94.6325C81.6952 94.984 80.9814 95.1598 80.154 95.1598ZM80.1647 93.402C80.5411 93.402 80.8554 93.2955 81.1075 93.0824C81.3596 92.8658 81.5496 92.571 81.6775 92.1982C81.8089 91.8253 81.8746 91.4009 81.8746 90.9251C81.8746 90.4492 81.8089 90.0249 81.6775 89.652C81.5496 89.2791 81.3596 88.9844 81.1075 88.7678C80.8554 88.5511 80.5411 88.4428 80.1647 88.4428C79.7847 88.4428 79.4651 88.5511 79.2059 88.7678C78.9502 88.9844 78.7567 89.2791 78.6253 89.652C78.4974 90.0249 78.4335 90.4492 78.4335 90.9251C78.4335 91.4009 78.4974 91.8253 78.6253 92.1982C78.7567 92.571 78.9502 92.8658 79.2059 93.0824C79.4651 93.2955 79.7847 93.402 80.1647 93.402ZM87.9257 90.2699V95H85.6565V86.8182H87.8192V88.2617H87.915C88.0961 87.7859 88.3998 87.4094 88.8259 87.1325C89.252 86.8519 89.7687 86.7116 90.376 86.7116C90.9442 86.7116 91.4395 86.8359 91.8621 87.0845C92.2847 87.3331 92.6132 87.6882 92.8476 88.1499C93.0819 88.608 93.1991 89.1548 93.1991 89.7905V95H90.93V90.1953C90.9335 89.6946 90.8057 89.304 90.5464 89.0234C90.2872 88.7393 89.9303 88.5973 89.4758 88.5973C89.1704 88.5973 88.9005 88.663 88.6661 88.7944C88.4353 88.9258 88.2542 89.1175 88.1228 89.3697C87.9949 89.6183 87.9292 89.9183 87.9257 90.2699ZM102.369 95H98.5019V84.0909H102.401C103.498 84.0909 104.443 84.3093 105.235 84.7461C106.027 85.1793 106.636 85.8026 107.062 86.6158C107.492 87.429 107.706 88.402 107.706 89.5348C107.706 90.6712 107.492 91.6477 107.062 92.4645C106.636 93.2812 106.023 93.908 105.224 94.3448C104.429 94.7816 103.477 95 102.369 95ZM100.808 93.0238H102.273C102.955 93.0238 103.528 92.9031 103.994 92.6616C104.462 92.4165 104.814 92.0384 105.048 91.527C105.286 91.0121 105.405 90.348 105.405 89.5348C105.405 88.7287 105.286 88.07 105.048 87.5586C104.814 87.0472 104.464 86.6708 103.999 86.4293C103.534 86.1879 102.96 86.0671 102.278 86.0671H100.808V93.0238ZM113.101 95.1598C112.259 95.1598 111.535 94.9893 110.928 94.6484C110.324 94.304 109.859 93.8175 109.532 93.1889C109.205 92.5568 109.042 91.8093 109.042 90.9464C109.042 90.1048 109.205 89.3661 109.532 88.7305C109.859 88.0948 110.319 87.5994 110.912 87.2443C111.508 86.8892 112.208 86.7116 113.01 86.7116C113.55 86.7116 114.053 86.7987 114.518 86.9727C114.987 87.1431 115.395 87.4006 115.743 87.745C116.095 88.0895 116.368 88.5227 116.563 89.0447C116.759 89.5632 116.856 90.1705 116.856 90.8665V91.4897H109.948V90.0835H114.72C114.72 89.7567 114.649 89.4673 114.507 89.2152C114.365 88.9631 114.168 88.766 113.916 88.6239C113.667 88.4783 113.378 88.4055 113.048 88.4055C112.703 88.4055 112.398 88.4854 112.132 88.6452C111.869 88.8015 111.663 89.0128 111.514 89.2791C111.365 89.5419 111.288 89.8349 111.285 90.158V91.495C111.285 91.8999 111.359 92.2496 111.508 92.5444C111.661 92.8391 111.876 93.0664 112.153 93.2262C112.43 93.386 112.758 93.4659 113.138 93.4659C113.39 93.4659 113.621 93.4304 113.831 93.3594C114.04 93.2884 114.22 93.1818 114.369 93.0398C114.518 92.8977 114.632 92.7237 114.71 92.5178L116.808 92.6562C116.702 93.1605 116.483 93.6009 116.153 93.9773C115.827 94.3501 115.404 94.6413 114.885 94.8509C114.371 95.0568 113.776 95.1598 113.101 95.1598ZM121.851 95V84.0909H124.158V93.0984H128.835V95H121.851ZM130.32 95V86.8182H132.589V95H130.32ZM131.46 85.7635C131.122 85.7635 130.833 85.6516 130.591 85.4279C130.353 85.2006 130.234 84.929 130.234 84.6129C130.234 84.3004 130.353 84.0323 130.591 83.8086C130.833 83.5813 131.122 83.4677 131.46 83.4677C131.797 83.4677 132.085 83.5813 132.322 83.8086C132.564 84.0323 132.685 84.3004 132.685 84.6129C132.685 84.929 132.564 85.2006 132.322 85.4279C132.085 85.6516 131.797 85.7635 131.46 85.7635ZM141.214 89.1513L139.137 89.2791C139.101 89.1016 139.025 88.9418 138.908 88.7997C138.79 88.6541 138.636 88.5387 138.444 88.4535C138.256 88.3647 138.03 88.3203 137.768 88.3203C137.416 88.3203 137.12 88.3949 136.878 88.544C136.637 88.6896 136.516 88.8849 136.516 89.13C136.516 89.3253 136.594 89.4904 136.75 89.6254C136.907 89.7603 137.175 89.8686 137.555 89.9503L139.035 90.2486C139.831 90.4119 140.424 90.6747 140.815 91.0369C141.205 91.3991 141.4 91.875 141.4 92.4645C141.4 93.0007 141.242 93.4712 140.926 93.8761C140.614 94.2809 140.184 94.5969 139.637 94.8242C139.094 95.0479 138.467 95.1598 137.757 95.1598C136.674 95.1598 135.811 94.9343 135.168 94.4833C134.529 94.0288 134.154 93.4109 134.044 92.6296L136.276 92.5124C136.344 92.8427 136.507 93.0948 136.766 93.2688C137.025 93.4393 137.358 93.5245 137.762 93.5245C138.16 93.5245 138.48 93.4482 138.721 93.2955C138.966 93.1392 139.09 92.9386 139.094 92.6935C139.09 92.4876 139.003 92.3189 138.833 92.1875C138.663 92.0526 138.4 91.9496 138.045 91.8786L136.628 91.5962C135.829 91.4364 135.234 91.1594 134.843 90.7653C134.456 90.3711 134.263 89.8686 134.263 89.2578C134.263 88.7322 134.405 88.2795 134.689 87.8995C134.976 87.5195 135.38 87.2266 135.898 87.0206C136.42 86.8146 137.031 86.7116 137.73 86.7116C138.764 86.7116 139.577 86.93 140.17 87.3668C140.767 87.8036 141.115 88.3984 141.214 89.1513ZM144.885 92.6456L144.891 89.9237H145.221L147.842 86.8182H150.447L146.926 90.9304H146.388L144.885 92.6456ZM142.829 95V84.0909H145.099V95H142.829ZM147.943 95L145.535 91.4364L147.048 89.8331L150.601 95H147.943ZM154.92 95.1598C154.092 95.1598 153.377 94.984 152.773 94.6325C152.173 94.2773 151.709 93.7837 151.383 93.1516C151.056 92.516 150.893 91.7791 150.893 90.9411C150.893 90.0959 151.056 89.3572 151.383 88.7251C151.709 88.0895 152.173 87.5959 152.773 87.2443C153.377 86.8892 154.092 86.7116 154.92 86.7116C155.747 86.7116 156.461 86.8892 157.061 87.2443C157.665 87.5959 158.13 88.0895 158.457 88.7251C158.783 89.3572 158.947 90.0959 158.947 90.9411C158.947 91.7791 158.783 92.516 158.457 93.1516C158.13 93.7837 157.665 94.2773 157.061 94.6325C156.461 94.984 155.747 95.1598 154.92 95.1598ZM154.93 93.402C155.307 93.402 155.621 93.2955 155.873 93.0824C156.125 92.8658 156.315 92.571 156.443 92.1982C156.574 91.8253 156.64 91.4009 156.64 90.9251C156.64 90.4492 156.574 90.0249 156.443 89.652C156.315 89.2791 156.125 88.9844 155.873 88.7678C155.621 88.5511 155.307 88.4428 154.93 88.4428C154.55 88.4428 154.231 88.5511 153.972 88.7678C153.716 88.9844 153.522 89.2791 153.391 89.652C153.263 90.0249 153.199 90.4492 153.199 90.9251C153.199 91.4009 153.263 91.8253 153.391 92.1982C153.522 92.571 153.716 92.8658 153.972 93.0824C154.231 93.2955 154.55 93.402 154.93 93.402ZM167.786 86.8182L164.926 95H162.369L159.509 86.8182H161.906L163.605 92.6722H163.69L165.384 86.8182H167.786Z" fill="black"/>
    <rect width="215" height="20" transform="translate(0 120)" fill="#FFEB3B"/>
    <path d="M16.8661 127.228C16.8235 126.799 16.6406 126.465 16.3175 126.227C15.9943 125.989 15.5558 125.87 15.0018 125.87C14.6254 125.87 14.3075 125.923 14.0483 126.03C13.7891 126.133 13.5902 126.277 13.4517 126.461C13.3168 126.646 13.2493 126.855 13.2493 127.09C13.2422 127.285 13.283 127.456 13.3718 127.601C13.4641 127.747 13.5902 127.873 13.75 127.979C13.9098 128.082 14.0945 128.173 14.304 128.251C14.5135 128.326 14.7372 128.39 14.9751 128.443L15.9553 128.677C16.4311 128.784 16.8679 128.926 17.2656 129.103C17.6634 129.281 18.0078 129.499 18.299 129.759C18.5902 130.018 18.8157 130.323 18.9755 130.675C19.1388 131.026 19.2223 131.429 19.2259 131.884C19.2223 132.551 19.0518 133.13 18.7145 133.62C18.3807 134.107 17.8977 134.485 17.2656 134.755C16.6371 135.021 15.8789 135.154 14.9911 135.154C14.1104 135.154 13.3434 135.02 12.69 134.75C12.0401 134.48 11.5323 134.08 11.1665 133.551C10.8043 133.018 10.6143 132.36 10.5966 131.575H12.8285C12.8533 131.941 12.9581 132.246 13.1428 132.491C13.331 132.733 13.5813 132.915 13.8938 133.04C14.2099 133.161 14.5668 133.221 14.9645 133.221C15.3551 133.221 15.6942 133.164 15.9819 133.05C16.2731 132.937 16.4986 132.779 16.6584 132.576C16.8182 132.374 16.8981 132.141 16.8981 131.879C16.8981 131.634 16.8253 131.428 16.6797 131.261C16.5376 131.094 16.3281 130.952 16.0511 130.835C15.7777 130.717 15.4421 130.611 15.0444 130.515L13.8565 130.217C12.9368 129.993 12.2106 129.643 11.6779 129.167C11.1452 128.691 10.8807 128.05 10.8842 127.244C10.8807 126.584 11.0565 126.007 11.4116 125.513C11.7702 125.02 12.2621 124.634 12.8871 124.357C13.5121 124.08 14.2223 123.942 15.0178 123.942C15.8274 123.942 16.5341 124.08 17.1378 124.357C17.745 124.634 18.2173 125.02 18.5547 125.513C18.892 126.007 19.0661 126.578 19.0767 127.228H16.8661ZM24.4633 135.16C23.6217 135.16 22.8973 134.989 22.29 134.648C21.6863 134.304 21.2211 133.817 20.8944 133.189C20.5677 132.557 20.4044 131.809 20.4044 130.946C20.4044 130.105 20.5677 129.366 20.8944 128.73C21.2211 128.095 21.681 127.599 22.2741 127.244C22.8706 126.889 23.5702 126.712 24.3728 126.712C24.9126 126.712 25.415 126.799 25.8802 126.973C26.349 127.143 26.7574 127.401 27.1054 127.745C27.4569 128.089 27.7304 128.523 27.9257 129.045C28.121 129.563 28.2187 130.17 28.2187 130.866V131.49H21.3099V130.083H26.0827C26.0827 129.757 26.0116 129.467 25.8696 129.215C25.7275 128.963 25.5305 128.766 25.2783 128.624C25.0297 128.478 24.7403 128.406 24.4101 128.406C24.0656 128.406 23.7602 128.485 23.4939 128.645C23.2311 128.801 23.0251 129.013 22.876 129.279C22.7268 129.542 22.6505 129.835 22.6469 130.158V131.495C22.6469 131.9 22.7215 132.25 22.8706 132.544C23.0233 132.839 23.2382 133.066 23.5152 133.226C23.7922 133.386 24.1206 133.466 24.5006 133.466C24.7528 133.466 24.9836 133.43 25.1931 133.359C25.4026 133.288 25.5819 133.182 25.7311 133.04C25.8802 132.898 25.9939 132.724 26.072 132.518L28.1707 132.656C28.0642 133.161 27.8458 133.601 27.5155 133.977C27.1888 134.35 26.7662 134.641 26.2478 134.851C25.7329 135.057 25.1381 135.16 24.4633 135.16ZM33.3856 138.239C32.6505 138.239 32.0202 138.137 31.4946 137.935C30.9726 137.736 30.5571 137.464 30.2481 137.12C29.9392 136.776 29.7385 136.388 29.6462 135.959L31.7449 135.676C31.8089 135.84 31.9101 135.993 32.0486 136.135C32.1871 136.277 32.3699 136.39 32.5972 136.475C32.828 136.564 33.1086 136.609 33.4388 136.609C33.9324 136.609 34.339 136.488 34.6586 136.246C34.9818 136.009 35.1434 135.609 35.1434 135.048V133.551H35.0475C34.9481 133.778 34.7989 133.993 34.6001 134.196C34.4012 134.398 34.1455 134.563 33.833 134.691C33.5205 134.819 33.1476 134.883 32.7144 134.883C32.1001 134.883 31.5407 134.741 31.0365 134.457C30.5358 134.169 30.1363 133.73 29.838 133.141C29.5432 132.548 29.3959 131.799 29.3959 130.893C29.3959 129.966 29.5468 129.192 29.8486 128.571C30.1505 127.949 30.5518 127.484 31.0525 127.175C31.5567 126.866 32.1089 126.712 32.7091 126.712C33.1672 126.712 33.5507 126.79 33.8596 126.946C34.1686 127.099 34.4172 127.29 34.6054 127.521C34.7971 127.749 34.9445 127.972 35.0475 128.192H35.1327V126.818H37.3859V135.08C37.3859 135.776 37.2155 136.358 36.8746 136.827C36.5336 137.296 36.0613 137.647 35.4577 137.882C34.8575 138.12 34.1668 138.239 33.3856 138.239ZM33.4335 133.178C33.7993 133.178 34.1082 133.088 34.3604 132.907C34.616 132.722 34.8113 132.459 34.9463 132.118C35.0848 131.774 35.154 131.362 35.154 130.882C35.154 130.403 35.0866 129.988 34.9516 129.636C34.8167 129.281 34.6214 129.006 34.3657 128.81C34.11 128.615 33.7993 128.517 33.4335 128.517C33.0606 128.517 32.7464 128.619 32.4907 128.821C32.235 129.02 32.0415 129.297 31.9101 129.652C31.7787 130.007 31.713 130.417 31.713 130.882C31.713 131.355 31.7787 131.763 31.9101 132.108C32.045 132.449 32.2385 132.713 32.4907 132.901C32.7464 133.086 33.0606 133.178 33.4335 133.178ZM39.1917 135V126.818H41.3916V128.246H41.4768C41.626 127.738 41.8763 127.354 42.2279 127.095C42.5795 126.832 42.9843 126.701 43.4424 126.701C43.556 126.701 43.6785 126.708 43.8099 126.722C43.9413 126.737 44.0567 126.756 44.1562 126.781V128.794C44.0496 128.762 43.9023 128.734 43.714 128.709C43.5258 128.684 43.3536 128.672 43.1974 128.672C42.8635 128.672 42.5653 128.745 42.3025 128.89C42.0432 129.032 41.8373 129.231 41.6846 129.487C41.5354 129.743 41.4608 130.037 41.4608 130.371V135H39.1917ZM48.6772 135.16C47.8356 135.16 47.1112 134.989 46.5039 134.648C45.9002 134.304 45.435 133.817 45.1083 133.189C44.7816 132.557 44.6183 131.809 44.6183 130.946C44.6183 130.105 44.7816 129.366 45.1083 128.73C45.435 128.095 45.8949 127.599 46.4879 127.244C47.0845 126.889 47.7841 126.712 48.5866 126.712C49.1264 126.712 49.6289 126.799 50.0941 126.973C50.5629 127.143 50.9712 127.401 51.3192 127.745C51.6708 128.089 51.9442 128.523 52.1396 129.045C52.3349 129.563 52.4325 130.17 52.4325 130.866V131.49H45.5238V130.083H50.2965C50.2965 129.757 50.2255 129.467 50.0835 129.215C49.9414 128.963 49.7443 128.766 49.4922 128.624C49.2436 128.478 48.9542 128.406 48.6239 128.406C48.2795 128.406 47.9741 128.485 47.7077 128.645C47.445 128.801 47.239 129.013 47.0898 129.279C46.9407 129.542 46.8643 129.835 46.8608 130.158V131.495C46.8608 131.9 46.9354 132.25 47.0845 132.544C47.2372 132.839 47.4521 133.066 47.729 133.226C48.006 133.386 48.3345 133.466 48.7145 133.466C48.9666 133.466 49.1974 133.43 49.407 133.359C49.6165 133.288 49.7958 133.182 49.945 133.04C50.0941 132.898 50.2077 132.724 50.2859 132.518L52.3846 132.656C52.2781 133.161 52.0597 133.601 51.7294 133.977C51.4027 134.35 50.9801 134.641 50.4616 134.851C49.9467 135.057 49.3519 135.16 48.6772 135.16ZM57.5994 138.239C56.8643 138.239 56.234 138.137 55.7085 137.935C55.1864 137.736 54.771 137.464 54.462 137.12C54.1531 136.776 53.9524 136.388 53.8601 135.959L55.9588 135.676C56.0227 135.84 56.1239 135.993 56.2624 136.135C56.4009 136.277 56.5838 136.39 56.8111 136.475C57.0419 136.564 57.3224 136.609 57.6527 136.609C58.1463 136.609 58.5529 136.488 58.8725 136.246C59.1957 136.009 59.3572 135.609 59.3572 135.048V133.551H59.2614C59.1619 133.778 59.0128 133.993 58.8139 134.196C58.6151 134.398 58.3594 134.563 58.0469 134.691C57.7344 134.819 57.3615 134.883 56.9283 134.883C56.3139 134.883 55.7546 134.741 55.2504 134.457C54.7496 134.169 54.3501 133.73 54.0518 133.141C53.7571 132.548 53.6097 131.799 53.6097 130.893C53.6097 129.966 53.7607 129.192 54.0625 128.571C54.3643 127.949 54.7656 127.484 55.2663 127.175C55.7706 126.866 56.3228 126.712 56.9229 126.712C57.381 126.712 57.7646 126.79 58.0735 126.946C58.3825 127.099 58.631 127.29 58.8192 127.521C59.011 127.749 59.1584 127.972 59.2614 128.192H59.3466V126.818H61.5998V135.08C61.5998 135.776 61.4293 136.358 61.0884 136.827C60.7475 137.296 60.2752 137.647 59.6715 137.882C59.0714 138.12 58.3807 138.239 57.5994 138.239ZM57.6474 133.178C58.0131 133.178 58.3221 133.088 58.5742 132.907C58.8299 132.722 59.0252 132.459 59.1602 132.118C59.2987 131.774 59.3679 131.362 59.3679 130.882C59.3679 130.403 59.3004 129.988 59.1655 129.636C59.0305 129.281 58.8352 129.006 58.5795 128.81C58.3239 128.615 58.0131 128.517 57.6474 128.517C57.2745 128.517 56.9602 128.619 56.7045 128.821C56.4489 129.02 56.2553 129.297 56.1239 129.652C55.9925 130.007 55.9268 130.417 55.9268 130.882C55.9268 131.355 55.9925 131.763 56.1239 132.108C56.2589 132.449 56.4524 132.713 56.7045 132.901C56.9602 133.086 57.2745 133.178 57.6474 133.178ZM65.7386 135.154C65.2166 135.154 64.7514 135.064 64.343 134.883C63.9347 134.698 63.6115 134.426 63.3736 134.068C63.1392 133.706 63.022 133.255 63.022 132.715C63.022 132.26 63.1055 131.879 63.2724 131.57C63.4393 131.261 63.6665 131.012 63.9542 130.824C64.2418 130.636 64.5685 130.494 64.9343 130.398C65.3036 130.302 65.6907 130.234 66.0955 130.195C66.5714 130.146 66.9549 130.099 67.2461 130.057C67.5373 130.011 67.7486 129.943 67.88 129.854C68.0114 129.766 68.0771 129.634 68.0771 129.46V129.428C68.0771 129.091 67.9705 128.83 67.7575 128.645C67.5479 128.461 67.2496 128.368 66.8626 128.368C66.4542 128.368 66.1293 128.459 65.8878 128.64C65.6463 128.817 65.4865 129.041 65.4084 129.311L63.3097 129.141C63.4162 128.643 63.6257 128.214 63.9382 127.852C64.2507 127.486 64.6538 127.205 65.1474 127.01C65.6445 126.811 66.2198 126.712 66.8732 126.712C67.3278 126.712 67.7628 126.765 68.1783 126.871C68.5973 126.978 68.9684 127.143 69.2915 127.367C69.6183 127.591 69.8757 127.878 70.0639 128.23C70.2521 128.578 70.3462 128.995 70.3462 129.482V135H68.1942V133.865H68.1303C67.9989 134.121 67.8232 134.347 67.603 134.542C67.3828 134.734 67.1183 134.885 66.8093 134.995C66.5004 135.101 66.1435 135.154 65.7386 135.154ZM66.3885 133.588C66.7223 133.588 67.017 133.523 67.2727 133.391C67.5284 133.256 67.729 133.075 67.8746 132.848C68.0202 132.621 68.093 132.363 68.093 132.076V131.207C68.022 131.254 67.9244 131.296 67.8001 131.335C67.6793 131.371 67.5426 131.404 67.3899 131.436C67.2372 131.465 67.0845 131.491 66.9318 131.516C66.7791 131.538 66.6406 131.557 66.5163 131.575C66.25 131.614 66.0174 131.676 65.8185 131.761C65.6197 131.847 65.4652 131.962 65.3551 132.108C65.245 132.25 65.19 132.427 65.19 132.64C65.19 132.949 65.3018 133.185 65.5256 133.349C65.7528 133.509 66.0405 133.588 66.3885 133.588ZM75.8034 135.16C74.9654 135.16 74.2445 134.982 73.6408 134.627C73.0407 134.268 72.579 133.771 72.2559 133.136C71.9363 132.5 71.7765 131.768 71.7765 130.941C71.7765 130.103 71.938 129.368 72.2612 128.736C72.5879 128.1 73.0513 127.605 73.6515 127.25C74.2516 126.891 74.9654 126.712 75.7928 126.712C76.5066 126.712 77.1316 126.841 77.6678 127.1C78.204 127.36 78.6284 127.724 78.9409 128.192C79.2534 128.661 79.4256 129.212 79.4576 129.844H77.3162C77.2559 129.435 77.0961 129.107 76.8368 128.858C76.5811 128.606 76.2456 128.48 75.8301 128.48C75.4785 128.48 75.1713 128.576 74.9086 128.768C74.6493 128.956 74.4469 129.231 74.3013 129.593C74.1557 129.956 74.0829 130.394 74.0829 130.909C74.0829 131.431 74.1539 131.875 74.296 132.241C74.4416 132.607 74.6458 132.885 74.9086 133.077C75.1713 133.269 75.4785 133.365 75.8301 133.365C76.0893 133.365 76.3219 133.311 76.5279 133.205C76.7374 133.098 76.9096 132.944 77.0446 132.741C77.1831 132.536 77.2736 132.289 77.3162 132.001H79.4576C79.4221 132.626 79.2516 133.176 78.9462 133.652C78.6444 134.125 78.2271 134.494 77.6944 134.76C77.1618 135.027 76.5314 135.16 75.8034 135.16ZM80.9104 135V126.818H83.1796V135H80.9104ZM82.0503 125.763C81.713 125.763 81.4236 125.652 81.1821 125.428C80.9442 125.201 80.8252 124.929 80.8252 124.613C80.8252 124.3 80.9442 124.032 81.1821 123.809C81.4236 123.581 81.713 123.468 82.0503 123.468C82.3877 123.468 82.6753 123.581 82.9133 123.809C83.1547 124.032 83.2755 124.3 83.2755 124.613C83.2755 124.929 83.1547 125.201 82.9133 125.428C82.6753 125.652 82.3877 125.763 82.0503 125.763ZM88.6941 135.16C87.8667 135.16 87.1511 134.984 86.5474 134.632C85.9473 134.277 85.4838 133.784 85.1571 133.152C84.8304 132.516 84.6671 131.779 84.6671 130.941C84.6671 130.096 84.8304 129.357 85.1571 128.725C85.4838 128.089 85.9473 127.596 86.5474 127.244C87.1511 126.889 87.8667 126.712 88.6941 126.712C89.5215 126.712 90.2353 126.889 90.8354 127.244C91.4391 127.596 91.9043 128.089 92.231 128.725C92.5577 129.357 92.7211 130.096 92.7211 130.941C92.7211 131.779 92.5577 132.516 92.231 133.152C91.9043 133.784 91.4391 134.277 90.8354 134.632C90.2353 134.984 89.5215 135.16 88.6941 135.16ZM88.7047 133.402C89.0811 133.402 89.3954 133.295 89.6475 133.082C89.8997 132.866 90.0897 132.571 90.2175 132.198C90.3489 131.825 90.4146 131.401 90.4146 130.925C90.4146 130.449 90.3489 130.025 90.2175 129.652C90.0897 129.279 89.8997 128.984 89.6475 128.768C89.3954 128.551 89.0811 128.443 88.7047 128.443C88.3248 128.443 88.0051 128.551 87.7459 128.768C87.4902 128.984 87.2967 129.279 87.1653 129.652C87.0375 130.025 86.9735 130.449 86.9735 130.925C86.9735 131.401 87.0375 131.825 87.1653 132.198C87.2967 132.571 87.4902 132.866 87.7459 133.082C88.0051 133.295 88.3248 133.402 88.7047 133.402ZM96.4657 130.27V135H94.1966V126.818H96.3592V128.262H96.4551C96.6362 127.786 96.9398 127.409 97.3659 127.132C97.7921 126.852 98.3088 126.712 98.916 126.712C99.4842 126.712 99.9796 126.836 100.402 127.085C100.825 127.333 101.153 127.688 101.388 128.15C101.622 128.608 101.739 129.155 101.739 129.79V135H99.47V130.195C99.4735 129.695 99.3457 129.304 99.0865 129.023C98.8272 128.739 98.4703 128.597 98.0158 128.597C97.7104 128.597 97.4405 128.663 97.2061 128.794C96.9753 128.926 96.7942 129.118 96.6628 129.37C96.535 129.618 96.4693 129.918 96.4657 130.27ZM110.909 135H107.042V124.091H110.941C112.038 124.091 112.983 124.309 113.775 124.746C114.567 125.179 115.176 125.803 115.602 126.616C116.032 127.429 116.246 128.402 116.246 129.535C116.246 130.671 116.032 131.648 115.602 132.464C115.176 133.281 114.563 133.908 113.764 134.345C112.969 134.782 112.017 135 110.909 135ZM109.348 133.024H110.813C111.495 133.024 112.069 132.903 112.534 132.662C113.002 132.417 113.354 132.038 113.588 131.527C113.826 131.012 113.945 130.348 113.945 129.535C113.945 128.729 113.826 128.07 113.588 127.559C113.354 127.047 113.004 126.671 112.539 126.429C112.074 126.188 111.5 126.067 110.819 126.067H109.348V133.024ZM121.641 135.16C120.799 135.16 120.075 134.989 119.468 134.648C118.864 134.304 118.399 133.817 118.072 133.189C117.745 132.557 117.582 131.809 117.582 130.946C117.582 130.105 117.745 129.366 118.072 128.73C118.399 128.095 118.859 127.599 119.452 127.244C120.048 126.889 120.748 126.712 121.551 126.712C122.09 126.712 122.593 126.799 123.058 126.973C123.527 127.143 123.935 127.401 124.283 127.745C124.635 128.089 124.908 128.523 125.103 129.045C125.299 129.563 125.396 130.17 125.396 130.866V131.49H118.488V130.083H123.26C123.26 129.757 123.189 129.467 123.047 129.215C122.905 128.963 122.708 128.766 122.456 128.624C122.207 128.478 121.918 128.406 121.588 128.406C121.243 128.406 120.938 128.485 120.672 128.645C120.409 128.801 120.203 129.013 120.054 129.279C119.905 129.542 119.828 129.835 119.825 130.158V131.495C119.825 131.9 119.899 132.25 120.048 132.544C120.201 132.839 120.416 133.066 120.693 133.226C120.97 133.386 121.298 133.466 121.678 133.466C121.93 133.466 122.161 133.43 122.371 133.359C122.58 133.288 122.76 133.182 122.909 133.04C123.058 132.898 123.172 132.724 123.25 132.518L125.348 132.656C125.242 133.161 125.024 133.601 124.693 133.977C124.367 134.35 123.944 134.641 123.426 134.851C122.911 135.057 122.316 135.16 121.641 135.16ZM132.698 124.091V135H130.392V124.091H132.698ZM136.822 130.27V135H134.553V126.818H136.716V128.262H136.812C136.993 127.786 137.296 127.409 137.722 127.132C138.149 126.852 138.665 126.712 139.272 126.712C139.841 126.712 140.336 126.836 140.759 127.085C141.181 127.333 141.51 127.688 141.744 128.15C141.978 128.608 142.096 129.155 142.096 129.79V135H139.826V130.195C139.83 129.695 139.702 129.304 139.443 129.023C139.184 128.739 138.827 128.597 138.372 128.597C138.067 128.597 137.797 128.663 137.563 128.794C137.332 128.926 137.151 129.118 137.019 129.37C136.891 129.618 136.826 129.918 136.822 130.27ZM148.236 126.818V128.523H143.309V126.818H148.236ZM144.427 124.858H146.697V132.486C146.697 132.695 146.729 132.859 146.792 132.976C146.856 133.089 146.945 133.169 147.059 133.216C147.176 133.262 147.311 133.285 147.464 133.285C147.57 133.285 147.677 133.276 147.783 133.258C147.89 133.237 147.971 133.221 148.028 133.21L148.385 134.899C148.271 134.934 148.112 134.975 147.906 135.021C147.7 135.071 147.449 135.101 147.155 135.112C146.608 135.133 146.128 135.06 145.716 134.893C145.308 134.727 144.99 134.467 144.763 134.116C144.536 133.764 144.424 133.32 144.427 132.784V124.858ZM153.355 135.16C152.513 135.16 151.789 134.989 151.182 134.648C150.578 134.304 150.113 133.817 149.786 133.189C149.459 132.557 149.296 131.809 149.296 130.946C149.296 130.105 149.459 129.366 149.786 128.73C150.113 128.095 150.573 127.599 151.166 127.244C151.762 126.889 152.462 126.712 153.264 126.712C153.804 126.712 154.307 126.799 154.772 126.973C155.241 127.143 155.649 127.401 155.997 127.745C156.349 128.089 156.622 128.523 156.817 129.045C157.013 129.563 157.11 130.17 157.11 130.866V131.49H150.202V130.083H154.974C154.974 129.757 154.903 129.467 154.761 129.215C154.619 128.963 154.422 128.766 154.17 128.624C153.921 128.478 153.632 128.406 153.302 128.406C152.957 128.406 152.652 128.485 152.385 128.645C152.123 128.801 151.917 129.013 151.768 129.279C151.618 129.542 151.542 129.835 151.539 130.158V131.495C151.539 131.9 151.613 132.25 151.762 132.544C151.915 132.839 152.13 133.066 152.407 133.226C152.684 133.386 153.012 133.466 153.392 133.466C153.644 133.466 153.875 133.43 154.085 133.359C154.294 133.288 154.474 133.182 154.623 133.04C154.772 132.898 154.885 132.724 154.964 132.518L157.062 132.656C156.956 133.161 156.737 133.601 156.407 133.977C156.08 134.35 155.658 134.641 155.139 134.851C154.624 135.057 154.03 135.16 153.355 135.16ZM158.591 135V126.818H160.791V128.246H160.876C161.025 127.738 161.276 127.354 161.627 127.095C161.979 126.832 162.384 126.701 162.842 126.701C162.955 126.701 163.078 126.708 163.209 126.722C163.341 126.737 163.456 126.756 163.556 126.781V128.794C163.449 128.762 163.302 128.734 163.113 128.709C162.925 128.684 162.753 128.672 162.597 128.672C162.263 128.672 161.965 128.745 161.702 128.89C161.443 129.032 161.237 129.231 161.084 129.487C160.935 129.743 160.86 130.037 160.86 130.371V135H158.591ZM169.539 126.818V128.523H164.489V126.818H169.539ZM165.645 135V126.227C165.645 125.634 165.76 125.142 165.991 124.751C166.226 124.361 166.545 124.068 166.95 123.873C167.355 123.677 167.815 123.58 168.33 123.58C168.678 123.58 168.995 123.606 169.283 123.659C169.574 123.713 169.791 123.761 169.933 123.803L169.528 125.508C169.439 125.479 169.329 125.453 169.198 125.428C169.07 125.403 168.939 125.391 168.804 125.391C168.47 125.391 168.237 125.469 168.106 125.625C167.975 125.778 167.909 125.993 167.909 126.27V135H165.645ZM172.965 135.154C172.443 135.154 171.978 135.064 171.57 134.883C171.161 134.698 170.838 134.426 170.6 134.068C170.366 133.706 170.249 133.255 170.249 132.715C170.249 132.26 170.332 131.879 170.499 131.57C170.666 131.261 170.893 131.012 171.181 130.824C171.468 130.636 171.795 130.494 172.161 130.398C172.53 130.302 172.917 130.234 173.322 130.195C173.798 130.146 174.181 130.099 174.473 130.057C174.764 130.011 174.975 129.943 175.107 129.854C175.238 129.766 175.304 129.634 175.304 129.46V129.428C175.304 129.091 175.197 128.83 174.984 128.645C174.775 128.461 174.476 128.368 174.089 128.368C173.681 128.368 173.356 128.459 173.114 128.64C172.873 128.817 172.713 129.041 172.635 129.311L170.536 129.141C170.643 128.643 170.852 128.214 171.165 127.852C171.477 127.486 171.88 127.205 172.374 127.01C172.871 126.811 173.446 126.712 174.1 126.712C174.554 126.712 174.989 126.765 175.405 126.871C175.824 126.978 176.195 127.143 176.518 127.367C176.845 127.591 177.102 127.878 177.29 128.23C177.479 128.578 177.573 128.995 177.573 129.482V135H175.421V133.865H175.357C175.225 134.121 175.05 134.347 174.83 134.542C174.609 134.734 174.345 134.885 174.036 134.995C173.727 135.101 173.37 135.154 172.965 135.154ZM173.615 133.588C173.949 133.588 174.244 133.523 174.499 133.391C174.755 133.256 174.956 133.075 175.101 132.848C175.247 132.621 175.32 132.363 175.32 132.076V131.207C175.249 131.254 175.151 131.296 175.027 131.335C174.906 131.371 174.769 131.404 174.616 131.436C174.464 131.465 174.311 131.491 174.158 131.516C174.006 131.538 173.867 131.557 173.743 131.575C173.477 131.614 173.244 131.676 173.045 131.761C172.846 131.847 172.692 131.962 172.582 132.108C172.472 132.25 172.417 132.427 172.417 132.64C172.417 132.949 172.528 133.185 172.752 133.349C172.979 133.509 173.267 133.588 173.615 133.588ZM183.03 135.16C182.192 135.16 181.471 134.982 180.867 134.627C180.267 134.268 179.806 133.771 179.482 133.136C179.163 132.5 179.003 131.768 179.003 130.941C179.003 130.103 179.165 129.368 179.488 128.736C179.814 128.1 180.278 127.605 180.878 127.25C181.478 126.891 182.192 126.712 183.019 126.712C183.733 126.712 184.358 126.841 184.894 127.1C185.431 127.36 185.855 127.724 186.167 128.192C186.48 128.661 186.652 129.212 186.684 129.844H184.543C184.482 129.435 184.323 129.107 184.063 128.858C183.808 128.606 183.472 128.48 183.057 128.48C182.705 128.48 182.398 128.576 182.135 128.768C181.876 128.956 181.673 129.231 181.528 129.593C181.382 129.956 181.309 130.394 181.309 130.909C181.309 131.431 181.381 131.875 181.523 132.241C181.668 132.607 181.872 132.885 182.135 133.077C182.398 133.269 182.705 133.365 183.057 133.365C183.316 133.365 183.548 133.311 183.754 133.205C183.964 133.098 184.136 132.944 184.271 132.741C184.41 132.536 184.5 132.289 184.543 132.001H186.684C186.649 132.626 186.478 133.176 186.173 133.652C185.871 134.125 185.454 134.494 184.921 134.76C184.388 135.027 183.758 135.16 183.03 135.16ZM191.866 135.16C191.024 135.16 190.3 134.989 189.692 134.648C189.089 134.304 188.623 133.817 188.297 133.189C187.97 132.557 187.807 131.809 187.807 130.946C187.807 130.105 187.97 129.366 188.297 128.73C188.623 128.095 189.083 127.599 189.676 127.244C190.273 126.889 190.973 126.712 191.775 126.712C192.315 126.712 192.817 126.799 193.283 126.973C193.751 127.143 194.16 127.401 194.508 127.745C194.859 128.089 195.133 128.523 195.328 129.045C195.523 129.563 195.621 130.17 195.621 130.866V131.49H188.712V130.083H193.485C193.485 129.757 193.414 129.467 193.272 129.215C193.13 128.963 192.933 128.766 192.681 128.624C192.432 128.478 192.143 128.406 191.812 128.406C191.468 128.406 191.163 128.485 190.896 128.645C190.633 128.801 190.427 129.013 190.278 129.279C190.129 129.542 190.053 129.835 190.049 130.158V131.495C190.049 131.9 190.124 132.25 190.273 132.544C190.426 132.839 190.641 133.066 190.918 133.226C191.195 133.386 191.523 133.466 191.903 133.466C192.155 133.466 192.386 133.43 192.595 133.359C192.805 133.288 192.984 133.182 193.133 133.04C193.283 132.898 193.396 132.724 193.474 132.518L195.573 132.656C195.467 133.161 195.248 133.601 194.918 133.977C194.591 134.35 194.169 134.641 193.65 134.851C193.135 135.057 192.54 135.16 191.866 135.16ZM203.909 129.151L201.832 129.279C201.796 129.102 201.72 128.942 201.603 128.8C201.486 128.654 201.331 128.539 201.139 128.453C200.951 128.365 200.726 128.32 200.463 128.32C200.111 128.32 199.815 128.395 199.573 128.544C199.332 128.69 199.211 128.885 199.211 129.13C199.211 129.325 199.289 129.49 199.446 129.625C199.602 129.76 199.87 129.869 200.25 129.95L201.731 130.249C202.526 130.412 203.119 130.675 203.51 131.037C203.9 131.399 204.096 131.875 204.096 132.464C204.096 133.001 203.938 133.471 203.622 133.876C203.309 134.281 202.88 134.597 202.333 134.824C201.789 135.048 201.163 135.16 200.452 135.16C199.369 135.16 198.506 134.934 197.864 134.483C197.224 134.029 196.85 133.411 196.74 132.63L198.972 132.512C199.039 132.843 199.202 133.095 199.462 133.269C199.721 133.439 200.053 133.525 200.458 133.525C200.855 133.525 201.175 133.448 201.416 133.295C201.661 133.139 201.786 132.939 201.789 132.694C201.786 132.488 201.699 132.319 201.528 132.188C201.358 132.053 201.095 131.95 200.74 131.879L199.323 131.596C198.524 131.436 197.929 131.159 197.539 130.765C197.152 130.371 196.958 129.869 196.958 129.258C196.958 128.732 197.1 128.279 197.384 127.9C197.672 127.52 198.075 127.227 198.593 127.021C199.115 126.815 199.726 126.712 200.426 126.712C201.459 126.712 202.272 126.93 202.865 127.367C203.462 127.804 203.81 128.398 203.909 129.151Z" fill="black"/>
    <rect width="221" height="20" transform="translate(0 160)" fill="#FF9900"/>
    <path d="M13.2546 164.091V175H10.9482V164.091H13.2546ZM17.3788 170.27V175H15.1096V166.818H17.2723V168.262H17.3682C17.5493 167.786 17.8529 167.409 18.279 167.132C18.7052 166.852 19.2219 166.712 19.8291 166.712C20.3973 166.712 20.8927 166.836 21.3153 167.085C21.7378 167.333 22.0663 167.688 22.3007 168.15C22.5351 168.608 22.6523 169.155 22.6523 169.79V175H20.3831V170.195C20.3866 169.695 20.2588 169.304 19.9996 169.023C19.7403 168.739 19.3834 168.597 18.9289 168.597C18.6235 168.597 18.3536 168.663 18.1192 168.794C17.8884 168.926 17.7073 169.118 17.5759 169.37C17.4481 169.618 17.3824 169.918 17.3788 170.27ZM31.7756 166.818L28.9151 175H26.3583L23.4979 166.818H25.8949L27.5941 172.672H27.6793L29.3732 166.818H31.7756ZM36.4018 175.16C35.5602 175.16 34.8358 174.989 34.2285 174.648C33.6248 174.304 33.1596 173.817 32.8329 173.189C32.5062 172.557 32.3429 171.809 32.3429 170.946C32.3429 170.105 32.5062 169.366 32.8329 168.73C33.1596 168.095 33.6195 167.599 34.2125 167.244C34.8091 166.889 35.5087 166.712 36.3113 166.712C36.851 166.712 37.3535 166.799 37.8187 166.973C38.2875 167.143 38.6958 167.401 39.0439 167.745C39.3954 168.089 39.6689 168.523 39.8642 169.045C40.0595 169.563 40.1571 170.17 40.1571 170.866V171.49H33.2484V170.083H38.0211C38.0211 169.757 37.9501 169.467 37.8081 169.215C37.666 168.963 37.4689 168.766 37.2168 168.624C36.9682 168.478 36.6788 168.406 36.3485 168.406C36.0041 168.406 35.6987 168.485 35.4324 168.645C35.1696 168.801 34.9636 169.013 34.8145 169.279C34.6653 169.542 34.589 169.835 34.5854 170.158V171.495C34.5854 171.9 34.66 172.25 34.8091 172.544C34.9618 172.839 35.1767 173.066 35.4537 173.226C35.7306 173.386 36.0591 173.466 36.4391 173.466C36.6912 173.466 36.9221 173.43 37.1316 173.359C37.3411 173.288 37.5204 173.182 37.6696 173.04C37.8187 172.898 37.9324 172.724 38.0105 172.518L40.1092 172.656C40.0027 173.161 39.7843 173.601 39.454 173.977C39.1273 174.35 38.7047 174.641 38.1863 174.851C37.6713 175.057 37.0765 175.16 36.4018 175.16ZM41.638 175V166.818H43.8379V168.246H43.9231C44.0723 167.738 44.3226 167.354 44.6742 167.095C45.0257 166.832 45.4306 166.701 45.8887 166.701C46.0023 166.701 46.1248 166.708 46.2562 166.722C46.3876 166.737 46.503 166.756 46.6025 166.781V168.794C46.4959 168.762 46.3485 168.734 46.1603 168.709C45.9721 168.684 45.7999 168.672 45.6436 168.672C45.3098 168.672 45.0115 168.745 44.7488 168.89C44.4895 169.032 44.2836 169.231 44.1309 169.487C43.9817 169.743 43.9071 170.037 43.9071 170.371V175H41.638ZM54.5832 169.151L52.5058 169.279C52.4703 169.102 52.3939 168.942 52.2767 168.8C52.1595 168.654 52.0051 168.539 51.8133 168.453C51.6251 168.365 51.3996 168.32 51.1368 168.32C50.7852 168.32 50.4887 168.395 50.2472 168.544C50.0058 168.69 49.885 168.885 49.885 169.13C49.885 169.325 49.9632 169.49 50.1194 169.625C50.2757 169.76 50.5438 169.869 50.9237 169.95L52.4046 170.249C53.2 170.412 53.7931 170.675 54.1837 171.037C54.5743 171.399 54.7696 171.875 54.7696 172.464C54.7696 173.001 54.6116 173.471 54.2955 173.876C53.983 174.281 53.5534 174.597 53.0065 174.824C52.4632 175.048 51.8364 175.16 51.1262 175.16C50.0431 175.16 49.1801 174.934 48.5374 174.483C47.8982 174.029 47.5235 173.411 47.4134 172.63L49.6453 172.512C49.7128 172.843 49.8762 173.095 50.1354 173.269C50.3946 173.439 50.7267 173.525 51.1315 173.525C51.5292 173.525 51.8488 173.448 52.0903 173.295C52.3353 173.139 52.4596 172.939 52.4632 172.694C52.4596 172.488 52.3726 172.319 52.2021 172.188C52.0317 172.053 51.7689 171.95 51.4138 171.879L49.9969 171.596C49.1979 171.436 48.6031 171.159 48.2124 170.765C47.8254 170.371 47.6318 169.869 47.6318 169.258C47.6318 168.732 47.7739 168.279 48.058 167.9C48.3456 167.52 48.7487 167.227 49.2671 167.021C49.7892 166.815 50.3999 166.712 51.0995 166.712C52.1329 166.712 52.9461 166.93 53.5392 167.367C54.1357 167.804 54.4838 168.398 54.5832 169.151ZM56.1985 175V166.818H58.4677V175H56.1985ZM57.3384 165.763C57.0011 165.763 56.7116 165.652 56.4702 165.428C56.2322 165.201 56.1133 164.929 56.1133 164.613C56.1133 164.3 56.2322 164.032 56.4702 163.809C56.7116 163.581 57.0011 163.468 57.3384 163.468C57.6758 163.468 57.9634 163.581 58.2013 163.809C58.4428 164.032 58.5636 164.3 58.5636 164.613C58.5636 164.929 58.4428 165.201 58.2013 165.428C57.9634 165.652 57.6758 165.763 57.3384 165.763ZM63.9822 175.16C63.1547 175.16 62.4392 174.984 61.8355 174.632C61.2354 174.277 60.7719 173.784 60.4452 173.152C60.1185 172.516 59.9552 171.779 59.9552 170.941C59.9552 170.096 60.1185 169.357 60.4452 168.725C60.7719 168.089 61.2354 167.596 61.8355 167.244C62.4392 166.889 63.1547 166.712 63.9822 166.712C64.8096 166.712 65.5233 166.889 66.1235 167.244C66.7272 167.596 67.1924 168.089 67.5191 168.725C67.8458 169.357 68.0091 170.096 68.0091 170.941C68.0091 171.779 67.8458 172.516 67.5191 173.152C67.1924 173.784 66.7272 174.277 66.1235 174.632C65.5233 174.984 64.8096 175.16 63.9822 175.16ZM63.9928 173.402C64.3692 173.402 64.6835 173.295 64.9356 173.082C65.1878 172.866 65.3778 172.571 65.5056 172.198C65.637 171.825 65.7027 171.401 65.7027 170.925C65.7027 170.449 65.637 170.025 65.5056 169.652C65.3778 169.279 65.1878 168.984 64.9356 168.768C64.6835 168.551 64.3692 168.443 63.9928 168.443C63.6128 168.443 63.2932 168.551 63.034 168.768C62.7783 168.984 62.5848 169.279 62.4534 169.652C62.3256 170.025 62.2616 170.449 62.2616 170.925C62.2616 171.401 62.3256 171.825 62.4534 172.198C62.5848 172.571 62.7783 172.866 63.034 173.082C63.2932 173.295 63.6128 173.402 63.9928 173.402ZM71.7538 170.27V175H69.4846V166.818H71.6473V168.262H71.7432C71.9243 167.786 72.2279 167.409 72.654 167.132C73.0802 166.852 73.5969 166.712 74.2041 166.712C74.7723 166.712 75.2677 166.836 75.6903 167.085C76.1128 167.333 76.4413 167.688 76.6757 168.15C76.9101 168.608 77.0273 169.155 77.0273 169.79V175H74.7581V170.195C74.7616 169.695 74.6338 169.304 74.3746 169.023C74.1153 168.739 73.7584 168.597 73.3039 168.597C72.9985 168.597 72.7286 168.663 72.4942 168.794C72.2634 168.926 72.0823 169.118 71.9509 169.37C71.8231 169.618 71.7574 169.918 71.7538 170.27ZM86.1972 175H82.33V164.091H86.2291C87.3264 164.091 88.271 164.309 89.0629 164.746C89.8548 165.179 90.4639 165.803 90.89 166.616C91.3197 167.429 91.5345 168.402 91.5345 169.535C91.5345 170.671 91.3197 171.648 90.89 172.464C90.4639 173.281 89.8513 173.908 89.0523 174.345C88.2568 174.782 87.3051 175 86.1972 175ZM84.6365 173.024H86.1013C86.7831 173.024 87.3566 172.903 87.8218 172.662C88.2906 172.417 88.6421 172.038 88.8765 171.527C89.1144 171.012 89.2334 170.348 89.2334 169.535C89.2334 168.729 89.1144 168.07 88.8765 167.559C88.6421 167.047 88.2923 166.671 87.8271 166.429C87.3619 166.188 86.7884 166.067 86.1066 166.067H84.6365V173.024ZM96.9292 175.16C96.0875 175.16 95.3631 174.989 94.7559 174.648C94.1522 174.304 93.687 173.817 93.3603 173.189C93.0336 172.557 92.8702 171.809 92.8702 170.946C92.8702 170.105 93.0336 169.366 93.3603 168.73C93.687 168.095 94.1468 167.599 94.7399 167.244C95.3365 166.889 96.036 166.712 96.8386 166.712C97.3784 166.712 97.8809 166.799 98.3461 166.973C98.8148 167.143 99.2232 167.401 99.5712 167.745C99.9228 168.089 100.196 168.523 100.392 169.045C100.587 169.563 100.684 170.17 100.684 170.866V171.49H93.7757V170.083H98.5485C98.5485 169.757 98.4775 169.467 98.3354 169.215C98.1934 168.963 97.9963 168.766 97.7441 168.624C97.4956 168.478 97.2061 168.406 96.8759 168.406C96.5314 168.406 96.226 168.485 95.9597 168.645C95.6969 168.801 95.4909 169.013 95.3418 169.279C95.1926 169.542 95.1163 169.835 95.1127 170.158V171.495C95.1127 171.9 95.1873 172.25 95.3365 172.544C95.4892 172.839 95.704 173.066 95.981 173.226C96.258 173.386 96.5865 173.466 96.9664 173.466C97.2186 173.466 97.4494 173.43 97.6589 173.359C97.8684 173.288 98.0478 173.182 98.1969 173.04C98.3461 172.898 98.4597 172.724 98.5378 172.518L100.637 172.656C100.53 173.161 100.312 173.601 99.9814 173.977C99.6547 174.35 99.2321 174.641 98.7136 174.851C98.1987 175.057 97.6039 175.16 96.9292 175.16ZM109.547 175H105.68V164.091H109.579C110.676 164.091 111.621 164.309 112.413 164.746C113.204 165.179 113.813 165.803 114.24 166.616C114.669 167.429 114.884 168.402 114.884 169.535C114.884 170.671 114.669 171.648 114.24 172.464C113.813 173.281 113.201 173.908 112.402 174.345C111.606 174.782 110.655 175 109.547 175ZM107.986 173.024H109.451C110.133 173.024 110.706 172.903 111.171 172.662C111.64 172.417 111.992 172.038 112.226 171.527C112.464 171.012 112.583 170.348 112.583 169.535C112.583 168.729 112.464 168.07 112.226 167.559C111.992 167.047 111.642 166.671 111.177 166.429C110.712 166.188 110.138 166.067 109.456 166.067H107.986V173.024ZM120.279 175.16C119.437 175.16 118.713 174.989 118.105 174.648C117.502 174.304 117.037 173.817 116.71 173.189C116.383 172.557 116.22 171.809 116.22 170.946C116.22 170.105 116.383 169.366 116.71 168.73C117.037 168.095 117.496 167.599 118.089 167.244C118.686 166.889 119.386 166.712 120.188 166.712C120.728 166.712 121.23 166.799 121.696 166.973C122.164 167.143 122.573 167.401 122.921 167.745C123.272 168.089 123.546 168.523 123.741 169.045C123.936 169.563 124.034 170.17 124.034 170.866V171.49H117.125V170.083H121.898C121.898 169.757 121.827 169.467 121.685 169.215C121.543 168.963 121.346 168.766 121.094 168.624C120.845 168.478 120.556 168.406 120.225 168.406C119.881 168.406 119.576 168.485 119.309 168.645C119.047 168.801 118.841 169.013 118.691 169.279C118.542 169.542 118.466 169.835 118.462 170.158V171.495C118.462 171.9 118.537 172.25 118.686 172.544C118.839 172.839 119.054 173.066 119.331 173.226C119.608 173.386 119.936 173.466 120.316 173.466C120.568 173.466 120.799 173.43 121.009 173.359C121.218 173.288 121.397 173.182 121.547 173.04C121.696 172.898 121.809 172.724 121.887 172.518L123.986 172.656C123.88 173.161 123.661 173.601 123.331 173.977C123.004 174.35 122.582 174.641 122.063 174.851C121.548 175.057 120.953 175.16 120.279 175.16ZM125.515 178.068V166.818H127.752V168.192H127.853C127.953 167.972 128.097 167.749 128.285 167.521C128.477 167.29 128.725 167.099 129.031 166.946C129.339 166.79 129.723 166.712 130.181 166.712C130.778 166.712 131.328 166.868 131.832 167.18C132.337 167.489 132.74 167.956 133.042 168.581C133.343 169.203 133.494 169.982 133.494 170.92C133.494 171.832 133.347 172.603 133.052 173.232C132.761 173.857 132.363 174.331 131.859 174.654C131.358 174.973 130.797 175.133 130.176 175.133C129.735 175.133 129.361 175.06 129.052 174.915C128.746 174.769 128.496 174.586 128.301 174.366C128.105 174.142 127.956 173.917 127.853 173.69H127.784V178.068H125.515ZM127.736 170.909C127.736 171.396 127.804 171.82 127.939 172.182C128.074 172.544 128.269 172.827 128.525 173.029C128.78 173.228 129.091 173.327 129.457 173.327C129.826 173.327 130.138 173.226 130.394 173.024C130.65 172.818 130.843 172.534 130.975 172.172C131.11 171.806 131.177 171.385 131.177 170.909C131.177 170.437 131.112 170.021 130.98 169.663C130.849 169.304 130.655 169.023 130.4 168.821C130.144 168.619 129.83 168.517 129.457 168.517C129.087 168.517 128.775 168.615 128.519 168.81C128.267 169.006 128.074 169.283 127.939 169.641C127.804 170 127.736 170.423 127.736 170.909ZM138.736 175.16C137.894 175.16 137.17 174.989 136.562 174.648C135.959 174.304 135.494 173.817 135.167 173.189C134.84 172.557 134.677 171.809 134.677 170.946C134.677 170.105 134.84 169.366 135.167 168.73C135.494 168.095 135.953 167.599 136.547 167.244C137.143 166.889 137.843 166.712 138.645 166.712C139.185 166.712 139.688 166.799 140.153 166.973C140.621 167.143 141.03 167.401 141.378 167.745C141.729 168.089 142.003 168.523 142.198 169.045C142.393 169.563 142.491 170.17 142.491 170.866V171.49H135.582V170.083H140.355C140.355 169.757 140.284 169.467 140.142 169.215C140 168.963 139.803 168.766 139.551 168.624C139.302 168.478 139.013 168.406 138.683 168.406C138.338 168.406 138.033 168.485 137.766 168.645C137.504 168.801 137.298 169.013 137.148 169.279C136.999 169.542 136.923 169.835 136.919 170.158V171.495C136.919 171.9 136.994 172.25 137.143 172.544C137.296 172.839 137.511 173.066 137.788 173.226C138.065 173.386 138.393 173.466 138.773 173.466C139.025 173.466 139.256 173.43 139.466 173.359C139.675 173.288 139.854 173.182 140.004 173.04C140.153 172.898 140.266 172.724 140.344 172.518L142.443 172.656C142.337 173.161 142.118 173.601 141.788 173.977C141.461 174.35 141.039 174.641 140.52 174.851C140.005 175.057 139.411 175.16 138.736 175.16ZM146.241 170.27V175H143.972V166.818H146.135V168.262H146.23C146.412 167.786 146.715 167.409 147.141 167.132C147.567 166.852 148.084 166.712 148.691 166.712C149.26 166.712 149.755 166.836 150.178 167.085C150.6 167.333 150.929 167.688 151.163 168.15C151.397 168.608 151.515 169.155 151.515 169.79V175H149.245V170.195C149.249 169.695 149.121 169.304 148.862 169.023C148.603 168.739 148.246 168.597 147.791 168.597C147.486 168.597 147.216 168.663 146.982 168.794C146.751 168.926 146.57 169.118 146.438 169.37C146.31 169.618 146.245 169.918 146.241 170.27ZM156.318 175.133C155.696 175.133 155.134 174.973 154.629 174.654C154.129 174.331 153.731 173.857 153.436 173.232C153.145 172.603 152.999 171.832 152.999 170.92C152.999 169.982 153.15 169.203 153.452 168.581C153.754 167.956 154.155 167.489 154.656 167.18C155.16 166.868 155.712 166.712 156.313 166.712C156.771 166.712 157.152 166.79 157.458 166.946C157.767 167.099 158.015 167.29 158.204 167.521C158.395 167.749 158.541 167.972 158.64 168.192H158.71V164.091H160.973V175H158.736V173.69H158.64C158.534 173.917 158.383 174.142 158.188 174.366C157.996 174.586 157.745 174.769 157.437 174.915C157.131 175.06 156.758 175.133 156.318 175.133ZM157.037 173.327C157.403 173.327 157.712 173.228 157.964 173.029C158.22 172.827 158.415 172.544 158.55 172.182C158.688 171.82 158.758 171.396 158.758 170.909C158.758 170.423 158.69 170 158.555 169.641C158.42 169.283 158.225 169.006 157.969 168.81C157.714 168.615 157.403 168.517 157.037 168.517C156.664 168.517 156.35 168.619 156.094 168.821C155.839 169.023 155.645 169.304 155.514 169.663C155.382 170.021 155.316 170.437 155.316 170.909C155.316 171.385 155.382 171.806 155.514 172.172C155.649 172.534 155.842 172.818 156.094 173.024C156.35 173.226 156.664 173.327 157.037 173.327ZM166.568 175.16C165.726 175.16 165.002 174.989 164.395 174.648C163.791 174.304 163.326 173.817 162.999 173.189C162.672 172.557 162.509 171.809 162.509 170.946C162.509 170.105 162.672 169.366 162.999 168.73C163.326 168.095 163.786 167.599 164.379 167.244C164.975 166.889 165.675 166.712 166.477 166.712C167.017 166.712 167.52 166.799 167.985 166.973C168.453 167.143 168.862 167.401 169.21 167.745C169.561 168.089 169.835 168.523 170.03 169.045C170.225 169.563 170.323 170.17 170.323 170.866V171.49H163.414V170.083H168.187C168.187 169.757 168.116 169.467 167.974 169.215C167.832 168.963 167.635 168.766 167.383 168.624C167.134 168.478 166.845 168.406 166.515 168.406C166.17 168.406 165.865 168.485 165.598 168.645C165.336 168.801 165.13 169.013 164.98 169.279C164.831 169.542 164.755 169.835 164.751 170.158V171.495C164.751 171.9 164.826 172.25 164.975 172.544C165.128 172.839 165.343 173.066 165.62 173.226C165.897 173.386 166.225 173.466 166.605 173.466C166.857 173.466 167.088 173.43 167.298 173.359C167.507 173.288 167.686 173.182 167.836 173.04C167.985 172.898 168.098 172.724 168.176 172.518L170.275 172.656C170.169 173.161 169.95 173.601 169.62 173.977C169.293 174.35 168.871 174.641 168.352 174.851C167.837 175.057 167.243 175.16 166.568 175.16ZM174.073 170.27V175H171.804V166.818H173.967V168.262H174.062C174.244 167.786 174.547 167.409 174.973 167.132C175.4 166.852 175.916 166.712 176.523 166.712C177.092 166.712 177.587 166.836 178.01 167.085C178.432 167.333 178.761 167.688 178.995 168.15C179.229 168.608 179.347 169.155 179.347 169.79V175H177.077V170.195C177.081 169.695 176.953 169.304 176.694 169.023C176.435 168.739 176.078 168.597 175.623 168.597C175.318 168.597 175.048 168.663 174.814 168.794C174.583 168.926 174.402 169.118 174.27 169.37C174.142 169.618 174.077 169.918 174.073 170.27ZM184.832 175.16C183.994 175.16 183.273 174.982 182.669 174.627C182.069 174.268 181.607 173.771 181.284 173.136C180.965 172.5 180.805 171.768 180.805 170.941C180.805 170.103 180.966 169.368 181.29 168.736C181.616 168.1 182.08 167.605 182.68 167.25C183.28 166.891 183.994 166.712 184.821 166.712C185.535 166.712 186.16 166.841 186.696 167.1C187.232 167.36 187.657 167.724 187.969 168.192C188.282 168.661 188.454 169.212 188.486 169.844H186.345C186.284 169.435 186.124 169.107 185.865 168.858C185.609 168.606 185.274 168.48 184.858 168.48C184.507 168.48 184.2 168.576 183.937 168.768C183.678 168.956 183.475 169.231 183.33 169.593C183.184 169.956 183.111 170.394 183.111 170.909C183.111 171.431 183.182 171.875 183.324 172.241C183.47 172.607 183.674 172.885 183.937 173.077C184.2 173.269 184.507 173.365 184.858 173.365C185.118 173.365 185.35 173.311 185.556 173.205C185.766 173.098 185.938 172.944 186.073 172.741C186.211 172.536 186.302 172.289 186.345 172.001H188.486C188.45 172.626 188.28 173.176 187.975 173.652C187.673 174.125 187.255 174.494 186.723 174.76C186.19 175.027 185.56 175.16 184.832 175.16ZM189.939 175V166.818H192.208V175H189.939ZM191.079 165.763C190.741 165.763 190.452 165.652 190.21 165.428C189.972 165.201 189.854 164.929 189.854 164.613C189.854 164.3 189.972 164.032 190.21 163.809C190.452 163.581 190.741 163.468 191.079 163.468C191.416 163.468 191.704 163.581 191.942 163.809C192.183 164.032 192.304 164.3 192.304 164.613C192.304 164.929 192.183 165.201 191.942 165.428C191.704 165.652 191.416 165.763 191.079 165.763ZM196.359 175.154C195.837 175.154 195.372 175.064 194.963 174.883C194.555 174.698 194.232 174.426 193.994 174.068C193.759 173.706 193.642 173.255 193.642 172.715C193.642 172.26 193.726 171.879 193.892 171.57C194.059 171.261 194.287 171.012 194.574 170.824C194.862 170.636 195.189 170.494 195.554 170.398C195.924 170.302 196.311 170.234 196.716 170.195C197.191 170.146 197.575 170.099 197.866 170.057C198.157 170.011 198.369 169.943 198.5 169.854C198.631 169.766 198.697 169.634 198.697 169.46V169.428C198.697 169.091 198.591 168.83 198.378 168.645C198.168 168.461 197.87 168.368 197.483 168.368C197.074 168.368 196.749 168.459 196.508 168.64C196.266 168.817 196.107 169.041 196.028 169.311L193.93 169.141C194.036 168.643 194.246 168.214 194.558 167.852C194.871 167.486 195.274 167.205 195.767 167.01C196.265 166.811 196.84 166.712 197.493 166.712C197.948 166.712 198.383 166.765 198.798 166.871C199.217 166.978 199.589 167.143 199.912 167.367C200.238 167.591 200.496 167.878 200.684 168.23C200.872 168.578 200.966 168.995 200.966 169.482V175H198.814V173.865H198.75C198.619 174.121 198.443 174.347 198.223 174.542C198.003 174.734 197.738 174.885 197.429 174.995C197.12 175.101 196.764 175.154 196.359 175.154ZM197.009 173.588C197.342 173.588 197.637 173.523 197.893 173.391C198.149 173.256 198.349 173.075 198.495 172.848C198.64 172.621 198.713 172.363 198.713 172.076V171.207C198.642 171.254 198.544 171.296 198.42 171.335C198.299 171.371 198.163 171.404 198.01 171.436C197.857 171.465 197.705 171.491 197.552 171.516C197.399 171.538 197.261 171.557 197.136 171.575C196.87 171.614 196.638 171.676 196.439 171.761C196.24 171.847 196.085 171.962 195.975 172.108C195.865 172.25 195.81 172.427 195.81 172.64C195.81 172.949 195.922 173.185 196.146 173.349C196.373 173.509 196.661 173.588 197.009 173.588ZM209.534 169.151L207.457 169.279C207.421 169.102 207.345 168.942 207.228 168.8C207.111 168.654 206.956 168.539 206.764 168.453C206.576 168.365 206.351 168.32 206.088 168.32C205.736 168.32 205.44 168.395 205.198 168.544C204.957 168.69 204.836 168.885 204.836 169.13C204.836 169.325 204.914 169.49 205.071 169.625C205.227 169.76 205.495 169.869 205.875 169.95L207.356 170.249C208.151 170.412 208.744 170.675 209.135 171.037C209.525 171.399 209.721 171.875 209.721 172.464C209.721 173.001 209.563 173.471 209.247 173.876C208.934 174.281 208.505 174.597 207.958 174.824C207.414 175.048 206.788 175.16 206.077 175.16C204.994 175.16 204.131 174.934 203.489 174.483C202.849 174.029 202.475 173.411 202.365 172.63L204.597 172.512C204.664 172.843 204.827 173.095 205.087 173.269C205.346 173.439 205.678 173.525 206.083 173.525C206.48 173.525 206.8 173.448 207.041 173.295C207.286 173.139 207.411 172.939 207.414 172.694C207.411 172.488 207.324 172.319 207.153 172.188C206.983 172.053 206.72 171.95 206.365 171.879L204.948 171.596C204.149 171.436 203.554 171.159 203.164 170.765C202.777 170.371 202.583 169.869 202.583 169.258C202.583 168.732 202.725 168.279 203.009 167.9C203.297 167.52 203.7 167.227 204.218 167.021C204.74 166.815 205.351 166.712 206.051 166.712C207.084 166.712 207.897 166.93 208.49 167.367C209.087 167.804 209.435 168.398 209.534 169.151Z" fill="black"/>
</svg>