<svg width="250" height="170" viewBox="0 0 250 170" fill="none" xmlns="http://www.w3.org/2000/svg">
    <circle cx="125" cy="45" r="45" fill="#FF0000"/>
    <circle cx="205" cy="125" r="45" fill="#01FB01"/>
    <circle cx="45" cy="121" r="45" fill="#6F26F4"/>
    <path d="M105.948 50V39.0909H113.171V40.9925H108.255V43.592H112.692V45.4936H108.255V50H105.948ZM116.911 50.1545C116.388 50.1545 115.923 50.0639 115.515 49.8828C115.107 49.6982 114.783 49.4265 114.545 49.0678C114.311 48.7056 114.194 48.2546 114.194 47.7148C114.194 47.2603 114.277 46.8786 114.444 46.5696C114.611 46.2607 114.838 46.0121 115.126 45.8239C115.414 45.6357 115.74 45.4936 116.106 45.3977C116.475 45.3018 116.863 45.2344 117.267 45.1953C117.743 45.1456 118.127 45.0994 118.418 45.0568C118.709 45.0107 118.92 44.9432 119.052 44.8544C119.183 44.7656 119.249 44.6342 119.249 44.4602V44.4283C119.249 44.0909 119.142 43.8299 118.929 43.6452C118.72 43.4606 118.422 43.3683 118.034 43.3683C117.626 43.3683 117.301 43.4588 117.06 43.6399C116.818 43.8175 116.658 44.0412 116.58 44.3111L114.482 44.1406C114.588 43.6435 114.798 43.2138 115.11 42.8516C115.423 42.4858 115.826 42.2053 116.319 42.0099C116.816 41.8111 117.392 41.7116 118.045 41.7116C118.5 41.7116 118.935 41.7649 119.35 41.8714C119.769 41.978 120.14 42.1431 120.463 42.3668C120.79 42.5906 121.048 42.8782 121.236 43.2298C121.424 43.5778 121.518 43.995 121.518 44.4815V50H119.366V48.8654H119.302C119.171 49.1211 118.995 49.3466 118.775 49.5419C118.555 49.7337 118.29 49.8846 117.981 49.9947C117.672 50.1012 117.315 50.1545 116.911 50.1545ZM117.56 48.5884C117.894 48.5884 118.189 48.5227 118.445 48.3913C118.7 48.2564 118.901 48.0753 119.047 47.848C119.192 47.6207 119.265 47.3633 119.265 47.0756V46.2074C119.194 46.2536 119.096 46.2962 118.972 46.3352C118.851 46.3707 118.714 46.4045 118.562 46.4364C118.409 46.4648 118.256 46.4915 118.104 46.5163C117.951 46.5376 117.812 46.5572 117.688 46.5749C117.422 46.614 117.189 46.6761 116.99 46.7614C116.792 46.8466 116.637 46.962 116.527 47.1076C116.417 47.2496 116.362 47.4272 116.362 47.6403C116.362 47.9492 116.474 48.1854 116.697 48.3487C116.925 48.5085 117.212 48.5884 117.56 48.5884ZM125.548 39.0909V50H123.279V39.0909H125.548ZM129.635 39.0909V50H127.366V39.0909H129.635ZM133.786 50.1545C133.263 50.1545 132.798 50.0639 132.39 49.8828C131.982 49.6982 131.658 49.4265 131.42 49.0678C131.186 48.7056 131.069 48.2546 131.069 47.7148C131.069 47.2603 131.152 46.8786 131.319 46.5696C131.486 46.2607 131.713 46.0121 132.001 45.8239C132.289 45.6357 132.615 45.4936 132.981 45.3977C133.35 45.3018 133.738 45.2344 134.142 45.1953C134.618 45.1456 135.002 45.0994 135.293 45.0568C135.584 45.0107 135.795 44.9432 135.927 44.8544C136.058 44.7656 136.124 44.6342 136.124 44.4602V44.4283C136.124 44.0909 136.017 43.8299 135.804 43.6452C135.595 43.4606 135.297 43.3683 134.909 43.3683C134.501 43.3683 134.176 43.4588 133.935 43.6399C133.693 43.8175 133.533 44.0412 133.455 44.3111L131.357 44.1406C131.463 43.6435 131.673 43.2138 131.985 42.8516C132.298 42.4858 132.701 42.2053 133.194 42.0099C133.691 41.8111 134.267 41.7116 134.92 41.7116C135.375 41.7116 135.81 41.7649 136.225 41.8714C136.644 41.978 137.015 42.1431 137.338 42.3668C137.665 42.5906 137.923 42.8782 138.111 43.2298C138.299 43.5778 138.393 43.995 138.393 44.4815V50H136.241V48.8654H136.177C136.046 49.1211 135.87 49.3466 135.65 49.5419C135.43 49.7337 135.165 49.8846 134.856 49.9947C134.547 50.1012 134.19 50.1545 133.786 50.1545ZM134.435 48.5884C134.769 48.5884 135.064 48.5227 135.32 48.3913C135.575 48.2564 135.776 48.0753 135.922 47.848C136.067 47.6207 136.14 47.3633 136.14 47.0756V46.2074C136.069 46.2536 135.971 46.2962 135.847 46.3352C135.726 46.3707 135.589 46.4045 135.437 46.4364C135.284 46.4648 135.131 46.4915 134.979 46.5163C134.826 46.5376 134.688 46.5572 134.563 46.5749C134.297 46.614 134.064 46.6761 133.865 46.7614C133.667 46.8466 133.512 46.962 133.402 47.1076C133.292 47.2496 133.237 47.4272 133.237 47.6403C133.237 47.9492 133.349 48.1854 133.572 48.3487C133.8 48.5085 134.087 48.5884 134.435 48.5884ZM140.154 50V41.8182H142.354V43.2457H142.439C142.588 42.7379 142.838 42.3544 143.19 42.0952C143.541 41.8324 143.946 41.701 144.404 41.701C144.518 41.701 144.64 41.7081 144.772 41.7223C144.903 41.7365 145.019 41.756 145.118 41.7809V43.7944C145.012 43.7624 144.864 43.734 144.676 43.7092C144.488 43.6843 144.316 43.6719 144.159 43.6719C143.825 43.6719 143.527 43.7447 143.264 43.8903C143.005 44.0323 142.799 44.2312 142.646 44.4869C142.497 44.7425 142.423 45.0373 142.423 45.3711V50H140.154Z" fill="white"/>
    <path d="M177.828 130H175.357L179.123 119.091H182.095L185.856 130H183.384L180.652 121.584H180.566L177.828 130ZM177.674 125.712H183.512V127.512H177.674V125.712ZM187.126 133.068V121.818H189.363V123.192H189.465C189.564 122.972 189.708 122.749 189.896 122.521C190.088 122.29 190.336 122.099 190.642 121.946C190.951 121.79 191.334 121.712 191.792 121.712C192.389 121.712 192.939 121.868 193.444 122.18C193.948 122.489 194.351 122.956 194.653 123.581C194.955 124.203 195.106 124.982 195.106 125.92C195.106 126.832 194.958 127.603 194.664 128.232C194.372 128.857 193.975 129.331 193.47 129.654C192.97 129.973 192.409 130.133 191.787 130.133C191.347 130.133 190.972 130.06 190.663 129.915C190.358 129.769 190.107 129.586 189.912 129.366C189.717 129.142 189.568 128.917 189.465 128.69H189.395V133.068H187.126ZM189.347 125.909C189.347 126.396 189.415 126.82 189.55 127.182C189.685 127.544 189.88 127.827 190.136 128.029C190.392 128.228 190.702 128.327 191.068 128.327C191.437 128.327 191.75 128.226 192.006 128.024C192.261 127.818 192.455 127.534 192.586 127.172C192.721 126.806 192.789 126.385 192.789 125.909C192.789 125.437 192.723 125.021 192.591 124.663C192.46 124.304 192.267 124.023 192.011 123.821C191.755 123.619 191.441 123.517 191.068 123.517C190.699 123.517 190.386 123.615 190.131 123.81C189.878 124.006 189.685 124.283 189.55 124.641C189.415 125 189.347 125.423 189.347 125.909ZM196.618 130V121.818H198.818V123.246H198.904C199.053 122.738 199.303 122.354 199.655 122.095C200.006 121.832 200.411 121.701 200.869 121.701C200.983 121.701 201.105 121.708 201.237 121.722C201.368 121.737 201.483 121.756 201.583 121.781V123.794C201.476 123.762 201.329 123.734 201.141 123.709C200.953 123.684 200.78 123.672 200.624 123.672C200.29 123.672 199.992 123.745 199.729 123.89C199.47 124.032 199.264 124.231 199.111 124.487C198.962 124.743 198.888 125.037 198.888 125.371V130H196.618ZM206.072 130.16C205.245 130.16 204.529 129.984 203.925 129.632C203.325 129.277 202.862 128.784 202.535 128.152C202.208 127.516 202.045 126.779 202.045 125.941C202.045 125.096 202.208 124.357 202.535 123.725C202.862 123.089 203.325 122.596 203.925 122.244C204.529 121.889 205.245 121.712 206.072 121.712C206.899 121.712 207.613 121.889 208.213 122.244C208.817 122.596 209.282 123.089 209.609 123.725C209.936 124.357 210.099 125.096 210.099 125.941C210.099 126.779 209.936 127.516 209.609 128.152C209.282 128.784 208.817 129.277 208.213 129.632C207.613 129.984 206.899 130.16 206.072 130.16ZM206.083 128.402C206.459 128.402 206.773 128.295 207.025 128.082C207.278 127.866 207.468 127.571 207.595 127.198C207.727 126.825 207.793 126.401 207.793 125.925C207.793 125.449 207.727 125.025 207.595 124.652C207.468 124.279 207.278 123.984 207.025 123.768C206.773 123.551 206.459 123.443 206.083 123.443C205.703 123.443 205.383 123.551 205.124 123.768C204.868 123.984 204.675 124.279 204.543 124.652C204.415 125.025 204.351 125.449 204.351 125.925C204.351 126.401 204.415 126.825 204.543 127.198C204.675 127.571 204.868 127.866 205.124 128.082C205.383 128.295 205.703 128.402 206.083 128.402ZM211.617 130V119.091H213.886V123.192H213.956C214.055 122.972 214.199 122.749 214.387 122.521C214.579 122.29 214.827 122.099 215.133 121.946C215.442 121.79 215.825 121.712 216.283 121.712C216.88 121.712 217.43 121.868 217.935 122.18C218.439 122.489 218.842 122.956 219.144 123.581C219.446 124.203 219.597 124.982 219.597 125.92C219.597 126.832 219.449 127.603 219.154 128.232C218.863 128.857 218.465 129.331 217.961 129.654C217.46 129.973 216.899 130.133 216.278 130.133C215.838 130.133 215.463 130.06 215.154 129.915C214.849 129.769 214.598 129.586 214.403 129.366C214.208 129.142 214.059 128.917 213.956 128.69H213.854V130H211.617ZM213.838 125.909C213.838 126.396 213.906 126.82 214.041 127.182C214.176 127.544 214.371 127.827 214.627 128.029C214.882 128.228 215.193 128.327 215.559 128.327C215.928 128.327 216.241 128.226 216.496 128.024C216.752 127.818 216.946 127.534 217.077 127.172C217.212 126.806 217.279 126.385 217.279 125.909C217.279 125.437 217.214 125.021 217.082 124.663C216.951 124.304 216.757 124.023 216.502 123.821C216.246 123.619 215.932 123.517 215.559 123.517C215.19 123.517 214.877 123.615 214.621 123.81C214.369 124.006 214.176 124.283 214.041 124.641C213.906 125 213.838 125.423 213.838 125.909ZM223.444 130.154C222.922 130.154 222.456 130.064 222.048 129.883C221.64 129.698 221.317 129.426 221.079 129.068C220.844 128.706 220.727 128.255 220.727 127.715C220.727 127.26 220.811 126.879 220.977 126.57C221.144 126.261 221.372 126.012 221.659 125.824C221.947 125.636 222.274 125.494 222.639 125.398C223.009 125.302 223.396 125.234 223.801 125.195C224.276 125.146 224.66 125.099 224.951 125.057C225.242 125.011 225.454 124.943 225.585 124.854C225.716 124.766 225.782 124.634 225.782 124.46V124.428C225.782 124.091 225.676 123.83 225.463 123.645C225.253 123.461 224.955 123.368 224.568 123.368C224.159 123.368 223.834 123.459 223.593 123.64C223.351 123.817 223.192 124.041 223.113 124.311L221.015 124.141C221.121 123.643 221.331 123.214 221.643 122.852C221.956 122.486 222.359 122.205 222.852 122.01C223.35 121.811 223.925 121.712 224.578 121.712C225.033 121.712 225.468 121.765 225.883 121.871C226.302 121.978 226.673 122.143 226.997 122.367C227.323 122.591 227.581 122.878 227.769 123.23C227.957 123.578 228.051 123.995 228.051 124.482V130H225.899V128.865H225.835C225.704 129.121 225.528 129.347 225.308 129.542C225.088 129.734 224.823 129.885 224.514 129.995C224.205 130.101 223.849 130.154 223.444 130.154ZM224.094 128.588C224.427 128.588 224.722 128.523 224.978 128.391C225.233 128.256 225.434 128.075 225.58 127.848C225.725 127.621 225.798 127.363 225.798 127.076V126.207C225.727 126.254 225.629 126.296 225.505 126.335C225.384 126.371 225.248 126.404 225.095 126.436C224.942 126.465 224.79 126.491 224.637 126.516C224.484 126.538 224.346 126.557 224.221 126.575C223.955 126.614 223.722 126.676 223.524 126.761C223.325 126.847 223.17 126.962 223.06 127.108C222.95 127.25 222.895 127.427 222.895 127.64C222.895 127.949 223.007 128.185 223.231 128.349C223.458 128.509 223.746 128.588 224.094 128.588ZM229.812 130V121.818H232.012V123.246H232.097C232.246 122.738 232.496 122.354 232.848 122.095C233.2 121.832 233.604 121.701 234.062 121.701C234.176 121.701 234.299 121.708 234.43 121.722C234.561 121.737 234.677 121.756 234.776 121.781V123.794C234.67 123.762 234.522 123.734 234.334 123.709C234.146 123.684 233.974 123.672 233.817 123.672C233.484 123.672 233.185 123.745 232.923 123.89C232.663 124.032 232.457 124.231 232.305 124.487C232.156 124.743 232.081 125.037 232.081 125.371V130H229.812Z" fill="black"/>
    <path d="M0.948153 126V115.091H5.25213C6.07599 115.091 6.77912 115.238 7.36151 115.533C7.94744 115.824 8.39311 116.238 8.69851 116.774C9.00746 117.307 9.16193 117.934 9.16193 118.654C9.16193 119.379 9.00568 120.002 8.69318 120.524C8.38068 121.043 7.92791 121.44 7.33487 121.717C6.74538 121.994 6.03161 122.133 5.19354 122.133H2.31179V120.279H4.82067C5.26101 120.279 5.62678 120.219 5.91797 120.098C6.20916 119.977 6.42578 119.796 6.56783 119.555C6.71342 119.313 6.78622 119.013 6.78622 118.654C6.78622 118.292 6.71342 117.987 6.56783 117.738C6.42578 117.49 6.20739 117.301 5.91264 117.174C5.62145 117.042 5.25391 116.977 4.81001 116.977H3.25462V126H0.948153ZM6.83949 121.036L9.55078 126H7.00462L4.35192 121.036H6.83949ZM14.3461 126.16C13.5045 126.16 12.7801 125.989 12.1729 125.648C11.5692 125.304 11.104 124.817 10.7773 124.189C10.4506 123.557 10.2872 122.809 10.2872 121.946C10.2872 121.105 10.4506 120.366 10.7773 119.73C11.104 119.095 11.5638 118.599 12.1569 118.244C12.7535 117.889 13.453 117.712 14.2556 117.712C14.7954 117.712 15.2979 117.799 15.7631 117.973C16.2318 118.143 16.6402 118.401 16.9882 118.745C17.3398 119.089 17.6132 119.523 17.8085 120.045C18.0038 120.563 18.1015 121.17 18.1015 121.866V122.49H11.1927V121.083H15.9655C15.9655 120.757 15.8944 120.467 15.7524 120.215C15.6104 119.963 15.4133 119.766 15.1611 119.624C14.9126 119.478 14.6231 119.406 14.2929 119.406C13.9484 119.406 13.643 119.485 13.3767 119.645C13.1139 119.801 12.9079 120.013 12.7588 120.279C12.6096 120.542 12.5333 120.835 12.5297 121.158V122.495C12.5297 122.9 12.6043 123.25 12.7535 123.544C12.9062 123.839 13.121 124.066 13.398 124.226C13.675 124.386 14.0035 124.466 14.3834 124.466C14.6356 124.466 14.8664 124.43 15.0759 124.359C15.2854 124.288 15.4648 124.182 15.6139 124.04C15.7631 123.898 15.8767 123.724 15.9548 123.518L18.0535 123.656C17.947 124.161 17.7286 124.601 17.3983 124.977C17.0716 125.35 16.6491 125.641 16.1306 125.851C15.6157 126.057 15.0209 126.16 14.3461 126.16ZM23.9822 117.818V119.523H18.9324V117.818H23.9822ZM20.0883 126V117.227C20.0883 116.634 20.2037 116.142 20.4346 115.751C20.6689 115.361 20.9885 115.068 21.3934 114.873C21.7982 114.677 22.2581 114.58 22.773 114.58C23.121 114.58 23.4388 114.606 23.7265 114.659C24.0177 114.713 24.2343 114.761 24.3763 114.803L23.9715 116.508C23.8827 116.479 23.7726 116.453 23.6412 116.428C23.5134 116.403 23.382 116.391 23.2471 116.391C22.9133 116.391 22.6807 116.469 22.5493 116.625C22.4179 116.778 22.3522 116.993 22.3522 117.27V126H20.0883ZM27.4086 126.154C26.8865 126.154 26.4213 126.064 26.013 125.883C25.6046 125.698 25.2814 125.426 25.0435 125.068C24.8091 124.706 24.6919 124.255 24.6919 123.715C24.6919 123.26 24.7754 122.879 24.9423 122.57C25.1092 122.261 25.3365 122.012 25.6241 121.824C25.9118 121.636 26.2385 121.494 26.6042 121.398C26.9735 121.302 27.3606 121.234 27.7654 121.195C28.2413 121.146 28.6248 121.099 28.916 121.057C29.2072 121.011 29.4185 120.943 29.5499 120.854C29.6813 120.766 29.747 120.634 29.747 120.46V120.428C29.747 120.091 29.6404 119.83 29.4274 119.645C29.2179 119.461 28.9196 119.368 28.5325 119.368C28.1241 119.368 27.7992 119.459 27.5577 119.64C27.3162 119.817 27.1564 120.041 27.0783 120.311L24.9796 120.141C25.0861 119.643 25.2956 119.214 25.6081 118.852C25.9206 118.486 26.3237 118.205 26.8173 118.01C27.3145 117.811 27.8897 117.712 28.5431 117.712C28.9977 117.712 29.4327 117.765 29.8482 117.871C30.2672 117.978 30.6383 118.143 30.9615 118.367C31.2882 118.591 31.5456 118.878 31.7338 119.23C31.9221 119.578 32.0162 119.995 32.0162 120.482V126H29.8642V124.865H29.8002C29.6689 125.121 29.4931 125.347 29.2729 125.542C29.0527 125.734 28.7882 125.885 28.4792 125.995C28.1703 126.101 27.8134 126.154 27.4086 126.154ZM28.0584 124.588C28.3922 124.588 28.687 124.523 28.9426 124.391C29.1983 124.256 29.399 124.075 29.5446 123.848C29.6902 123.621 29.763 123.363 29.763 123.076V122.207C29.6919 122.254 29.5943 122.296 29.47 122.335C29.3493 122.371 29.2125 122.404 29.0598 122.436C28.9071 122.465 28.7544 122.491 28.6017 122.516C28.449 122.538 28.3105 122.557 28.1863 122.575C27.9199 122.614 27.6873 122.676 27.4885 122.761C27.2896 122.847 27.1351 122.962 27.025 123.108C26.915 123.25 26.8599 123.427 26.8599 123.64C26.8599 123.949 26.9718 124.185 27.1955 124.349C27.4228 124.509 27.7104 124.588 28.0584 124.588ZM37.4734 126.16C36.6353 126.16 35.9144 125.982 35.3107 125.627C34.7106 125.268 34.2489 124.771 33.9258 124.136C33.6062 123.5 33.4464 122.768 33.4464 121.941C33.4464 121.103 33.608 120.368 33.9311 119.736C34.2578 119.1 34.7212 118.605 35.3214 118.25C35.9215 117.891 36.6353 117.712 37.4627 117.712C38.1765 117.712 38.8015 117.841 39.3377 118.1C39.8739 118.36 40.2983 118.724 40.6108 119.192C40.9233 119.661 41.0955 120.212 41.1275 120.844H38.9862C38.9258 120.435 38.766 120.107 38.5067 119.858C38.2511 119.606 37.9155 119.48 37.5 119.48C37.1484 119.48 36.8413 119.576 36.5785 119.768C36.3192 119.956 36.1168 120.231 35.9712 120.593C35.8256 120.956 35.7528 121.394 35.7528 121.909C35.7528 122.431 35.8239 122.875 35.9659 123.241C36.1115 123.607 36.3157 123.885 36.5785 124.077C36.8413 124.269 37.1484 124.365 37.5 124.365C37.7592 124.365 37.9918 124.311 38.1978 124.205C38.4073 124.098 38.5795 123.944 38.7145 123.741C38.853 123.536 38.9435 123.289 38.9862 123.001H41.1275C41.092 123.626 40.9215 124.176 40.6161 124.652C40.3143 125.125 39.897 125.494 39.3643 125.76C38.8317 126.027 38.2013 126.16 37.4734 126.16ZM46.9323 117.818V119.523H42.0051V117.818H46.9323ZM43.1237 115.858H45.3928V123.486C45.3928 123.695 45.4248 123.859 45.4887 123.976C45.5526 124.089 45.6414 124.169 45.7551 124.216C45.8722 124.262 46.0072 124.285 46.1599 124.285C46.2664 124.285 46.373 124.276 46.4795 124.258C46.586 124.237 46.6677 124.221 46.7245 124.21L47.0814 125.899C46.9678 125.934 46.808 125.975 46.602 126.021C46.396 126.071 46.1457 126.101 45.8509 126.112C45.3041 126.133 44.8247 126.06 44.4127 125.893C44.0044 125.727 43.6865 125.467 43.4593 125.116C43.232 124.764 43.1201 124.32 43.1237 123.784V115.858ZM52.0193 126.16C51.1919 126.16 50.4763 125.984 49.8726 125.632C49.2725 125.277 48.809 124.784 48.4823 124.152C48.1556 123.516 47.9923 122.779 47.9923 121.941C47.9923 121.096 48.1556 120.357 48.4823 119.725C48.809 119.089 49.2725 118.596 49.8726 118.244C50.4763 117.889 51.1919 117.712 52.0193 117.712C52.8467 117.712 53.5605 117.889 54.1606 118.244C54.7643 118.596 55.2295 119.089 55.5562 119.725C55.8829 120.357 56.0463 121.096 56.0463 121.941C56.0463 122.779 55.8829 123.516 55.5562 124.152C55.2295 124.784 54.7643 125.277 54.1606 125.632C53.5605 125.984 52.8467 126.16 52.0193 126.16ZM52.0299 124.402C52.4063 124.402 52.7206 124.295 52.9727 124.082C53.2249 123.866 53.4149 123.571 53.5427 123.198C53.6741 122.825 53.7398 122.401 53.7398 121.925C53.7398 121.449 53.6741 121.025 53.5427 120.652C53.4149 120.279 53.2249 119.984 52.9727 119.768C52.7206 119.551 52.4063 119.443 52.0299 119.443C51.6499 119.443 51.3303 119.551 51.0711 119.768C50.8154 119.984 50.6219 120.279 50.4905 120.652C50.3627 121.025 50.2987 121.449 50.2987 121.925C50.2987 122.401 50.3627 122.825 50.4905 123.198C50.6219 123.571 50.8154 123.866 51.0711 124.082C51.3303 124.295 51.6499 124.402 52.0299 124.402ZM57.5218 126V117.818H59.7217V119.246H59.8069C59.9561 118.738 60.2064 118.354 60.558 118.095C60.9095 117.832 61.3144 117.701 61.7725 117.701C61.8861 117.701 62.0086 117.708 62.14 117.722C62.2714 117.737 62.3868 117.756 62.4862 117.781V119.794C62.3797 119.762 62.2323 119.734 62.0441 119.709C61.8559 119.684 61.6837 119.672 61.5274 119.672C61.1936 119.672 60.8953 119.745 60.6325 119.89C60.3733 120.032 60.1673 120.231 60.0146 120.487C59.8655 120.743 59.7909 121.037 59.7909 121.371V126H57.5218ZM63.6594 126V117.818H65.9286V126H63.6594ZM64.7994 116.763C64.462 116.763 64.1726 116.652 63.9311 116.428C63.6932 116.201 63.5742 115.929 63.5742 115.613C63.5742 115.3 63.6932 115.032 63.9311 114.809C64.1726 114.581 64.462 114.468 64.7994 114.468C65.1367 114.468 65.4244 114.581 65.6623 114.809C65.9038 115.032 66.0245 115.3 66.0245 115.613C66.0245 115.929 65.9038 116.201 65.6623 116.428C65.4244 116.652 65.1367 116.763 64.7994 116.763ZM67.7037 126V124.647L71.7094 119.688V119.629H67.8422V117.818H74.442V119.294L70.6814 124.13V124.189H74.5805V126H67.7037ZM78.6488 126.154C78.1268 126.154 77.6616 126.064 77.2532 125.883C76.8448 125.698 76.5217 125.426 76.2837 125.068C76.0494 124.706 75.9322 124.255 75.9322 123.715C75.9322 123.26 76.0156 122.879 76.1825 122.57C76.3494 122.261 76.5767 122.012 76.8643 121.824C77.152 121.636 77.4787 121.494 77.8445 121.398C78.2138 121.302 78.6009 121.234 79.0057 121.195C79.4815 121.146 79.8651 121.099 80.1562 121.057C80.4474 121.011 80.6587 120.943 80.7901 120.854C80.9215 120.766 80.9872 120.634 80.9872 120.46V120.428C80.9872 120.091 80.8807 119.83 80.6676 119.645C80.4581 119.461 80.1598 119.368 79.7727 119.368C79.3643 119.368 79.0394 119.459 78.7979 119.64C78.5565 119.817 78.3967 120.041 78.3185 120.311L76.2198 120.141C76.3263 119.643 76.5359 119.214 76.8484 118.852C77.1609 118.486 77.5639 118.205 78.0575 118.01C78.5547 117.811 79.13 117.712 79.7834 117.712C80.2379 117.712 80.6729 117.765 81.0884 117.871C81.5075 117.978 81.8786 118.143 82.2017 118.367C82.5284 118.591 82.7859 118.878 82.9741 119.23C83.1623 119.578 83.2564 119.995 83.2564 120.482V126H81.1044V124.865H81.0405C80.9091 125.121 80.7333 125.347 80.5131 125.542C80.293 125.734 80.0284 125.885 79.7195 125.995C79.4105 126.101 79.0536 126.154 78.6488 126.154ZM79.2987 124.588C79.6325 124.588 79.9272 124.523 80.1829 124.391C80.4386 124.256 80.6392 124.075 80.7848 123.848C80.9304 123.621 81.0032 123.363 81.0032 123.076V122.207C80.9322 122.254 80.8345 122.296 80.7102 122.335C80.5895 122.371 80.4528 122.404 80.3001 122.436C80.1474 122.465 79.9947 122.491 79.842 122.516C79.6893 122.538 79.5508 122.557 79.4265 122.575C79.1602 122.614 78.9276 122.676 78.7287 122.761C78.5298 122.847 78.3754 122.962 78.2653 123.108C78.1552 123.25 78.1001 123.427 78.1001 123.64C78.1001 123.949 78.212 124.185 78.4357 124.349C78.663 124.509 78.9506 124.588 79.2987 124.588ZM85.0169 126V117.818H87.2168V119.246H87.302C87.4512 118.738 87.7015 118.354 88.0531 118.095C88.4047 117.832 88.8095 117.701 89.2676 117.701C89.3812 117.701 89.5037 117.708 89.6351 117.722C89.7665 117.737 89.8819 117.756 89.9814 117.781V119.794C89.8748 119.762 89.7275 119.734 89.5392 119.709C89.351 119.684 89.1788 119.672 89.0225 119.672C88.6887 119.672 88.3904 119.745 88.1277 119.89C87.8684 120.032 87.6625 120.231 87.5098 120.487C87.3606 120.743 87.286 121.037 87.286 121.371V126H85.0169Z" fill="white"/>
    <path d="M124.739 149.707L124.351 150.629L124.749 150.796L125.143 150.622L124.739 149.707ZM94.6224 136.267C94.111 136.476 93.8654 137.059 94.0739 137.571L97.4714 145.905C97.6799 146.416 98.2635 146.662 98.7749 146.453C99.2863 146.245 99.5319 145.661 99.3234 145.15L96.3034 137.742L103.712 134.722C104.223 134.513 104.469 133.93 104.26 133.418C104.052 132.907 103.468 132.661 102.957 132.87L94.6224 136.267ZM155.396 135.085L124.335 148.793L125.143 150.622L156.203 136.915L155.396 135.085ZM125.127 148.786L95.3878 136.271L94.6121 138.115L124.351 150.629L125.127 148.786Z" fill="#01FB01"/>
    <path d="M196.686 53.3291L197.685 53.3023L197.673 52.8249L197.293 52.5348L196.686 53.3291ZM196.614 76.9592C197.015 77.3391 197.648 77.3221 198.028 76.9212L204.218 70.3885C204.598 69.9876 204.581 69.3547 204.18 68.9748C203.779 68.5949 203.146 68.6119 202.766 69.0128L197.264 74.8197L191.457 69.3169C191.056 68.937 190.423 68.954 190.043 69.3549C189.663 69.7558 189.68 70.3887 190.081 70.7686L196.614 76.9592ZM176.962 39.5018L196.078 54.1234L197.293 52.5348L178.177 37.9132L176.962 39.5018ZM195.686 53.356L196.302 76.2602L198.301 76.2065L197.685 53.3023L195.686 53.356Z" fill="#FF0000"/>
    <path d="M53.9958 45.9693L53.4854 45.1094L53.0402 45.3737L52.999 45.8898L53.9958 45.9693ZM75.5537 33.9954C75.6902 33.4603 75.367 32.9158 74.8318 32.7793L66.111 30.5551C65.5759 30.4186 65.0314 30.7418 64.8949 31.277C64.7584 31.8121 65.0816 32.3566 65.6167 32.4931L73.3686 34.4701L71.3916 42.222C71.2551 42.7571 71.5783 43.3016 72.1134 43.4381C72.6486 43.5746 73.193 43.2514 73.3295 42.7163L75.5537 33.9954ZM52.9969 71.0795L54.9927 46.0488L52.999 45.8898L51.0032 70.9206L52.9969 71.0795ZM54.5063 46.8292L75.0951 34.6082L74.0743 32.8884L53.4854 45.1094L54.5063 46.8292Z" fill="#6F26F4"/>
</svg>